<svg xmlns="http://www.w3.org/2000/svg" xmlns:xlink="http://www.w3.org/1999/xlink" width="30" height="30" viewBox="0 0 30 30">
  <defs>
    <clipPath id="clip-path">
      <rect id="Rectangle_5709" data-name="Rectangle 5709" width="30" height="30" fill="#313131" stroke="#707070" stroke-width="1"/>
    </clipPath>
  </defs>
  <g id="offer_black" data-name="offer black" clip-path="url(#clip-path)">
    <path id="Discount" d="M4.919,18.612a2.29,2.29,0,0,1,0-3.225L6,14.306a4.456,4.456,0,0,0,1.32-3.181V9.579A2.273,2.273,0,0,1,9.584,7.313h1.545a4.459,4.459,0,0,0,3.18-1.32l1.08-1.08a2.294,2.294,0,0,1,3.2-.028l.03.028h0a1.125,1.125,0,0,0,1.575-1.606,1.589,1.589,0,0,0-.18-.15,4.514,4.514,0,0,0-6.21.167L12.719,4.4a2.241,2.241,0,0,1-1.59.66H9.584A4.52,4.52,0,0,0,5.069,9.579v1.545a2.249,2.249,0,0,1-.66,1.591l-1.095,1.1A4.526,4.526,0,0,0,3.329,20.2a1.117,1.117,0,0,0,.795.329,1.155,1.155,0,0,0,.8-.329A1.134,1.134,0,0,0,4.919,18.612Zm24.673-5.892L30.669,13.8a4.518,4.518,0,0,1,.016,6.388l-1.095,1.1a2.289,2.289,0,0,0-.659,1.6v1.541a4.523,4.523,0,0,1-4.516,4.518,1.125,1.125,0,0,1,0-2.251,2.269,2.269,0,0,0,2.266-2.267V22.875A4.486,4.486,0,0,1,28,19.691l1.08-1.082a2.266,2.266,0,0,0,0-3.219L28,14.309a4.5,4.5,0,0,1-1.317-3.186V9.579a2.268,2.268,0,0,0-2.266-2.267,1.125,1.125,0,0,1,0-2.251,4.522,4.522,0,0,1,4.516,4.518v1.542A2.264,2.264,0,0,0,29.592,12.719ZM17,29.752a2.14,2.14,0,0,0,1.608-.669A1.126,1.126,0,1,1,20.2,30.672a4.524,4.524,0,0,1-6.387.016l-1.1-1.1a2.263,2.263,0,0,0-1.6-.659H9.583a4.522,4.522,0,0,1-4.516-4.516,1.125,1.125,0,1,1,2.25,0,2.267,2.267,0,0,0,2.266,2.266h1.542A4.5,4.5,0,0,1,14.308,28l1.081,1.083A2.26,2.26,0,0,0,17,29.752Zm-4.65-9.694a1.126,1.126,0,0,0,1.591,1.592l7.709-7.712a1.125,1.125,0,0,0-1.59-1.592Zm.782-8.2a1.3,1.3,0,1,1-1.3,1.3A1.3,1.3,0,0,1,13.131,11.863Zm7.724,7.693a1.3,1.3,0,1,1-1.3,1.3A1.3,1.3,0,0,1,20.854,19.556Z" transform="translate(-2 -2)" fill="#313131" fill-rule="evenodd"/>
  </g>
</svg>
