<svg id="cake" xmlns="http://www.w3.org/2000/svg" width="87.44" height="67.516" viewBox="0 0 87.44 67.516">
  <path id="Path_26066" data-name="Path 26066" d="M115.272,108.268a51.764,51.764,0,0,0-5.075,3.085,3.405,3.405,0,0,0-1.061,2.364c-.127,3.9-.039,7.816-.126,11.722a6.323,6.323,0,0,1-11.546,3.554,9.331,9.331,0,0,1-1.154-3.923c-.187-2.1-.06-4.235-.049-6.355.006-1.282-.135-2.518-1.874-2.5-1.622.015-1.995,1.089-1.992,2.451q.011,7.054-.052,14.108c-.031,4.072-2.485,6.771-6.16,6.819-3.8.049-6.495-2.833-6.509-6.981-.014-4.173-.039-8.346.012-12.518.021-1.676-.663-2.481-2.454-2.374a22.788,22.788,0,0,1-2.487,0c-5.112-.252-7.975-4.785-5.781-9.205,1.06-2.136,2.235-4.22,3.549-6.686h-2.49q-16.9,0-33.8,0c-3.355,0-4.345-1.241-3.422-4.377.948-3.224,3.217-5.512,6-7.366,6.273-4.186,13.452-6.088,20.854-7.222,14.3-2.189,28.5-1.826,42.475,2.085a36.773,36.773,0,0,1,12.4,5.8c3.588,2.7,5.59,6.054,5.375,10.6-.192,4.032-.029,8.079-.046,12.119-.008,2.085-.831,3.173-2.364,3.037-1.879-.167-2.264-1.434-2.226-2.99.039-1.639.009-3.28.009-5.24" transform="translate(-32.475 -81.52)" fill="#f8d40c"/>
  <path id="Path_26067" data-name="Path 26067" d="M65.563,168.539H50.8c-3.8,0-7.6.023-11.405-.009-4.1-.035-6.816-2.408-6.861-6.139-.073-6.019-.015-12.04-.028-18.06,0-1.511.483-2.736,2.365-2.723,1.945.014,2.239,1.339,2.236,2.8q-.02,8.555,0,17.109c.007,2.379.471,2.815,2.994,2.819q11.821.017,23.64,0c.537,0,1.073-.063,1.894-.114,0-1.646.017-3.21,0-4.773-.021-1.521.278-2.868,2.291-3.02,1.479-.111,2.316,1,2.312,2.981q-.017,8.744-.085,17.489c-.013,1.481.452,2.466,2.292,2.5,11.765.245,23.352-.6,34.251-5.1a22.858,22.858,0,0,0,6.025-3.607,10.038,10.038,0,0,0,2.5-4.192c.485-1.308,1.036-2.266,2.642-2.11,1.654.161,2.092,1.284,1.978,2.63-.246,2.891-1.865,5.135-4.138,7.008-4.325,3.563-9.592,5.447-15.08,6.859a100.914,100.914,0,0,1-27.706,2.745c-5.121-.122-7.35-2.325-7.352-7.047,0-2.591,0-5.181,0-8.051" transform="translate(-32.487 -116.162)" fill="#f8d40c"/>
  <path id="Path_26068" data-name="Path 26068" d="M234.808,179.186c.573.827,1.593,1.658,1.583,2.478a2.9,2.9,0,0,1-1.853,2.035,1.76,1.76,0,0,1-2.18-1.937c.092-.9,1.014-1.706,1.566-2.554" transform="translate(-149.117 -140.366)" fill="#f8d40c"/>
</svg>
