<svg xmlns="http://www.w3.org/2000/svg" width="15.902" height="15.902" viewBox="0 0 15.902 15.902">
  <g id="Iconly_Broken_Search" data-name="Iconly/Broken/Search" transform="translate(-2 -2)">
    <g id="Search" transform="translate(2 2)">
      <path id="Path_28640" data-name="Path 28640" d="M15.708,14.794l-2.733-2.672h0l-.064-.1a.644.644,0,0,0-.9,0h0a6.45,6.45,0,0,1-8.363.271A6.106,6.106,0,0,1,2.286,4.222,6.421,6.421,0,0,1,10.3,1.862a6.155,6.155,0,0,1,3.43,7.462.619.619,0,0,0,.144.613.653.653,0,0,0,.616.184.638.638,0,0,0,.471-.429h0A7.422,7.422,0,0,0,10.985.748a7.755,7.755,0,0,0-9.642,2.5,7.359,7.359,0,0,0,1.081,9.7,7.783,7.783,0,0,0,9.967.41l2.42,2.366a.651.651,0,0,0,.9,0,.623.623,0,0,0,0-.891h0Z" transform="translate(0 0)" fill="#313131"/>
    </g>
  </g>
</svg>
