<svg width="11" height="22" viewBox="0 0 11 22" fill="none" xmlns="http://www.w3.org/2000/svg">
<path d="M9.65457 7.66907L2.61583 0.456915C2.32851 0.164264 1.93985 0 1.53472 0C1.12959 0 0.740924 0.164264 0.453605 0.456915C0.309873 0.602986 0.19579 0.776771 0.117937 0.968245C0.0400832 1.15972 0 1.36509 0 1.57252C0 1.77995 0.0400832 1.98532 0.117937 2.1768C0.19579 2.36827 0.309873 2.54206 0.453605 2.68813L7.50768 9.88457C7.65141 10.0306 7.76549 10.2044 7.84335 10.3959C7.9212 10.5874 7.96128 10.7928 7.96128 11.0002C7.96128 11.2076 7.9212 11.413 7.84335 11.6045C7.76549 11.7959 7.65141 11.9697 7.50768 12.1158L0.453605 19.3122C0.164842 19.606 0.00180939 20.0053 0.000371463 20.4223C-0.00106647 20.8392 0.15921 21.2397 0.445939 21.5356C0.732668 21.8315 1.12236 21.9985 1.5293 22C1.93623 22.0015 2.32707 21.8372 2.61583 21.5434L9.65457 14.3313C10.5161 13.4474 11 12.2493 11 11.0002C11 9.75101 10.5161 8.55292 9.65457 7.66907Z" fill="#F9FDFD"/>
</svg>
