<svg width="75" height="75" viewBox="0 0 75 75" fill="none" xmlns="http://www.w3.org/2000/svg">
<rect width="75" height="75" rx="37.5" fill="#F9FDFD"/>
<path d="M47.125 23H27.875C26.0523 23.0022 24.3049 23.7212 23.0161 24.9994C21.7272 26.2776 21.0022 28.0106 21 29.8182V46.1818C21.0022 47.9894 21.7272 49.7224 23.0161 51.0006C24.3049 52.2788 26.0523 52.9978 27.875 53H47.125C48.9477 52.9978 50.6951 52.2788 51.9839 51.0006C53.2728 49.7224 53.9978 47.9894 54 46.1818V29.8182C53.9978 28.0106 53.2728 26.2776 51.9839 24.9994C50.6951 23.7212 48.9477 23.0022 47.125 23ZM27.875 25.7273H47.125C47.9483 25.7289 48.7523 25.9748 49.4336 26.4334C50.1148 26.8919 50.642 27.5422 50.9475 28.3005L40.4177 38.7445C39.6428 39.51 38.5937 39.9397 37.5 39.9397C36.4063 39.9397 35.3572 39.51 34.5823 38.7445L24.0525 28.3005C24.358 27.5422 24.8852 26.8919 25.5664 26.4334C26.2477 25.9748 27.0517 25.7289 27.875 25.7273ZM47.125 50.2727H27.875C26.781 50.2727 25.7318 49.8417 24.9582 49.0745C24.1846 48.3073 23.75 47.2668 23.75 46.1818V31.8636L32.638 40.6727C33.9286 41.9494 35.6771 42.6664 37.5 42.6664C39.3229 42.6664 41.0714 41.9494 42.362 40.6727L51.25 31.8636V46.1818C51.25 47.2668 50.8154 48.3073 50.0418 49.0745C49.2682 49.8417 48.219 50.2727 47.125 50.2727Z" fill="#004A63"/>
</svg>
