<svg width="254" height="60" viewBox="0 0 254 60" fill="none" xmlns="http://www.w3.org/2000/svg">
<path d="M99.2619 42.1094C99.2254 43.5231 99.5358 44.3043 100.193 44.4531C100.449 44.5275 100.777 44.5648 101.179 44.5648V33.5714H99.3715C98.0204 38.7426 95.6285 41.8118 92.196 42.779C91.2466 43.0395 90.1876 43.1697 89.0191 43.1697C84.3815 43.1697 81.4784 40.4911 80.3099 35.134C79.8717 33.0134 79.6526 30.3906 79.6526 27.2656C79.6891 17.0722 82.9574 11.9569 89.4573 11.9197C92.8898 11.9197 95.4277 13.352 97.0709 16.2165C97.8378 17.593 98.5133 19.3601 99.0976 21.5179H101.015L100.85 10.5246C99.9009 10.5246 99.3349 10.8222 99.1524 11.4174C99.0793 11.7895 99.0611 12.2731 99.0976 12.8683C95.9207 11.1198 92.4151 10.2456 88.5809 10.2456C82.4461 10.2456 77.7538 12.4219 74.5038 16.7746C72.2033 19.8996 71.053 23.4896 71.053 27.5447C71.053 32.3438 72.5685 36.3802 75.5993 39.654C78.8493 43.1139 83.1217 44.8438 88.4165 44.8438C92.1777 44.8438 95.7929 43.9323 99.2619 42.1094Z" fill="#121826"/>
<path d="M114.927 42.8348H113.558V29.442C113.558 26.1682 114.544 23.9918 116.516 22.913C117.137 22.5781 117.739 22.4107 118.323 22.4107C120.551 22.4107 121.793 23.8058 122.048 26.596C122.085 26.8936 122.103 27.2284 122.103 27.6005V39.9331C122.103 41.4212 121.884 42.2954 121.446 42.5558C121.08 42.7418 120.587 42.8348 119.967 42.8348V44.2857H132.236C132.236 43.4301 131.999 42.9651 131.524 42.8906C131.305 42.8534 131.086 42.8348 130.867 42.8348H129.059V28.5491C129.059 23.8988 127.434 21.0156 124.184 19.8996C123.381 19.602 122.505 19.4531 121.555 19.4531C118.597 19.4531 116.242 20.6064 114.489 22.913C114.124 23.4338 113.814 23.9546 113.558 24.4755V8.01341H103.37V9.46431H106.602V39.9331C106.602 41.6816 105.78 42.6302 104.137 42.779C103.881 42.8162 103.626 42.8348 103.37 42.8348V44.2857H116.242C116.242 43.4301 116.005 42.9651 115.53 42.8906C115.347 42.8534 115.147 42.8348 114.927 42.8348Z" fill="#121826"/>
<path d="M146.971 20.904C149.308 20.9784 150.494 23.006 150.531 26.9866C150.531 28.7351 150.02 29.814 148.997 30.2232C148.267 30.4837 147.171 30.5767 145.711 30.5023L142.205 30.3348C142.461 24.1592 144.049 21.0156 146.971 20.904ZM157.213 38.538L155.899 38.0915C154.876 40.3609 153.27 41.9048 151.079 42.7232C150.202 43.0581 149.308 43.2255 148.395 43.2255C145.473 43.2255 143.593 41.3281 142.753 37.5335C142.424 35.971 142.242 34.1109 142.205 31.9531L147.244 32.1206C153.124 32.3066 156.538 31.3579 157.487 29.2746C157.706 28.7537 157.816 28.1771 157.816 27.5447C157.816 24.3825 156.227 22.0759 153.051 20.625C151.261 19.8438 149.235 19.4531 146.971 19.4531C142.844 19.4531 139.631 20.8854 137.33 23.75C135.577 25.9822 134.701 28.7537 134.701 32.0648C134.701 37.4591 136.691 41.2165 140.671 43.3371C142.57 44.3415 144.725 44.8438 147.135 44.8438C151.407 44.8438 154.475 43.3185 156.337 40.2679C156.702 39.7098 156.994 39.1332 157.213 38.538Z" fill="#121826"/>
<path d="M175.508 42.8348H171.619V21.7969H177.809V20.2902H171.619V20.0112C171.619 14.3936 172.039 11.0454 172.879 9.96654C173.317 9.44571 173.883 9.18529 174.577 9.18529C175.49 9.18529 176.238 9.89214 176.823 11.3058C177.553 13.0171 178.028 14.0216 178.247 14.3192C178.868 15.0261 179.598 15.3981 180.438 15.4353C181.935 15.4353 182.921 14.8401 183.396 13.6496C183.505 13.352 183.56 13.0357 183.56 12.7009C183.56 11.064 182.611 9.76193 180.712 8.79466C179.324 8.08782 177.644 7.7344 175.672 7.7344C171.4 7.7344 168.314 9.2969 166.415 12.4219C165.247 14.3564 164.663 16.7374 164.663 19.5648V20.2902H160.226V21.7969H164.663V39.9331C164.59 41.8676 163.202 42.8348 160.5 42.8348V44.2857H176.823C176.823 43.4301 176.585 42.9651 176.111 42.8906C175.928 42.8534 175.727 42.8348 175.508 42.8348Z" fill="#121826"/>
<path d="M191.995 20.904C194.332 20.9784 195.519 23.006 195.556 26.9866C195.556 28.7351 195.044 29.814 194.022 30.2232C193.292 30.4837 192.196 30.5767 190.735 30.5023L187.23 30.3348C187.485 24.1592 189.074 21.0156 191.995 20.904ZM202.238 38.538L200.923 38.0915C199.901 40.3609 198.294 41.9048 196.103 42.7232C195.227 43.0581 194.332 43.2255 193.419 43.2255C190.498 43.2255 188.617 41.3281 187.778 37.5335C187.449 35.971 187.266 34.1109 187.23 31.9531L192.269 32.1206C198.148 32.3066 201.563 31.3579 202.512 29.2746C202.731 28.7537 202.841 28.1771 202.841 27.5447C202.841 24.3825 201.252 22.0759 198.075 20.625C196.286 19.8438 194.259 19.4531 191.995 19.4531C187.869 19.4531 184.655 20.8854 182.355 23.75C180.602 25.9822 179.726 28.7537 179.726 32.0648C179.726 37.4591 181.716 41.2165 185.696 43.3371C187.595 44.3415 189.749 44.8438 192.16 44.8438C196.432 44.8438 199.499 43.3185 201.362 40.2679C201.727 39.7098 202.019 39.1332 202.238 38.538Z" fill="#121826"/>
<path d="M219.437 42.8348H215.384V30.7813C215.64 26.875 216.571 24.4941 218.177 23.6384C218.433 23.5268 218.67 23.471 218.89 23.471C219.291 23.471 219.729 23.8988 220.204 24.7545C220.861 25.945 221.573 26.689 222.34 26.9866C222.705 27.0982 223.107 27.154 223.545 27.154C225.006 27.154 226.047 26.4472 226.667 25.0335C226.887 24.5499 226.996 24.0476 226.996 23.5268C226.996 21.6667 226.101 20.4948 224.312 20.0112C223.874 19.8996 223.418 19.8438 222.943 19.8438C220.679 19.8438 218.689 20.7552 216.972 22.5781C216.206 23.471 215.621 24.4383 215.22 25.4799L214.836 20.2902H205.251V21.7411H208.428V39.9331C208.428 41.57 207.789 42.5 206.51 42.7232C206.145 42.7976 205.725 42.8348 205.251 42.8348V44.2857H220.752C220.752 43.4301 220.514 42.9651 220.04 42.8906C219.857 42.8534 219.656 42.8348 219.437 42.8348Z" fill="#121826"/>
<path d="M248.523 44.8438C251.188 44.8438 252.85 43.8579 253.507 41.8862C253.726 41.1421 253.89 40.1935 254 39.0402L252.576 38.9844C252.357 41.5514 251.718 42.8534 250.659 42.8906C249.855 42.8162 249.454 41.8862 249.454 40.1005V28.4375C249.454 23.7872 247.336 20.9226 243.1 19.8438C242.004 19.5834 240.818 19.4531 239.54 19.4531C234.573 19.4531 231.451 20.5506 230.173 22.7456C229.844 23.3036 229.68 23.8988 229.68 24.5313C229.68 25.9822 230.356 26.8936 231.707 27.2656C232.035 27.3773 232.382 27.4331 232.747 27.4331C234.318 27.4331 235.377 26.6518 235.924 25.0893C235.997 24.8661 236.107 24.4941 236.253 23.9732C236.655 22.4851 237.166 21.5551 237.787 21.1831C238.188 20.997 238.645 20.904 239.156 20.904C240.872 20.904 241.913 21.9643 242.278 24.0848C242.424 24.8661 242.497 25.7962 242.497 26.875V30.5023C233.113 30.6883 228.402 33.218 228.366 38.0915C228.366 41.4026 229.79 43.5231 232.638 44.4531C233.478 44.7136 234.409 44.8438 235.431 44.8438C238.535 44.8438 240.818 43.6533 242.278 41.2723C242.57 40.7887 242.808 40.2865 242.99 39.7656C243.757 42.9651 245.601 44.6578 248.523 44.8438ZM238.28 42.4442C236.454 42.3698 235.523 40.7143 235.486 37.4777C235.486 35.0223 236.472 33.4226 238.444 32.6786C239.503 32.3438 240.854 32.1392 242.497 32.0648V37.4777C241.804 40.0819 240.69 41.6816 239.156 42.2768C238.827 42.3884 238.535 42.4442 238.28 42.4442Z" fill="#121826"/>
<path d="M0 29.9933C0.00744639 14.3758 11.8521 1.29616 27.1791 0.111441C39.415 -0.8344 48.7474 4.26186 55.4145 14.5868C57.3723 17.6188 57.1744 21.1565 55.1153 23.8567C53.1682 26.4102 49.8245 27.4604 46.695 26.4645C44.8663 25.8825 43.5149 24.6803 42.4485 23.0683C36.6503 14.3035 23.973 13.0097 16.5374 20.4064C16.2929 20.6495 16.0485 20.8962 15.8326 21.1648C15.2867 21.8446 14.9172 22.5981 15.5072 23.4121C16.0755 24.1963 16.8132 23.8791 17.5992 23.7058C20.2167 23.1286 22.845 22.5636 25.4969 22.2083C26.3959 22.088 27.4476 22.455 28.3027 22.8704C29.2697 23.34 29.2645 24.4101 28.3073 24.9028C27.4931 25.322 26.5399 25.4889 25.6312 25.6868C22.7544 26.3138 19.8462 26.8106 16.9983 27.5508C15.7655 27.8711 14.2077 28.4037 14.2488 30.0429C14.287 31.5761 15.7897 32.1184 16.986 32.4217C19.963 33.1765 22.9965 33.6989 26.0007 34.3458C26.7857 34.515 27.6086 34.6815 28.3037 35.0595C29.2463 35.572 29.2586 36.6071 28.3207 37.1191C27.6325 37.4948 26.7957 37.7313 26.0148 37.7629C23.1665 37.8772 20.3846 37.4525 17.7296 36.3442C16.9452 36.0169 16.135 35.7106 15.5237 36.5575C14.8512 37.4888 15.3568 38.2975 15.9971 38.9982C18.3977 41.6253 21.3437 43.193 24.8037 43.9407C31.6148 45.4124 39.0761 42.5759 42.6868 36.6345C44.8971 32.9976 49.5444 32.0745 53.0814 34.2743C56.6411 36.4884 57.9067 41.1432 55.6887 44.8889C50.8663 53.0339 43.9136 58.2409 34.5587 59.6151C24.9064 61.033 16.3371 58.5709 9.16984 51.6074C3.09975 45.71 0.0862754 38.5017 0 29.9933Z" fill="#5DB32A"/>
</svg>
