<svg xmlns="http://www.w3.org/2000/svg" width="34.444" height="31" viewBox="0 0 34.444 31">
  <g id="Iconly_Broken_Camera" data-name="Iconly/Broken/Camera" transform="translate(-2 -3)">
    <g id="Camera" transform="translate(2 3)">
      <path id="Path_29094" data-name="Path 29094" d="M21.266,0a4.177,4.177,0,0,1,3.825,2.426c.36.709.959,1.977,1.448,3.014.122.256.251.339.393.339a7.517,7.517,0,0,1,7.512,7.5h0V23.5A7.517,7.517,0,0,1,26.932,31H14.777a1.29,1.29,0,1,1,0-2.581H26.932A4.932,4.932,0,0,0,31.861,23.5h0V13.283a4.932,4.932,0,0,0-4.929-4.924,2.962,2.962,0,0,1-2.666-1.686c-.541-1.146-1.128-2.386-1.479-3.081a1.6,1.6,0,0,0-1.531-1.012H13.18a1.6,1.6,0,0,0-1.522,1.013c-.213.42-.514,1.044-.824,1.7l-.372.786h0l-.18.382-.1.215A2.962,2.962,0,0,1,7.514,8.359a4.933,4.933,0,0,0-4.931,4.924h0V23.5a4.933,4.933,0,0,0,4.931,4.924H8.8A1.29,1.29,0,1,1,8.8,31H7.514A7.518,7.518,0,0,1,0,23.5H0V13.283a7.518,7.518,0,0,1,7.514-7.5.364.364,0,0,0,.331-.208h0l.1-.213C8.427,4.337,9,3.116,9.353,2.427A4.174,4.174,0,0,1,13.168,0h8.1ZM17.224,11.016a6.779,6.779,0,0,1,6.765,6.77,6.637,6.637,0,0,1-1.963,4.757,6.73,6.73,0,0,1-4.8,2.006h0a6.767,6.767,0,0,1-6.448-8.819,1.292,1.292,0,0,1,2.463.783,4.189,4.189,0,0,0,3.982,5.455h0a4.168,4.168,0,0,0,2.973-1.244,4.092,4.092,0,0,0,1.212-2.93,4.2,4.2,0,0,0-4.182-4.2h0a4.25,4.25,0,0,0-.913.1,1.289,1.289,0,1,1-.563-2.515,6.6,6.6,0,0,1,1.473-.163h0Zm8.9.236a1.379,1.379,0,0,1,.982,0,1.414,1.414,0,0,1,.413.277,1.465,1.465,0,0,1,.293.43,1.2,1.2,0,0,1,.1.482,1.236,1.236,0,0,1-.4.91,1.39,1.39,0,0,1-.413.292,1.225,1.225,0,0,1-.5.088,1.3,1.3,0,0,1-1.292-1.29,1.2,1.2,0,0,1,.1-.482,1.837,1.837,0,0,1,.276-.43A1.791,1.791,0,0,1,26.126,11.252Z" transform="translate(0 0)" fill="#313131"/>
    </g>
  </g>
</svg>
