<svg xmlns="http://www.w3.org/2000/svg" width="132.354" height="132.354" viewBox="0 0 132.354 132.354">
  <g id="contacts" transform="translate(-2 -2)">
    <g id="Calling" transform="translate(2 2)">
      <path id="Path_27092" data-name="Path 27092" d="M14.987,57.6a4.86,4.86,0,0,1,6.778,1.27c16.852,24.655,47.656,52.431,67.263,60.645,7.935,3.7,13.843,3.934,18.229.766,3.419-2.094,13.154-11.826,12.979-16.892a6.506,6.506,0,0,0-1.885-2.906c-3.744-3.861-16.3-13.43-18.925-14.425-2.092-.426-4.225.819-7.506,2.893h0l-1.689,1.06a4.864,4.864,0,0,1-6.687-1.676A4.928,4.928,0,0,1,85.207,81.6h0l1.521-.949c3.639-2.3,8.63-5.438,14.967-4.123,4.972,1.034,20.634,14.012,23.623,17.1a15.031,15.031,0,0,1,4.647,9.189c.422,12.049-15.616,24.654-17.449,25.714a20.328,20.328,0,0,1-12.212,3.822,36.321,36.321,0,0,1-15.2-3.848C63.878,119.617,31.78,90.84,13.739,64.431A4.932,4.932,0,0,1,14.987,57.6ZM27.908,1.4l1.2.021a14.929,14.929,0,0,1,9.3,4.686c3.061,3,15.948,18.784,16.982,23.8,1.111,5.373-1.287,9.569-3.035,12.632-1.722,3.017-2.32,4.307-1.729,5.936A58.206,58.206,0,0,0,70.532,74.293a4.937,4.937,0,0,1,1.131,6.853,4.848,4.848,0,0,1-6.8,1.139,68.062,68.062,0,0,1-23.337-30.29c-2.255-6.25.422-10.937,2.379-14.359,1.469-2.566,2.281-4.1,1.937-5.733-.91-2.363-10.418-15.014-14.245-18.771a5.9,5.9,0,0,0-3.12-1.924C24.1,11,14.31,20.37,12.153,23.969,8.806,28.6,9.04,34.546,12.633,42.5A4.925,4.925,0,0,1,10.216,49a4.857,4.857,0,0,1-6.453-2.435c-5.108-11.3-5.017-20.741.286-28.032C5.166,16.633,17.534.65,29.108,1.416ZM82,23.216l.65.069A33.632,33.632,0,0,1,109.245,50.06a4.911,4.911,0,0,1-3.853,5.76,5.1,5.1,0,0,1-.942.085,4.883,4.883,0,0,1-4.777-3.966A23.869,23.869,0,0,0,80.787,32.925a4.91,4.91,0,0,1,1.865-9.641ZM81.6,0l.661.039a56.553,56.553,0,0,1,50.061,50.35,4.891,4.891,0,0,1-4.3,5.426,5.315,5.315,0,0,1-.553.033,4.888,4.888,0,0,1-4.836-4.359,46.849,46.849,0,0,0-41.456-41.7,4.9,4.9,0,0,1-4.309-5.419A4.856,4.856,0,0,1,82.261.039Z" transform="translate(0 0)" fill="#f8d40c"/>
    </g>
  </g>
</svg>
