<svg xmlns="http://www.w3.org/2000/svg" width="133.354" height="133.354" viewBox="0 0 133.354 133.354">
  <g id="gst" transform="translate(-2 -2)">
    <g id="Chart" transform="translate(2 2)">
      <path id="Path_27093" data-name="Path 27093" d="M91.659,0c25.627,0,41.695,15.951,41.695,41.695h0V57.177l-.047.692a5.1,5.1,0,0,1-5.055,4.41h-.059l-.805-.065a5.043,5.043,0,0,1-4.237-5.1h0V41.695c0-20.29-11.2-31.491-31.491-31.491H41.695C21.346,10.2,10.2,21.4,10.2,41.695h0V91.717c0,20.29,11.2,31.433,31.491,31.433H91.659c20.349,0,31.491-11.2,31.491-31.433a5.1,5.1,0,1,1,10.2,0c0,25.685-15.951,41.636-41.636,41.636H41.695C15.951,133.354,0,117.4,0,91.717H0V41.695C0,15.951,15.951,0,41.695,0H91.659ZM38.352,50.374a5.1,5.1,0,0,1,4.926,5.278h0V98.285a5.1,5.1,0,0,1-10.2-.351h0V55.241l.091-.8a5.043,5.043,0,0,1,5.187-4.069Zm28.559-20a5.1,5.1,0,0,1,5.1,5.1h0V97.992a5.1,5.1,0,0,1-10.2,0h0V35.479A5.1,5.1,0,0,1,66.911,30.377ZM95.177,72.893a5.1,5.1,0,0,1,5.1,5.1h0V97.933a5.1,5.1,0,0,1-10.2,0h0V77.994A5.1,5.1,0,0,1,95.177,72.893Z" transform="translate(0 0)" fill="#f8d40c"/>
    </g>
  </g>
</svg>
