<svg xmlns="http://www.w3.org/2000/svg" width="34" height="40" viewBox="0 0 34 40">
  <g id="Iconly_Broken_Location" data-name="Iconly/Broken/Location" transform="translate(0)">
    <g id="Location" transform="translate(0 0)">
      <path id="Path_26455" data-name="Path 26455" d="M17.067,0A17.009,17.009,0,0,1,34,17.045h0v.186c-.127,6.689-4.148,12.241-7.5,15.719a41.116,41.116,0,0,1-3.015,2.84,1.491,1.491,0,1,1-1.937-2.268c.969-.826,1.912-1.714,2.8-2.638,2.982-3.094,6.558-7.986,6.666-13.707a14.056,14.056,0,0,0-13.96-14.2H17A14.023,14.023,0,0,0,2.986,16.922a18.239,18.239,0,0,0,3.72,10.45A44.75,44.75,0,0,0,17.342,37.26a1.491,1.491,0,0,1-1.63,2.5A47.917,47.917,0,0,1,4.32,29.168,21.213,21.213,0,0,1,0,17.025,17.033,17.033,0,0,1,17,0h.067Zm-.072,10.767a6.461,6.461,0,1,1-6.47,6.461,1.493,1.493,0,0,1,2.985,0,3.484,3.484,0,1,0,3.484-3.482,1.49,1.49,0,1,1,0-2.98Z" transform="translate(0 0)" fill="#111011"/>
    </g>
  </g>
</svg>
