<svg xmlns="http://www.w3.org/2000/svg" width="35.831" height="35.831" viewBox="0 0 35.831 35.831">
  <g id="Iconly_Broken_Close-Square" data-name="Iconly/Broken/Close-Square" transform="translate(-2 -2)">
    <g id="Close-Square" transform="translate(2 2)">
      <path id="Path_28639" data-name="Path 28639" d="M24.639,0c6.874,0,11.192,4.285,11.192,11.2h0v4.6a1.356,1.356,0,0,1-1.354,1.354H34.46v-.032A1.37,1.37,0,0,1,33.09,15.76h0V11.2c0-5.47-2.992-8.461-8.445-8.461H11.208c-5.457,0-8.467,3.01-8.467,8.461h0V24.639c0,5.436,3.01,8.445,8.461,8.445H24.639c5.452,0,8.445-3.01,8.445-8.445a1.371,1.371,0,1,1,2.741,0c.005,6.906-4.28,11.192-11.181,11.192H11.2C4.285,35.831,0,31.545,0,24.644H0V11.208C0,4.285,4.285,0,11.2,0H24.639ZM14,19.967a1.371,1.371,0,1,1,1.87,2h0l-1.22,1.22a1.369,1.369,0,0,1-1.9-.032h0l-.039-.029a1.386,1.386,0,0,1,.068-1.938h0Zm-1.027-7.621a1.353,1.353,0,0,1,1.915-.023.09.09,0,0,1,.014.013h0l3.341,3.343,3.04-3.042a1.4,1.4,0,0,1,1.949.013,1.317,1.317,0,0,1,.242.328,1.375,1.375,0,0,1-.219,1.657h0L20.229,17.66l3.293,3.295a1.38,1.38,0,0,1,.05,1.955c-.007.011-.018.018-.027.029a1.374,1.374,0,0,1-1.917.021h0l-.068-.066L13,14.331A1.465,1.465,0,0,1,12.974,12.346Z" fill="#313131"/>
    </g>
  </g>
</svg>
