<svg xmlns="http://www.w3.org/2000/svg" width="20" height="20" viewBox="0 0 20 20">
  <g id="Iconly_Broken_Tick-Square" data-name="Iconly/Broken/Tick-Square" transform="translate(-2 -2)">
    <g id="Tick-Square" transform="translate(2 2)">
      <path id="Path_29141" data-name="Path 29141" d="M13.753,0C17.59,0,20,2.392,20,6.253h0V8.822a.757.757,0,0,1-.756.756h-.009V9.56A.765.765,0,0,1,18.47,8.8h0V6.253c0-3.053-1.67-4.723-4.714-4.723h-7.5C3.21,1.53,1.53,3.21,1.53,6.253h0v7.5c0,3.034,1.68,4.714,4.723,4.714h7.5c3.043,0,4.714-1.68,4.714-4.714a.765.765,0,1,1,1.53,0C20,17.608,17.608,20,13.756,20h-7.5C2.392,20,0,17.608,0,13.756H0v-7.5C0,2.392,2.392,0,6.253,0h7.5ZM13.03,7.1a.75.75,0,0,1,1.061,1.061h0L9.344,12.9a.752.752,0,0,1-1.061,0h0L5.91,10.531A.75.75,0,1,1,6.971,9.469h0l1.843,1.844Z" fill="#313131"/>
    </g>
  </g>
</svg>
