<svg xmlns="http://www.w3.org/2000/svg" width="9.009" height="16.016" viewBox="0 0 9.009 16.016">
  <g id="Iconly_Broken_Arrow---white" data-name="Iconly/Broken/Arrow---white" transform="translate(9.009) rotate(90)">
    <path id="Arrow---Down-2" d="M.242,8.765a.815.815,0,0,0,1.165,0h0L8.591,1.429a.846.846,0,0,0,0-1.185.813.813,0,0,0-1.164,0h0L.241,7.58A.847.847,0,0,0,.242,8.765Zm14.366,0a.815.815,0,0,0,1.166,0,.847.847,0,0,0,0-1.185h0L11.006,2.71a.813.813,0,0,0-1.164,0,.847.847,0,0,0,0,1.185h0Z" transform="translate(0)" fill="#fff"/>
  </g>
</svg>
