<svg xmlns="http://www.w3.org/2000/svg" xmlns:xlink="http://www.w3.org/1999/xlink" width="25" height="25" viewBox="0 0 25 25">
  <defs>
    <clipPath id="clip-path">
      <rect id="Rectangle_6035" data-name="Rectangle 6035" width="25" height="25" transform="translate(50 211)" fill="#000" stroke="#707070" stroke-width="1"/>
    </clipPath>
  </defs>
  <g id="Cake_Items" data-name="Cake Items" transform="translate(-50 -211)" clip-path="url(#clip-path)">
    <g id="cake" transform="translate(-612.638 -163.295)">
      <path id="Path_29063" data-name="Path 29063" d="M687.346,393.455V383.8a9.012,9.012,0,0,0-4.218-7.381h.005a.727.727,0,0,0-.607-.06c-1.9.664-3.79,1.323-5.364,1.871a.732.732,0,0,1-.725-.166,3.631,3.631,0,0,0-1.27-.708.776.776,0,0,1-.519-.53,3.826,3.826,0,0,0-1.974-2.356l-.2-.1a.726.726,0,0,0-.648,1.3l.2.1a2.392,2.392,0,0,1,.837.69.712.712,0,0,1-.3,1.066,3.628,3.628,0,0,0-2.037,2.6.735.735,0,0,1-.47.579c-2.086.721-4.275,1.483-6.455,2.245a1.442,1.442,0,0,0-.964,1.36v6.706a1.44,1.44,0,0,0,.967,1.36l2.653.924a.725.725,0,0,0,.932-.523l0-.015a.7.7,0,0,0-.461-.831l-2.165-.754a.719.719,0,0,1-.482-.677v-.812a.717.717,0,0,1,.953-.677l9.466,3.287a.724.724,0,0,1,.427.457,2.171,2.171,0,0,0,3.15,1.117.775.775,0,0,1,.655-.1l2.821.988a.718.718,0,0,1,.481.677v.811a.717.717,0,0,1-.953.677L670.955,393.4a.708.708,0,0,0-.9.433l-.005.014a.713.713,0,0,0,.431.922l12.045,4.2a.726.726,0,0,0,.493-.006l.073-.017a5.794,5.794,0,0,0,2.424-1.129A5.337,5.337,0,0,0,687.346,393.455ZM673.537,378.7a2.175,2.175,0,1,1-1.566,1.567A2.178,2.178,0,0,1,673.537,378.7Zm1.265,12.166-10.716-3.72v-2.328L674.8,388.54Zm7.237,2.532-2.929-1.025a2.155,2.155,0,0,0,.033-.368v-1.948l2.9,1.014Zm.625-3.639-4-1.4a.724.724,0,0,0-.922.445.741.741,0,0,0-.041.238v2.968a.724.724,0,0,1-1.448,0v-3.986a.724.724,0,0,0-.487-.685l-10.2-3.541c1.731-.6,3.451-1.2,5.1-1.777h0a3.62,3.62,0,1,0,6.838-2.376l5.172-1.8a7.686,7.686,0,0,1,3.225,5.96A7.528,7.528,0,0,1,682.664,389.76Zm.823,7.554v-6.367a9.838,9.838,0,0,0,2.412-2.468v4.975A3.674,3.674,0,0,1,683.487,397.314Z" fill="#000"/>
      <ellipse id="Ellipse_294" data-name="Ellipse 294" cx="0.57" cy="0.855" rx="0.57" ry="0.855" transform="translate(681.858 379.839)" fill="#000"/>
      <ellipse id="Ellipse_295" data-name="Ellipse 295" cx="0.57" cy="0.855" rx="0.57" ry="0.855" transform="translate(682.997 383.257)" fill="#000"/>
      <circle id="Ellipse_296" data-name="Ellipse 296" cx="0.855" cy="0.855" r="0.855" transform="translate(680.148 386.106)" fill="#000"/>
      <ellipse id="Ellipse_297" data-name="Ellipse 297" cx="0.57" cy="0.855" rx="0.57" ry="0.855" transform="translate(679.009 382.687)" fill="#000"/>
    </g>
  </g>
</svg>
