<svg xmlns="http://www.w3.org/2000/svg" xmlns:xlink="http://www.w3.org/1999/xlink" width="25" height="25" viewBox="0 0 25 25">
  <defs>
    <clipPath id="clip-path">
      <rect id="Rectangle_6035" data-name="Rectangle 6035" width="25" height="25" transform="translate(50 206)" fill="#fff" stroke="#707070" stroke-width="1"/>
    </clipPath>
  </defs>
  <g id="Categories" transform="translate(-50 -206)" clip-path="url(#clip-path)">
    <g id="Iconly_Broken_Category" data-name="Iconly/Broken/Category" transform="translate(47.5 203.5)">
      <g id="Category" transform="translate(2.5 2.5)">
        <path id="Path_28633" data-name="Path 28633" d="M21.206,13.489A3.845,3.845,0,0,1,25,17.35h0v3.778A3.857,3.857,0,0,1,21.206,25h-3.7a3.846,3.846,0,0,1-3.782-3.873h0V17.35a3.822,3.822,0,0,1,3.782-3.861h3.7Zm-15.893,0a1.014,1.014,0,0,1,.974.483,1.061,1.061,0,0,1,0,1.106,1.014,1.014,0,0,1-.974.483H3.793A1.782,1.782,0,0,0,2.03,17.35h0V21.08a1.817,1.817,0,0,0,1.763,1.788H7.517a1.734,1.734,0,0,0,1.246-.519,1.807,1.807,0,0,0,.517-1.269h0v-5.6l-.016-.139a1.049,1.049,0,0,1,.473-.93,1,1,0,0,1,1.142.034,1.053,1.053,0,0,1,.4,1.095h0v5.578a3.834,3.834,0,0,1-3.794,3.873H3.793A3.916,3.916,0,0,1,0,21.116H0V17.35a3.9,3.9,0,0,1,1.112-2.734,3.742,3.742,0,0,1,2.682-1.127h1.52Zm15.893,2.072h-3.7a1.77,1.77,0,0,0-1.752,1.788h0v3.778a1.8,1.8,0,0,0,.51,1.268,1.722,1.722,0,0,0,1.242.52h3.7a1.722,1.722,0,0,0,1.242-.52,1.8,1.8,0,0,0,.51-1.268h0V17.35a1.807,1.807,0,0,0-.513-1.264,1.734,1.734,0,0,0-1.239-.524ZM21.206,0a3.916,3.916,0,0,1,3.782,3.873h0V7.639a3.9,3.9,0,0,1-1.075,2.744,3.745,3.745,0,0,1-2.661,1.164H19.722a1.045,1.045,0,0,1,0-2.072h1.485a1.746,1.746,0,0,0,1.248-.54,1.82,1.82,0,0,0,.5-1.284h0V3.873a1.794,1.794,0,0,0-1.752-1.788h-3.7a1.77,1.77,0,0,0-1.752,1.788h0V9.522l-.014.141a1.039,1.039,0,0,1-1.03.878A1,1,0,0,1,14,10.217a1.042,1.042,0,0,1-.275-.743h0v-5.6a3.9,3.9,0,0,1,1.1-2.738A3.743,3.743,0,0,1,17.506,0h3.7ZM7.494,0a3.845,3.845,0,0,1,3.794,3.873h0V7.65a3.9,3.9,0,0,1-1.112,2.734,3.743,3.743,0,0,1-2.682,1.127h-3.7A3.845,3.845,0,0,1,0,7.65H0V3.873A3.857,3.857,0,0,1,3.793,0h3.7Zm0,2.084h-3.7A1.733,1.733,0,0,0,2.532,2.6a1.807,1.807,0,0,0-.525,1.277h0V7.65a1.808,1.808,0,0,0,.513,1.3,1.733,1.733,0,0,0,1.274.523h3.7a1.746,1.746,0,0,0,1.248-.54,1.82,1.82,0,0,0,.5-1.284h0V3.873A1.782,1.782,0,0,0,7.494,2.084Z" transform="translate(0 0)" fill="#fff"/>
      </g>
    </g>
  </g>
</svg>
