<svg xmlns="http://www.w3.org/2000/svg" xmlns:xlink="http://www.w3.org/1999/xlink" width="25" height="25" viewBox="0 0 25 25">
  <defs>
    <clipPath id="clip-path">
      <rect id="Rectangle_6039" data-name="Rectangle 6039" width="25" height="25" transform="translate(50 438)" fill="#fff" stroke="#707070" stroke-width="1"/>
    </clipPath>
  </defs>
  <g id="Config" transform="translate(-50 -438)" clip-path="url(#clip-path)">
    <g id="Iconly_Broken_Setting" data-name="Iconly/Broken/Setting" transform="translate(47.5 436)">
      <g id="Setting" transform="translate(2.5 2)">
        <path id="Path_28637" data-name="Path 28637" d="M1.149,6.454a1.1,1.1,0,0,1,.775.144.9.9,0,0,1,.3,1.274h0l-.074.139a1.283,1.283,0,0,0,.607,1.673,3.347,3.347,0,0,1,1.231,1.2A3.164,3.164,0,0,1,2.7,15.272a1.278,1.278,0,0,0-.533,1.812h0l.817,1.307a1.4,1.4,0,0,0,.871.63,1.5,1.5,0,0,0,1.093-.147,3.628,3.628,0,0,1,1.74-.428,3.429,3.429,0,0,1,3.551,3.294,1.4,1.4,0,0,0,1.444,1.329h0l-.012.022a1.047,1.047,0,0,1,.892.478.9.9,0,0,1,0,.955,1.047,1.047,0,0,1-.892.478,3.429,3.429,0,0,1-3.551-3.294,1.194,1.194,0,0,0-.189-.659,1.507,1.507,0,0,0-1.965-.494h0l-.21.1a3.7,3.7,0,0,1-4.524-1.284h0l-.8-1.307a3.165,3.165,0,0,1,1.278-4.392,1.419,1.419,0,0,0,.521-.483,1.253,1.253,0,0,0,.235-1.062,1.342,1.342,0,0,0-.7-.871h0l-.2-.119A3.151,3.151,0,0,1,.492,6.862h0l.1-.119A1.053,1.053,0,0,1,1.149,6.454ZM22.371,9.627a1.1,1.1,0,0,1,1.259.419.917.917,0,0,1-.355,1.307,1.42,1.42,0,0,0-.521.483,1.246,1.246,0,0,0-.149,1.012,1.346,1.346,0,0,0,.669.811,3.163,3.163,0,0,1,1.231,4.5h0l-.8,1.306-.129.183a3.724,3.724,0,0,1-4.605,1,1.516,1.516,0,0,0-1.444-.013,1.3,1.3,0,0,0-.71,1.166,1.053,1.053,0,0,1-2.071,0,3.263,3.263,0,0,1,1.771-2.783A3.793,3.793,0,0,1,20,18.983a1.5,1.5,0,0,0,1.089.143,1.469,1.469,0,0,0,.876-.626h0l.8-1.307a1.235,1.235,0,0,0,.148-1.007,1.336,1.336,0,0,0-.668-.8,3.287,3.287,0,0,1-1.29-1.307,3.164,3.164,0,0,1,1.278-4.392h0Zm-9.878-1.25a4.621,4.621,0,0,1,3.146,1.2,3.973,3.973,0,0,1,1.3,2.915h0l-.007.249A4.158,4.158,0,0,1,14.2,16.316a4.707,4.707,0,0,1-4.854-.888,3.914,3.914,0,0,1-.97-4.5A4.466,4.466,0,0,1,12.493,8.377Zm0,1.932a2.286,2.286,0,0,0-2.367,2.2,2.286,2.286,0,0,0,2.367,2.2,2.286,2.286,0,0,0,2.367-2.2h0l-.008-.18A2.3,2.3,0,0,0,12.493,10.31ZM13.309,0A3.429,3.429,0,0,1,16.86,3.294a1.194,1.194,0,0,0,.189.659,1.422,1.422,0,0,0,.871.627,1.53,1.53,0,0,0,1.093-.133,3.708,3.708,0,0,1,4.734,1.186.939.939,0,0,1-.379,1.307,1.088,1.088,0,0,1-1.408-.34h0l-.093-.129A1.518,1.518,0,0,0,20,6.115a3.793,3.793,0,0,1-3.479-.036A3.265,3.265,0,0,1,14.741,3.3a1.277,1.277,0,0,0-.4-.968,1.489,1.489,0,0,0-1.03-.4H11.688a1.5,1.5,0,0,0-1.034.4,1.289,1.289,0,0,0-.41.969A3.209,3.209,0,0,1,8.476,6.093a3.728,3.728,0,0,1-3.487-.022h0l-.047-.044-.114-.076A.91.91,0,0,1,4.61,4.71,1.079,1.079,0,0,1,6.031,4.4a1.567,1.567,0,0,0,.71.187,1.512,1.512,0,0,0,1.039-.353A1.3,1.3,0,0,0,8.244,3.3,3.419,3.419,0,0,1,11.688,0h1.621Z" transform="translate(0 0)" fill="#000"/>
      </g>
    </g>
  </g>
</svg>
