<svg xmlns="http://www.w3.org/2000/svg" width="10.18" height="5.726" viewBox="0 0 10.18 5.726">
  <g id="Iconly_Broken_Arrow---Down-2" data-name="Iconly/Broken/Arrow---Down-2" transform="translate(-4 -7.5)">
    <path id="Arrow---Down-2" d="M4.154,7.655a.518.518,0,0,1,.741,0h0l4.566,4.661a.538.538,0,0,1,0,.753.517.517,0,0,1-.74,0h0L4.153,8.408A.539.539,0,0,1,4.154,7.655Zm9.131,0a.518.518,0,0,1,.741,0,.539.539,0,0,1,0,.753h0L11,11.5a.517.517,0,0,1-.74,0,.539.539,0,0,1,0-.753h0Z" transform="translate(0)"/>
  </g>
</svg>
