<svg xmlns="http://www.w3.org/2000/svg" xmlns:xlink="http://www.w3.org/1999/xlink" width="25" height="25" viewBox="0 0 25 25">
  <defs>
    <clipPath id="clip-path">
      <rect id="Rectangle_6035" data-name="Rectangle 6035" width="25" height="25" transform="translate(50 211)" fill="#000" stroke="#707070" stroke-width="1"/>
    </clipPath>
  </defs>
  <g id="Offers" transform="translate(-50 -211)" clip-path="url(#clip-path)">
    <g id="Iconly_Broken_Discount" data-name="Iconly/Broken/Discount" transform="translate(48 209)">
      <g id="Discount" transform="translate(2 2)">
        <path id="Path_29099" data-name="Path 29099" d="M3.493,17.744a.938.938,0,0,1,.938.938A1.89,1.89,0,0,0,6.319,20.57H7.6a3.749,3.749,0,0,1,2.653,1.1h0l.9.9a1.883,1.883,0,0,0,1.341.559,1.783,1.783,0,0,0,1.34-.558.938.938,0,1,1,1.329,1.324,3.77,3.77,0,0,1-5.323.014h0l-.913-.913A1.886,1.886,0,0,0,7.6,22.445H6.319a3.768,3.768,0,0,1-3.764-3.764A.938.938,0,0,1,3.493,17.744ZM18.68,2.551a3.768,3.768,0,0,1,3.764,3.765h0V7.6a1.887,1.887,0,0,0,.55,1.332h0l.9.9a3.765,3.765,0,0,1,.014,5.323h0l-.912.913a1.907,1.907,0,0,0-.549,1.33h0v1.284a3.769,3.769,0,0,1-3.764,3.765.938.938,0,0,1,0-1.876,1.891,1.891,0,0,0,1.889-1.889h0V17.4a3.738,3.738,0,0,1,1.1-2.653h0l.9-.9a1.889,1.889,0,0,0,0-2.682h0l-.9-.9a3.75,3.75,0,0,1-1.1-2.655h0V6.316A1.89,1.89,0,0,0,18.68,4.426a.938.938,0,0,1,0-1.876ZM15.712,14.63a1.085,1.085,0,1,1-1.085,1.085A1.086,1.086,0,0,1,15.712,14.63Zm-.663-6.008a.938.938,0,1,1,1.325,1.327h0L9.951,16.375a.938.938,0,1,1-1.326-1.327h0ZM9.833,1.1A3.761,3.761,0,0,1,15.008.964a1.324,1.324,0,0,1,.15.125.95.95,0,0,1,.262.65.938.938,0,0,1-1.575.688L13.82,2.4a1.912,1.912,0,0,0-2.663.024h0l-.9.9a3.715,3.715,0,0,1-2.65,1.1H6.32A1.894,1.894,0,0,0,4.433,6.316h0V7.6a3.713,3.713,0,0,1-1.1,2.651h0l-.9.9a1.908,1.908,0,0,0,0,2.687.945.945,0,0,1,0,1.327.963.963,0,0,1-.663.274.931.931,0,0,1-.662-.274A3.772,3.772,0,0,1,1.1,9.842h0l.912-.913A1.874,1.874,0,0,0,2.558,7.6h0V6.316A3.767,3.767,0,0,1,6.32,2.552H7.608A1.868,1.868,0,0,0,8.933,2h0ZM9.276,8.219A1.085,1.085,0,1,1,8.191,9.3,1.086,1.086,0,0,1,9.276,8.219Z" transform="translate(0 0)" fill="#000"/>
      </g>
    </g>
  </g>
</svg>
