<svg xmlns="http://www.w3.org/2000/svg" xmlns:xlink="http://www.w3.org/1999/xlink" width="25" height="25" viewBox="0 0 25 25">
  <defs>
    <clipPath id="clip-path">
      <rect id="Rectangle_6036" data-name="Rectangle 6036" width="25" height="25" transform="translate(50 264)" fill="#fff" stroke="#707070" stroke-width="1"/>
    </clipPath>
  </defs>
  <g id="Users" transform="translate(-50 -264)" clip-path="url(#clip-path)">
    <g id="Iconly_Broken_2-User" data-name="Iconly/Broken/2-User" transform="translate(48 262.5)">
      <g id="_2-User" data-name="2-User" transform="translate(2 2.5)">
        <path id="Path_28634" data-name="Path 28634" d="M9.489,14.9c4.074,0,9.488.457,9.488,4.415,0,4.172-6.311,4.422-9.017,4.437H9.489a.935.935,0,1,1,0-1.869c3.474,0,7.613-.445,7.613-2.569,0-1.688-2.561-2.546-7.613-2.546-3.474,0-7.614.445-7.614,2.571,0,.476.14,1.09,1.23,1.624a7.226,7.226,0,0,0,1.66.537.935.935,0,1,1-.39,1.828A9.2,9.2,0,0,1,2.28,22.64,3.57,3.57,0,0,1,0,19.337C0,14.9,7.142,14.9,9.489,14.9Zm9.994-.882a14.717,14.717,0,0,1,2.16.311,3.989,3.989,0,0,1,3.075,1.9,2.865,2.865,0,0,1,0,2.48,4.044,4.044,0,0,1-3.09,1.908.979.979,0,0,1-.19.019.934.934,0,0,1-.186-1.849c.954-.194,1.6-.515,1.772-.878a1.017,1.017,0,0,0,0-.875c-.176-.366-.82-.684-1.767-.87a12.688,12.688,0,0,0-1.9-.275.934.934,0,0,1-.87-1A.947.947,0,0,1,19.483,14.016ZM9.49,0A6.4,6.4,0,1,1,5.541,11.452.936.936,0,1,1,6.692,9.977,4.533,4.533,0,1,0,4.946,6.4a.937.937,0,0,1-1.875,0A6.415,6.415,0,0,1,9.49,0Zm8.035,1.334a5.043,5.043,0,1,1,0,10.085.934.934,0,1,1,0-1.869,3.174,3.174,0,1,0,0-6.347.934.934,0,1,1,0-1.869Z" transform="translate(0 0)" fill="#fff"/>
      </g>
    </g>
  </g>
</svg>
