<svg xmlns="http://www.w3.org/2000/svg" xmlns:xlink="http://www.w3.org/1999/xlink" width="64" height="64" viewBox="0 0 64 64">
  <defs>
    <clipPath id="clip-path">
      <rect id="Rectangle_5690" data-name="Rectangle 5690" width="35" height="35" transform="translate(-0.291 -0.053)" fill="#fff" stroke="#707070" stroke-width="1"/>
    </clipPath>
    <clipPath id="clip-path-2">
      <rect id="Rectangle_5693" data-name="Rectangle 5693" width="9.76" height="20.575" fill="none"/>
    </clipPath>
  </defs>
  <g id="Group_14684" data-name="Group 14684" transform="translate(-419 -252)">
    <rect id="Rectangle_6034" data-name="Rectangle 6034" width="64" height="64" rx="5" transform="translate(419 252)" fill="#fdf2b7"/>
    <g id="Mask_Group_43" data-name="Mask Group 43" transform="translate(434.291 266.344)" clip-path="url(#clip-path)">
      <g id="Group_902" data-name="Group 902" transform="translate(0.38 2.351) rotate(-8)">
        <g id="Group_901" data-name="Group 901" clip-path="url(#clip-path-2)">
          <path id="Path_26546" data-name="Path 26546" d="M9.76,6.908c0,3.231-3.763,5.851-4.88,5.851S0,10.139,0,6.908,2.185,0,4.88,0,9.76,3.677,9.76,6.908" transform="translate(0 0)" fill="#f8d40c"/>
          <path id="Path_26547" data-name="Path 26547" d="M1.634.7.5.045A.332.332,0,0,0,0,.333V1.644a.332.332,0,0,0,.5.288l1.136-.656a.332.332,0,0,0,0-.576" transform="translate(2.972 11.77)" fill="#313131"/>
          <path id="Path_26548" data-name="Path 26548" d="M.166,1.276,1.3,1.932a.332.332,0,0,0,.5-.288V.333A.332.332,0,0,0,1.3.045L.166.7a.332.332,0,0,0,0,.576" transform="translate(4.988 11.77)" fill="#313131"/>
          <path id="Path_26549" data-name="Path 26549" d="M.356,8.172A.356.356,0,0,1,0,7.816,5.111,5.111,0,0,1,.151,6.493,4.449,4.449,0,0,0,.285,5.329,4.45,4.45,0,0,0,.151,4.165,5.108,5.108,0,0,1,0,2.842,5.109,5.109,0,0,1,.151,1.52,4.449,4.449,0,0,0,.285.356.356.356,0,1,1,1,.356,5.109,5.109,0,0,1,.845,1.678,4.449,4.449,0,0,0,.711,2.842,4.449,4.449,0,0,0,.845,4.006,5.108,5.108,0,0,1,1,5.329,5.118,5.118,0,0,1,.845,6.652,4.444,4.444,0,0,0,.711,7.816a.356.356,0,0,1-.356.356" transform="translate(4.382 12.403)" fill="#d2d3d4"/>
          <path id="Path_26550" data-name="Path 26550" d="M1.133,6.7A.356.356,0,0,1,.839,6.55,4.342,4.342,0,0,1,0,4.083,7.06,7.06,0,0,1,1.257.15a.356.356,0,1,1,.581.411A6.322,6.322,0,0,0,.711,4.083a3.647,3.647,0,0,0,.714,2.064.356.356,0,0,1-.293.557" transform="translate(0.762 2.704)" fill="#313131"/>
          <path id="Path_26551" data-name="Path 26551" d="M.9,1.222a.354.354,0,0,1-.23-.084A7.231,7.231,0,0,1,.1.6.356.356,0,1,1,.614.111,6.57,6.57,0,0,0,1.126.6a.356.356,0,0,1-.23.627" transform="translate(2.147 9.445)" fill="#313131"/>
        </g>
      </g>
      <g id="Group_903" data-name="Group 903" transform="translate(11.081 8.361) rotate(-8)">
        <g id="Group_901-2" data-name="Group 901" clip-path="url(#clip-path-2)">
          <path id="Path_26546-2" data-name="Path 26546" d="M9.76,6.908c0,3.231-3.763,5.851-4.88,5.851S0,10.139,0,6.908,2.185,0,4.88,0,9.76,3.677,9.76,6.908" transform="translate(0 0)" fill="#f8d40c"/>
          <path id="Path_26547-2" data-name="Path 26547" d="M1.634.7.5.045A.332.332,0,0,0,0,.333V1.644a.332.332,0,0,0,.5.288l1.136-.656a.332.332,0,0,0,0-.576" transform="translate(2.972 11.77)" fill="#313131"/>
          <path id="Path_26548-2" data-name="Path 26548" d="M.166,1.276,1.3,1.932a.332.332,0,0,0,.5-.288V.333A.332.332,0,0,0,1.3.045L.166.7a.332.332,0,0,0,0,.576" transform="translate(4.988 11.77)" fill="#313131"/>
          <path id="Path_26549-2" data-name="Path 26549" d="M.356,8.172A.356.356,0,0,1,0,7.816,5.111,5.111,0,0,1,.151,6.493,4.449,4.449,0,0,0,.285,5.329,4.45,4.45,0,0,0,.151,4.165,5.108,5.108,0,0,1,0,2.842,5.109,5.109,0,0,1,.151,1.52,4.449,4.449,0,0,0,.285.356.356.356,0,1,1,1,.356,5.109,5.109,0,0,1,.845,1.678,4.449,4.449,0,0,0,.711,2.842,4.449,4.449,0,0,0,.845,4.006,5.108,5.108,0,0,1,1,5.329,5.118,5.118,0,0,1,.845,6.652,4.444,4.444,0,0,0,.711,7.816a.356.356,0,0,1-.356.356" transform="translate(4.382 12.403)" fill="#f8d40c"/>
          <path id="Path_26550-2" data-name="Path 26550" d="M1.133,6.7A.356.356,0,0,1,.839,6.55,4.342,4.342,0,0,1,0,4.083,7.06,7.06,0,0,1,1.257.15a.356.356,0,1,1,.581.411A6.322,6.322,0,0,0,.711,4.083a3.647,3.647,0,0,0,.714,2.064.356.356,0,0,1-.293.557" transform="translate(0.762 2.704)" fill="#313131"/>
          <path id="Path_26551-2" data-name="Path 26551" d="M.9,1.222a.354.354,0,0,1-.23-.084A7.231,7.231,0,0,1,.1.6.356.356,0,1,1,.614.111,6.57,6.57,0,0,0,1.126.6a.356.356,0,0,1-.23.627" transform="translate(2.147 9.445)" fill="#313131"/>
        </g>
      </g>
      <g id="Group_904" data-name="Group 904" transform="translate(21.654 13.466) rotate(-8)">
        <g id="Group_901-3" data-name="Group 901" clip-path="url(#clip-path-2)">
          <path id="Path_26546-3" data-name="Path 26546" d="M9.76,6.908c0,3.231-3.763,5.851-4.88,5.851S0,10.139,0,6.908,2.185,0,4.88,0,9.76,3.677,9.76,6.908" transform="translate(0 0)" fill="#f8d40c"/>
          <path id="Path_26547-3" data-name="Path 26547" d="M1.634.7.5.045A.332.332,0,0,0,0,.333V1.644a.332.332,0,0,0,.5.288l1.136-.656a.332.332,0,0,0,0-.576" transform="translate(2.972 11.77)" fill="#313131"/>
          <path id="Path_26548-3" data-name="Path 26548" d="M.166,1.276,1.3,1.932a.332.332,0,0,0,.5-.288V.333A.332.332,0,0,0,1.3.045L.166.7a.332.332,0,0,0,0,.576" transform="translate(4.988 11.77)" fill="#313131"/>
          <path id="Path_26549-3" data-name="Path 26549" d="M.356,8.172A.356.356,0,0,1,0,7.816,5.111,5.111,0,0,1,.151,6.493,4.449,4.449,0,0,0,.285,5.329,4.45,4.45,0,0,0,.151,4.165,5.108,5.108,0,0,1,0,2.842,5.109,5.109,0,0,1,.151,1.52,4.449,4.449,0,0,0,.285.356.356.356,0,1,1,1,.356,5.109,5.109,0,0,1,.845,1.678,4.449,4.449,0,0,0,.711,2.842,4.449,4.449,0,0,0,.845,4.006,5.108,5.108,0,0,1,1,5.329,5.118,5.118,0,0,1,.845,6.652,4.444,4.444,0,0,0,.711,7.816a.356.356,0,0,1-.356.356" transform="translate(4.382 12.403)" fill="#d2d3d4"/>
          <path id="Path_26550-3" data-name="Path 26550" d="M1.133,6.7A.356.356,0,0,1,.839,6.55,4.342,4.342,0,0,1,0,4.083,7.06,7.06,0,0,1,1.257.15a.356.356,0,1,1,.581.411A6.322,6.322,0,0,0,.711,4.083a3.647,3.647,0,0,0,.714,2.064.356.356,0,0,1-.293.557" transform="translate(0.762 2.704)" fill="#313131"/>
          <path id="Path_26551-3" data-name="Path 26551" d="M.9,1.222a.354.354,0,0,1-.23-.084A7.231,7.231,0,0,1,.1.6.356.356,0,1,1,.614.111,6.57,6.57,0,0,0,1.126.6a.356.356,0,0,1-.23.627" transform="translate(2.147 9.445)" fill="#313131"/>
        </g>
      </g>
    </g>
  </g>
</svg>
