<svg xmlns="http://www.w3.org/2000/svg" width="1531.139" height="919.323" viewBox="0 0 1531.139 919.323">
  <g id="Group_724" data-name="Group 724" transform="translate(0.763 657.205) rotate(-25)" opacity="0.3">
    <path id="Path_26071" data-name="Path 26071" d="M0,217.27s3.323,20.679,124.805-92.532S345.538-18.457,458.235,61.67s164.386,98.737,144.228,127.169-58.933-27.915-48.077-95.118S680.5,214.476,776.8,225.025c93.508-.28,125.619-5.815,245.55-153.533s310.761-31.042,334.577,34.118,44.461,162.063-13.956,181.189,21.025-134.945,72.72-142.182S1539.244,119.8,1553.2,82.066" transform="translate(0 0)" fill="none" stroke="#313131" stroke-linecap="round" stroke-width="1" stroke-dasharray="6"/>
    <g id="Group_639" data-name="Group 639" transform="translate(453.08 60.948)">
      <path id="Path_26066" data-name="Path 26066" d="M38.151,12.325a23.847,23.847,0,0,0-2.338,1.422,1.569,1.569,0,0,0-.489,1.089c-.058,1.8-.018,3.6-.058,5.4a2.913,2.913,0,0,1-5.32,1.638,4.3,4.3,0,0,1-.532-1.808c-.086-.97-.027-1.951-.023-2.928,0-.59-.062-1.16-.864-1.153-.747.007-.919.5-.918,1.13q.005,3.25-.024,6.5a2.864,2.864,0,0,1-2.838,3.142,2.97,2.97,0,0,1-3-3.217c-.006-1.923-.018-3.846.006-5.768.01-.772-.305-1.143-1.131-1.094a10.5,10.5,0,0,1-1.146,0,2.885,2.885,0,0,1-2.664-4.242c.488-.984,1.03-1.945,1.635-3.08H17.3q-7.786,0-15.573,0c-1.546,0-2-.572-1.577-2.017A6.261,6.261,0,0,1,2.914,3.944,23.276,23.276,0,0,1,12.523.616a46.005,46.005,0,0,1,19.571.961,16.944,16.944,0,0,1,5.712,2.674,5.5,5.5,0,0,1,2.477,4.882c-.088,1.858-.014,3.723-.021,5.584,0,.961-.383,1.462-1.089,1.4-.866-.077-1.043-.661-1.026-1.378.018-.755,0-1.511,0-2.415" transform="translate(0 0)" fill="#f8d40c" stroke="#313131" stroke-width="0.5"/>
      <path id="Path_26067" data-name="Path 26067" d="M15.238,12.409h-6.8c-1.752,0-3.5.011-5.255,0C1.289,12.389.038,11.3.017,9.576-.016,6.8.011,4.029,0,1.255,0,.559.227-.006,1.094,0c.9.006,1.032.617,1.03,1.292q-.009,3.942,0,7.884c0,1.1.217,1.3,1.38,1.3q5.447.008,10.893,0c.247,0,.495-.029.873-.052,0-.759.008-1.479,0-2.2-.01-.7.128-1.322,1.056-1.391.682-.051,1.067.461,1.065,1.373q-.008,4.029-.039,8.058c-.006.682.208,1.136,1.056,1.154,5.421.113,10.76-.275,15.782-2.352A10.534,10.534,0,0,0,36.964,13.4a4.625,4.625,0,0,0,1.154-1.932c.224-.6.477-1.044,1.217-.972.762.074.964.592.911,1.212a4.688,4.688,0,0,1-1.907,3.229,17.491,17.491,0,0,1-6.948,3.16,46.5,46.5,0,0,1-12.766,1.265c-2.36-.056-3.387-1.071-3.387-3.247,0-1.194,0-2.387,0-3.71" transform="translate(0.003 11.724)" fill="#f8d40c" stroke="#313131" stroke-width="0.5"/>
      <path id="Path_26068" data-name="Path 26068" d="M1.134,0c.264.381.734.764.73,1.142a1.337,1.337,0,0,1-.854.938.811.811,0,0,1-1-.892C.047.775.472.4.726.01" transform="translate(38.35 17.887)" fill="#f8d40c" stroke="#313131" stroke-width="0.5"/>
    </g>
    <g id="Group_640" data-name="Group 640" transform="translate(1268.255 22.713)">
      <path id="Path_26066-2" data-name="Path 26066" d="M37.772,12.2a23.616,23.616,0,0,0-2.315,1.408,1.553,1.553,0,0,0-.484,1.078c-.058,1.781-.018,3.565-.057,5.348a2.885,2.885,0,0,1-5.267,1.622,4.256,4.256,0,0,1-.526-1.79c-.085-.96-.027-1.932-.022-2.9,0-.585-.061-1.149-.855-1.142-.74.007-.91.5-.909,1.118q.005,3.218-.024,6.436a2.836,2.836,0,0,1-2.81,3.111,2.94,2.94,0,0,1-2.969-3.185c-.006-1.9-.018-3.807.006-5.711.01-.765-.3-1.132-1.12-1.083a10.4,10.4,0,0,1-1.135,0,2.856,2.856,0,0,1-2.637-4.2c.484-.975,1.02-1.925,1.619-3.05H17.129q-7.709,0-15.418,0c-1.531,0-1.982-.566-1.561-2A6.2,6.2,0,0,1,2.885,3.9,23.044,23.044,0,0,1,12.4.61a45.549,45.549,0,0,1,19.377.951A16.775,16.775,0,0,1,37.43,4.209a5.441,5.441,0,0,1,2.452,4.834c-.087,1.839-.013,3.686-.021,5.529,0,.951-.379,1.448-1.078,1.386-.857-.076-1.033-.654-1.016-1.364.018-.748,0-1.5,0-2.391" transform="translate(0 0)" fill="#f8d40c"/>
      <path id="Path_26067-2" data-name="Path 26067" d="M15.086,12.286H8.35c-1.734,0-3.469.011-5.2,0-1.87-.016-3.109-1.1-3.13-2.8C-.016,6.735.01,3.989,0,1.242,0,.553.224-.006,1.083,0,1.97.006,2.1.611,2.1,1.279q-.009,3.9,0,7.805c0,1.085.215,1.284,1.366,1.286q5.392.008,10.785,0c.245,0,.49-.029.864-.052,0-.751.008-1.464,0-2.177-.01-.694.127-1.308,1.045-1.378.675-.051,1.056.456,1.055,1.36q-.008,3.989-.039,7.978c-.006.676.206,1.125,1.046,1.142,5.367.112,10.653-.272,15.625-2.328A10.428,10.428,0,0,0,36.6,13.271a4.58,4.58,0,0,0,1.142-1.913c.221-.6.473-1.034,1.205-.962.755.073.954.586.9,1.2a4.642,4.642,0,0,1-1.888,3.2,17.316,17.316,0,0,1-6.879,3.129,46.034,46.034,0,0,1-12.64,1.252c-2.336-.056-3.353-1.06-3.354-3.215,0-1.182,0-2.363,0-3.673" transform="translate(0.003 11.608)" fill="#f8d40c"/>
      <path id="Path_26068-2" data-name="Path 26068" d="M1.123,0c.261.377.727.756.722,1.13A1.324,1.324,0,0,1,1,2.059.8.8,0,0,1,0,1.175C.046.767.467.4.719.01" transform="translate(37.969 17.71)" fill="#f8d40c"/>
    </g>
    <g id="Group_14612" data-name="Group 14612" transform="translate(877.682 185.255)">
      <path id="Path_26066-3" data-name="Path 26066" d="M37.772,12.2a23.616,23.616,0,0,0-2.315,1.408,1.553,1.553,0,0,0-.484,1.078c-.058,1.781-.018,3.565-.057,5.348a2.885,2.885,0,0,1-5.267,1.622,4.256,4.256,0,0,1-.526-1.79c-.085-.96-.027-1.932-.022-2.9,0-.585-.061-1.149-.855-1.142-.74.007-.91.5-.909,1.118q.005,3.218-.024,6.436a2.836,2.836,0,0,1-2.81,3.111,2.94,2.94,0,0,1-2.969-3.185c-.006-1.9-.018-3.807.006-5.711.01-.765-.3-1.132-1.12-1.083a10.4,10.4,0,0,1-1.135,0,2.856,2.856,0,0,1-2.637-4.2c.484-.975,1.02-1.925,1.619-3.05H17.129q-7.709,0-15.418,0c-1.531,0-1.982-.566-1.561-2A6.2,6.2,0,0,1,2.885,3.9,23.044,23.044,0,0,1,12.4.61a45.549,45.549,0,0,1,19.377.951A16.775,16.775,0,0,1,37.43,4.209a5.441,5.441,0,0,1,2.452,4.834c-.087,1.839-.013,3.686-.021,5.529,0,.951-.379,1.448-1.078,1.386-.857-.076-1.033-.654-1.016-1.364.018-.748,0-1.5,0-2.391" transform="translate(0 0)" fill="#f8d40c"/>
      <path id="Path_26067-3" data-name="Path 26067" d="M15.086,12.286H8.35c-1.734,0-3.469.011-5.2,0-1.87-.016-3.109-1.1-3.13-2.8C-.016,6.735.01,3.989,0,1.242,0,.553.224-.006,1.083,0,1.97.006,2.1.611,2.1,1.279q-.009,3.9,0,7.805c0,1.085.215,1.284,1.366,1.286q5.392.008,10.785,0c.245,0,.49-.029.864-.052,0-.751.008-1.464,0-2.177-.01-.694.127-1.308,1.045-1.378.675-.051,1.056.456,1.055,1.36q-.008,3.989-.039,7.978c-.006.676.206,1.125,1.046,1.142,5.367.112,10.653-.272,15.625-2.328A10.428,10.428,0,0,0,36.6,13.271a4.58,4.58,0,0,0,1.142-1.913c.221-.6.473-1.034,1.205-.962.755.073.954.586.9,1.2a4.642,4.642,0,0,1-1.888,3.2,17.316,17.316,0,0,1-6.879,3.129,46.034,46.034,0,0,1-12.64,1.252c-2.336-.056-3.353-1.06-3.354-3.215,0-1.182,0-2.363,0-3.673" transform="translate(0.003 11.608)" fill="#f8d40c"/>
      <path id="Path_26068-3" data-name="Path 26068" d="M1.123,0c.261.377.727.756.722,1.13A1.324,1.324,0,0,1,1,2.059.8.8,0,0,1,0,1.175C.046.767.467.4.719.01" transform="translate(37.969 17.71)" fill="#f8d40c"/>
    </g>
  </g>
</svg>
