<svg xmlns="http://www.w3.org/2000/svg" xmlns:xlink="http://www.w3.org/1999/xlink" width="20" height="20" viewBox="0 0 20 20">
  <defs>
    <clipPath id="clip-path">
      <rect id="Rectangle_5800" data-name="Rectangle 5800" width="20" height="20" transform="translate(668 1295)" fill="#f8d40c" stroke="#707070" stroke-width="1"/>
    </clipPath>
  </defs>
  <g id="Cart" transform="translate(-668 -1295)" clip-path="url(#clip-path)">
    <g id="Iconly_Broken_Buy" data-name="Iconly/Broken/Buy" transform="translate(668 1295)">
      <g id="Buy">
        <path id="Path_27104" data-name="Path 27104" d="M5.423,16.909a1.546,1.546,0,1,1-1.515,1.546A1.532,1.532,0,0,1,5.423,16.909Zm11.252,0a1.546,1.546,0,1,1-1.514,1.546A1.533,1.533,0,0,1,16.675,16.909ZM.775,0l.1.01L2.959.379a.76.76,0,0,1,.619.691h0l.963,11.707a1.055,1.055,0,0,0,1.05.985H16.5a1.067,1.067,0,0,0,1.043-.92h0l.949-6.693a.606.606,0,0,0-.138-.482.581.581,0,0,0-.447-.208H7.164a.766.766,0,0,1,0-1.531H17.909a2.073,2.073,0,0,1,1.581.738,2.163,2.163,0,0,1,.489,1.7h0l-.95,6.693A2.583,2.583,0,0,1,16.5,15.292H5.591A2.559,2.559,0,0,1,3.046,12.9h0L2.132,1.786.622,1.519A.765.765,0,0,1,.011.635.752.752,0,0,1,.878.01ZM14.9,7.7a.766.766,0,0,1,0,1.531H12.126a.766.766,0,0,1,0-1.531H14.9Z" transform="translate(0 0)" fill="#f8d40c"/>
      </g>
    </g>
  </g>
</svg>
