<svg xmlns="http://www.w3.org/2000/svg" width="14.723" height="14.723" viewBox="0 0 14.723 14.723">
  <path id="Icon_ionic-ios-checkmark-circle" data-name="Icon ionic-ios-checkmark-circle" d="M10.736,3.375A7.361,7.361,0,1,0,18.1,10.736,7.36,7.36,0,0,0,10.736,3.375ZM14.505,8.7,9.774,13.454h0a.639.639,0,0,1-.411.195.62.62,0,0,1-.414-.2L6.964,11.465a.141.141,0,0,1,0-.2l.63-.63a.137.137,0,0,1,.2,0l1.571,1.571,4.318-4.35a.14.14,0,0,1,.1-.042h0a.129.129,0,0,1,.1.042L14.5,8.5A.14.14,0,0,1,14.505,8.7Z" transform="translate(-3.375 -3.375)" fill="#128807"/>
</svg>
