<svg id="Group_14360" data-name="Group 14360" xmlns="http://www.w3.org/2000/svg" width="20.521" height="15.975" viewBox="0 0 20.521 15.975">
  <g id="Group_14358" data-name="Group 14358">
    <rect id="Rectangle_5866" data-name="Rectangle 5866" width="20.521" height="5.808" fill="#f93"/>
    <rect id="Rectangle_5867" data-name="Rectangle 5867" width="20.521" height="6.142" transform="translate(0 4.916)" fill="#fff"/>
    <rect id="Rectangle_5868" data-name="Rectangle 5868" width="20.521" height="5.808" transform="translate(0 10.166)" fill="#128807"/>
  </g>
  <g id="Group_14359" data-name="Group 14359" transform="translate(8.665 6.38)">
    <path id="Path_28134" data-name="Path 28134" d="M856.712,384.21a1.5,1.5,0,1,0,1.5,1.5A1.5,1.5,0,0,0,856.712,384.21Zm.856,2.5a.066.066,0,1,0-.1.076,1.318,1.318,0,0,1-.194.114.066.066,0,1,0-.116.049,1.309,1.309,0,0,1-.212.057.063.063,0,0,0,0-.013.066.066,0,0,0-.132,0,.067.067,0,0,0,.007.029c-.038,0-.076.005-.114.005s-.071,0-.105,0a.066.066,0,1,0-.123-.032.062.062,0,0,0,0,.017,1.31,1.31,0,0,1-.224-.059.066.066,0,1,0-.105-.052.061.061,0,0,0,0,.009,1.316,1.316,0,0,1-.193-.11.066.066,0,1,0-.088-.066,1.327,1.327,0,0,1-.173-.171.066.066,0,1,0-.066-.086,1.314,1.314,0,0,1-.117-.2h0a.066.066,0,1,0,0-.132.065.065,0,0,0-.05.023,1.312,1.312,0,0,1-.061-.228.066.066,0,1,0-.015-.113c0-.038-.005-.076-.005-.114s0-.075,0-.111a.066.066,0,1,0,.015-.116,1.3,1.3,0,0,1,.061-.226.065.065,0,0,0,.052.025.066.066,0,1,0,0-.132h-.007a1.323,1.323,0,0,1,.116-.2.066.066,0,1,0,.069-.089,1.34,1.34,0,0,1,.158-.158.066.066,0,1,0,.093-.072,1.309,1.309,0,0,1,.2-.117.064.064,0,0,0,0,.011.066.066,0,1,0,.1-.054,1.311,1.311,0,0,1,.222-.059.071.071,0,0,0,0,.007.066.066,0,1,0,.127-.023c.034,0,.068,0,.1,0s.077,0,.115.005a.067.067,0,0,0-.005.026.066.066,0,0,0,.132,0,.084.084,0,0,0,0-.009,1.3,1.3,0,0,1,.218.06.066.066,0,1,0,.114.049,1.316,1.316,0,0,1,.189.112.066.066,0,1,0,.1.074,1.317,1.317,0,0,1,.155.156.066.066,0,1,0,.075.1,1.31,1.31,0,0,1,.108.188h0a.066.066,0,1,0,.047.111,1.307,1.307,0,0,1,.059.228.066.066,0,1,0,.014.114c0,.034,0,.069,0,.1s0,.076-.005.113a.065.065,0,0,0-.032-.009.066.066,0,0,0,0,.132l.016,0a1.3,1.3,0,0,1-.058.218.066.066,0,1,0-.048.111h0a1.316,1.316,0,0,1-.111.191.066.066,0,1,0-.075.1A1.334,1.334,0,0,1,857.568,386.711Z" transform="translate(-855.212 -384.21)" fill="#008"/>
    <path id="Path_28135" data-name="Path 28135" d="M971.175,500.729a.277.277,0,1,0,.275.277A.276.276,0,0,0,971.175,500.729Z" transform="translate(-969.675 -499.506)" fill="#008"/>
    <path id="Path_28136" data-name="Path 28136" d="M989.847,405.42l-.064-.815h0l-.064.815.064.279v0Z" transform="translate(-988.279 -404.372)" fill="#008"/>
    <path id="Path_28137" data-name="Path 28137" d="M876.22,519.8l-.809.065h0l.809.064.277-.064h0Z" transform="translate(-875.181 -518.36)" fill="#008"/>
    <path id="Path_28138" data-name="Path 28138" d="M911.45,440.236l-.617-.53h0l.527.622.241.152,0,0h0l0,0Z" transform="translate(-910.248 -439.127)" fill="#008"/>
    <path id="Path_28139" data-name="Path 28139" d="M892.937,465.759l-.734-.347h0l.671.46.272.083,0,0h0l0,0Z" transform="translate(-891.78 -464.559)" fill="#008"/>
    <path id="Path_28140" data-name="Path 28140" d="M880.256,493.586l-.8-.153h0l.763.277.284.012h0Z" transform="translate(-879.183 -492.278)" fill="#008"/>
    <path id="Path_28141" data-name="Path 28141" d="M934.954,422.465l-.471-.665h0l.361.732.2.207,0,0v0h0l0,0Z" transform="translate(-933.644 -421.371)" fill="#008"/>
    <path id="Path_28142" data-name="Path 28142" d="M965.723,409.049l-.259-.774h0l.135.806.129.255v0Z" transform="translate(-964.288 -408)" fill="#008"/>
    <path id="Path_28143" data-name="Path 28143" d="M1020.1,519.82l.809.064h0l-.809.064-.277-.064h0Z" transform="translate(-1018.132 -518.379)" fill="#008"/>
    <path id="Path_28144" data-name="Path 28144" d="M1012.473,440.255l.617-.53h0l-.526.622-.241.152,0,0h0l0,0Z" transform="translate(-1010.668 -439.147)" fill="#008"/>
    <path id="Path_28145" data-name="Path 28145" d="M1015.747,465.778l.734-.347h0l-.671.46-.273.083,0,0h0l0,0Z" transform="translate(-1013.896 -464.578)" fill="#008"/>
    <path id="Path_28146" data-name="Path 28146" d="M1019.4,493.606l.8-.153h0l-.763.277-.284.012h0Z" transform="translate(-1017.463 -492.297)" fill="#008"/>
    <path id="Path_28147" data-name="Path 28147" d="M1007.143,422.485l.471-.665h0l-.361.732-.2.207,0,0v0h0l0,0Z" transform="translate(-1005.446 -421.39)" fill="#008"/>
    <path id="Path_28148" data-name="Path 28148" d="M1001.922,409.069l.259-.774h0l-.135.806-.129.255v0Z" transform="translate(-1000.35 -408.02)" fill="#008"/>
    <path id="Path_28149" data-name="Path 28149" d="M989.847,549.77l-.064.815h0l-.064-.815.064-.279v0Z" transform="translate(-988.279 -547.814)" fill="#008"/>
    <path id="Path_28150" data-name="Path 28150" d="M911.45,542.757l-.617.53h0l.527-.622.241-.152,0,0h0l0,0Z" transform="translate(-910.248 -540.863)" fill="#008"/>
    <path id="Path_28151" data-name="Path 28151" d="M892.937,537.352l-.734.347h0l.671-.46.272-.083,0,0h0l0,0Z" transform="translate(-891.78 -535.549)" fill="#008"/>
    <path id="Path_28152" data-name="Path 28152" d="M880.256,531.5l-.8.153h0l.763-.277.284-.012h0Z" transform="translate(-879.183 -529.807)" fill="#008"/>
    <path id="Path_28153" data-name="Path 28153" d="M934.954,546.239l-.471.665h0l.361-.732.2-.207,0,0v0h0l0,0Z" transform="translate(-933.644 -544.331)" fill="#008"/>
    <path id="Path_28154" data-name="Path 28154" d="M965.723,548.993l-.259.774h0l.135-.806.129-.255v0Z" transform="translate(-964.288 -547.039)" fill="#008"/>
    <path id="Path_28155" data-name="Path 28155" d="M1012.473,542.738l.617.53h0l-.526-.622-.241-.152,0,0v0h0l0,0Z" transform="translate(-1010.668 -540.844)" fill="#008"/>
    <path id="Path_28156" data-name="Path 28156" d="M1015.747,537.332l.734.347h0l-.671-.46-.273-.083,0,0h0l0,0Z" transform="translate(-1013.896 -535.53)" fill="#008"/>
    <path id="Path_28157" data-name="Path 28157" d="M1019.4,531.481l.8.153h0l-.763-.277-.284-.012h0Z" transform="translate(-1017.463 -529.787)" fill="#008"/>
    <path id="Path_28158" data-name="Path 28158" d="M1007.143,546.219l.471.665h0l-.361-.732-.2-.207,0,0v0h0l0,0Z" transform="translate(-1005.446 -544.311)" fill="#008"/>
    <path id="Path_28159" data-name="Path 28159" d="M1001.922,548.973l.259.774h0l-.135-.806-.129-.255v0Z" transform="translate(-1000.35 -547.02)" fill="#008"/>
  </g>
</svg>
