<svg xmlns="http://www.w3.org/2000/svg" xmlns:xlink="http://www.w3.org/1999/xlink" width="20" height="20" viewBox="0 0 20 20">
  <defs>
    <clipPath id="clip-path">
      <rect id="Rectangle_5793" data-name="Rectangle 5793" width="20" height="20" transform="translate(551 1242)" fill="#f8d40c" stroke="#707070" stroke-width="1"/>
    </clipPath>
  </defs>
  <g id="Mask_Group_77" data-name="Mask Group 77" transform="translate(-551 -1242)" clip-path="url(#clip-path)">
    <g id="Iconly_Broken_Home" data-name="Iconly/Broken/Home" transform="translate(551 1242)">
      <g id="Home" transform="translate(0 0)">
        <path id="Path_27101" data-name="Path 27101" d="M2.128,5.066a.859.859,0,0,1,.918.29.758.758,0,0,1-.066,1h0l-.75.526a1.452,1.452,0,0,0-.565,1.131h0v8.021A2.454,2.454,0,0,0,4.174,18.4H8.431v.018a.79.79,0,1,1,0,1.578H4.174A4.077,4.077,0,0,1,0,16.047H0V8.017A3,3,0,0,1,1.249,5.65h0l.768-.543ZM7.58.8a4.009,4.009,0,0,1,4.813,0h0l6.4,4.83A3.02,3.02,0,0,1,20,8h0l-.009,8.038a4.068,4.068,0,0,1-4.174,3.953H13.966a1.976,1.976,0,0,1-2.027-1.911h0V14.451l-.009-.091a.53.53,0,0,0-.528-.417H8.626a.552.552,0,0,0-.383.152.5.5,0,0,0-.154.365h0v1.385a.834.834,0,0,1-1.666,0h0V14.46a2.04,2.04,0,0,1,.648-1.481,2.276,2.276,0,0,1,1.564-.614h2.776a2.155,2.155,0,0,1,2.2,2.1h0v3.62a.343.343,0,0,0,.352.333h1.9a2.436,2.436,0,0,0,2.5-2.367h0V8.017a1.455,1.455,0,0,0-.592-1.14h0l-6.4-4.83a2.279,2.279,0,0,0-2.777,0h0L6.543,3.5a.88.88,0,0,1-1.185-.184A.777.777,0,0,1,5.553,2.2h0Z" transform="translate(0 0)" fill="#f8d40c"/>
      </g>
    </g>
  </g>
</svg>
