<svg id="Component_35_2" data-name="Component 35 – 2" xmlns="http://www.w3.org/2000/svg" xmlns:xlink="http://www.w3.org/1999/xlink" width="25" height="25" viewBox="0 0 25 25">
  <defs>
    <clipPath id="clip-path">
      <rect id="Rectangle_5468" data-name="Rectangle 5468" width="14" height="14" transform="translate(-15328.711 -23252.711)" fill="#313131" stroke="#707070" stroke-width="1"/>
    </clipPath>
  </defs>
  <rect id="Rectangle_5910" data-name="Rectangle 5910" width="25" height="25" rx="5" fill="#f8d40c"/>
  <g id="Mask_Group_23" data-name="Mask Group 23" transform="translate(15334.711 23258.711)" clip-path="url(#clip-path)">
    <path id="Discount" d="M3.362,9.752a1.069,1.069,0,0,1,0-1.5l.5-.5a2.08,2.08,0,0,0,.616-1.485V5.537A1.061,1.061,0,0,1,5.539,4.48H6.26a2.081,2.081,0,0,0,1.484-.616l.5-.5A1.071,1.071,0,0,1,9.74,3.346l.014.013h0a.525.525,0,0,0,.735-.749.742.742,0,0,0-.084-.07,2.106,2.106,0,0,0-2.9.078l-.5.5a1.046,1.046,0,0,1-.742.308H5.539A2.11,2.11,0,0,0,3.432,5.537v.721A1.049,1.049,0,0,1,3.124,7l-.511.511A2.112,2.112,0,0,0,2.62,10.5a.521.521,0,0,0,.371.153.539.539,0,0,0,.371-.153A.529.529,0,0,0,3.362,9.752ZM14.877,7l.5.5a2.109,2.109,0,0,1,.008,2.981L14.876,11a1.068,1.068,0,0,0-.307.745v.719a2.111,2.111,0,0,1-2.108,2.108.525.525,0,0,1,0-1.05,1.059,1.059,0,0,0,1.058-1.058v-.72a2.093,2.093,0,0,1,.614-1.486l.5-.5a1.058,1.058,0,0,0,0-1.5l-.5-.5a2.1,2.1,0,0,1-.615-1.487V5.537a1.058,1.058,0,0,0-1.058-1.058.525.525,0,0,1,0-1.05,2.11,2.11,0,0,1,2.108,2.108v.72A1.057,1.057,0,0,0,14.877,7ZM9,14.951a1,1,0,0,0,.75-.312.525.525,0,1,1,.744.742,2.111,2.111,0,0,1-2.981.008L7,14.877a1.056,1.056,0,0,0-.746-.307H5.539a2.11,2.11,0,0,1-2.108-2.108.525.525,0,1,1,1.05,0,1.058,1.058,0,0,0,1.058,1.057h.72a2.1,2.1,0,0,1,1.485.613l.5.506A1.055,1.055,0,0,0,9,14.951ZM6.83,10.427a.525.525,0,0,0,.743.743l3.6-3.6a.525.525,0,0,0-.742-.743ZM7.194,6.6a.607.607,0,1,1-.608.608A.608.608,0,0,1,7.194,6.6Zm3.6,3.59a.608.608,0,1,1-.608.608A.608.608,0,0,1,10.8,10.193Z" transform="translate(-15330.711 -23254.711)" fill="#313131" fill-rule="evenodd"/>
  </g>
</svg>
