<svg xmlns="http://www.w3.org/2000/svg" xmlns:xlink="http://www.w3.org/1999/xlink" width="20" height="20" viewBox="0 0 20 20">
  <defs>
    <clipPath id="clip-path">
      <rect id="Rectangle_5799" data-name="Rectangle 5799" width="20" height="20" transform="translate(670 1308)" fill="#f8d40c" stroke="#707070" stroke-width="1"/>
    </clipPath>
  </defs>
  <g id="Profile" transform="translate(-670 -1308)" clip-path="url(#clip-path)">
    <g id="Iconly_Broken_2-User" data-name="Iconly/Broken/2-User" transform="translate(670 1308)">
      <g id="_2-User" data-name="2-User" transform="translate(0 0)">
        <path id="Path_27103" data-name="Path 27103" d="M7.591,12.545c3.259,0,7.591.385,7.591,3.718,0,3.513-5.049,3.724-7.213,3.737H7.591a.788.788,0,0,1,0-1.574c2.779,0,6.091-.375,6.091-2.163,0-1.422-2.049-2.144-6.091-2.144-2.779,0-6.092.375-6.092,2.165,0,.4.112.918.984,1.367a5.58,5.58,0,0,0,1.328.452.786.786,0,0,1,.577.934.748.748,0,0,1-.889.605,7.105,7.105,0,0,1-1.676-.577A3.019,3.019,0,0,1,0,16.284C0,12.545,5.714,12.545,7.591,12.545Zm8-.742a11.223,11.223,0,0,1,1.728.262,3.183,3.183,0,0,1,2.46,1.6,2.528,2.528,0,0,1,0,2.088A3.228,3.228,0,0,1,17.3,17.355a.746.746,0,0,1-.152.016.758.758,0,0,1-.733-.629A.786.786,0,0,1,17,15.814c.763-.164,1.28-.433,1.418-.74a.9.9,0,0,0,0-.737c-.141-.309-.656-.576-1.414-.732a9.676,9.676,0,0,0-1.523-.232.788.788,0,0,1,.1-1.571ZM7.592,0a5.272,5.272,0,0,1,5.134,5.388,5.272,5.272,0,0,1-5.134,5.388A4.94,4.94,0,0,1,4.433,9.644a.813.813,0,0,1-.131-1.1A.727.727,0,0,1,5.354,8.4a3.5,3.5,0,0,0,2.238.8,3.731,3.731,0,0,0,3.634-3.814A3.731,3.731,0,0,0,7.592,1.574,3.732,3.732,0,0,0,3.957,5.388a.769.769,0,0,1-.75.787.769.769,0,0,1-.75-.787A5.272,5.272,0,0,1,7.592,0Zm6.428,1.123a4.155,4.155,0,0,1,4.047,4.246,4.154,4.154,0,0,1-4.047,4.246.788.788,0,0,1,0-1.574,2.615,2.615,0,0,0,2.547-2.672A2.615,2.615,0,0,0,14.019,2.7a.769.769,0,0,1-.75-.787A.769.769,0,0,1,14.019,1.123Z" transform="translate(0 0)" fill="#f8d40c"/>
      </g>
    </g>
  </g>
</svg>
