<svg id="Iconly_Broken_Arrow---Left-2" data-name="Iconly/Broken/Arrow---Left-2" xmlns="http://www.w3.org/2000/svg" width="6.825" height="12.134" viewBox="0 0 6.825 12.134">
  <g id="Arrow---Left-2" transform="translate(0)">
    <path id="Path_2659" data-name="Path 2659" d="M.185,11.951a.617.617,0,0,1-.055-.819l.057-.064L5.743,5.625a.641.641,0,0,1,.9,0,.615.615,0,0,1,.055.818l-.057.064L1.083,11.952A.642.642,0,0,1,.185,11.951Zm0-10.884a.617.617,0,0,1,0-.883A.642.642,0,0,1,1.017.126l.065.056L4.772,3.8a.616.616,0,0,1,0,.882.642.642,0,0,1-.832.058l-.065-.056Z" fill="#fff"/>
  </g>
</svg>
