<svg xmlns="http://www.w3.org/2000/svg" width="30" height="29.907" viewBox="0 0 30 29.907">
  <g id="Iconly_Broken_Arrow---Left-Square" data-name="Iconly/Broken/Arrow---Left-Square" transform="translate(22.2 31.627)">
    <g id="Arrow---Left-Square" transform="translate(7.8 -31.72) rotate(90)">
      <path id="Path_3294" data-name="Path 3294" d="M13.192,0a1.133,1.133,0,0,1,1.13,1.134h0v.014H14.3A1.146,1.146,0,0,1,13.155,2.3H9.35C4.785,2.3,2.288,4.8,2.288,9.366h0v11.25C2.288,25.185,4.8,27.7,9.35,27.7H20.566c4.537,0,7.049-2.52,7.049-7.084h0V9.371c0-4.565-2.512-7.071-7.049-7.071a1.148,1.148,0,0,1,0-2.295c5.765,0,9.341,3.583,9.341,9.362h0V20.62c0,5.792-3.577,9.38-9.337,9.38H9.355C3.578,30,0,26.412,0,20.62H0V9.371C0,3.615,3.578,0,9.35,0h3.842Zm1.762,7.746a1.124,1.124,0,0,1,1.122,1.125h0V21.129a1.137,1.137,0,0,1-.087.432,1.114,1.114,0,0,1-.244.365c-.01.012-.024.015-.034.025a1.169,1.169,0,0,1-.329.216,1.124,1.124,0,0,1-.375.076c-.019,0-.033.011-.052.011h0a1.131,1.131,0,0,1-.793-.33s0,0,0,0l-5.6-5.646a1.123,1.123,0,1,1,1.588-1.587h0l3.689,3.715V8.871A1.124,1.124,0,0,1,14.954,7.746Zm4.811,6.943a1.123,1.123,0,0,1,1.588,1.589h0L19.441,18.2a1.123,1.123,0,1,1-1.588-1.589h0Z" transform="translate(0.093)" fill="#7522de"/>
    </g>
  </g>
</svg>
