<svg xmlns="http://www.w3.org/2000/svg" width="34" height="34" viewBox="0 0 34 34">
  <g id="back" transform="translate(-1153 -709)">
    <rect id="Rectangle_5960" data-name="Rectangle 5960" width="34" height="34" rx="5" transform="translate(1153 709)" fill="#7522de"/>
    <g id="Iconly_Broken_Arrow---Left-2" data-name="Iconly/Broken/Arrow---Left-2" transform="translate(1166.357 718.714)">
      <g id="Arrow---Left-2" transform="translate(0 0)">
        <path id="Path_2659" data-name="Path 2659" d="M8.063,14.512a.75.75,0,0,0,.067-.995l-.069-.078L1.315,6.831a.779.779,0,0,0-1.09,0,.747.747,0,0,0-.067.994L.227,7.9l6.746,6.609A.78.78,0,0,0,8.063,14.512Zm0-13.216a.749.749,0,0,0,0-1.072A.78.78,0,0,0,7.053.153L6.973.221,2.493,4.609a.748.748,0,0,0,0,1.071A.78.78,0,0,0,3.5,5.751l.079-.068Z" fill="#fff"/>
      </g>
    </g>
  </g>
</svg>
