<svg xmlns="http://www.w3.org/2000/svg" width="1127.569" height="368.805" viewBox="0 0 1127.569 368.805">
  <g id="bg_image" data-name="bg image" transform="translate(-465.084 -261.368)">
    <path id="Path_1890" data-name="Path 1890" d="M260.4,176.405a4.848,4.848,0,1,1-6.261-2.793A4.849,4.849,0,0,1,260.4,176.405Z" transform="translate(610.745 168.015)" fill="none" stroke="#7522de" stroke-linecap="round" stroke-linejoin="round" stroke-width="2"/>
    <path id="Path_1891" data-name="Path 1891" d="M168.5,158.029a4.848,4.848,0,1,1-6.261-2.793A4.849,4.849,0,0,1,168.5,158.029Z" transform="translate(492.097 144.292)" fill="none" stroke="#7522de" stroke-linecap="round" stroke-linejoin="round" stroke-width="2"/>
    <path id="Path_1892" data-name="Path 1892" d="M87.693,270.043a4.848,4.848,0,1,1-6.261-2.793A4.849,4.849,0,0,1,87.693,270.043Z" transform="translate(387.784 288.898)" fill="none" stroke="#7522de" stroke-linecap="round" stroke-linejoin="round" stroke-width="2"/>
    <path id="Path_1893" data-name="Path 1893" d="M330.56,179.461a4.848,4.848,0,1,1-6.261-2.793A4.849,4.849,0,0,1,330.56,179.461Z" transform="translate(701.313 171.96)" fill="none" stroke="#7522de" stroke-linecap="round" stroke-linejoin="round" stroke-width="2"/>
    <path id="Path_1894" data-name="Path 1894" d="M519,189.4a4.848,4.848,0,1,1-6.261-2.793A4.849,4.849,0,0,1,519,189.4Z" transform="translate(944.584 184.787)" fill="none" stroke="#7522de" stroke-linecap="round" stroke-linejoin="round" stroke-width="2"/>
    <path id="Path_1895" data-name="Path 1895" d="M574.755,297.818a4.848,4.848,0,1,1-6.261-2.793A4.849,4.849,0,0,1,574.755,297.818Z" transform="translate(1016.559 324.754)" fill="none" stroke="#7522de" stroke-linecap="round" stroke-linejoin="round" stroke-width="2"/>
    <line id="Line_49" data-name="Line 49" y2="9.485" transform="translate(929.908 274.898)" fill="none" stroke="#7522de" stroke-linecap="round" stroke-linejoin="round" stroke-width="2"/>
    <line id="Line_50" data-name="Line 50" x1="9.485" transform="translate(925.166 279.639)" fill="none" stroke="#7522de" stroke-linecap="round" stroke-linejoin="round" stroke-width="2"/>
    <line id="Line_51" data-name="Line 51" y2="9.485" transform="translate(1051.388 262.368)" fill="none" stroke="#7522de" stroke-linecap="round" stroke-linejoin="round" stroke-width="2"/>
    <line id="Line_52" data-name="Line 52" x1="9.485" transform="translate(1046.645 267.11)" fill="none" stroke="#7522de" stroke-linecap="round" stroke-linejoin="round" stroke-width="2"/>
    <line id="Line_53" data-name="Line 53" y2="9.485" transform="translate(717.237 478.132)" fill="none" stroke="#7522de" stroke-linecap="round" stroke-linejoin="round" stroke-width="2"/>
    <line id="Line_54" data-name="Line 54" x1="9.485" transform="translate(712.494 482.874)" fill="none" stroke="#7522de" stroke-linecap="round" stroke-linejoin="round" stroke-width="2"/>
    <line id="Line_55" data-name="Line 55" y2="9.485" transform="translate(547.654 431.81)" fill="none" stroke="#7522de" stroke-linecap="round" stroke-linejoin="round" stroke-width="2"/>
    <line id="Line_56" data-name="Line 56" x1="9.485" transform="translate(542.911 436.552)" fill="none" stroke="#7522de" stroke-linecap="round" stroke-linejoin="round" stroke-width="2"/>
    <line id="Line_57" data-name="Line 57" y2="9.485" transform="translate(1286.916 348.414)" fill="none" stroke="#7522de" stroke-linecap="round" stroke-linejoin="round" stroke-width="2"/>
    <line id="Line_58" data-name="Line 58" x1="9.485" transform="translate(1282.173 353.155)" fill="none" stroke="#7522de" stroke-linecap="round" stroke-linejoin="round" stroke-width="2"/>
    <line id="Line_59" data-name="Line 59" y2="9.485" transform="translate(514.735 610.999)" fill="none" stroke="#7522de" stroke-linecap="round" stroke-linejoin="round" stroke-width="2"/>
    <line id="Line_60" data-name="Line 60" x1="9.485" transform="translate(509.992 615.74)" fill="none" stroke="#7522de" stroke-linecap="round" stroke-linejoin="round" stroke-width="2"/>
    <line id="Line_61" data-name="Line 61" y2="9.485" transform="translate(1561.604 516.986)" fill="none" stroke="#7522de" stroke-linecap="round" stroke-linejoin="round" stroke-width="2"/>
    <line id="Line_62" data-name="Line 62" x1="9.485" transform="translate(1556.861 521.728)" fill="none" stroke="#7522de" stroke-linecap="round" stroke-linejoin="round" stroke-width="2"/>
    <line id="Line_63" data-name="Line 63" y2="9.485" transform="translate(1412.803 465.193)" fill="none" stroke="#7522de" stroke-linecap="round" stroke-linejoin="round" stroke-width="2"/>
    <line id="Line_64" data-name="Line 64" x1="9.485" transform="translate(1408.06 469.934)" fill="none" stroke="#7522de" stroke-linecap="round" stroke-linejoin="round" stroke-width="2"/>
  </g>
</svg>
