<svg xmlns="http://www.w3.org/2000/svg" width="15.787" height="16.037" viewBox="0 0 15.787 16.037">
  <g id="buy_black" data-name="buy black" transform="translate(-1094 -353.75)">
    <path id="Path_2660" data-name="Path 2660" d="M4.281,13.347a1.22,1.22,0,1,1-1.2,1.22A1.209,1.209,0,0,1,4.281,13.347Zm8.882,0a1.22,1.22,0,1,1-1.2,1.22A1.21,1.21,0,0,1,13.162,13.347ZM.612,0,.693.008,2.336.3a.6.6,0,0,1,.489.545h0l.76,9.241a.833.833,0,0,0,.829.777h8.612a.842.842,0,0,0,.823-.727h0L14.6,4.852a.478.478,0,0,0-.109-.38.459.459,0,0,0-.353-.164H11.18a.6.6,0,0,1,0-1.208h2.956a1.636,1.636,0,0,1,1.248.582,1.708,1.708,0,0,1,.386,1.344h0l-.75,5.283a2.039,2.039,0,0,1-1.995,1.762H4.413A2.02,2.02,0,0,1,2.4,10.186h0L1.683,1.41.491,1.2A.6.6,0,0,1,.009.5.594.594,0,0,1,.693.008ZM11.76,6.077a.6.6,0,0,1,0,1.208H9.572a.6.6,0,0,1,0-1.208H11.76Z" transform="translate(1094 354)" fill="#ffffff"/>
    <g id="Iconly_Broken_Arrow---Down" data-name="Iconly/Broken/Arrow---Down" transform="translate(1098.079 354)">
      <g id="Arrow---Down" transform="translate(0 0)">
        <path id="Path_2661" data-name="Path 2661" d="M2.631,0a.289.289,0,0,1,.291.287h0V6.028a.287.287,0,0,1-.18.265.294.294,0,0,1-.317-.063h0L.085,3.915a.284.284,0,0,1,0-.406.294.294,0,0,1,.412,0h0L2.34,5.333V.287A.289.289,0,0,1,2.631,0ZM4.765,3.51a.294.294,0,0,1,.412,0,.285.285,0,0,1,0,.406h0L3.887,5.192a.294.294,0,0,1-.412,0,.283.283,0,0,1,0-.406h0Z" transform="translate(0)" fill="#ffffff" stroke="#ffffff" stroke-width="0.5"/>
      </g>
    </g>
  </g>
</svg>
