<svg xmlns="http://www.w3.org/2000/svg" width="14.797" height="14.796" viewBox="0 0 14.797 14.796">
  <g id="Group_16012" data-name="Group 16012" transform="translate(-481.228 -87.213)">
    <path id="Path_6547" data-name="Path 6547" d="M488.626,98.92a2.5,2.5,0,0,1-2.5-2.5.689.689,0,0,1,1.379,0,1.12,1.12,0,1,0,1.12-1.12,2.5,2.5,0,1,1,2.5-2.5.689.689,0,0,1-1.379,0,1.12,1.12,0,1,0-1.12,1.12,2.5,2.5,0,0,1,0,5Z" fill="#7522de"/>
    <path id="Path_6548" data-name="Path 6548" d="M488.626,91.681a.688.688,0,0,1-.689-.689v-.769a.689.689,0,1,1,1.378,0v.769A.688.688,0,0,1,488.626,91.681Z" fill="#7522de"/>
    <path id="Path_6549" data-name="Path 6549" d="M488.626,99.689a.689.689,0,0,1-.689-.689v-.77a.689.689,0,1,1,1.378,0V99A.689.689,0,0,1,488.626,99.689Z" fill="#7522de"/>
    <path id="Path_6554" data-name="Path 6554" d="M488.626,102.009a7.4,7.4,0,1,1,7.4-7.4A7.406,7.406,0,0,1,488.626,102.009Zm0-13.417a6.019,6.019,0,1,0,6.02,6.019A6.027,6.027,0,0,0,488.626,88.592Z" fill="#7522de"/>
  </g>
</svg>
