<svg xmlns="http://www.w3.org/2000/svg" width="22.145" height="22.145" viewBox="0 0 22.145 22.145">
  <g id="Group_16014" data-name="Group 16014" transform="translate(13739.508 11546.002)">
    <g id="Group_16012" data-name="Group 16012" transform="translate(-14220.735 -11633.215)">
      <path id="Path_6554" data-name="Path 6554" d="M492.3,109.357a11.072,11.072,0,1,1,11.072-11.072A11.084,11.084,0,0,1,492.3,109.357Zm0-20.081a9.009,9.009,0,1,0,9.01,9.008A9.02,9.02,0,0,0,492.3,89.277Z" transform="translate(0)" fill="#7522de"/>
    </g>
    <g id="Group_16013" data-name="Group 16013" transform="translate(4381.448 9630.726)">
      <path id="Path_2568" data-name="Path 2568" d="M81.177,76.607H78.642c-.636,0-.636,0-.635-.637,0-.518,0-.518.53-.518h2.524a1,1,0,0,0-.747-.612c-.514-.09-1.04-.115-1.561-.162-.119-.011-.24,0-.36,0-.329-.005-.383-.059-.385-.392,0-.2,0-.407,0-.61,0-.315.055-.37.374-.37q1.469,0,2.937,0c.841,0,1.681,0,2.522,0,.318,0,.376.057.376.369,0,.858.08.785-.763.785H82.447c.126.325.233.624.362.913.022.049.139.074.212.077.3.009.591.009.887,0,.222,0,.32.093.317.316-.013.9.121.84-.791.841-.184,0-.407-.049-.54.037-.114.073-.12.309-.18.47a2.772,2.772,0,0,1-1.981,1.735c-.2.058-.41.1-.663.156.072.087.126.153.181.218.959,1.124,1.92,2.246,2.872,3.376a.428.428,0,0,1,.1.334c-.019.066-.192.117-.3.122a10.779,10.779,0,0,1-1.108,0,.594.594,0,0,1-.373-.176q-1.65-1.869-3.274-3.761a.833.833,0,0,1-.152-.5c-.009-.943-.112-.845.835-.846a3.536,3.536,0,0,0,1.544-.26,1.358,1.358,0,0,0,.784-.9" transform="translate(-18191 -21243)" fill="#7522de"/>
    </g>
  </g>
</svg>
