<svg xmlns="http://www.w3.org/2000/svg" width="40" height="40" viewBox="0 0 40 40">
  <g id="Group_883" data-name="Group 883" transform="translate(-933 -451)">
    <rect id="Rectangle_126" data-name="Rectangle 126" width="40" height="40" rx="5" transform="translate(933 451)" fill="#c08dff"/>
    <path id="Icon_awesome-chart-line" data-name="Icon awesome-chart-line" d="M17.73,15.939H2.288V5.072A.572.572,0,0,0,1.716,4.5H.572A.572.572,0,0,0,0,5.072V17.083a1.144,1.144,0,0,0,1.144,1.144H17.73a.572.572,0,0,0,.572-.572V16.511A.572.572,0,0,0,17.73,15.939ZM16.586,5.644h-4.22a.858.858,0,0,0-.607,1.465l1.158,1.158L10.295,10.89,7.672,8.267a1.143,1.143,0,0,0-1.618,0L3.6,10.722a.572.572,0,0,0,0,.809l.809.809a.572.572,0,0,0,.809,0l1.646-1.647,2.623,2.623a1.143,1.143,0,0,0,1.618,0l3.432-3.432,1.158,1.158a.858.858,0,0,0,1.465-.607V6.216A.571.571,0,0,0,16.586,5.644Z" transform="translate(944.932 459.637)" fill="#fff"/>
  </g>
</svg>
