<svg xmlns="http://www.w3.org/2000/svg" width="54.984" height="27.524" viewBox="0 0 54.984 27.524">
  <g id="Group_16010" data-name="Group 16010" transform="translate(-19.646 -294.082)">
    <path id="Path_6541" data-name="Path 6541" d="M55.622,321.606a8.077,8.077,0,0,1-1.8-.2l-20.548-4.656a1.006,1.006,0,0,1-.783-.981V298.505a1,1,0,0,1,.9-1l3.282-.365a10.827,10.827,0,0,1,6.131,1.116l16.822,8.563a4.146,4.146,0,0,1,.62.389l7.805-4.668a4.378,4.378,0,0,1,4.94,7.2l-12.124,9.993A8.274,8.274,0,0,1,55.622,321.606Zm-21.114-6.642,19.764,4.479a6.245,6.245,0,0,0,5.315-1.263l12.134-10a2.365,2.365,0,0,0-2.65-3.9l-7.579,4.532a4.142,4.142,0,0,1,.159.442,4.012,4.012,0,0,1-4.989,4.99l-10.58-3.147a1.006,1.006,0,1,1,.574-1.929l10.58,3.146a2,2,0,0,0,2.13-3.168c-.019-.021-.037-.043-.054-.065a2.029,2.029,0,0,0-.6-.464L41.891,300.05a8.85,8.85,0,0,0-5-.91l-2.387.266Z" fill="#7522de"/>
    <path id="Path_6542" data-name="Path 6542" d="M31.109,319.128H23.046a3.4,3.4,0,0,1-3.4-3.4V297.481a3.4,3.4,0,0,1,3.4-3.4h8.063a3.4,3.4,0,0,1,3.4,3.4v18.248A3.4,3.4,0,0,1,31.109,319.128ZM23.046,296.1a1.388,1.388,0,0,0-1.387,1.386v18.248a1.387,1.387,0,0,0,1.387,1.386h8.063a1.387,1.387,0,0,0,1.387-1.386V297.481a1.388,1.388,0,0,0-1.387-1.386Z" fill="#7522de"/>
    <path id="Path_6543" data-name="Path 6543" d="M27.077,303.6a3.1,3.1,0,1,1,3.1-3.1A3.1,3.1,0,0,1,27.077,303.6Zm0-4.189a1.088,1.088,0,1,0,1.088,1.087A1.089,1.089,0,0,0,27.077,299.41Z" fill="#7522de"/>
    <path id="Path_6544" data-name="Path 6544" d="M24.422,319.128a1.006,1.006,0,0,1-1.006-1.006v-7.005a1.007,1.007,0,0,1,2.013,0v7.005A1.006,1.006,0,0,1,24.422,319.128Z" fill="#7522de"/>
    <path id="Path_6545" data-name="Path 6545" d="M29.732,319.128a1,1,0,0,1-1.006-1.006V307a1.007,1.007,0,1,1,2.013,0v11.118A1.006,1.006,0,0,1,29.732,319.128Z" fill="#7522de"/>
    <path id="Path_6546" data-name="Path 6546" d="M41.017,314.856a.981.981,0,0,1-.238-.029l-7.514-1.819a1.006,1.006,0,1,1,.474-1.956l7.514,1.819a1.007,1.007,0,0,1-.236,1.985Z" fill="#7522de"/>
  </g>
</svg>
