<svg xmlns="http://www.w3.org/2000/svg" xmlns:xlink="http://www.w3.org/1999/xlink" width="521.5" height="290.292" viewBox="0 0 521.5 290.292">
  <defs>
    <clipPath id="clip-path">
      <rect id="Rectangle_5778" data-name="Rectangle 5778" width="521.5" height="290.292" fill="none"/>
    </clipPath>
    <clipPath id="clip-path-2">
      <path id="Path_2419" data-name="Path 2419" d="M1733.892,139.254v78.174a5.793,5.793,0,0,0,5.793,5.793h126.728a5.793,5.793,0,0,0,5.793-5.793V139.254Z" transform="translate(-1733.892 -139.254)" fill="none"/>
    </clipPath>
    <clipPath id="clip-path-3">
      <rect id="Rectangle_5779" data-name="Rectangle 5779" width="178.52" height="99.536" fill="#d9bcff"/>
    </clipPath>
    <clipPath id="clip-path-4">
      <rect id="Rectangle_5780" data-name="Rectangle 5780" width="6.161" height="6.318" fill="#d9bcff"/>
    </clipPath>
    <clipPath id="clip-path-5">
      <rect id="Rectangle_5781" data-name="Rectangle 5781" width="6.159" height="6.318" fill="#d9bcff"/>
    </clipPath>
    <clipPath id="clip-path-6">
      <rect id="Rectangle_5782" data-name="Rectangle 5782" width="3.123" height="3.007" fill="#d9bcff"/>
    </clipPath>
    <clipPath id="clip-path-8">
      <rect id="Rectangle_5783" data-name="Rectangle 5783" width="15.797" height="13.915" fill="none"/>
    </clipPath>
    <clipPath id="clip-path-9">
      <rect id="Rectangle_5784" data-name="Rectangle 5784" width="168.193" height="153.295" fill="#7522de"/>
    </clipPath>
    <clipPath id="clip-path-10">
      <rect id="Rectangle_5785" data-name="Rectangle 5785" width="273.066" height="146.812" fill="none"/>
    </clipPath>
    <clipPath id="clip-path-11">
      <rect id="Rectangle_5788" data-name="Rectangle 5788" width="10.294" height="10.295" fill="none"/>
    </clipPath>
    <clipPath id="clip-path-12">
      <rect id="Rectangle_5789" data-name="Rectangle 5789" width="4.034" height="9.032" fill="none"/>
    </clipPath>
    <clipPath id="clip-path-13">
      <rect id="Rectangle_5793" data-name="Rectangle 5793" width="24.487" height="13.06" fill="none"/>
    </clipPath>
  </defs>
  <g id="How_to_start_with_us" data-name="How to start with us" transform="translate(0 0)">
    <g id="Group_840" data-name="Group 840" transform="translate(0 0)">
      <path id="Path_2393" data-name="Path 2393" d="M.818,697.969H101.724v77.31H.818ZM0,776.1H102.542V697.151H0Z" transform="translate(0 -554.557)" fill="#7522de"/>
      <rect id="Rectangle_5776" data-name="Rectangle 5776" width="101.724" height="78.128" transform="translate(15.954 129.913)" fill="#d9bcff"/>
      <path id="Path_2394" data-name="Path 2394" d="M226.563,781.3l-69.288-.474V737.988h.941v41.9l68.353.467Z" transform="translate(-125.106 -587.041)" fill="#fff"/>
      <rect id="Rectangle_5777" data-name="Rectangle 5777" width="43.271" height="2.457" transform="translate(45.553 141.331)" fill="#fff"/>
      <path id="Path_2395" data-name="Path 2395" d="M224.164,783.46l-27.358-19.493-10.14,10.865-.7-8.7L179.8,772.3l-3.09-19.918L167.129,764.7l-3.167-10.558-4.988,4.364-.62-.708,6.089-5.329,3.064,10.213,9.8-12.6,3.14,20.239,6.3-6.3.689,8.607,9.246-9.906,28.03,19.971Z" transform="translate(-125.964 -596.658)" fill="#fff"/>
      <g id="Group_803" data-name="Group 803">
        <g id="Group_802" data-name="Group 802" clip-path="url(#clip-path)">
          <path id="Path_2396" data-name="Path 2396" d="M737.084,114.824h0c0,2.958-2.067,5.355-4.616,5.355h-.232c-2.55,0-4.616-2.4-4.616-5.355v-10.84c0-2.958-2.066-5.355-4.616-5.355h-.232c-2.55,0-4.616,2.4-4.616,5.355v45.447c0,2.958,2.066,5.355,4.616,5.355h19.16c2.55,0,4.616-2.4,4.616-5.355V114.824c0-2.958-2.067-5.355-4.616-5.355H741.7c-2.549,0-4.616,2.4-4.616,5.355" transform="translate(-571.265 -78.456)" fill="#d9bcff"/>
          <path id="Path_2397" data-name="Path 2397" d="M725.929,254.173A21.334,21.334,0,1,1,704.6,232.839a21.334,21.334,0,0,1,21.333,21.334" transform="translate(-543.508 -185.215)" fill="#d9bcff"/>
          <path id="Path_2398" data-name="Path 2398" d="M755.013,295.365v3.158H751v-3.015a16.744,16.744,0,0,1-7.31-1.992l2.162-4.891a13.659,13.659,0,0,0,6.57,1.82c1.906,0,2.588-.4,2.588-1.081,0-2.5-11.006-.483-11.006-7.906,0-3.214,2.332-5.916,7-6.57v-3.1h4.01v3.043a14.856,14.856,0,0,1,5.773,1.65l-2.019,4.863a12.275,12.275,0,0,0-5.545-1.48c-1.963,0-2.588.57-2.588,1.252,0,2.389,11.006.4,11.006,7.736,0,3.072-2.218,5.746-6.626,6.513" transform="translate(-591.579 -216.197)" fill="#fff"/>
          <path id="Path_2399" data-name="Path 2399" d="M496.116,10.3h0a3.2,3.2,0,0,1-2.934,3.4h-.148a3.2,3.2,0,0,1-2.934-3.4V3.406A3.2,3.2,0,0,0,487.166,0h-.148a3.2,3.2,0,0,0-2.934,3.4V32.3a3.2,3.2,0,0,0,2.934,3.4H499.2a3.2,3.2,0,0,0,2.934-3.4v-22a3.2,3.2,0,0,0-2.934-3.4h-.148a3.2,3.2,0,0,0-2.934,3.4" transform="translate(-385.07 -0.002)" fill="#d9bcff"/>
          <path id="Path_2400" data-name="Path 2400" d="M489.025,98.875a13.561,13.561,0,1,1-13.561-13.561,13.561,13.561,0,0,1,13.561,13.561" transform="translate(-367.426 -67.864)" fill="#d9bcff"/>
          <path id="Path_2401" data-name="Path 2401" d="M507.511,125.06v2.007h-2.549v-1.917a10.648,10.648,0,0,1-4.647-1.266l1.374-3.109a8.68,8.68,0,0,0,4.176,1.157c1.211,0,1.645-.253,1.645-.687,0-1.59-7-.307-7-5.026,0-2.043,1.482-3.76,4.447-4.176v-1.97h2.549v1.934a9.441,9.441,0,0,1,3.67,1.049l-1.284,3.091a7.8,7.8,0,0,0-3.525-.941c-1.247,0-1.645.362-1.645.8,0,1.518,7,.253,7,4.918,0,1.953-1.41,3.652-4.212,4.14" transform="translate(-397.982 -87.559)" fill="#fff"/>
          <path id="Path_2404" data-name="Path 2404" d="M373.7,1195.722a6,6,0,1,1-6-6,6,6,0,0,1,6,6" transform="translate(-287.718 -946.378)" fill="#ebebff"/>
          <path id="Path_2405" data-name="Path 2405" d="M2134.108,1237.873a6.409,6.409,0,1,1,6.409-6.409,6.417,6.417,0,0,1-6.409,6.409m0-12a5.591,5.591,0,1,0,5.59,5.59,5.6,5.6,0,0,0-5.59-5.59" transform="translate(-1692.501 -974.484)" fill="#9192ff"/>
          <path id="Path_2406" data-name="Path 2406" d="M393.352,410.214a7.159,7.159,0,1,1-7.159-7.159,7.159,7.159,0,0,1,7.159,7.159" transform="translate(-301.507 -320.615)" fill="#d9bcff"/>
          <path id="Path_2407" data-name="Path 2407" d="M346.753,374.961a8.959,8.959,0,0,1-2.459-.721l.34-.744a8.124,8.124,0,0,0,2.234.655Zm2.561,0-.115-.81a8.1,8.1,0,0,0,2.233-.654l.34.744a8.922,8.922,0,0,1-2.459.721m4.613-2.106-.536-.618a8.208,8.208,0,0,0,1.527-1.76l.688.443a9.023,9.023,0,0,1-1.679,1.936m-11.788,0a9.057,9.057,0,0,1-1.678-1.936l.688-.443a8.211,8.211,0,0,0,1.526,1.76Zm14.532-4.266-.785-.23a8.183,8.183,0,0,0,.33-2.305h.818a9.013,9.013,0,0,1-.362,2.535m-17.276,0a9.025,9.025,0,0,1-.362-2.535h.818a8.19,8.19,0,0,0,.329,2.3Zm16.49-4.84a8.136,8.136,0,0,0-.967-2.118l.688-.443a8.949,8.949,0,0,1,1.065,2.33Zm-15.7,0-.785-.23a8.959,8.959,0,0,1,1.066-2.33l.688.443a8.134,8.134,0,0,0-.968,2.118m13.21-3.877a8.169,8.169,0,0,0-1.958-1.261l.34-.744a9,9,0,0,1,2.154,1.387Zm-10.715,0-.536-.618a9.007,9.007,0,0,1,2.155-1.386l.34.744a8.19,8.19,0,0,0-1.959,1.261m6.523-1.916a5.522,5.522,0,0,0-1.173-.082,8.231,8.231,0,0,0-1.157.082l-.115-.81a8.438,8.438,0,0,1,1.28-.09,9.143,9.143,0,0,1,1.28.09Z" transform="translate(-269.688 -284.021)" fill="#7522de"/>
          <path id="Path_2408" data-name="Path 2408" d="M2289.459,956.156l-.059-.817a29.011,29.011,0,0,0,4.776-.745l.193.8a30.043,30.043,0,0,1-4.91.766m-4.969-.053a29.921,29.921,0,0,1-4.894-.87l.209-.791a29.089,29.089,0,0,0,4.76.846Zm14.593-2.288-.323-.751a29.06,29.06,0,0,0,4.264-2.272l.443.687a29.672,29.672,0,0,1-4.384,2.335m-24.168-.257a29.927,29.927,0,0,1-4.337-2.431l.458-.678a29.108,29.108,0,0,0,4.217,2.364Zm32.49-5.108-.551-.606a29.392,29.392,0,0,0,3.294-3.54l.642.507a30.186,30.186,0,0,1-3.385,3.639m-40.7-.437a30.223,30.223,0,0,1-3.307-3.71l.653-.492a29.481,29.481,0,0,0,3.218,3.609Zm46.825-7.35-.717-.393a28.968,28.968,0,0,0,1.958-4.422l.773.267a29.776,29.776,0,0,1-2.014,4.549m-52.781-.564a29.8,29.8,0,0,1-1.914-4.588l.778-.251a29,29,0,0,0,1.862,4.461Zm56.019-8.8-.807-.134a29.425,29.425,0,0,0,.4-4.817h.818a30.251,30.251,0,0,1-.408,4.951m-59.054-.627a30.222,30.222,0,0,1-.31-4.324c0-.212,0-.424.006-.635l.818.016q-.006.309-.006.619a29.137,29.137,0,0,0,.3,4.206Zm58.425-7.917a28.959,28.959,0,0,0-.99-4.732l.784-.233a29.8,29.8,0,0,1,1.017,4.864Zm-57.412-1.834-.8-.152a29.719,29.719,0,0,1,1.328-4.79l.767.285a28.851,28.851,0,0,0-1.291,4.657m54.657-7.4a29.327,29.327,0,0,0-2.488-4.142l.663-.478a29.836,29.836,0,0,1,2.559,4.259Zm-51.314-1.638-.71-.408a29.978,29.978,0,0,1,2.826-4.089l.632.519a29.13,29.13,0,0,0-2.749,3.977m45.686-6.179a29.168,29.168,0,0,0-3.7-3.109l.473-.668a30.13,30.13,0,0,1,3.807,3.2Zm-39.569-1.267-.539-.617a30.1,30.1,0,0,1,4-2.946l.428.7a29.217,29.217,0,0,0-3.892,2.866m31.7-4.294a28.81,28.81,0,0,0-4.517-1.727l.227-.786a29.585,29.585,0,0,1,4.646,1.776Zm-23.5-.751-.307-.759a29.788,29.788,0,0,1,4.747-1.472l.176.8a29,29,0,0,0-4.616,1.432m14.24-1.923a29.682,29.682,0,0,0-4.832-.153l-.042-.817a30.19,30.19,0,0,1,4.966.156Z" transform="translate(-1795.676 -713.099)" fill="#9192ff"/>
          <path id="Path_2409" data-name="Path 2409" d="M2302.357,859.937a29.478,29.478,0,1,1-29.478-29.477,29.478,29.478,0,0,1,29.478,29.477" transform="translate(-1784.538 -660.599)" fill="#d9bcff"/>
          <path id="Path_2410" data-name="Path 2410" d="M2359.048,906.044l-9.446,5.847-9.1-15.244-.861.513,9.624,16.121,10.312-6.384Z" transform="translate(-1861.091 -713.249)" fill="#1b1b43"/>
        </g>
      </g>
      <g id="Group_817" data-name="Group 817" transform="translate(354.649 28.483)">
        <g id="Group_816" data-name="Group 816" clip-path="url(#clip-path-2)">
          <path id="Path_2411" data-name="Path 2411" d="M1733.893,217.429a5.793,5.793,0,0,0,5.793,5.793h126.728a5.793,5.793,0,0,0,5.793-5.793V139.255H1733.893Z" transform="translate(-1733.893 -139.255)" fill="#fff"/>
          <g id="Group_806" data-name="Group 806" transform="translate(-25.795 20.752)" opacity="0.6">
            <g id="Group_805" data-name="Group 805">
              <g id="Group_804" data-name="Group 804" clip-path="url(#clip-path-3)">
                <path id="Path_2412" data-name="Path 2412" d="M1618.043,244.51a26.557,26.557,0,0,1,39,14.469,22.438,22.438,0,0,1,24.179,24.353,18.234,18.234,0,0,1,28.194,1.315,51.105,51.105,0,0,1,74.971,5.847l1.916,49.752-129.4-5.588-49.115-21.175Z" transform="translate(-1607.781 -240.711)" fill="#d9bcff"/>
              </g>
            </g>
          </g>
          <path id="Path_2413" data-name="Path 2413" d="M1663.3,364.785c5.854-3.7,12.752-6.422,19.6-5.4s13.294,6.8,13.163,13.723a12.407,12.407,0,0,1,11.111,12.008,10.8,10.8,0,0,1,16.261,7.665c11.053-5.6,23.562-9.381,35.8-7.426s23.924,10.758,26.366,22.907l-19,12.388-83.525-11.47-23.528-10Z" transform="translate(-1674.752 -314.19)" fill="#fff"/>
          <path id="Path_2414" data-name="Path 2414" d="M2023.423,237.514a7.027,7.027,0,1,1,12.117-7c4.391-.843,9.4.194,12.248,3.641s2.476,9.457-1.385,11.711c2.434,1.649,2.589,5.451.934,7.882s-4.575,3.69-7.448,4.316a13.036,13.036,0,0,1-8.078-.421c-2.5-1.125-4.471-3.738-4.178-6.466-3.515,2.69-9.421,1.062-11.062-3.048s2.42-10.1,6.821-10.566Z" transform="translate(-1958.456 -208.669)" fill="#fff2e0"/>
          <path id="Path_2415" data-name="Path 2415" d="M1932.391,219.989a3.223,3.223,0,1,0-5.557-3.209,5.875,5.875,0,0,0-5.617,1.67c-1.306,1.58-1.136,4.337.635,5.371a2.675,2.675,0,0,0-.428,3.615,5.4,5.4,0,0,0,3.416,1.98,5.978,5.978,0,0,0,3.705-.193,3.092,3.092,0,0,0,1.916-2.965,3.46,3.46,0,0,0,5.073-1.4c.752-1.885-1.11-4.631-3.128-4.846Z" transform="translate(-1882.221 -199.464)" fill="#fff2e0"/>
          <g id="Group_809" data-name="Group 809" transform="translate(106.117 21.584)" opacity="0.6">
            <g id="Group_808" data-name="Group 808">
              <g id="Group_807" data-name="Group 807" clip-path="url(#clip-path-4)">
                <path id="Path_2416" data-name="Path 2416" d="M2258.779,249.276a2.373,2.373,0,0,1-1.164,1.506c-1.523.881-3.581-.231-4.45-1.551a2.9,2.9,0,0,1,.279-3.521c2.645-2.68,5.974,1.019,5.335,3.567" transform="translate(-2252.699 -244.778)" fill="#d9bcff"/>
              </g>
            </g>
          </g>
          <g id="Group_812" data-name="Group 812" transform="translate(20.096 9.216)" opacity="0.6">
            <g id="Group_811" data-name="Group 811">
              <g id="Group_810" data-name="Group 810" clip-path="url(#clip-path-5)">
                <path id="Path_2417" data-name="Path 2417" d="M1838.218,188.809a2.374,2.374,0,0,1-1.164,1.506c-1.523.881-3.581-.231-4.45-1.551a2.9,2.9,0,0,1,.279-3.521c2.646-2.68,5.973,1.019,5.335,3.567" transform="translate(-1832.138 -184.311)" fill="#d9bcff"/>
              </g>
            </g>
          </g>
          <g id="Group_815" data-name="Group 815" transform="translate(49.627 43.959)" opacity="0.6">
            <g id="Group_814" data-name="Group 814">
              <g id="Group_813" data-name="Group 813" clip-path="url(#clip-path-6)">
                <path id="Path_2418" data-name="Path 2418" d="M1976.556,356.31a1.141,1.141,0,0,0,.591.716,1.917,1.917,0,0,0,2.257-.738,1.311,1.311,0,0,0-.141-1.675c-1.342-1.275-3.03.485-2.706,1.7" transform="translate(-1976.517 -354.17)" fill="#d9bcff"/>
              </g>
            </g>
          </g>
        </g>
      </g>
      <g id="Group_837" data-name="Group 837">
        <g id="Group_836" data-name="Group 836" clip-path="url(#clip-path)">
          <path id="Path_2420" data-name="Path 2420" d="M1864.824,222.039H1738.1a6.209,6.209,0,0,1-6.2-6.2V137.254h139.131v78.583a6.209,6.209,0,0,1-6.2,6.2m-132.111-83.967v77.765a5.39,5.39,0,0,0,5.383,5.384h126.728a5.39,5.39,0,0,0,5.384-5.384V138.072Z" transform="translate(-1377.655 -109.181)" fill="#7522de"/>
          <path id="Path_2421" data-name="Path 2421" d="M1866.413,8.408H1739.686a5.793,5.793,0,0,0-5.793,5.793v20.97h138.314V14.2a5.793,5.793,0,0,0-5.793-5.793" transform="translate(-1379.244 -6.689)" fill="#fff"/>
          <path id="Path_2422" data-name="Path 2422" d="M1871.026,33.989H1731.9V12.61a6.209,6.209,0,0,1,6.2-6.2h126.728a6.209,6.209,0,0,1,6.2,6.2Zm-138.313-.818h137.5V12.61a5.39,5.39,0,0,0-5.384-5.384H1738.1a5.39,5.39,0,0,0-5.383,5.384Z" transform="translate(-1377.655 -5.098)" fill="#7522de"/>
          <path id="Path_2423" data-name="Path 2423" d="M1801.432,56.93a5.85,5.85,0,1,1,5.85-5.85,5.856,5.856,0,0,1-5.85,5.85m0-10.882a5.032,5.032,0,1,0,5.032,5.032,5.037,5.037,0,0,0-5.032-5.032" transform="translate(-1428.315 -35.979)" fill="#7522de"/>
          <path id="Path_2424" data-name="Path 2424" d="M2227.6,56.1h-27.76a2.794,2.794,0,0,1-2.79-2.79V46.62a2.794,2.794,0,0,1,2.79-2.79h27.76a2.792,2.792,0,0,1,2.789,2.79v6.693a2.792,2.792,0,0,1-2.789,2.79m-27.76-11.454a1.974,1.974,0,0,0-1.972,1.972v6.693a1.974,1.974,0,0,0,1.972,1.972h27.76a1.974,1.974,0,0,0,1.971-1.972V46.62a1.974,1.974,0,0,0-1.971-1.972Z" transform="translate(-1747.664 -34.865)" fill="#7522de"/>
          <path id="Path_2425" data-name="Path 2425" d="M34.026,11.733C24.944,2.127,17.1-.105,9.639,0c3.5,1.571,6.668,3.274,8.295,5.6C15.167,4.564,4.69,2.248,2.466,2.694,8.039,4.851,13.132,7.15,16.813,9.867L0,10.988c9.512,2.285,17.713,6.241,23.538,13.226Z" transform="translate(427.434 129.066) rotate(-81)" fill="#fc9e22"/>
          <g id="Group_820" data-name="Group 820" transform="translate(438.688 114.104) rotate(-81)" opacity="0.6">
            <g id="Group_819" data-name="Group 819">
              <g id="Group_818" data-name="Group 818" clip-path="url(#clip-path-8)">
                <path id="Path_2426" data-name="Path 2426" d="M15.8,8.541C12.641,2.657,9.23.7,5.738,0A9.636,9.636,0,0,1,8.977,3.739C7.8,2.918,3.175.654,2.087.657A29.37,29.37,0,0,1,7.973,5.823L0,4.687c4.182,2.149,7.563,5.028,9.494,9.228Z" transform="translate(0 -0.001)" fill="#fff"/>
              </g>
            </g>
          </g>
          <path id="Path_2427" data-name="Path 2427" d="M0,14.46c3.652,4.513,21-.781,29.575,2.007L11.677,0Z" transform="translate(471.957 108.826) rotate(-81)" fill="#7522de"/>
          <path id="Path_2428" data-name="Path 2428" d="M7.569,0,.774,11.226A5.355,5.355,0,0,0,.244,15.6L.872,17.6,12.549,3.143Z" transform="translate(468.717 109.195) rotate(-81)" fill="#d9bcff"/>
          <path id="Path_2429" data-name="Path 2429" d="M11.948,0c5.13,2.717,3.268,20.763,7.65,28.639L0,14.237Z" transform="translate(443.044 76.239) rotate(-81)" fill="#7522de"/>
          <path id="Path_2430" data-name="Path 2430" d="M0,10.216,9.712,1.392A5.355,5.355,0,0,1,13.9.032l2.089.23L4.041,14.5Z" transform="translate(442.153 80.189) rotate(-81)" fill="#d9bcff"/>
          <path id="Path_2431" data-name="Path 2431" d="M12.544,11.921,8.3,0,0,10.274Z" transform="translate(489.784 64.626) rotate(-81)" fill="#1b1b43"/>
          <path id="Path_2432" data-name="Path 2432" d="M45.78,48.11C27.673,50.049,9.9,36.116,0,15.249L12.315,0C33.721,3.765,51.022,18.089,54.078,37.836Z" transform="translate(445.252 103.924) rotate(-81)" fill="#d9bcff"/>
          <path id="Path_2433" data-name="Path 2433" d="M15.285,0l4.553,6.712L7.524,21.961,0,18.928Z" transform="translate(437.446 110.305) rotate(-81)" fill="#7522de"/>
          <path id="Path_2434" data-name="Path 2434" d="M15.677,13.646h0a1.912,1.912,0,0,1-2.7.215L.672,3.366A1.912,1.912,0,0,1,3.152.457l12.31,10.494a1.912,1.912,0,0,1,.215,2.7" transform="translate(443.637 107.471) rotate(-81)" fill="#1b1b43"/>
          <path id="Path_2435" data-name="Path 2435" d="M14.093,7.046A7.046,7.046,0,1,1,7.046,0a7.046,7.046,0,0,1,7.046,7.046" transform="translate(475.791 77.746) rotate(-81)" fill="#fff"/>
          <path id="Path_2436" data-name="Path 2436" d="M7.22,3.61A3.61,3.61,0,1,1,3.61,0,3.61,3.61,0,0,1,7.22,3.61" transform="translate(479.723 74.889) rotate(-81)" fill="#1b1b43"/>
          <g id="Group_823" data-name="Group 823" transform="translate(151.829 136.281)" opacity="0.6">
            <g id="Group_822" data-name="Group 822">
              <g id="Group_821" data-name="Group 821" clip-path="url(#clip-path-9)">
                <path id="Path_2437" data-name="Path 2437" d="M758.6,818.969a109.957,109.957,0,0,1-15.287-62.3,96.549,96.549,0,0,1,20.868-53.915c11.476-14.422,26.993-25.765,44.561-31.52a86.212,86.212,0,0,1,53.782.4c19.593,6.479,36.953,19.688,47.2,37.731a.409.409,0,0,0,.707-.413c-18.393-32.373-59.115-48.995-95.09-40.429-37.271,8.874-66.391,42.152-71.963,79.778-3.627,24.5,2.01,49.832,14.513,71.086a.409.409,0,0,0,.706-.413" transform="translate(-742.297 -666.284)" fill="#7522de"/>
              </g>
            </g>
          </g>
          <g id="Group_826" data-name="Group 826" transform="translate(136.18 143.071)" opacity="0.3">
            <g id="Group_825" data-name="Group 825">
              <g id="Group_824" data-name="Group 824" clip-path="url(#clip-path-10)">
                <path id="Path_2438" data-name="Path 2438" d="M927.564,825.46c16.194-34.2,16.807-76.133-10.322-103.6a76.446,76.446,0,0,0-50.807-22.3c-27.424-1.147-52.248,12.077-76.453,23.984-25.777,12.68-47.68,19.649-76.106,19.038-11.94-.256-24.824.762-34.406,8.235-24.165,18.848-11.348,51.508.659,72.258a156.707,156.707,0,0,0,16.449,23.227H914.644c6.482-9.7,11.906-18.692,12.92-20.834" transform="translate(-665.79 -699.483)" fill="#d9bcff"/>
              </g>
            </g>
          </g>
          <path id="Path_2439" data-name="Path 2439" d="M1074.875,1141.055a131.87,131.87,0,0,0-11.863,56.453l98.521-.05-4.024-52.447Z" transform="translate(-845.58 -907.665)" fill="#111011"/>
          <rect id="Rectangle_5786" data-name="Rectangle 5786" width="22.967" height="1.227" transform="translate(269.996 260.345) rotate(-85.89)" fill="#1b1b43"/>
          <path id="Path_2440" data-name="Path 2440" d="M1129.4,296.425a10.909,10.909,0,0,0-.012-8.449,9.766,9.766,0,0,0-2.6-3.359,11.013,11.013,0,0,0-3.768-2,11.136,11.136,0,0,0-8.359.643,12.874,12.874,0,0,0-5.724,6.336l-.3-.121a14.7,14.7,0,0,1,2.2-3.929,11.314,11.314,0,0,1,12.417-3.7,10.754,10.754,0,0,1,6.759,5.855,9.889,9.889,0,0,1,.78,4.483,13.245,13.245,0,0,1-1.1,4.37Z" transform="translate(-881.882 -223.762)" fill="#1b1b43"/>
          <path id="Path_2441" data-name="Path 2441" d="M1215.593,332.371c.237,6.754-3.473,13.079-8.5,17.479a32.668,32.668,0,0,1-19.4,7.957c-7.209.429-12.587,7.039-19.716,7.928-7.685.958-12.023-7-13.531-13.365a33.97,33.97,0,0,1,19.193-38.541,32.969,32.969,0,0,1,26.626.188c6.72,2.978,13.672,8.139,15.067,15.885a17.375,17.375,0,0,1,.264,2.47" transform="translate(-917.614 -247.479)" fill="#1b1b43"/>
          <path id="Path_2442" data-name="Path 2442" d="M1116.235,304.328a12.731,12.731,0,1,1-12.73-12.86,12.8,12.8,0,0,1,12.73,12.86" transform="translate(-867.668 -231.852)" fill="#1b1b43"/>
          <rect id="Rectangle_5787" data-name="Rectangle 5787" width="25.895" height="36.146" transform="translate(254.113 105.013)" fill="#ffbc96"/>
          <path id="Path_2443" data-name="Path 2443" d="M1285.221,535.175v24.242c-12.411-3.166-18.441-11.053-21.534-21.133Z" transform="translate(-1005.213 -425.711)" fill="#1b1b43"/>
          <path id="Path_2444" data-name="Path 2444" d="M1276.173,376.746s-.008,3.035-.278,7.478c-.172,2.7-.434,5.915-.859,9.286-.2,1.6-.442,3.224-.72,4.852a69.448,69.448,0,0,1-2.1,9.032c-1.669,5.285-4.034,9.548-7.388,10.955a10.865,10.865,0,0,1-1.718.548c-4.606,1.072-11.732-.049-18.4-5.277a32.659,32.659,0,0,1-4.443-4.214c-1.6-1.816-1.039-3.551-2.438-5.989-.131-.213.123-1.219,0-1.432l-1.939-3.4.851-6.341.409-3.052,1.98-14.768,18.613-5.367Z" transform="translate(-983.1 -293.569)" fill="#ffbc96"/>
          <path id="Path_2445" data-name="Path 2445" d="M1214.855,369.711c7.261-2.6,9.634-3.268,13.316-12.881,18.272,6,29.385,5.25,31.226,2.182l-1.054-9.881-17.539-9.843-19.686,6.622-8.769,11.454Z" transform="translate(-964.376 -269.89)" fill="#1b1b43"/>
          <path id="Path_2446" data-name="Path 2446" d="M1217.5,469.258c2.284,3.677,1.863,8.07-.942,9.813s-6.93.175-9.215-3.5-1.863-8.07.942-9.813,6.93-.175,9.215,3.5" transform="translate(-959.225 -369.925)" fill="#ffbc96"/>
          <path id="Path_2447" data-name="Path 2447" d="M1172.331,347.055a33.721,33.721,0,0,0-3.516,2.924,27.436,27.436,0,0,0-2.879,3.231,25.068,25.068,0,0,0-2.3,3.642,28.849,28.849,0,0,0-1.736,4.214,8.941,8.941,0,0,1-.077-4.876,12.268,12.268,0,0,1,2.158-4.463,12.8,12.8,0,0,1,3.686-3.291,9.367,9.367,0,0,1,4.665-1.381" transform="translate(-923.945 -276.069)" fill="#fc9e22"/>
          <path id="Path_2448" data-name="Path 2448" d="M1220.925,481.135a4.583,4.583,0,0,1,2.081.678,6.484,6.484,0,0,1,1.669,1.426,5.753,5.753,0,0,1,1.087,1.93,3.421,3.421,0,0,1,.017,2.225l-.376-.076a4.442,4.442,0,0,0-.447-1.842,7.705,7.705,0,0,0-1.033-1.612,8.828,8.828,0,0,0-1.388-1.358,6.984,6.984,0,0,0-1.686-1Z" transform="translate(-971.138 -382.724)" fill="#1b1b43"/>
          <path id="Path_2449" data-name="Path 2449" d="M1345.307,486.677a1.675,1.675,0,1,1-1.615-2.122,1.921,1.921,0,0,1,1.615,2.122" transform="translate(-1067.571 -385.445)" fill="#1b1b43"/>
          <path id="Path_2450" data-name="Path 2450" d="M1401.909,492.724a1.469,1.469,0,1,1-1.416-1.86,1.685,1.685,0,0,1,1.416,1.86" transform="translate(-1112.912 -390.463)" fill="#1b1b43"/>
          <path id="Path_2451" data-name="Path 2451" d="M1383.24,511.524a.941.941,0,0,0,.3.625,1.924,1.924,0,0,0,.62.417,3.543,3.543,0,0,1,1.59,1.058,1.6,1.6,0,0,1,.26,1.1,1.909,1.909,0,0,1-.437.977,2.437,2.437,0,0,1-1.742.785l-.07-.312a2.756,2.756,0,0,0,1.243-.911,1.091,1.091,0,0,0,.073-1.186,4.218,4.218,0,0,0-1.258-.915,2.36,2.36,0,0,1-.723-.686,1.244,1.244,0,0,1-.167-1.012Z" transform="translate(-1100.025 -406.853)" fill="#d28572"/>
          <path id="Path_2452" data-name="Path 2452" d="M1357.367,552.707a10.241,10.241,0,0,1-3.919-.084,9.239,9.239,0,0,1-1.9-.586,4.857,4.857,0,0,1-1.683-1.138l.277-.392a31.512,31.512,0,0,0,3.553.921c1.21.264,2.432.492,3.672.8Z" transform="translate(-1073.767 -437.905)" fill="#1b1b43"/>
          <path id="Path_2453" data-name="Path 2453" d="M1329.432,464.481c.065.689-2.276.537-4.474.895-2.383.388-4.091.641-4.091-.051s1.817-1.665,4.193-2.1c2.812-.511,4.244-.1,4.372,1.253" transform="translate(-1050.698 -368.311)" fill="#1b1b43"/>
          <path id="Path_2454" data-name="Path 2454" d="M1394.963,467.957c-.158.672,1.646.8,3.262,1.424,1.752.671,3.01,1.127,3.119.443s-1.121-1.863-2.86-2.577c-2.059-.844-3.212-.613-3.521.71" transform="translate(-1109.63 -371.283)" fill="#1b1b43"/>
          <g id="Group_829" data-name="Group 829" transform="translate(261.953 101.394)" opacity="0.2">
            <g id="Group_828" data-name="Group 828">
              <g id="Group_827" data-name="Group 827" clip-path="url(#clip-path-11)">
                <path id="Path_2455" data-name="Path 2455" d="M1291,500.869a5.148,5.148,0,1,1-5.148-5.148,5.148,5.148,0,0,1,5.148,5.148" transform="translate(-1280.701 -495.721)" fill="#fe5b52"/>
              </g>
            </g>
          </g>
          <g id="Group_832" data-name="Group 832" transform="translate(287.183 104.792)" opacity="0.2">
            <g id="Group_831" data-name="Group 831">
              <g id="Group_830" data-name="Group 830" clip-path="url(#clip-path-12)">
                <path id="Path_2456" data-name="Path 2456" d="M1408.081,512.335a69.465,69.465,0,0,1-2.1,9.032,5.138,5.138,0,0,1,2.1-9.032" transform="translate(-1404.048 -512.335)" fill="#fe5b52"/>
              </g>
            </g>
          </g>
          <path id="Path_2457" data-name="Path 2457" d="M723.207,786.253c-11.25-4.363-29.863-20.113-30.681-22.567-1.131-3.395,5.318-1.023,10.432,2.659Z" transform="translate(-550.773 -606.179)" fill="#d28572"/>
          <path id="Path_2458" data-name="Path 2458" d="M1119.865,707.991l-7.421,13.4-14.539,26.271a8.518,8.518,0,0,1-7.453,4.394h-77.307a8.521,8.521,0,0,1-8.517-8.787l1.006-32.285-25.24-15.831,8.8-21.984a37.963,37.963,0,0,1,27.081-22.982l7.372-.679,26.427-2.454,19.071,2.463,13.148,1.694a35.008,35.008,0,0,1,27.253,23.964l5.04,16.028Z" transform="translate(-779.865 -514.707)" fill="#fc9e22"/>
          <path id="Path_2459" data-name="Path 2459" d="M803.193,836.022a37.145,37.145,0,0,1-6.259,9.2c-5.113,5.375-13.123,9.5-23.056.483a17.341,17.341,0,0,1-1.432-1.464c-8.28-9.425-10.865-30.337-18.613-50.489-9.106-3.477-26.991-18.539-22.107-22.172a.548.548,0,0,1,.589-.033c2.062,1.055,14.383,7.183,22.606,6.938,9-.278,17.729-1.915,24.823,11.994s23.448,45.547,23.448,45.547" transform="translate(-581.4 -613.677)" fill="#ffbc96"/>
          <path id="Path_2460" data-name="Path 2460" d="M980.388,882.213l4.359,35.9,13.091,12.409c8.727-11.591,7.772-23.454,7.792-32.478Z" transform="translate(-779.86 -701.766)" fill="#ffbc96"/>
          <path id="Path_2461" data-name="Path 2461" d="M1564.241,879.683l-7.421,13.4-16.191,3.445-1.6-21.059,19.922-12.575Z" transform="translate(-1224.241 -686.399)" fill="#ffbc96"/>
          <rect id="Rectangle_5790" data-name="Rectangle 5790" width="0.818" height="23.327" transform="translate(199.887 180.294) rotate(-27.127)" fill="#d28572"/>
          <rect id="Rectangle_5791" data-name="Rectangle 5791" width="29.901" height="0.818" transform="matrix(0.041, -0.999, 0.999, 0.041, 225.347, 196.258)" fill="#1b1b43"/>
          <rect id="Rectangle_5792" data-name="Rectangle 5792" width="0.817" height="44.15" transform="translate(312.407 166.157) rotate(-4.645)" fill="#1b1b43"/>
          <path id="Path_2462" data-name="Path 2462" d="M1236.851,651.285c0,8.353-10.26,15.136-22.908,15.136s-22.908-6.782-22.908-15.136a9.2,9.2,0,0,1,.164-1.775l26.426-2.454,19.071,2.463a9.8,9.8,0,0,1,.155,1.767" transform="translate(-947.421 -514.707)" fill="#ffbc96"/>
          <path id="Path_2463" data-name="Path 2463" d="M1231.85,757.758a39.725,39.725,0,0,1-18.77-5.15l.39-.719c9.6,5.208,24.167,9.015,39.032-2.419l.5.649c-7.3,5.614-14.524,7.64-21.15,7.64" transform="translate(-964.958 -596.174)" fill="#cc811a"/>
          <g id="Group_835" data-name="Group 835" transform="translate(191.047 224.251)" opacity="0.2">
            <g id="Group_834" data-name="Group 834">
              <g id="Group_833" data-name="Group 833" clip-path="url(#clip-path-13)">
                <path id="Path_2464" data-name="Path 2464" d="M958.522,1103.665c-5.114,5.375-13.123,9.5-23.056.483a17.268,17.268,0,0,1-1.432-1.465,14.449,14.449,0,0,1,24.487.982" transform="translate(-934.034 -1096.375)" fill="#fe5b52"/>
              </g>
            </g>
          </g>
          <rect id="Rectangle_5794" data-name="Rectangle 5794" width="35.385" height="8.182" transform="translate(282.067 229.777)" fill="#c08dff"/>
          <path id="Path_2465" data-name="Path 2465" d="M1578.949,896.146h-83.177l29.617-68.717h83.177Z" transform="translate(-1189.828 -658.188)" fill="#c08dff"/>
          <path id="Path_2466" data-name="Path 2466" d="M1597.491,1108.315a2.6,2.6,0,0,0-2.919.046c-.958.731-1.015,1.933-.027,3.6,1.437,2.431,16.8,15.14,33.6,1.989s-4.642-5.3-4.642-5.3,3.978-10.278,1.326-11.272-8.62,10.941-8.62,10.941,1.326-10.941-1.879-10.278-5.083,10.057-5.083,10.057-.11-7.073-2.321-7.183-4.421,10.5-4.421,10.5Z" transform="translate(-1267.828 -872.874)" fill="#ffbc96"/>
          <rect id="Rectangle_5795" data-name="Rectangle 5795" width="257.735" height="0.818" transform="translate(143.783 289.474)" fill="#1b1b43"/>
        </g>
      </g>
    </g>
  </g>
</svg>
