<svg xmlns="http://www.w3.org/2000/svg" width="76.263" height="76.263" viewBox="0 0 76.263 76.263">
  <g id="Iconly_Broken_Time-Circle" data-name="Iconly/Broken/Time-Circle" transform="translate(-2 -2)">
    <g id="Time-Circle" transform="translate(2 2)">
      <path id="Path_2669" data-name="Path 2669" d="M38.131,0A38.131,38.131,0,1,1,7.9,61.384,2.773,2.773,0,0,1,12.3,58,32.594,32.594,0,1,0,5.548,38.131a32.867,32.867,0,0,0,.37,4.953,2.772,2.772,0,0,1-5.479.839A38.155,38.155,0,0,1,38.131,0ZM36.839,19.483a2.775,2.775,0,0,1,2.772,2.776h0V39.212L52.667,47a2.772,2.772,0,0,1-2.837,4.763h0L35.417,43.166a2.786,2.786,0,0,1-1.35-2.383h0V22.259A2.775,2.775,0,0,1,36.839,19.483Z" fill="#111011"/>
    </g>
  </g>
</svg>
