<svg id="log_in" data-name="log in" xmlns="http://www.w3.org/2000/svg" xmlns:xlink="http://www.w3.org/1999/xlink" width="373.55" height="275.5" viewBox="0 0 373.55 275.5">
  <defs>
    <clipPath id="clip-path">
      <rect id="Rectangle_6059" data-name="Rectangle 6059" width="373.55" height="275.5" fill="none"/>
    </clipPath>
    <clipPath id="clip-path-2">
      <rect id="Rectangle_6058" data-name="Rectangle 6058" width="373.55" height="275.499" fill="none"/>
    </clipPath>
    <clipPath id="clip-path-3">
      <rect id="Rectangle_6051" data-name="Rectangle 6051" width="100.695" height="122.092" fill="#c08dff"/>
    </clipPath>
    <clipPath id="clip-path-4">
      <rect id="Rectangle_6052" data-name="Rectangle 6052" width="31.735" height="5.528" fill="none"/>
    </clipPath>
    <clipPath id="clip-path-5">
      <rect id="Rectangle_6053" data-name="Rectangle 6053" width="27.902" height="39.224" fill="#ffa32a"/>
    </clipPath>
    <clipPath id="clip-path-6">
      <rect id="Rectangle_6054" data-name="Rectangle 6054" width="18.448" height="18.448" fill="none"/>
    </clipPath>
    <clipPath id="clip-path-7">
      <rect id="Rectangle_6055" data-name="Rectangle 6055" width="18.448" height="18.449" fill="none"/>
    </clipPath>
    <clipPath id="clip-path-8">
      <rect id="Rectangle_6056" data-name="Rectangle 6056" width="16.242" height="16.241" fill="#7522de"/>
    </clipPath>
    <clipPath id="clip-path-9">
      <rect id="Rectangle_6057" data-name="Rectangle 6057" width="56.33" height="56.385" fill="#e9f2ff"/>
    </clipPath>
  </defs>
  <g id="Group_14901" data-name="Group 14901" clip-path="url(#clip-path)">
    <g id="Group_14900" data-name="Group 14900" transform="translate(0 0.001)">
      <g id="Group_14899" data-name="Group 14899" clip-path="url(#clip-path-2)">
        <path id="Path_2688" data-name="Path 2688" d="M338.221,78.866S3.665,80.243,1.7,80.435c0,0,27.96,8.142,112.866,7.719S341.85,87,338.221,78.866" transform="translate(3.129 151.412)" fill="#111011"/>
        <path id="Path_2689" data-name="Path 2689" d="M64.951,73C55.523,76.423,58.83,65.668,58.5,61.1s-.071-9.346-1.961-13.52c-1.5-3.333-4.359-6.268-4.367-9.925-.006-2.776,1.665-5.254,2.37-7.942.966-3.7.065-7.646.685-11.42A14.84,14.84,0,0,1,71.18,6.429c3.637.475,7.146,2.344,10.778,1.844,4-.551,7-3.793,10.488-5.839a17.157,17.157,0,0,1,16.2-.744,14.4,14.4,0,0,1,7.791,13.875c-.611,5.609-5.473,10.587-11.1,10.9-3.288.182-6.456-1.074-9.647-1.887s-6.828-1.111-9.547.744C82.7,27.661,81.23,33.048,77.1,33.435c-2.182.2-4.146-1.185-6.152-2.069s-4.813-1.054-5.95.821c-.941,1.549-.159,3.512.051,5.314.381,3.29-.392,6.578-3.373,8.03-1.2,9.09,1.546,17.8,4.251,26.562" transform="translate(96.07 0)" fill="#552e3b"/>
        <path id="Path_2690" data-name="Path 2690" d="M45.837,173.545,20.386,31.182h81.857l30.3,139.67Z" transform="translate(37.541 57.419)" fill="#c08dff"/>
        <path id="Path_2691" data-name="Path 2691" d="M48.942,173.35,22.118,31.182h81.857l30.3,139.67Z" transform="translate(40.73 57.419)" fill="#d9bcff"/>
        <g id="Group_14880" data-name="Group 14880" transform="translate(79.236 88.6)" opacity="0.44">
          <g id="Group_14879" data-name="Group 14879">
            <g id="Group_14878" data-name="Group 14878" clip-path="url(#clip-path-3)">
              <path id="Path_2692" data-name="Path 2692" d="M94.247,31.181S65.94,43.664,58.018,57.067c-6.845,11.582-39.6,79.7-27.457,89.24s92.78,6.507,92.78,6.507l5.24-21.686L65.258,120.284,104.07,86.169Z" transform="translate(-27.885 -31.182)" fill="#c08dff"/>
            </g>
          </g>
        </g>
        <path id="Path_2693" data-name="Path 2693" d="M135.831,63.284c-.449-1.381-3.583-31.5-35.337-30.762-29.767.7-46.333,2.418-56.7,25.576l11.059,43.767,2.293,67.715,85.847-2.768Z" transform="translate(80.638 59.862)" fill="#e9f2ff"/>
        <path id="Path_2694" data-name="Path 2694" d="M80.842,35.619A57.345,57.345,0,0,0,60.77,55.47c-6.845,11.579-39.6,79.7-27.457,89.24s92.78,6.5,92.78,6.5l5.24-21.686L68.01,118.687l11.059-22.55Z" transform="translate(56.419 65.59)" fill="#e9f2ff"/>
        <path id="Path_2695" data-name="Path 2695" d="M70.662,34.294s30.324,20.334,61.964,73.245l-12.784,31.313L86.472,96.517Z" transform="translate(130.123 63.15)" fill="#e9f2ff"/>
        <path id="Path_2696" data-name="Path 2696" d="M59.257,85.931h69.486L132.181,80,59.257,82.092Z" transform="translate(109.121 147.313)" fill="#c08dff"/>
        <path id="Path_2697" data-name="Path 2697" d="M67.626,71.4H96.092s17.418,15.52,14.4,16.276-13.65-9.749-13.65-9.749l8.107,18.018S92.5,94.253,88.457,90.863s-7.814-6.03-7.814-6.03l-16.2,1.506Z" transform="translate(118.672 131.484)" fill="#f6aea6"/>
        <path id="Path_2698" data-name="Path 2698" d="M49.758,35.935a4.155,4.155,0,0,1,.753-.114,4.5,4.5,0,0,1,.923-.048,7,7,0,0,1,1.262.077,12.857,12.857,0,0,1,7.129,3.535,16.711,16.711,0,0,1,3.353,4.441,17.742,17.742,0,0,1,1.844,6.112c.588,4.5-.233,9.485-1.671,14.438A118.2,118.2,0,0,1,53.137,88.73C51.477,91.68,50.02,94,48.965,95.572c-.514.793-.946,1.389-1.23,1.8a4.1,4.1,0,0,1-.46.605,4.467,4.467,0,0,1,.378-.659c.287-.46.671-1.074,1.151-1.847,1-1.6,2.41-3.944,4.026-6.908a124.719,124.719,0,0,0,10.045-24.32C64.3,59.315,65.122,54.405,64.568,50a16.788,16.788,0,0,0-4.984-10.357,12.932,12.932,0,0,0-6.913-3.6,17.73,17.73,0,0,0-2.913-.105" transform="translate(87.053 65.865)" fill="#452775"/>
        <path id="Path_2699" data-name="Path 2699" d="M74.7,42.113a2.766,2.766,0,0,1,.131.6c.074.449.165,1.023.281,1.736.247,1.571.591,3.737,1.012,6.39.864,5.45,2.04,12.878,3.339,21.084,1.259,8.243,2.319,15.722,2.921,21.155.3,2.719.5,4.921.605,6.447.037.722.065,1.3.088,1.759a2.927,2.927,0,0,1,0,.617,2.826,2.826,0,0,1-.1-.608c-.048-.452-.108-1.031-.182-1.75-.165-1.517-.412-3.714-.762-6.422-.69-5.416-1.8-12.88-3.063-21.124s-2.424-15.7-3.194-21.107c-.386-2.705-.676-4.9-.858-6.416l-.188-1.75a2.855,2.855,0,0,1-.031-.614" transform="translate(137.544 77.549)" fill="#111011"/>
        <g id="Group_14883" data-name="Group 14883" transform="translate(98.525 244.473)" opacity="0.14">
          <g id="Group_14882" data-name="Group 14882">
            <g id="Group_14881" data-name="Group 14881" clip-path="url(#clip-path-4)">
              <path id="Path_2700" data-name="Path 2700" d="M66.41,88.8c0,1.526-7.1,2.765-15.867,2.765s-15.87-1.239-15.87-2.765,7.107-2.765,15.87-2.765S66.41,87.276,66.41,88.8" transform="translate(-34.675 -86.039)" fill="#b8abd6"/>
            </g>
          </g>
        </g>
        <path id="Path_2701" data-name="Path 2701" d="M62.433,78.23s-13.7-5.186-26.48,0V81.19s-4.629-.369-4.629,4.075,1.48,10.369,7.408,12.778l2.591,8.147s11.11,2.776,16.85,0c0,0,1.3-4.265,2.41-8.7.8-3.2,1.85-19.257,1.85-19.257M33.58,86.9c-.307-3.739,2.768-2.523,2.768-2.523L37.976,94.96s-3.825-1.122-4.4-8.058" transform="translate(57.683 139.813)" fill="#fc9e22"/>
        <path id="Path_2702" data-name="Path 2702" d="M56.278,77.662s-12.017-2.9-22.612.1c0,0,10.871,9.1,22.612-.1" transform="translate(61.993 140.693)" fill="#db9d6a"/>
        <path id="Path_2703" data-name="Path 2703" d="M57.832,81.174a3.821,3.821,0,0,1-.884.429,24.962,24.962,0,0,1-2.518.9,34.326,34.326,0,0,1-17.472.58,24.17,24.17,0,0,1-2.572-.727,3.639,3.639,0,0,1-.909-.369c.026-.082,1.355.33,3.555.753a38.916,38.916,0,0,0,17.3-.574c2.162-.568,3.464-1.066,3.5-.986" transform="translate(61.647 149.464)" fill="#6b3f04"/>
        <path id="Path_2704" data-name="Path 2704" d="M57.368,80.267a3.723,3.723,0,0,1-.844.486,20.711,20.711,0,0,1-2.444,1.034,29.027,29.027,0,0,1-17.282.69,20.872,20.872,0,0,1-2.518-.838,3.808,3.808,0,0,1-.881-.415c.031-.085,1.324.406,3.484.912a32.145,32.145,0,0,0,17.083-.682c2.114-.673,3.364-1.267,3.4-1.188" transform="translate(61.505 147.795)" fill="#6b3f04"/>
        <g id="Group_14886" data-name="Group 14886" transform="translate(95.446 183.647)" opacity="0.07">
          <g id="Group_14885" data-name="Group 14885">
            <g id="Group_14884" data-name="Group 14884" clip-path="url(#clip-path-5)">
              <path id="Path_2705" data-name="Path 2705" d="M34.238,99.427c-1.037-1.174-.48-3.123.668-4.185a15.721,15.721,0,0,1,4.123-2.211c1.412-.679,2.827-1.75,3.1-3.293.523-2.958-3.376-5.581-2.39-8.416.929-2.665,5.106-2.475,6.72-4.794,1.767-2.54-.636-6.183.457-9.079a4.869,4.869,0,0,1,5.22-2.768,7.835,7.835,0,0,1,5.112,3.512,21.17,21.17,0,0,1,2.506,5.842c.818,2.654,1.537,5.672.173,8.09-.69,1.225-1.918,2.5-1.389,3.8.324.79,1.185,1.191,1.8,1.787,1.512,1.469,1.338,3.958.639,5.947A15.275,15.275,0,0,1,33.59,96.649" transform="translate(-33.591 -64.631)" fill="#ffa32a"/>
            </g>
          </g>
        </g>
        <path id="Path_2706" data-name="Path 2706" d="M75.145,43.854a13.106,13.106,0,0,1-1.864,3.08,13.188,13.188,0,0,1-2.27,2.8,13.17,13.17,0,0,1,1.864-3.08,13.281,13.281,0,0,1,2.27-2.8" transform="translate(130.746 80.749)" fill="#7522de"/>
        <path id="Path_2707" data-name="Path 2707" d="M56.7,33.781S74.19,79.143,86.406,94.47c0,0,5.129-44.736,0-60.887,0,0-23.434-2.81-29.711.2" transform="translate(104.403 59.645)" fill="#f9fafd"/>
        <path id="Path_2708" data-name="Path 2708" d="M61.788,9.05,60.614,35.959s-8.269-.1-8.26,7.487c.009,9.533,8.962,7.936,8.962,7.936s-1.853,18.191,23.11,19.691c29.2,1.756,22.988-43.881,21.86-65.3Z" transform="translate(96.409 10.626)" fill="#f6aea6"/>
        <path id="Path_2709" data-name="Path 2709" d="M84.763,21.37,83.314,54.183A12.714,12.714,0,0,1,64.921,64.99c-.105-.054-.213-.105-.315-.159a12.717,12.717,0,0,1-7.013-11.769c.352-11.528.475-31.4.475-31.4Z" transform="translate(106.045 39.351)" fill="#f6aea6"/>
        <path id="Path_2710" data-name="Path 2710" d="M87.909,93.34a4.783,4.783,0,0,1-.588-.494c-.378-.335-.921-.844-1.614-1.5-1.384-1.321-3.347-3.276-5.737-5.723s-5.214-5.379-8.473-8.507A61.707,61.707,0,0,1,66.5,72.043,14.841,14.841,0,0,1,63.066,65.2a9.092,9.092,0,0,1,.867-6.078l.372.3a3.526,3.526,0,0,1-3.37.554,5.019,5.019,0,0,1-2.66-1.961A11.627,11.627,0,0,1,56.8,52.141c-.2-3.8-.386-7.189-.537-10.039-.136-2.8-.242-5.058-.321-6.675-.026-.747-.045-1.344-.063-1.8A3.548,3.548,0,0,1,55.892,33a3.534,3.534,0,0,1,.082.622q.055.678.148,1.793c.114,1.614.27,3.87.466,6.663.185,2.85.4,6.237.648,10.033a11.241,11.241,0,0,0,1.429,5.646,4.549,4.549,0,0,0,2.412,1.762,3.043,3.043,0,0,0,2.907-.463l1.083-.949-.708,1.253a8.664,8.664,0,0,0-.807,5.754,14.472,14.472,0,0,0,3.325,6.615,63.174,63.174,0,0,0,4.938,5.049c3.251,3.157,6.044,6.123,8.408,8.593s4.276,4.47,5.62,5.831q.968.98,1.546,1.566a4.651,4.651,0,0,1,.52.568" transform="translate(102.899 60.775)" fill="#111011"/>
        <path id="Path_2711" data-name="Path 2711" d="M67.151,32.811a2.062,2.062,0,0,1,.378.3c.242.2.588.517,1.02.943a25.717,25.717,0,0,1,3.31,3.984,30.094,30.094,0,0,1,1.847,3.14,15.642,15.642,0,0,1,1.526,3.961A12.086,12.086,0,0,1,75.38,49.9a8.851,8.851,0,0,1-2.3,4.669l.009-.33a7.505,7.505,0,0,1,1.694,3.535,14.42,14.42,0,0,1,.151,4.069c-.207,2.268-.676,4.416-1.04,6.5-.392,2.088-.8,4.095-1.2,6-.8,3.816-1.617,7.234-2.341,10.093s-1.364,5.16-1.827,6.743c-.224.75-.409,1.353-.548,1.819a3.2,3.2,0,0,1-.224.622,3.352,3.352,0,0,1,.128-.651c.117-.469.27-1.08.46-1.841.4-1.6.992-3.907,1.671-6.774s1.458-6.288,2.236-10.1c.389-1.907.781-3.913,1.165-6,.361-2.086.824-4.245,1.026-6.459a14.112,14.112,0,0,0-.139-3.927,7.062,7.062,0,0,0-1.568-3.313l-.148-.168.153-.159a8.436,8.436,0,0,0,2.2-4.413,11.759,11.759,0,0,0-.105-4.6,15.519,15.519,0,0,0-1.449-3.884A30.752,30.752,0,0,0,71.6,38.2a28.465,28.465,0,0,0-3.174-4.038c-.392-.409-.708-.739-.958-1a2.033,2.033,0,0,1-.321-.358" transform="translate(123.657 60.417)" fill="#111011"/>
        <path id="Path_2712" data-name="Path 2712" d="M70.347,102.9c-.136.009-.992-10.863-1.912-24.278S66.88,54.311,67.019,54.3s.992,10.86,1.909,24.283,1.554,24.3,1.418,24.312" transform="translate(123.38 99.991)" fill="#111011"/>
        <path id="Path_2713" data-name="Path 2713" d="M71.422,59.154c-.006-.023.227-.114.659-.068a2.6,2.6,0,0,1,1.617.833,2.641,2.641,0,0,1,.494,2.645,2.686,2.686,0,0,1-2.742,1.765,2.932,2.932,0,0,1-2.515-2.1,2.891,2.891,0,0,1,.426-2.665,2.237,2.237,0,0,1,1.614-.838c.44-.011.659.111.651.136s-.239-.014-.631.054a2.182,2.182,0,0,0-1.355.861,2.584,2.584,0,0,0-.27,2.31,2.51,2.51,0,0,0,2.114,1.75,2.253,2.253,0,0,0,2.279-1.424,2.314,2.314,0,0,0-.332-2.265,2.613,2.613,0,0,0-1.384-.869c-.389-.1-.622-.08-.625-.122" transform="translate(126.672 108.134)" fill="#452775"/>
        <path id="Path_2714" data-name="Path 2714" d="M71.967,65.942c-.006-.023.227-.114.659-.068a2.6,2.6,0,0,1,1.617.833,2.648,2.648,0,0,1,.494,2.645A2.686,2.686,0,0,1,72,71.117a2.932,2.932,0,0,1-2.515-2.1,2.9,2.9,0,0,1,.423-2.665,2.247,2.247,0,0,1,1.617-.838c.44-.011.659.111.651.136s-.239-.014-.631.057a2.156,2.156,0,0,0-1.355.858,2.584,2.584,0,0,0-.27,2.31,2.51,2.51,0,0,0,2.114,1.75A2.253,2.253,0,0,0,74.308,69.2a2.321,2.321,0,0,0-.332-2.265,2.613,2.613,0,0,0-1.384-.869c-.389-.1-.622-.08-.625-.122" transform="translate(127.676 120.634)" fill="#452775"/>
        <path id="Path_2715" data-name="Path 2715" d="M69.874,59.473a.313.313,0,0,1-.321.48c-.134-.017-.216-.222-.091-.409s.344-.188.412-.071" transform="translate(127.799 109.372)" fill="#452775"/>
        <path id="Path_2716" data-name="Path 2716" d="M70.3,59.821a.252.252,0,1,1-.344.082.249.249,0,0,1,.344-.082" transform="translate(128.757 110.09)" fill="#452775"/>
        <path id="Path_2717" data-name="Path 2717" d="M70.38,66.2a.3.3,0,0,1-.02.421.26.26,0,1,1,.02-.421" transform="translate(128.68 121.83)" fill="#452775"/>
        <path id="Path_2718" data-name="Path 2718" d="M71.008,66.737c.091.1.037.3-.125.449s-.369.185-.46.085-.037-.3.125-.452.369-.185.46-.082" transform="translate(129.598 122.786)" fill="#452775"/>
        <path id="Path_2719" data-name="Path 2719" d="M69.034,69.043c.134.026-.844,5.64-2.188,12.539s-2.537,12.468-2.674,12.443.847-5.638,2.188-12.539,2.54-12.468,2.674-12.443" transform="translate(118.149 127.14)" fill="#452775"/>
        <path id="Path_2720" data-name="Path 2720" d="M65.565,68.512c.134.028-.929,5.532-2.373,12.3S60.468,93.028,60.331,93s.929-5.532,2.375-12.3,2.725-12.218,2.859-12.19" transform="translate(111.078 126.162)" fill="#452775"/>
        <path id="Path_2721" data-name="Path 2721" d="M99.187,75.467c-.026.134-11.454-1.955-25.522-4.666s-25.46-5.021-25.434-5.154S59.685,67.6,73.759,70.313s25.454,5.021,25.428,5.154" transform="translate(88.816 120.875)" fill="#111011"/>
        <path id="Path_2722" data-name="Path 2722" d="M92.947,79.99c-.011.136-9.962-.543-22.226-1.52s-22.2-1.878-22.186-2.015S58.5,77,70.761,77.975s22.2,1.878,22.186,2.015" transform="translate(89.376 140.757)" fill="#452775"/>
        <path id="Path_2723" data-name="Path 2723" d="M69.427,87.076a18.121,18.121,0,0,1-.989-5.339,18.139,18.139,0,0,1,.159-5.43c.148.006.1,2.427.335,5.39s.636,5.35.494,5.379" transform="translate(125.854 140.516)" fill="#452775"/>
        <path id="Path_2724" data-name="Path 2724" d="M83.622,49.449a46.156,46.156,0,0,1-6.7.776,45.928,45.928,0,0,1-6.74.281,46.166,46.166,0,0,1,6.7-.776,45.885,45.885,0,0,1,6.737-.281" transform="translate(129.244 90.956)" fill="#111011"/>
        <path id="Path_2725" data-name="Path 2725" d="M114.518,97.525c-.105.088-8.74-10.36-19.285-23.329s-19.01-23.556-18.9-23.644,8.738,10.36,19.285,23.331,19.007,23.556,18.9,23.641" transform="translate(140.561 93.089)" fill="#111011"/>
        <path id="Path_2726" data-name="Path 2726" d="M52.349,89.132c-.136.009-.824-7.965-1.534-17.8s-1.174-17.833-1.037-17.844.824,7.962,1.534,17.808,1.174,17.833,1.037,17.842" transform="translate(91.62 98.487)" fill="#111011"/>
        <path id="Path_2727" data-name="Path 2727" d="M53.315,87.833a14.562,14.562,0,0,1-1.645-5.419,14.429,14.429,0,0,1,.077-5.663c.151.011-.031,2.535.415,5.595.423,3.06,1.3,5.436,1.154,5.487" transform="translate(94.763 141.334)" fill="#452775"/>
        <path id="Path_2728" data-name="Path 2728" d="M75.287,50.393c-.105.088-.844-.617-1.648-1.574s-1.375-1.8-1.27-1.892.844.617,1.648,1.574,1.375,1.8,1.27,1.892" transform="translate(133.243 86.4)" fill="#7522de"/>
        <path id="Path_2729" data-name="Path 2729" d="M59.335,53.985a7.865,7.865,0,0,1-1.35,2.415,7.88,7.88,0,0,1-1.762,2.137,7.838,7.838,0,0,1,1.353-2.415,7.843,7.843,0,0,1,1.759-2.137" transform="translate(103.51 99.403)" fill="#7522de"/>
        <path id="Path_2730" data-name="Path 2730" d="M56.2,60.326a11.118,11.118,0,0,1-2.557-2.083A11.212,11.212,0,0,1,51.425,55.8a11.057,11.057,0,0,1,2.557,2.088A11.116,11.116,0,0,1,56.2,60.326" transform="translate(94.687 102.734)" fill="#7522de"/>
        <path id="Path_2731" data-name="Path 2731" d="M55.1,56.5a4.936,4.936,0,0,1-1.446-2.543,4.948,4.948,0,0,1-.236-2.918c.145,0,.242,1.279.71,2.77s1.094,2.611.972,2.691" transform="translate(98.147 93.99)" fill="#7522de"/>
        <path id="Path_2732" data-name="Path 2732" d="M59.015,51.312a5.315,5.315,0,0,1-2.486-1.247,5.347,5.347,0,0,1-1.892-2.035,15.035,15.035,0,0,1,2.191,1.64,15.175,15.175,0,0,1,2.188,1.642" transform="translate(100.596 88.431)" fill="#7522de"/>
        <path id="Path_2733" data-name="Path 2733" d="M64.26,53.111a6.425,6.425,0,0,1-1.046,2.27A6.429,6.429,0,0,1,61.74,57.4a6.425,6.425,0,0,1,1.046-2.27,6.465,6.465,0,0,1,1.475-2.017" transform="translate(113.659 97.795)" fill="#7522de"/>
        <path id="Path_2734" data-name="Path 2734" d="M60.5,55.949a7.8,7.8,0,0,1-.611-3.168,7.767,7.767,0,0,1,.247-3.217,16.665,16.665,0,0,1,.247,3.188,16.521,16.521,0,0,1,.117,3.2" transform="translate(110.237 91.27)" fill="#7522de"/>
        <path id="Path_2735" data-name="Path 2735" d="M60.794,63.656a6.955,6.955,0,0,1-1.009-3.214,6.954,6.954,0,0,1,.145-3.367c.145.011.105,1.5.347,3.3s.654,3.231.517,3.279" transform="translate(109.903 105.101)" fill="#7522de"/>
        <path id="Path_2736" data-name="Path 2736" d="M59.96,64.623a6.727,6.727,0,0,1-2.242-2.256,6.756,6.756,0,0,1-1.407-2.85,21.418,21.418,0,0,1,1.81,2.563,21.85,21.85,0,0,1,1.838,2.543" transform="translate(103.664 109.593)" fill="#7522de"/>
        <path id="Path_2737" data-name="Path 2737" d="M56.545,62.422c.08.111-.713.816-1.77,1.571a5.821,5.821,0,0,1-2.057,1.168c-.08-.111.713-.815,1.77-1.571a5.821,5.821,0,0,1,2.057-1.168" transform="translate(97.068 114.919)" fill="#7522de"/>
        <path id="Path_2738" data-name="Path 2738" d="M53.191,62.384c-.08.105-.781-.324-1.341-1.145s-.71-1.625-.582-1.662.472.631.992,1.384,1.023,1.316.932,1.424" transform="translate(94.33 109.703)" fill="#7522de"/>
        <path id="Path_2739" data-name="Path 2739" d="M58.388,65.158a6.888,6.888,0,0,1-.477,2.535,6.871,6.871,0,0,1-.955,2.4,6.879,6.879,0,0,1,.477-2.535,6.871,6.871,0,0,1,.955-2.4" transform="translate(104.812 119.983)" fill="#7522de"/>
        <path id="Path_2740" data-name="Path 2740" d="M62.561,69.425a5.222,5.222,0,0,1-1.8-2.287,5.239,5.239,0,0,1-.779-2.807A25.41,25.41,0,0,1,61.2,66.913a24.531,24.531,0,0,1,1.364,2.512" transform="translate(110.375 118.461)" fill="#7522de"/>
        <path id="Path_2741" data-name="Path 2741" d="M68.352,68.328a9.049,9.049,0,0,1-2.6-1.432,9.054,9.054,0,0,1-2.327-1.847,9,9,0,0,1,2.6,1.432,9.055,9.055,0,0,1,2.327,1.847" transform="translate(116.788 119.76)" fill="#7522de"/>
        <path id="Path_2742" data-name="Path 2742" d="M68.47,61.216a8.426,8.426,0,0,1-2.029,2.015,8.394,8.394,0,0,1-2.347,1.634,8.426,8.426,0,0,1,2.029-2.015,8.349,8.349,0,0,1,2.347-1.634" transform="translate(118.017 112.707)" fill="#7522de"/>
        <path id="Path_2743" data-name="Path 2743" d="M62.911,61.184c.108.082-.131.594-.537,1.148s-.818.935-.932.852.131-.594.531-1.148.827-.935.938-.852" transform="translate(113.096 112.648)" fill="#7522de"/>
        <path id="Path_2744" data-name="Path 2744" d="M67.8,61.06a20.038,20.038,0,0,1-2.384-2.077,20.34,20.34,0,0,1-2.384-2.08,7,7,0,0,1,2.708,1.708A7.047,7.047,0,0,1,67.8,61.06" transform="translate(116.072 104.761)" fill="#7522de"/>
        <path id="Path_2745" data-name="Path 2745" d="M56.275,50.819c-.114-.091.872-1.424,1.733-3.251s1.282-3.427,1.426-3.4a7.793,7.793,0,0,1-.977,3.612,7.77,7.77,0,0,1-2.182,3.038" transform="translate(103.612 81.337)" fill="#7522de"/>
        <path id="Path_2746" data-name="Path 2746" d="M55.087,49.059a8.919,8.919,0,0,1-.645-3.344,8.915,8.915,0,0,1,.182-3.4,17.29,17.29,0,0,1,.313,3.37,17.457,17.457,0,0,1,.151,3.379" transform="translate(100.169 77.912)" fill="#7522de"/>
        <path id="Path_2747" data-name="Path 2747" d="M57.076,39.521a3.3,3.3,0,0,1-2.194-.872c-1.08-.8-1.577-1.79-1.461-1.853.119-.082.759.722,1.756,1.455s1.941,1.131,1.9,1.27" transform="translate(98.345 67.747)" fill="#7522de"/>
        <path id="Path_2748" data-name="Path 2748" d="M55.727,34.375c.06.125-.671.591-1.628,1.043s-1.782.719-1.838.594.671-.591,1.628-1.043,1.779-.719,1.838-.594" transform="translate(96.23 63.243)" fill="#7522de"/>
        <path id="Path_2749" data-name="Path 2749" d="M57.763,42.57a5.493,5.493,0,0,1,.028-2.31,5.511,5.511,0,0,1,.52-2.25,5.606,5.606,0,0,1-.028,2.31,5.51,5.51,0,0,1-.52,2.25" transform="translate(106.194 69.991)" fill="#7522de"/>
        <path id="Path_2750" data-name="Path 2750" d="M61.9,45.637c-.082.108-.639-.17-1.242-.622s-1.029-.912-.946-1.02.639.17,1.242.622,1.029.909.946,1.02" transform="translate(109.937 80.969)" fill="#7522de"/>
        <path id="Path_2751" data-name="Path 2751" d="M69.863,42.758a7.077,7.077,0,0,1-.35,2.6,7.061,7.061,0,0,1-.835,2.486,7.049,7.049,0,0,1,.352-2.6,7.091,7.091,0,0,1,.833-2.486" transform="translate(126.381 78.736)" fill="#7522de"/>
        <path id="Path_2752" data-name="Path 2752" d="M70.6,40.052c-.062.117-.8-.2-1.4-.963s-.736-1.557-.608-1.591.457.6,1,1.282,1.085,1.154,1.009,1.273" transform="translate(126.225 69.045)" fill="#7522de"/>
        <path id="Path_2753" data-name="Path 2753" d="M73.192,39.425a5.333,5.333,0,0,1-.975,2.046c-.654,1.057-1.282,1.855-1.4,1.787a5.317,5.317,0,0,1,.977-2.049c.654-1.057,1.279-1.855,1.4-1.784" transform="translate(130.378 72.591)" fill="#7522de"/>
        <path id="Path_2754" data-name="Path 2754" d="M73.568,45.27a8.37,8.37,0,0,1-.08-2.841,8.348,8.348,0,0,1,.418-2.816,8.3,8.3,0,0,1,.08,2.844,8.3,8.3,0,0,1-.418,2.813" transform="translate(135.235 72.945)" fill="#7522de"/>
        <path id="Path_2755" data-name="Path 2755" d="M74.685,40a10.466,10.466,0,0,1-2.2-2.3,10.438,10.438,0,0,1-1.816-2.62,10.371,10.371,0,0,1,2.2,2.307A10.4,10.4,0,0,1,74.685,40" transform="translate(130.12 64.574)" fill="#7522de"/>
        <path id="Path_2756" data-name="Path 2756" d="M48.928,48.22a11.96,11.96,0,0,1,.307-3.413,11.853,11.853,0,0,1,.8-3.333,12.092,12.092,0,0,1-.307,3.413,12,12,0,0,1-.8,3.333" transform="translate(90.003 76.372)" fill="#7522de"/>
        <path id="Path_2757" data-name="Path 2757" d="M50.362,39.862a12.065,12.065,0,0,1-2.537.693,12.365,12.365,0,0,1-2.56.611A5.2,5.2,0,0,1,47.7,40.076a5.2,5.2,0,0,1,2.662-.213" transform="translate(83.35 73.241)" fill="#7522de"/>
        <path id="Path_2758" data-name="Path 2758" d="M51.76,40.336c-.1.1-.909-.56-1.816-1.466s-1.563-1.719-1.469-1.816.912.557,1.819,1.466,1.563,1.719,1.466,1.816" transform="translate(89.249 68.215)" fill="#7522de"/>
        <path id="Path_2759" data-name="Path 2759" d="M52.148,46.618a5.442,5.442,0,0,1-.619-2.81,5.414,5.414,0,0,1,.438-2.844,18.884,18.884,0,0,1,.057,2.827,19.035,19.035,0,0,1,.125,2.827" transform="translate(94.878 75.431)" fill="#7522de"/>
        <path id="Path_2760" data-name="Path 2760" d="M49.119,52.708a7.558,7.558,0,0,1,.833-2.574,7.48,7.48,0,0,1,1.287-2.378,7.52,7.52,0,0,1-.833,2.574,7.564,7.564,0,0,1-1.287,2.378" transform="translate(90.407 87.935)" fill="#7522de"/>
        <path id="Path_2761" data-name="Path 2761" d="M46.757,49.165a3.731,3.731,0,0,1,.847-2.2c.73-1.105,1.625-1.73,1.708-1.628s-.605.861-1.3,1.9-1.122,1.975-1.259,1.927" transform="translate(86.043 83.462)" fill="#7522de"/>
        <path id="Path_2762" data-name="Path 2762" d="M43.612,49.759a10.458,10.458,0,0,1,1.049-3.018,10.424,10.424,0,0,1,1.5-2.822,10.53,10.53,0,0,1-1.046,3.021,10.484,10.484,0,0,1-1.5,2.819" transform="translate(80.274 80.874)" fill="#7522de"/>
        <path id="Path_2763" data-name="Path 2763" d="M41.63,48.976a8.908,8.908,0,0,1,.139-2.949,8.868,8.868,0,0,1,.628-2.881,8.934,8.934,0,0,1-.136,2.947,8.942,8.942,0,0,1-.631,2.884" transform="translate(76.527 79.449)" fill="#7522de"/>
        <path id="Path_2764" data-name="Path 2764" d="M41.854,53.369a6.611,6.611,0,0,1-1.5-2.06A6.683,6.683,0,0,1,39.285,49a6.654,6.654,0,0,1,1.5,2.06,6.666,6.666,0,0,1,1.071,2.31" transform="translate(72.311 90.221)" fill="#7522de"/>
        <path id="Path_2765" data-name="Path 2765" d="M43.617,52.163a7.335,7.335,0,0,1-.983-2.481,7.308,7.308,0,0,1-.506-2.617,7.335,7.335,0,0,1,.983,2.478,7.317,7.317,0,0,1,.506,2.62" transform="translate(77.51 86.667)" fill="#7522de"/>
        <path id="Path_2766" data-name="Path 2766" d="M49.522,50.8a20.756,20.756,0,0,1-2.827,1.733,21.076,21.076,0,0,1-2.847,1.7,7.822,7.822,0,0,1,2.591-2.123A7.876,7.876,0,0,1,49.522,50.8" transform="translate(80.735 93.519)" fill="#7522de"/>
        <path id="Path_2767" data-name="Path 2767" d="M46.619,59.283a19.606,19.606,0,0,1,1.452-2.739A19.436,19.436,0,0,1,49.523,53.8a6.727,6.727,0,0,1-1.014,2.972,6.768,6.768,0,0,1-1.89,2.509" transform="translate(85.828 99.071)" fill="#7522de"/>
        <path id="Path_2768" data-name="Path 2768" d="M44.366,60.807a11.7,11.7,0,0,1-.054-3.387,11.7,11.7,0,0,1,.44-3.361,11.714,11.714,0,0,1,.054,3.39,11.686,11.686,0,0,1-.44,3.359" transform="translate(81.477 99.545)" fill="#7522de"/>
        <path id="Path_2769" data-name="Path 2769" d="M45.4,58.548a6.517,6.517,0,0,1-3.188-2.026,6.512,6.512,0,0,1-1.958-3.228c.134-.068.881,1.438,2.313,2.881,1.412,1.461,2.9,2.239,2.833,2.373" transform="translate(74.097 98.135)" fill="#7522de"/>
        <path id="Path_2770" data-name="Path 2770" d="M38.185,58.368a8.6,8.6,0,0,1,.3-2.876,8.437,8.437,0,0,1,.787-2.779,8.582,8.582,0,0,1-.3,2.873,8.633,8.633,0,0,1-.787,2.782" transform="translate(70.221 97.068)" fill="#7522de"/>
        <path id="Path_2771" data-name="Path 2771" d="M46.681,59.2c.077.119-.77.77-1.711,1.665s-1.64,1.7-1.756,1.617.429-1.046,1.415-1.975A4.262,4.262,0,0,1,46.681,59.2" transform="translate(79.552 108.993)" fill="#7522de"/>
        <path id="Path_2772" data-name="Path 2772" d="M40.065,64.934a10.486,10.486,0,0,1-.3-3.188,10.5,10.5,0,0,1,.2-3.194,10.364,10.364,0,0,1,.3,3.188,10.5,10.5,0,0,1-.2,3.194" transform="translate(73.227 107.821)" fill="#7522de"/>
        <path id="Path_2773" data-name="Path 2773" d="M41.432,63.613a7.154,7.154,0,0,1-3.006-.762,7.187,7.187,0,0,1-2.677-1.571,15.521,15.521,0,0,1,2.864,1.111,15.62,15.62,0,0,1,2.819,1.222" transform="translate(65.826 112.816)" fill="#7522de"/>
        <path id="Path_2774" data-name="Path 2774" d="M37.088,62.4a8.381,8.381,0,0,1-.631-2.79,8.414,8.414,0,0,1-.136-2.859,8.421,8.421,0,0,1,.628,2.79,8.376,8.376,0,0,1,.139,2.859" transform="translate(66.751 104.51)" fill="#7522de"/>
        <path id="Path_2775" data-name="Path 2775" d="M43.687,64.292A6.964,6.964,0,0,1,41.18,65a6.956,6.956,0,0,1-2.6.219,7,7,0,0,1,2.506-.708,7,7,0,0,1,2.6-.222" transform="translate(71.05 118.28)" fill="#7522de"/>
        <path id="Path_2776" data-name="Path 2776" d="M34.836,69.287a7.851,7.851,0,0,1-.523-2.711,7.837,7.837,0,0,1-.026-2.762,7.86,7.86,0,0,1,.52,2.714,7.787,7.787,0,0,1,.028,2.759" transform="translate(62.965 117.511)" fill="#7522de"/>
        <path id="Path_2777" data-name="Path 2777" d="M33.262,72.875A8.753,8.753,0,0,1,32.39,70.1,8.7,8.7,0,0,1,32,67.217a8.638,8.638,0,0,1,.872,2.776,8.692,8.692,0,0,1,.386,2.881" transform="translate(58.85 123.777)" fill="#7522de"/>
        <path id="Path_2778" data-name="Path 2778" d="M37.045,70.949a6.89,6.89,0,0,1-2.168,1.407,6.867,6.867,0,0,1-2.39.969,6.8,6.8,0,0,1,2.162-1.409,6.855,6.855,0,0,1,2.4-.966" transform="translate(59.818 130.613)" fill="#7522de"/>
        <path id="Path_2779" data-name="Path 2779" d="M38.158,73.886a6.966,6.966,0,0,1-1.975-2.606,6.947,6.947,0,0,1-1.037-3.1,25.083,25.083,0,0,1,1.475,2.87,24.281,24.281,0,0,1,1.537,2.839" transform="translate(64.67 125.545)" fill="#7522de"/>
        <path id="Path_2780" data-name="Path 2780" d="M40.162,71.653c-.128.054-.617-.835-1.094-1.983a5.365,5.365,0,0,1-.637-2.177,5.34,5.34,0,0,1,1.094,1.986,5.369,5.369,0,0,1,.636,2.174" transform="translate(70.716 124.282)" fill="#7522de"/>
        <path id="Path_2781" data-name="Path 2781" d="M40.816,71.972a11.183,11.183,0,0,1-2.3,2.375,11.172,11.172,0,0,1-2.626,2,11.182,11.182,0,0,1,2.3-2.376,11.17,11.17,0,0,1,2.626-2" transform="translate(66.083 132.519)" fill="#7522de"/>
        <path id="Path_2782" data-name="Path 2782" d="M44.605,77.379a10.113,10.113,0,0,1-2.665-2.85,10.066,10.066,0,0,1-1.824-3.45,33.348,33.348,0,0,1,2.231,3.16,33.226,33.226,0,0,1,2.259,3.14" transform="translate(73.848 130.886)" fill="#7522de"/>
        <path id="Path_2783" data-name="Path 2783" d="M43.947,74.937a6.808,6.808,0,0,1-2.535.429,6.816,6.816,0,0,1-2.572-.063,6.758,6.758,0,0,1,2.535-.432,6.855,6.855,0,0,1,2.572.065" transform="translate(71.525 137.764)" fill="#7522de"/>
        <path id="Path_2784" data-name="Path 2784" d="M44.854,73.629A17.9,17.9,0,0,1,43.408,69.7a17.833,17.833,0,0,1-.975-4.078,17.816,17.816,0,0,1,1.449,3.933,17.91,17.91,0,0,1,.972,4.078" transform="translate(78.097 120.832)" fill="#7522de"/>
        <path id="Path_2785" data-name="Path 2785" d="M51.457,66.961a10.712,10.712,0,0,1-3.16.69,10.714,10.714,0,0,1-3.228.2,10.635,10.635,0,0,1,3.16-.69,10.714,10.714,0,0,1,3.228-.2" transform="translate(82.994 123.189)" fill="#7522de"/>
        <path id="Path_2786" data-name="Path 2786" d="M47.8,71.171a10.433,10.433,0,0,1-2.006.912,10.284,10.284,0,0,1-2.006.912c-.088-.1.645-.841,1.8-1.364a3.534,3.534,0,0,1,2.211-.46" transform="translate(80.623 130.951)" fill="#7522de"/>
        <path id="Path_2787" data-name="Path 2787" d="M50.026,78.031a11.913,11.913,0,0,1-2.563-2.273,12.151,12.151,0,0,1-2.211-2.62,11.865,11.865,0,0,1,2.566,2.273,12.009,12.009,0,0,1,2.208,2.62" transform="translate(83.319 134.669)" fill="#7522de"/>
        <path id="Path_2788" data-name="Path 2788" d="M48.95,75.557a13.692,13.692,0,0,1,.207-2.924,13.807,13.807,0,0,1,.341-2.913,6.626,6.626,0,0,1,.153,2.958,6.6,6.6,0,0,1-.7,2.878" transform="translate(90.053 128.388)" fill="#7522de"/>
        <path id="Path_2789" data-name="Path 2789" d="M55.588,74.061a11.755,11.755,0,0,1-3.006,1.583,11.767,11.767,0,0,1-3.205,1.128,11.86,11.86,0,0,1,3.006-1.583,11.883,11.883,0,0,1,3.205-1.128" transform="translate(90.924 136.346)" fill="#7522de"/>
        <path id="Path_2790" data-name="Path 2790" d="M55.471,73.652a14.444,14.444,0,0,1-2.04-3.163,14.544,14.544,0,0,1-1.605-3.4,14.477,14.477,0,0,1,2.04,3.163,14.489,14.489,0,0,1,1.605,3.4" transform="translate(95.412 123.531)" fill="#7522de"/>
        <path id="Path_2791" data-name="Path 2791" d="M58.135,71.455a22.678,22.678,0,0,1-3.052.267,22.54,22.54,0,0,1-3.046.35,6.253,6.253,0,0,1,2.995-.844,6.274,6.274,0,0,1,3.1.227" transform="translate(95.823 131.056)" fill="#7522de"/>
        <path id="Path_2792" data-name="Path 2792" d="M60.811,73.786c-.128.068-.923-1.287-2.128-2.785s-2.344-2.577-2.25-2.688a7.762,7.762,0,0,1,2.637,2.378,7.8,7.8,0,0,1,1.742,3.094" transform="translate(103.909 125.782)" fill="#7522de"/>
        <path id="Path_2793" data-name="Path 2793" d="M60.169,73.426a6.781,6.781,0,0,1-2.3,1.12,6.7,6.7,0,0,1-2.466.656,6.677,6.677,0,0,1,2.3-1.12,6.68,6.68,0,0,1,2.466-.656" transform="translate(102.028 135.157)" fill="#7522de"/>
        <path id="Path_2794" data-name="Path 2794" d="M63.658,78.719a7.868,7.868,0,0,1-.631-2.7,7.938,7.938,0,0,1-.139-2.768,7.916,7.916,0,0,1,.631,2.7,7.857,7.857,0,0,1,.139,2.768" transform="translate(115.676 134.891)" fill="#7522de"/>
        <path id="Path_2795" data-name="Path 2795" d="M63.984,75.526A10.687,10.687,0,0,1,64.2,72.3a10.781,10.781,0,0,1,.7-3.154,10.607,10.607,0,0,1-.21,3.225,10.623,10.623,0,0,1-.7,3.157" transform="translate(117.711 127.326)" fill="#7522de"/>
        <path id="Path_2796" data-name="Path 2796" d="M62.271,72.355a23.122,23.122,0,0,1-1.594,4.473,22.738,22.738,0,0,1-2.052,4.285,23.111,23.111,0,0,1,1.594-4.475,22.656,22.656,0,0,1,2.052-4.282" transform="translate(107.931 133.236)" fill="#7522de"/>
        <path id="Path_2797" data-name="Path 2797" d="M49.741,65.182a11.276,11.276,0,0,1-.708-3.248,11.222,11.222,0,0,1-.216-3.316,11.276,11.276,0,0,1,.708,3.248,11.221,11.221,0,0,1,.216,3.316" transform="translate(89.782 107.942)" fill="#7522de"/>
        <path id="Path_2798" data-name="Path 2798" d="M49.95,67.327c-.119.057-.6-.736-.75-1.85s.082-2.006.213-1.983.131.881.278,1.915.389,1.861.259,1.918" transform="translate(90.504 116.921)" fill="#7522de"/>
        <path id="Path_2799" data-name="Path 2799" d="M50.944,82.69a5.751,5.751,0,0,1-.787-2.222,5.722,5.722,0,0,1-.307-2.339,5.751,5.751,0,0,1,.787,2.222,5.725,5.725,0,0,1,.307,2.339" transform="translate(91.704 143.871)" fill="#7522de"/>
        <path id="Path_2800" data-name="Path 2800" d="M58.782,80.337A10.887,10.887,0,0,1,55.6,79.57a10.874,10.874,0,0,1-3.023-1.239,10.926,10.926,0,0,1,3.177.767,10.923,10.923,0,0,1,3.023,1.239" transform="translate(96.826 144.192)" fill="#7522de"/>
        <path id="Path_2801" data-name="Path 2801" d="M61.162,78.266c.085.108-.7.887-1.759,1.742a6.279,6.279,0,0,1-2.071,1.358c-.085-.105.7-.887,1.759-1.742a6.279,6.279,0,0,1,2.071-1.358" transform="translate(105.564 144.101)" fill="#7522de"/>
        <path id="Path_2802" data-name="Path 2802" d="M65.96,80.369a16.575,16.575,0,0,1-2.645-.915,16.4,16.4,0,0,1-2.648-.9,5.479,5.479,0,0,1,2.81.429,5.472,5.472,0,0,1,2.483,1.384" transform="translate(111.715 144.544)" fill="#7522de"/>
        <path id="Path_2803" data-name="Path 2803" d="M68.461,77.559c.1.1-.463.818-1.051,1.759s-1,1.756-1.137,1.708a3.273,3.273,0,0,1,.716-1.972c.625-.995,1.381-1.591,1.472-1.495" transform="translate(121.978 142.802)" fill="#7522de"/>
        <path id="Path_2804" data-name="Path 2804" d="M67.763,72.4a9.5,9.5,0,0,1-.7-2.972,9.472,9.472,0,0,1-.21-3.046,9.476,9.476,0,0,1,.7,2.972,9.473,9.473,0,0,1,.21,3.046" transform="translate(122.994 122.245)" fill="#7522de"/>
        <path id="Path_2805" data-name="Path 2805" d="M73.707,72.516a7.5,7.5,0,0,1-2.33-1.353,7.476,7.476,0,0,1-2.04-1.759,7.477,7.477,0,0,1,2.33,1.355,7.5,7.5,0,0,1,2.04,1.756" transform="translate(127.674 127.782)" fill="#7522de"/>
        <path id="Path_2806" data-name="Path 2806" d="M74.874,69.367a14.924,14.924,0,0,1,.986-3.717,15.068,15.068,0,0,1,1.455-3.558,15.042,15.042,0,0,1-.986,3.717,15,15,0,0,1-1.455,3.558" transform="translate(137.837 114.339)" fill="#7522de"/>
        <path id="Path_2807" data-name="Path 2807" d="M75.309,66.49a7.788,7.788,0,0,1-2.293-1.512c-1.179-.943-2.066-1.793-1.98-1.9a7.756,7.756,0,0,1,2.29,1.512c1.182.943,2.069,1.793,1.983,1.9" transform="translate(130.8 116.133)" fill="#7522de"/>
        <path id="Path_2808" data-name="Path 2808" d="M75.141,59.712a7.065,7.065,0,0,1-.869,2.475,7.086,7.086,0,0,1-1.321,2.268,7.046,7.046,0,0,1,.869-2.475,7.086,7.086,0,0,1,1.321-2.267" transform="translate(134.293 109.954)" fill="#7522de"/>
        <path id="Path_2809" data-name="Path 2809" d="M70.593,66.953a5.183,5.183,0,0,1-1.387-2.208,5.238,5.238,0,0,1-.619-2.535,10.349,10.349,0,0,1,1.074,2.341,10.483,10.483,0,0,1,.932,2.4" transform="translate(126.228 114.557)" fill="#7522de"/>
        <path id="Path_2810" data-name="Path 2810" d="M75.1,55.345a6.3,6.3,0,0,1-3.648,3.467c-.071-.125.855-.764,1.844-1.713s1.685-1.83,1.8-1.753" transform="translate(131.571 101.907)" fill="#7522de"/>
        <path id="Path_2811" data-name="Path 2811" d="M70.793,58.523c-.114.077-.818-.759-1.574-1.867a6.137,6.137,0,0,1-1.162-2.145c.114-.077.818.759,1.574,1.867a6.136,6.136,0,0,1,1.162,2.145" transform="translate(125.297 100.371)" fill="#7522de"/>
        <path id="Path_2812" data-name="Path 2812" d="M75.325,54.186A6.308,6.308,0,0,1,73.1,53.12c-1.159-.7-2.04-1.372-1.969-1.489A6.308,6.308,0,0,1,73.355,52.7c1.159.7,2.04,1.372,1.969,1.489" transform="translate(130.978 95.044)" fill="#7522de"/>
        <path id="Path_2813" data-name="Path 2813" d="M75.137,60.632a15.136,15.136,0,0,1-.02-3.847,15.011,15.011,0,0,1,.472-3.819,15.051,15.051,0,0,1,.023,3.847,15.082,15.082,0,0,1-.475,3.819" transform="translate(138.164 97.534)" fill="#7522de"/>
        <path id="Path_2814" data-name="Path 2814" d="M73.171,73.777a11.84,11.84,0,0,1,.969-3.273,11.869,11.869,0,0,1,1.432-3.1A11.873,11.873,0,0,1,74.6,70.68a11.876,11.876,0,0,1-1.432,3.1" transform="translate(134.701 124.119)" fill="#7522de"/>
        <path id="Path_2815" data-name="Path 2815" d="M76.609,74.052A10.452,10.452,0,0,1,77.12,70.9a10.37,10.37,0,0,1,1-3.035,10.5,10.5,0,0,1-.514,3.151,10.4,10.4,0,0,1-.994,3.038" transform="translate(141.003 124.967)" fill="#7522de"/>
        <path id="Path_2816" data-name="Path 2816" d="M72.553,82.214A5.778,5.778,0,0,1,70.863,77.3c.148,0,.261,1.162.73,2.5s1.077,2.333.96,2.418" transform="translate(130.294 142.336)" fill="#7522de"/>
        <path id="Path_2817" data-name="Path 2817" d="M81.832,56.2a7.518,7.518,0,0,1-.386-3.3,7.442,7.442,0,0,1,.622-3.268,22.937,22.937,0,0,1-.125,3.285,23.013,23.013,0,0,1-.111,3.285" transform="translate(149.964 91.391)" fill="#7522de"/>
        <path id="Path_2818" data-name="Path 2818" d="M82.613,50.487a6.28,6.28,0,0,1-2.435-.395,6.307,6.307,0,0,1-2.31-.878,6.327,6.327,0,0,1,2.438.4,6.247,6.247,0,0,1,2.307.875" transform="translate(143.39 90.546)" fill="#7522de"/>
        <path id="Path_2819" data-name="Path 2819" d="M80.039,51.04a12.369,12.369,0,0,1-.19-3.469,12.347,12.347,0,0,1,.307-3.464,12.4,12.4,0,0,1,.19,3.472,12.405,12.405,0,0,1-.307,3.461" transform="translate(147.027 81.221)" fill="#7522de"/>
        <path id="Path_2820" data-name="Path 2820" d="M81.714,45.379a7.654,7.654,0,0,1-2.745.017,7.734,7.734,0,0,1-2.7-.477,7.805,7.805,0,0,1,2.745-.017,7.931,7.931,0,0,1,2.7.477" transform="translate(140.444 82.518)" fill="#7522de"/>
        <path id="Path_2821" data-name="Path 2821" d="M77.094,44.924a6.369,6.369,0,0,1-.432-2.441A6.4,6.4,0,0,1,76.728,40a6.351,6.351,0,0,1,.429,2.447,6.348,6.348,0,0,1-.062,2.478" transform="translate(141.063 73.658)" fill="#7522de"/>
        <path id="Path_2822" data-name="Path 2822" d="M81.607,60.22a8.564,8.564,0,0,1-1.929-2.131,8.464,8.464,0,0,1-1.532-2.432,8.524,8.524,0,0,1,1.926,2.131,8.516,8.516,0,0,1,1.534,2.432" transform="translate(143.882 102.479)" fill="#7522de"/>
        <path id="Path_2823" data-name="Path 2823" d="M81.011,63.31A8.375,8.375,0,0,1,81,60.46a8.328,8.328,0,0,1,.486-2.81A8.376,8.376,0,0,1,81.5,60.5a8.411,8.411,0,0,1-.486,2.81" transform="translate(148.987 106.16)" fill="#7522de"/>
        <path id="Path_2824" data-name="Path 2824" d="M86.6,61.25a5.539,5.539,0,0,1-2.25.523,5.549,5.549,0,0,1-2.31.028,5.556,5.556,0,0,1,2.25-.523,5.549,5.549,0,0,1,2.31-.028" transform="translate(151.079 112.616)" fill="#7522de"/>
        <path id="Path_2825" data-name="Path 2825" d="M85.888,63.107a5.579,5.579,0,0,1-.492,2.268,5.538,5.538,0,0,1-.963,2.111,5.588,5.588,0,0,1,.492-2.268,5.616,5.616,0,0,1,.963-2.111" transform="translate(155.413 116.206)" fill="#7522de"/>
        <path id="Path_2826" data-name="Path 2826" d="M87.709,66c.116.088-.361.838-.557,1.881-.213,1.037-.057,1.912-.2,1.949a2.369,2.369,0,0,1-.29-2.046c.224-1.176.952-1.878,1.043-1.784" transform="translate(159.46 121.529)" fill="#7522de"/>
        <path id="Path_2827" data-name="Path 2827" d="M91.655,61.437a20.653,20.653,0,0,1-3.012.25,20.567,20.567,0,0,1-3.006.3,6.22,6.22,0,0,1,2.961-.793,6.242,6.242,0,0,1,3.057.244" transform="translate(157.696 112.594)" fill="#7522de"/>
        <path id="Path_2828" data-name="Path 2828" d="M90.586,60.414a20.79,20.79,0,0,1-.338,3,20.237,20.237,0,0,1-.287,3.009,6.242,6.242,0,0,1-.2-3.06,6.217,6.217,0,0,1,.83-2.952" transform="translate(165.17 111.247)" fill="#7522de"/>
        <path id="Path_2829" data-name="Path 2829" d="M84.639,61.473a14.522,14.522,0,0,1,.105-3.765,14.519,14.519,0,0,1,.6-3.717,14.371,14.371,0,0,1-.105,3.765,14.374,14.374,0,0,1-.6,3.717" transform="translate(155.719 99.422)" fill="#7522de"/>
        <path id="Path_2830" data-name="Path 2830" d="M86.5,54.885A6.542,6.542,0,0,1,84,54.646a6.542,6.542,0,0,1-2.41-.725,6.542,6.542,0,0,1,2.506.239,6.519,6.519,0,0,1,2.41.725" transform="translate(150.242 99.187)" fill="#7522de"/>
        <path id="Path_2831" data-name="Path 2831" d="M84.939,54.793a6.544,6.544,0,0,1-.776-3.157,6.557,6.557,0,0,1,.364-3.228,29.719,29.719,0,0,1,.131,3.2,30.642,30.642,0,0,1,.281,3.188" transform="translate(154.939 89.141)" fill="#7522de"/>
        <path id="Path_2832" data-name="Path 2832" d="M84.766,47.453c-.017.136-.685.165-1.489.063s-1.446-.3-1.429-.432.685-.165,1.489-.063,1.446.3,1.429.432" transform="translate(150.721 86.473)" fill="#7522de"/>
        <path id="Path_2833" data-name="Path 2833" d="M89.986,55.034a3.476,3.476,0,0,1-2.171-.648c-1.108-.628-1.756-1.452-1.659-1.54s.864.52,1.907,1.108,1.961.941,1.924,1.08" transform="translate(158.637 97.293)" fill="#7522de"/>
        <path id="Path_2834" data-name="Path 2834" d="M92.229,57.238a7.277,7.277,0,0,1-2.239,1.443,7.343,7.343,0,0,1-2.466,1,7.271,7.271,0,0,1,2.239-1.441,7.294,7.294,0,0,1,2.466-1" transform="translate(161.168 105.364)" fill="#7522de"/>
        <path id="Path_2835" data-name="Path 2835" d="M57.126,37.95l.725-8.07L73.908,42.422,77.92,48.9l7.186-16.756,1.759,2.33V44.627L79.1,54.078,64.452,52.8Z" transform="translate(105.197 55.022)" fill="#f9fafd"/>
        <path id="Path_2836" data-name="Path 2836" d="M73.606,38.351a4.488,4.488,0,0,1-.011.983c-.048.716-.111,1.625-.185,2.722-.2,2.415-.475,5.657-.79,9.4l-.048.577-.367-.443c-1.114-1.347-2.319-2.807-3.569-4.322-3.288-4-6.243-7.635-8.362-10.283-1.009-1.279-1.847-2.339-2.489-3.151a8.517,8.517,0,0,1-.861-1.2,8.15,8.15,0,0,1,1.012,1.077c.673.79,1.554,1.816,2.611,3.052,2.188,2.591,5.186,6.192,8.47,10.187,1.245,1.517,2.441,2.981,3.549,4.333l-.418.131c.384-3.734.719-6.97.966-9.383q.192-1.637.321-2.708a4.609,4.609,0,0,1,.17-.969" transform="translate(104.822 60.085)" fill="#c7cddd"/>
        <path id="Path_2837" data-name="Path 2837" d="M69.581,38.636a6.577,6.577,0,0,1-.082,1.622c-.1,1.014-.273,2.444-.489,4.114l-.136,1.043-.318-1.009c-.278-.878-.557-1.847-.816-2.867a49.1,49.1,0,0,1-1.151-6.084,10.846,10.846,0,0,1-.156-2.56,16.163,16.163,0,0,1,.5,2.506c.276,1.551.693,3.688,1.284,6.015.256,1.012.526,1.978.781,2.853l-.455.037c.253-1.665.483-3.086.665-4.089a6.725,6.725,0,0,1,.369-1.583" transform="translate(122.279 60.576)" fill="#c7cddd"/>
        <path id="Path_2838" data-name="Path 2838" d="M72.109,87.035a2.068,2.068,0,0,1-.125-.506c-.068-.392-.153-.878-.259-1.469-.216-1.353-.506-3.185-.861-5.419-.69-4.643-1.625-10.94-2.66-17.9s-1.972-13.256-2.662-17.9c-.341-2.236-.619-4.069-.827-5.422-.085-.594-.153-1.083-.21-1.475a2.067,2.067,0,0,1-.04-.523,2.008,2.008,0,0,1,.139.5c.08.389.179.872.3,1.463.25,1.27.591,3.114.98,5.4.79,4.566,1.782,10.889,2.81,17.881S70.595,75,71.211,79.59c.29,2.245.529,4.086.7,5.441.068.6.122,1.088.168,1.48a2.026,2.026,0,0,1,.026.523" transform="translate(118.699 67.08)" fill="#c7cddd"/>
        <path id="Path_2839" data-name="Path 2839" d="M62.559,37.336c.085.111-.1.386-.273.716s-.315.625-.455.614-.216-.421.02-.852.631-.588.708-.477" transform="translate(113.624 68.689)" fill="#c7cddd"/>
        <path id="Path_2840" data-name="Path 2840" d="M67.344,36.489c-.136,0-.236-.375-.222-.83s.136-.821.273-.815.236.375.222.83-.136.818-.273.815" transform="translate(123.603 64.163)" fill="#c7cddd"/>
        <path id="Path_2841" data-name="Path 2841" d="M70.07,33.09a17.21,17.21,0,0,1-2.225,5.12,17.154,17.154,0,0,1-3.384,4.444c-.114-.094,1.418-2.054,2.955-4.694s2.518-4.924,2.654-4.87" transform="translate(118.692 60.931)" fill="#c7cddd"/>
        <path id="Path_2842" data-name="Path 2842" d="M67.883,40.146a12.031,12.031,0,0,1-2.8-2.449,12.131,12.131,0,0,1-2.316-2.9,16.553,16.553,0,0,1,2.677,2.563,16.6,16.6,0,0,1,2.435,2.79" transform="translate(115.58 64.058)" fill="#c7cddd"/>
        <path id="Path_2843" data-name="Path 2843" d="M66.36,42.705c-.116.094-.4-.213-.452-.608s-.045-.634.063-.71c.125-.085.375.242.423.619s.071.614-.034.7" transform="translate(121.306 76.187)" fill="#c7cddd"/>
        <path id="Path_2844" data-name="Path 2844" d="M66.749,46.077c-.139,0-.239-.29-.281-.634-.048-.364.037-.682.173-.69s.273.267.318.634c.048.384-.077.7-.21.69" transform="translate(122.374 82.41)" fill="#c7cddd"/>
        <path id="Path_2845" data-name="Path 2845" d="M64.986,34.136a2.347,2.347,0,0,0,.716.665,2.03,2.03,0,0,0,2.4-.4,3.339,3.339,0,0,0,.869-1.568,7.04,7.04,0,0,0,.151-2.123c-.105-1.566-.216-3.262-.335-5.044-.227-3.577-.409-6.82-.511-9.169-.054-1.171-.088-2.12-.1-2.782a3.955,3.955,0,0,1,.031-1.023,4.2,4.2,0,0,1,.162,1.014c.071.651.156,1.6.256,2.77.193,2.341.429,5.581.656,9.158.105,1.784.2,3.486.3,5.052a7.312,7.312,0,0,1-.21,2.253,3.692,3.692,0,0,1-1.026,1.719,2.363,2.363,0,0,1-1.532.642,2.185,2.185,0,0,1-1.2-.33c-.588-.4-.636-.847-.619-.835" transform="translate(119.665 23.369)" fill="#e08f8d"/>
        <path id="Path_2846" data-name="Path 2846" d="M71.942,25.973a3.415,3.415,0,0,1-1.73.679,6.439,6.439,0,0,1-7.26-4.242,3.4,3.4,0,0,1-.259-1.838c.085-.011.145.7.585,1.713a6.593,6.593,0,0,0,6.885,4.021c1.1-.117,1.748-.412,1.779-.332" transform="translate(115.374 37.88)" fill="#e08f8d"/>
        <path id="Path_2847" data-name="Path 2847" d="M64.97,20.614c-.04.134-.847-.037-1.662.446-.835.449-1.105,1.228-1.239,1.193-.06-.014-.088-.244.048-.588a2.255,2.255,0,0,1,2.327-1.313c.361.06.546.2.526.261" transform="translate(114.208 37.436)" fill="#e08f8d"/>
        <path id="Path_2848" data-name="Path 2848" d="M84.921,30.488a4.66,4.66,0,0,1-.989.608,19.746,19.746,0,0,1-2.91,1.236A22.495,22.495,0,0,1,61,29.513a19.862,19.862,0,0,1-2.455-1.992,4.644,4.644,0,0,1-.781-.858c.065-.071,1.216,1.122,3.433,2.557A23.446,23.446,0,0,0,80.914,32c2.529-.77,3.964-1.6,4.006-1.512" transform="translate(106.376 49.092)" fill="#e08f8d"/>
        <path id="Path_2849" data-name="Path 2849" d="M55.691,24.641a3.267,3.267,0,0,0,1.014-1.384,2.631,2.631,0,0,0-.043-1.79A1.563,1.563,0,0,0,55.046,20.4a.974.974,0,0,0-.767,1.35l-.426.159A20.555,20.555,0,0,1,53.367,18a20.67,20.67,0,0,1,.941,3.825l.253,1.267-.679-1.111a1.433,1.433,0,0,1,1.094-2.071,1.881,1.881,0,0,1,1.364.352,2.255,2.255,0,0,1,.75,1.043,2.873,2.873,0,0,1-.054,2.074,2.336,2.336,0,0,1-.869,1.083c-.281.179-.463.2-.475.179" transform="translate(98.226 33.145)" fill="#e08f8d"/>
        <path id="Path_2850" data-name="Path 2850" d="M62.464,18.627c-.273,0-.506-1.083-.514-2.421s.2-2.427.477-2.429.5,1.083.514,2.421-.2,2.427-.477,2.429" transform="translate(114.078 25.369)" fill="#452775"/>
        <path id="Path_2851" data-name="Path 2851" d="M69.758,17.759c-.273.006-.517-.9-.543-2.02s.176-2.035.449-2.04.517.9.543,2.017-.176,2.037-.449,2.043" transform="translate(127.455 25.223)" fill="#452775"/>
        <path id="Path_2852" data-name="Path 2852" d="M57.76,38.846c-.546,1.645-1.088,3.467-.412,5.061s3.194,2.367,4.132.912a3.617,3.617,0,0,0,.392-1.966q.06-6.982.117-13.966A18.352,18.352,0,0,0,76.2,15.756a12.34,12.34,0,0,0,11.923.4c1.52-.793,3.046-1.952,4.745-1.722,2.043.276,3.242,2.378,4.919,3.575a6.334,6.334,0,0,0,9.05-2.483c1.5-3.384-.531-7.544-3.7-9.462-3.987-2.415-9.01-1.946-13.639-1.4L63.847,7.692a9.008,9.008,0,0,0-4.66,1.449,8.439,8.439,0,0,0-2.427,4.382,63.338,63.338,0,0,0-2.606,19.842c.057,2.054.418,4.444,2.208,5.453" transform="translate(99.678 7.772)" fill="#552e3b"/>
        <path id="Path_2853" data-name="Path 2853" d="M67.657,12.55c.131.673-1.33,1.52-3.259,1.892s-3.6.128-3.728-.546S62,12.377,63.929,12s3.6-.128,3.728.546" transform="translate(111.708 21.785)" fill="#552e3b"/>
        <path id="Path_2854" data-name="Path 2854" d="M73.856,12.921c-.051.685-1.324,1.151-2.847,1.04s-2.716-.756-2.668-1.438,1.324-1.148,2.847-1.037,2.719.756,2.668,1.435" transform="translate(125.846 21.119)" fill="#552e3b"/>
        <g id="Group_14889" data-name="Group 14889" transform="translate(167.87 31.726)" opacity="0.26">
          <g id="Group_14888" data-name="Group 14888">
            <g id="Group_14887" data-name="Group 14887" clip-path="url(#clip-path-6)">
              <path id="Path_2855" data-name="Path 2855" d="M69.142,11.2a9.223,9.223,0,1,1-10.025,8.348A9.225,9.225,0,0,1,69.142,11.2" transform="translate(-59.078 -11.166)" fill="#deecfc"/>
            </g>
          </g>
        </g>
        <g id="Group_14892" data-name="Group 14892" transform="translate(190.48 30.875)" opacity="0.26">
          <g id="Group_14891" data-name="Group 14891">
            <g id="Group_14890" data-name="Group 14890" clip-path="url(#clip-path-7)">
              <path id="Path_2856" data-name="Path 2856" d="M77.1,10.905a9.223,9.223,0,1,1-10.025,8.348A9.227,9.227,0,0,1,77.1,10.905" transform="translate(-67.036 -10.866)" fill="#deecfc"/>
            </g>
          </g>
        </g>
        <path id="Path_2857" data-name="Path 2857" d="M69.779,14.885a5.008,5.008,0,0,1-2.177.247,5,5,0,0,1-2.174-.247,5,5,0,0,1,2.174-.247,5.008,5.008,0,0,1,2.177.247" transform="translate(120.486 26.954)" fill="#635252"/>
        <path id="Path_2858" data-name="Path 2858" d="M85.629,91.5a16.978,16.978,0,0,1-1.966-2.373c-1.151-1.514-2.677-3.657-4.248-6.1s-2.893-4.717-3.8-6.39a16.58,16.58,0,0,1-1.344-2.773,21.854,21.854,0,0,1,1.648,2.6c.98,1.625,2.341,3.862,3.91,6.3s3.04,4.6,4.114,6.16A21.442,21.442,0,0,1,85.629,91.5" transform="translate(136.766 136.021)" fill="#e08f8d"/>
        <path id="Path_2859" data-name="Path 2859" d="M86.112,88a1.885,1.885,0,0,1-.722-.074,7.354,7.354,0,0,1-1.844-.708,16.98,16.98,0,0,1-4.8-4.333c-1.6-1.941-3.015-3.714-4.026-5.015A14.2,14.2,0,0,1,73.169,75.7a14.21,14.21,0,0,1,1.824,1.946c1.08,1.242,2.543,2.984,4.137,4.919a19.227,19.227,0,0,0,4.589,4.347A17.667,17.667,0,0,0,86.112,88" transform="translate(134.733 139.403)" fill="#e08f8d"/>
        <path id="Path_2860" data-name="Path 2860" d="M83.712,122.626l24.883-62.555L192,61.594l-23.459,59.293Z" transform="translate(154.154 110.618)" fill="#c08dff"/>
        <path id="Path_2861" data-name="Path 2861" d="M110.34,60.1,84.852,122.579l81.59-1.736L189.9,61.55Z" transform="translate(156.254 110.663)" fill="#d9bcff"/>
        <path id="Path_2862" data-name="Path 2862" d="M104.482,71.1c2.219-2.219,5.476-2.557,7.277-.759s1.458,5.058-.759,7.277-5.476,2.557-7.277.759-1.461-5.058.759-7.277" transform="translate(188.878 127.402)" fill="#d7d1e8"/>
        <g id="Group_14895" data-name="Group 14895" transform="translate(288.703 193.845)" opacity="0.19">
          <g id="Group_14894" data-name="Group 14894">
            <g id="Group_14893" data-name="Group 14893" clip-path="url(#clip-path-8)">
              <path id="Path_2863" data-name="Path 2863" d="M104.607,71.225c3.484-3.484,8.6-4.015,11.423-1.191s2.29,7.939-1.191,11.423-8.6,4.015-11.423,1.191-2.293-7.939,1.191-11.423" transform="translate(-101.604 -68.22)" fill="#7522de"/>
            </g>
          </g>
        </g>
        <g id="Group_14898" data-name="Group 14898" transform="translate(68.544 10.347)" opacity="0.43">
          <g id="Group_14897" data-name="Group 14897">
            <g id="Group_14896" data-name="Group 14896" clip-path="url(#clip-path-9)">
              <path id="Path_2864" data-name="Path 2864" d="M41.843,5.425C55.369.094,72.5,7.178,78.308,20.5s-.651,30.7-13.761,36.982-30.7.449-37.454-12.429S25.545,14.4,38.172,7.186" transform="translate(-24.123 -3.642)" fill="#e9f2ff"/>
            </g>
          </g>
        </g>
        <path id="Path_2865" data-name="Path 2865" d="M104.376,63.946c.367-2.435.293-4.751,1.662-6.9,2.714-4.279,6.572-3.205,10.309-1.321,3.808,1.918,7.394,3.063,11.531,1.273,6.464-2.8,9.5-12.548,3.333-17.134-2-1.483-3.967.969-3.7,2.841.369,2.626,1.671,5.51-.574,7.769-3.006,3.012-6.53.48-9.527-.869a12.436,12.436,0,0,0-10.019-.432c-5.754,2.321-9.922,10.124-5.359,15.392a1.41,1.41,0,0,0,2.341-.619" transform="translate(184.318 72.569)" fill="#fc9e22"/>
        <path id="Path_2866" data-name="Path 2866" d="M106.372,21.214c.156,2.728,1.657,5.191,3.143,7.43,1.026,1.54,2.225,3.637,4.066,4.276,1.972.685,3.381-.287,4.953-1.341,2.884-1.932,5.7-3.97,8.524-5.984a2.806,2.806,0,0,0,.989-3.771q-3.521-5.417-7.038-10.835A2.789,2.789,0,0,0,117.235,10c-2.944,2.086-6.217,3.989-8.806,6.51-2.162,2.106.571,5.268,3.1,4.018,3.023-1.5,5.74-3.819,8.493-5.765l-3.774-.989,7.038,10.832q.494-1.884.989-3.771c-1.591,1.131-3.188,2.256-4.774,3.4-.7.5-4.18,3.5-4.626,3.407-.52-.105-2.546-3.245-3.086-3.867a14.492,14.492,0,0,0-3.822-3.475,1.069,1.069,0,0,0-1.594.915" transform="translate(195.879 17.676)" fill="#d9bcff"/>
        <path id="Path_2867" data-name="Path 2867" d="M97.167,28.651c-3.827,3.643-5.373,9.223-1.73,13.662a10.7,10.7,0,0,0,14.335,1.765c10.272-7.757-.3-23.147-11.491-19.672a2.169,2.169,0,0,0,.574,4.239c3.04.276,6.3.3,8.772,2.4a6.157,6.157,0,0,1,.517,8.613c-5.592,6.879-15.242-3.424-9.479-9.51a1.059,1.059,0,0,0-1.5-1.5" transform="translate(171.938 44.015)" fill="#d9bcff"/>
        <path id="Path_2868" data-name="Path 2868" d="M126.837,38.482c-1.353,6.589-2.475,13.19-3.515,19.834a2.455,2.455,0,0,0,2.964,2.964c6.254-.884,12.471-1.7,18.626-3.14a2.259,2.259,0,0,0,1.336-3.285A82.429,82.429,0,0,0,139.814,44.6c-2.208-2.83-4.828-6.538-8.2-7.985-2.1-.9-4.742,1.049-3.361,3.364,1.759,2.949,4.867,5.061,7.155,7.627a51,51,0,0,1,6.979,9.508l1.932-3.364c-6.51.56-12.883,1.745-19.314,2.887l3.049,2.324c.736-6.689,1.384-13.352,1.8-20.067.108-1.716-2.671-2.111-3.021-.409" transform="translate(227.016 67.007)" fill="#c08dff"/>
        <path id="Path_2869" data-name="Path 2869" d="M121.019,46.594a98.128,98.128,0,0,0,3.043-20.129c.071-2.5-3.927-3.131-4.436-.6a97.889,97.889,0,0,0-1.591,20.328,1.526,1.526,0,0,0,2.984.4" transform="translate(217.331 44.653)" fill="#e9f2ff"/>
        <path id="Path_2870" data-name="Path 2870" d="M131,24.06l-.043-.1c-.051-.119-.1-.239-.151-.358a2.093,2.093,0,0,0-.588-.912,2.659,2.659,0,0,0-.6-.463c-.074-.043-.148-.085-.222-.125l-.656-.278a2.1,2.1,0,0,0-1.1-.048,1.354,1.354,0,0,0-.7.188,2.052,2.052,0,0,0-.889.571l-.429.557c-.094.219-.185.44-.278.659a2.07,2.07,0,0,0-.048,1.1,2.034,2.034,0,0,0,.327,1.026c.04.074.08.148.122.222a1.263,1.263,0,0,0,.227.3q.111.158.239.307c.19.148.381.3.574.443l.688.29.111.045A2.777,2.777,0,0,0,131,24.06" transform="translate(230.637 39.997)" fill="#e9f2ff"/>
      </g>
    </g>
  </g>
</svg>
