<svg xmlns="http://www.w3.org/2000/svg" width="170" height="30" viewBox="0 0 170 30">
  <g id="Group_854" data-name="Group 854" transform="translate(-50 -54)">
    <text id="Stock_Trading" data-name="Stock Trading" transform="translate(84 78)" fill="#7522de" font-size="22" font-family="Saffran-Medium, Saffran" font-weight="500"><tspan x="0" y="0">Stock Trading</tspan></text>
    <g id="Group_14" data-name="Group 14" transform="translate(50 57.299)">
      <path id="Path_2483" data-name="Path 2483" d="M12.778,0A12.778,12.778,0,1,1,0,12.778,12.778,12.778,0,0,1,12.778,0Z" transform="translate(0.73 0)" fill="#7522de"/>
      <path id="Path_1" data-name="Path 1" d="M10.039,14.3a4.313,4.313,0,0,0,1.255-3.267c0-2.2-.829-3.078-4.072-4.025l-2.6-.758c-1.776-.545-1.965-.923-1.965-1.7a5.315,5.315,0,0,1,.071-.568A10.608,10.608,0,0,0,1.137,1.728,3.567,3.567,0,0,0,0,4.593c0,2.462.852,3.315,3.291,4l3.007.9c2.2.663,2.344,1.042,2.344,1.823a4.34,4.34,0,0,1-.071.616A10.347,10.347,0,0,0,10.039,14.3Zm-5.3,1.681a11.765,11.765,0,0,0,2.889-.331A8.29,8.29,0,0,0,8.761,13.07a8.826,8.826,0,0,1-3.859.71,24.115,24.115,0,0,1-4.688-.521v2.178A17.763,17.763,0,0,0,4.735,15.982ZM2.581,2.912a8.1,8.1,0,0,1,3.93-.734,25.755,25.755,0,0,1,3.954.379V.4A17.359,17.359,0,0,0,6.511,0a11.106,11.106,0,0,0-2.77.284A7.4,7.4,0,0,0,2.581,2.912ZM16.273,15.771h2.652V4.524a7.811,7.811,0,0,0-2.652-1.35ZM11.348,2.559H23.8V.31H11.348Z" transform="translate(0 8.386) rotate(-16)" fill="#fff"/>
    </g>
  </g>
</svg>
