<svg xmlns="http://www.w3.org/2000/svg" xmlns:xlink="http://www.w3.org/1999/xlink" width="656.799" height="606.478" viewBox="0 0 656.799 606.478">
  <defs>
    <linearGradient id="linear-gradient" x1="1" y1="0.5" x2="0" y2="0.5" gradientUnits="objectBoundingBox">
      <stop offset="0" stop-color="#fdddc3"/>
      <stop offset="1" stop-color="#fdc89d"/>
    </linearGradient>
    <linearGradient id="linear-gradient-2" x1="-9.209" y1="-1.16" x2="-8.822" y2="0.601" gradientUnits="objectBoundingBox">
      <stop offset="0" stop-color="#f59d58"/>
      <stop offset="1" stop-color="#f5b17d"/>
    </linearGradient>
    <linearGradient id="linear-gradient-3" x1="-7.315" y1="-1.127" x2="-7.006" y2="0.46" xlink:href="#linear-gradient-2"/>
    <linearGradient id="linear-gradient-4" x1="-5.649" y1="-1.19" x2="-5.41" y2="0.28" xlink:href="#linear-gradient-2"/>
    <linearGradient id="linear-gradient-5" x1="3.702" y1="1.471" x2="2.698" y2="1.471" xlink:href="#linear-gradient"/>
    <linearGradient id="linear-gradient-6" x1="2.014" y1="0.689" x2="0.992" y2="0.689" xlink:href="#linear-gradient"/>
    <linearGradient id="linear-gradient-7" x1="1.597" y1="0.546" x2="0.628" y2="0.546" xlink:href="#linear-gradient"/>
    <linearGradient id="linear-gradient-8" x1="-171.535" y1="-3.411" x2="-170.774" y2="-3.261" xlink:href="#linear-gradient"/>
    <linearGradient id="linear-gradient-9" x1="-423.667" y1="-9.006" x2="-424.439" y2="-9.006" xlink:href="#linear-gradient-2"/>
    <linearGradient id="linear-gradient-10" x1="4.084" y1="1.404" x2="4.088" y2="1.77" gradientUnits="objectBoundingBox">
      <stop offset="0" stop-color="#fde1ca"/>
      <stop offset="1" stop-color="#fdddc3"/>
    </linearGradient>
    <linearGradient id="linear-gradient-11" x1="3.075" y1="0.795" x2="1.841" y2="0.795" xlink:href="#linear-gradient-2"/>
  </defs>
  <g id="Group_15032" data-name="Group 15032" transform="translate(17749.25 10898.441)">
    <g id="Group_15031" data-name="Group 15031" transform="translate(-18017.037 -11091.119)">
      <path id="Path_3098" data-name="Path 3098" d="M428.371,799.155c26.267,0,50.672-3.992,70.934-10.832,35.238-11.9,76.818-18.3,119.3-18.3h8.942c42.668,0,83.915,6.353,119.3,18.3,20.262,6.84,44.667,10.832,70.934,10.832,44.776,0,84.142-11.382,106.8-28.912V660.355c-22.654,17.53-62.02,29.131-106.8,29.131-26.267,0-50.672-3.992-70.934-10.832-35.389-11.946-76.636-18.3-119.3-18.3h-8.942c-42.486,0-84.066,6.4-119.3,18.3-20.262,6.84-44.667,10.832-70.934,10.832-44.777,0-84.142-11.6-109.333-28.258V771.117C344.229,787.773,383.594,799.155,428.371,799.155Z" fill="#c08dff"/>
      <path id="Path_3099" data-name="Path 3099" d="M627.551,667.745c39.638,0,78.045,5.892,111.067,17.039,23.436,7.911,50.814,12.092,79.171,12.092,34.314,0,66.725-6.127,92.052-16.968v87.86c-21.087,15.067-55.186,24-92.052,24-22.467,0-44.148-3.309-62.7-9.571-37.906-12.8-82.008-19.56-127.54-19.56h-8.943c-45.531,0-89.633,6.764-127.54,19.56-18.55,6.262-40.23,9.571-62.7,9.571-36.866,0-70.965-8.93-92.051-24v-87.86c25.326,10.841,57.736,16.968,92.051,16.968,28.358,0,55.734-4.181,79.171-12.092,33.021-11.147,71.427-17.039,111.066-17.039Z" fill="#d9bcff"/>
      <path id="Path_3100" data-name="Path 3100" d="M627.551,676.123c36.3,0,71.476,5.4,101.727,15.61,26.208,8.846,56.814,13.522,88.511,13.522a299.509,299.509,0,0,0,64.472-6.844,11.3,11.3,0,0,0,3.321,8.146,8.249,8.249,0,0,0,7.542,2.235v48.657c-3.811,1.937-6.275,6.3-6.276,11.124-18.451,9.379-45.746,14.814-69.059,14.814-19.127,0-37.578-2.815-53.359-8.142-40.676-13.731-88.008-20.989-136.879-20.989h-8.943c-48.869,0-96.2,7.258-136.879,20.989-15.781,5.327-34.232,8.142-53.357,8.142-20,0-49.9-5.435-68.948-14.816,0-4.869-2.516-9.273-6.386-11.179V708.757a8.249,8.249,0,0,0,7.521-2.249,11.318,11.318,0,0,0,3.305-8.14,318.228,318.228,0,0,0,64.507,6.887c31.7,0,62.3-4.676,88.51-13.522,30.25-10.212,65.428-15.61,101.727-15.61Z" fill="#7522de"/>
      <g id="Group_15030" data-name="Group 15030">
        <path id="Path_3101" data-name="Path 3101" d="M614.084,744.321c-2.256-.161-4.425-.381-6.483-.678a49.38,49.38,0,0,1-11.449-2.908,20.564,20.564,0,0,1-7.393-4.77,9.338,9.338,0,0,1-2.637-6.556v-3.653h19.716v4.1a4.1,4.1,0,0,0,1.5,3.13,12.694,12.694,0,0,0,3.875,2.274,26.613,26.613,0,0,0,5.281,1.416,35.992,35.992,0,0,0,5.9.482,48.058,48.058,0,0,0,6.691-.446,25.106,25.106,0,0,0,5.724-1.452,11.131,11.131,0,0,0,4.048-2.571,5.279,5.279,0,0,0,1.5-3.8q0-3.279-5.28-5.14a109.521,109.521,0,0,0-14.966-3.726q-5.287-.969-11.355-2.163a71.411,71.411,0,0,1-11.269-3.129,27.605,27.605,0,0,1-8.54-4.842,9.2,9.2,0,0,1-3.346-7.229q0-7.455,10.037-11.293a64.268,64.268,0,0,1,18.455-3.57v-6.678c-39.319,2-69.834,16.522-69.834,34.148s30.515,32.152,69.834,34.148Z" fill="#d9bcff"/>
        <path id="Path_3102" data-name="Path 3102" d="M632.634,681.115v6.705c2.393.147,4.648.345,6.747.6a44.652,44.652,0,0,1,12.151,2.981,16.351,16.351,0,0,1,7.214,5.513,14.561,14.561,0,0,1,2.379,8.5H641.051a13.715,13.715,0,0,0-.617-4.285,6.363,6.363,0,0,0-2.636-3.277,15.659,15.659,0,0,0-5.638-2.126,49.267,49.267,0,0,0-9.593-.746,31.441,31.441,0,0,0-11.707,1.828q-4.491,1.824-4.492,5.85.172,3.948,6.427,6.258a97.586,97.586,0,0,0,16.284,4.1q8.1,1.414,14.178,2.905a54.206,54.206,0,0,1,10.03,3.354,16,16,0,0,1,5.9,4.324,9.239,9.239,0,0,1-.616,12.035,20.5,20.5,0,0,1-7.486,4.806,53.491,53.491,0,0,1-12.151,3.093c-1.978.3-4.084.527-6.3.7v5.178c39.319-2,69.832-16.522,69.832-34.148S671.953,683.111,632.634,681.115Z" fill="#d9bcff"/>
      </g>
    </g>
    <g id="Man" transform="translate(-17762.5 -10840.05) rotate(-8)">
      <g id="Group_15027" data-name="Group 15027" transform="translate(0 0)">
        <g id="Group_15016" data-name="Group 15016" transform="translate(387.597 81.722)">
          <path id="Path_3053" data-name="Path 3053" d="M310.384,162.243c24.224,9.445,73.06,42.271,86.621,53.977s71.1,63.365,77.362,69.953c.586,2.227-1.473,7.141-7.356,7.318-10.034-6.343-75.371-52.879-81.714-55.318s-61.785-23.947-70.808-26C307.345,200.457,299.439,171.34,310.384,162.243Z" transform="translate(-304.977 -162.243)" fill="#111011"/>
          <g id="Group_15015" data-name="Group 15015" transform="translate(163.298 124.879)">
            <path id="Path_3054" data-name="Path 3054" d="M318.488,226.061c1.357,1.47,7.652,8.047,7.841,8.511a2.081,2.081,0,0,1,.089,1.318,3.992,3.992,0,0,1,.8,1.334,1.05,1.05,0,0,1-.4.832,3.559,3.559,0,0,1,1.011,1.989c-.016.614-.791,1.064-.791,1.064s.9,1.214.325,1.845-1.543.35-2.341-.011-15.874-7.613-17.995-8.786c-.832.086.357,1.714.586,2.143s2.577,1.218,3.345,1.95,2.475,3.084,1.911,4.334c-.72,1.593-2.868-1.3-4.093-1.764a48.48,48.48,0,0,1-6.929-3.609c-1.448-1.682-8.581-11.577-9.784-13.888s3.991-7.034,6.429-5.979S317.2,224.664,318.488,226.061Z" transform="translate(-291.884 -217.192)" fill="url(#linear-gradient)"/>
            <g id="Group_15014" data-name="Group 15014" transform="translate(18.736 10.38)">
              <path id="Path_3055" data-name="Path 3055" d="M302.638,230.079l-9.816-8.319-.317.172Z" transform="translate(-286.84 -221.76)" fill="url(#linear-gradient-2)"/>
              <path id="Path_3056" data-name="Path 3056" d="M305.043,231.545l-12.417-9.236-.3.256Z" transform="translate(-288.848 -221.06)" fill="url(#linear-gradient-3)"/>
              <path id="Path_3057" data-name="Path 3057" d="M308.648,233.3l-16.093-9.966-.322.277Z" transform="translate(-292.232 -219.76)" fill="url(#linear-gradient-4)"/>
            </g>
          </g>
        </g>
        <g id="Group_15018" data-name="Group 15018" transform="translate(278.848 237.487)">
          <path id="Path_3058" data-name="Path 3058" d="M415.889,235.1c44.6,27.383,90.239,94.373,92.7,112.815,3.073,23.008-32.9,170.658-38.025,176.569a14.8,14.8,0,0,1-8.1-3.632c-.648-12.336-6.613-139.241,5.991-165.374-14.4-9.975-78.242-55.184-104.99-92.628C365.437,238.021,395.967,222.872,415.889,235.1Z" transform="translate(-363.466 -230.783)" fill="#111011"/>
          <g id="Group_15017" data-name="Group 15017" transform="translate(96.668 288.692)">
            <path id="Path_3059" data-name="Path 3059" d="M384.927,357.814c.852-.057,2.65,3.041,2.973,3.543,1.945,3.05,6.306,6.9,12.454,11.17,2.789,1.936.379,7.422-3.257,7.3-8.67-.3-12.481-8.141-15.3-8.961s-9.2-2.954-9.741-3.529c-1.457-1.557.914-7.338,1.645-8.554.573-.954,3.627,1.343,6.1,1.877C382.125,361.155,383.168,357.933,384.927,357.814Z" transform="translate(-371.398 -357.814)" fill="#111011"/>
            <path id="Path_3060" data-name="Path 3060" d="M399.463,374.657a3.523,3.523,0,0,0,1.259-.189,3.826,3.826,0,0,1-2.609.966c-8.67-.3-12.481-8.141-15.3-8.961s-9.2-2.954-9.74-3.529a3.419,3.419,0,0,1-.661-1.682c1.9.852,9.325,3.725,11.752,4.432C386.982,366.516,390.793,374.352,399.463,374.657Z" transform="translate(-372.414 -353.425)" fill="#111011"/>
            <path id="Path_3061" data-name="Path 3061" d="M378.014,364.355c-1.218-1.752-1.661-3.911-4.532-5,.727-.727,1.4-1.489,2.243-1.543s2.65,3.041,2.973,3.543c1.6,2.509,4.859,5.568,9.379,8.947C383.372,370.909,380.2,367.5,378.014,364.355Z" transform="translate(-362.196 -357.814)" fill="#111011"/>
          </g>
        </g>
        <g id="Group_15020" data-name="Group 15020" transform="translate(182.328 231.283)">
          <path id="Path_3062" data-name="Path 3062" d="M534.57,249.5c5.1,32.289,4.816,108.777,1.477,119.587-2.514,8.143-103.806,98.988-109.172,105.331s-15.626,2.055-10.245-5.854S457.024,383.5,504.017,360.9c-9.268-25.06-42.941-78.655-25.185-126.635C493.6,220.68,528.4,231.011,534.57,249.5Z" transform="translate(-414.033 -228.053)" fill="#111011"/>
          <g id="Group_15019" data-name="Group 15019" transform="translate(0 242.794)">
            <path id="Path_3063" data-name="Path 3063" d="M473.713,337.449c.161,2.029.252,6.848,2.991,9.991s4.738,5.916,4.818,7.758c.063,1.47-.252,4.514-2.534,5.173s-10.093-1.825-11.209-5.832-4.209-9.281-6.034-10.8-.755-6.057-.254-7.15c.559-1.218,2.225.436,4.261.05,1.532-.291,2.332-1.761,4.259-1.75C471.975,334.9,473.641,336.538,473.713,337.449Z" transform="translate(-460.721 -334.888)" fill="#111011"/>
            <path id="Path_3064" data-name="Path 3064" d="M469.731,351.077c1.041,3.739,7.9,6.15,10.674,5.92a2.679,2.679,0,0,1-.561.257c-2.284.659-10.093-1.825-11.209-5.832s-4.209-9.281-6.034-10.8a4.1,4.1,0,0,1-1.007-3.284C463.759,339.642,468.7,347.357,469.731,351.077Z" transform="translate(-461.577 -331.771)" fill="#111011"/>
            <path id="Path_3065" data-name="Path 3065" d="M461.643,340.706a11.375,11.375,0,0,0-.92-5.707,3.641,3.641,0,0,1,2.391,2.309c.161,2.029.252,6.847,2.991,9.99s4.738,5.916,4.818,7.759c0,.05,0,.111,0,.164C463.739,349.923,461.643,345.717,461.643,340.706Z" transform="translate(-450.121 -334.747)" fill="#111011"/>
          </g>
        </g>
        <g id="Group_15023" data-name="Group 15023" transform="translate(0 63.709)">
          <g id="Group_15022" data-name="Group 15022" transform="translate(0 31.486)">
            <path id="Path_3066" data-name="Path 3066" d="M617.661,227.342c.2,1.445.323,2.984.414,4.486a13.947,13.947,0,0,1-3.614,9.484c-13.579,13.27-39.278,34.423-51.3,43.666a6.791,6.791,0,0,1-8.9-.516c-12.9-12.618-40.214-42.443-55.924-60.449-1.171-1.343-2.393-7.5-1.1-12.949a7.941,7.941,0,0,1,5.116-5.363c22.34-8.347,43.628-23.358,59.265-35.66a8.658,8.658,0,0,1,11.877,1.073c12.486,14.247,36.085,43.539,42.55,52.3A8.5,8.5,0,0,1,617.661,227.342Z" transform="translate(-496.685 -168.172)" fill="#172c87"/>
            <path id="Path_3067" data-name="Path 3067" d="M614.084,235.129c-11.654,12.365-38.484,34.076-51.429,43.818a6.77,6.77,0,0,1-8.718-.464c-13.443-12.638-41.125-42.334-55.347-59.622a5.08,5.08,0,0,1,2.132-7.959c22.694-8.877,47.009-24.342,62.847-36.466a6.873,6.873,0,0,1,9.331.891c11.09,12.506,32.93,39.487,41.664,50.9A6.869,6.869,0,0,1,614.084,235.129Z" transform="translate(-496.288 -162.01)" fill="#7522de"/>
            <path id="Path_3068" data-name="Path 3068" d="M498.6,194.505a306.977,306.977,0,0,0,28.3-18.911,6.891,6.891,0,0,1,9.34.984c10.954,12.5,30.305,36.437,39.191,47.923a6.926,6.926,0,0,1-.546,9.09c-5.486,5.616-13.722,12.924-22.251,20.11C539.379,241.323,513.572,212.8,498.6,194.505Z" transform="translate(-459.84 -160.488)" fill="#172c87"/>
            <path id="Path_3069" data-name="Path 3069" d="M533.281,206.6l-3.712,3.1-11.447-11.178L522.631,195Z" transform="translate(-460.596 -134.025)" fill="#1c35a3"/>
            <path id="Path_3070" data-name="Path 3070" d="M566.453,245.681l3.88-3.343-.762-.726-3.068,2.7-55.647-56.631,6.086-3.753-.644-.785-7.027,4.345Z" transform="translate(-477.534 -149.124)" fill="#1c35a3"/>
            <g id="Group_15021" data-name="Group 15021" transform="translate(91.282 17.366)">
              <path id="Path_3071" data-name="Path 3071" d="M505.351,182.287l.1,3,10.329-6.9-.287-2.236a.357.357,0,0,0-.516-.293Z" transform="translate(-505.351 -175.814)" fill="#7522de"/>
              <path id="Path_3072" data-name="Path 3072" d="M504.612,183.847l1.032,1.2a1.053,1.053,0,0,0,1.366.268l9.611-6.418-1.679-1.945Z" transform="translate(-504.514 -174.371)" fill="#172c87"/>
              <path id="Path_3073" data-name="Path 3073" d="M499.439,189.554l.079,2.436,10.109-6.75-.712-2.591-9.07,6.057A.963.963,0,0,0,499.439,189.554Z" transform="translate(-485.762 -167.113)" fill="#7522de"/>
              <path id="Path_3074" data-name="Path 3074" d="M498.962,175.875l13.918,16.383a1.3,1.3,0,0,1,.255.486l.72,2.463-14.52-16.9Z" transform="translate(-488.908 -175.735)" fill="#7522de"/>
              <path id="Path_3075" data-name="Path 3075" d="M514.405,196.646,498.94,179.383l3.648-2.436,14.256,16.5a1.1,1.1,0,0,1-.1,1.632Z" transform="translate(-492.161 -174.371)" fill="#172c87"/>
              <path id="Path_3076" data-name="Path 3076" d="M498.915,190.538l1.029,1.2a1.051,1.051,0,0,0,1.366.27l8.436-5.634a1,1,0,0,0,.1-1.632l-.82-.948Z" transform="translate(-485.159 -165.661)" fill="#172c87"/>
            </g>
          </g>
          <path id="Path_3077" data-name="Path 3077" d="M511.9,200.694c-2.52-1.284-1.184-4.388-.67-5.222s-.175-1.041-.071-1.477c.093-.389-.866.039-1.291-.18,0,0-1.523.85-2.838,1.686-1.943-.875-10.547-10.475-9.722-12.815,4.445-3.236,11.609-7.875,16.133-6.684,4.2,1.107,7.238,7.3,4.254,11.924-1.032,2.686-1.275,4.275-1.664,5.073-.259.527-1,2.4-1.634,3.711C513.873,197.8,513.335,201.423,511.9,200.694Z" transform="translate(-398.772 -126.964)" fill="url(#linear-gradient-5)"/>
          <path id="Path_3078" data-name="Path 3078" d="M617.66,154.846c-25.919-2.068-98.011,2.284-115.322,6.9S414.9,198.6,406.389,201.8c-1.5,1.75.482,6.013,5.7,8.738,11.795-1.329,84.437-24.5,91.207-23.926s68.862,7.941,77.876,10.031C592.711,189.211,623.539,167.807,617.66,154.846Z" transform="translate(-290.68 -154.317)" fill="#111011"/>
        </g>
        <g id="Group_15024" data-name="Group 15024" transform="translate(351.358)">
          <path id="Path_3079" data-name="Path 3079" d="M375.17,138.647c.327,5.647-7.6,16.872-7.6,16.872l1-15.84S372.857,138.831,375.17,138.647Z" transform="translate(-311.711 -110.55)" fill="#080c29"/>
          <path id="Path_3080" data-name="Path 3080" d="M388.9,149.806l-4.724,6.01-6.166,3.445,27.34,22.71,11.411-10.562,1-5.5Z" transform="translate(-378.011 -96.349)" fill="url(#linear-gradient-6)"/>
          <path id="Path_3081" data-name="Path 3081" d="M418.5,150.788c-.013,9.086-11.561,37.162-18.867,42.441-4.659,3.363-14.911.334-17.958-1.239-2.225-1.148-11.452-14.9-11.906-22.49s-.686-26.033,6.434-32.439C388.8,125.723,418.527,132.352,418.5,150.788Z" transform="translate(-359.58 -119.666)" fill="url(#linear-gradient-7)"/>
          <path id="Path_3082" data-name="Path 3082" d="M367.508,173.668c3.784-4.527,6.516-5.7,9.661-7.791,1.943-3.927,2.816-10.547,3.67-14.658,11.518-1.234,26.094,8.925,33.212,8.081,11.113-1.316,11.577-17.242,11.59-19.09.014-1.582-6.386-9.252-8.541-9.87-2.241-.643-6.772,3.057-13.427.2s-14.749-6.563-22.888-2.357c-5.525-1.586-9.084-.08-12.12,5.477C362.365,145.192,367.355,156.5,367.508,173.668Z" transform="translate(-357.437 -126.284)" fill="#7522de"/>
          <path id="Path_3083" data-name="Path 3083" d="M367.508,173.668c3.784-4.527,6.516-5.7,9.661-7.791,1.943-3.927,2.816-10.547,3.67-14.658,11.518-1.234,26.094,8.925,33.212,8.081,11.113-1.316,11.577-17.242,11.59-19.09.014-1.582-6.386-9.252-8.541-9.87-2.241-.643-6.772,3.057-13.427.2s-14.749-6.563-22.888-2.357c-5.525-1.586-9.084-.08-12.12,5.477C362.365,145.192,367.355,156.5,367.508,173.668Z" transform="translate(-357.437 -126.284)" fill="#111011"/>
          <path id="Path_3084" data-name="Path 3084" d="M374.357,153.673c1.943-3.927,2.95-9.795,3.8-13.906,11.518-1.234,25.787,6.666,32.866,5.529,6.341-1.018,10.332-6.452,12.418-10.786-.852,5.4-3.421,13.4-11.165,14.322-7.118.843-21.694-9.315-33.212-8.081-.854,4.111-1.727,10.731-3.67,14.658-3.145,2.088-5.877,3.263-9.661,7.79-.009-.807-.034-1.589-.061-2.37A53.56,53.56,0,0,1,374.357,153.673Z" transform="translate(-355.667 -115.815)" fill="#080c29"/>
          <path id="Path_3085" data-name="Path 3085" d="M394.983,144.124c-.336-2.482-4.875-3.859-7.127-1.673s-2.475,9.031-1.3,11.452c1.157,2.379,3.579,4.532,4.668,2.986S394.983,144.124,394.983,144.124Z" transform="translate(-373.068 -107.098)" fill="url(#linear-gradient-8)"/>
          <path id="Path_3086" data-name="Path 3086" d="M390.551,144.608c-.137-1-1.973-1.559-2.882-.677s-1,3.652-.525,4.632c.466.961,1.445,1.832,1.886,1.207A38.8,38.8,0,0,0,390.551,144.608Z" transform="translate(-370.915 -104.387)" fill="url(#linear-gradient-9)"/>
          <path id="Path_3087" data-name="Path 3087" d="M385.857,146.855a8.086,8.086,0,0,1,1.77-4.4c2.252-2.186,6.791-.809,7.127,1.673,0,0-.109.461-.289,1.191C392.848,142.935,388.514,141.84,385.857,146.855Z" transform="translate(-372.839 -107.098)" fill="url(#linear-gradient-10)"/>
          <path id="Path_3088" data-name="Path 3088" d="M391.507,168.048c-1.525-1.473-4.977-8.5-9.343-16.745.13-.284.6-1.5.6-1.5,2.977,6.22,9.638,18.061,11.2,18.867a30.68,30.68,0,0,0,8.215,2.443C398.145,170.721,393.486,169.962,391.507,168.048Z" transform="translate(-371.871 -96.349)" fill="url(#linear-gradient-11)"/>
        </g>
        <g id="Group_15026" data-name="Group 15026" transform="translate(235.925 59.414)">
          <path id="Path_3089" data-name="Path 3089" d="M451.608,228.06,461.066,238,441.408,274.74l-12.029-21.733a81.219,81.219,0,0,1,4.45-18.751C438.347,230.1,444.737,228.194,451.608,228.06Z" transform="translate(-422.627 -56.176)" fill="#0a0f33"/>
          <path id="Path_3090" data-name="Path 3090" d="M478.706,156.452c-10.209-.63-45.639-7.793-60.39,11.027-12.486,15.929-13.62,48.557-19.715,85.4-4.445,26.883-19.126,46.216-25.142,63.2,17.524,25.265,75.767,21.36,87.25,20.544,2.457-6.843,8.932-20.844,22.006-50.061,12.736-28.464,41.234-48.136,41.234-83.751,0-22.756-12.143-35.991-12.143-35.991L501.2,175.876Z" transform="translate(-358.426 -149.669)" fill="#fff"/>
          <path id="Path_3091" data-name="Path 3091" d="M372.916,326.109c2.457-6.843,9.547-20.872,22.619-50.086,12.736-28.467,41.855-49.711,41.855-85.323,0-13.329-5.4-21.792-8.852-27.842,7.52,38.68-14.611,72.29-33.616,108.243C384.595,290.636,379.159,305.7,372.916,326.109Z" transform="translate(-270.632 -139.153)" fill="#111011"/>
          <path id="Path_3092" data-name="Path 3092" d="M509.264,156.293c-13.117-1.834-41.982-6.968-53.9,8.234-12.484,15.926-13.172,51.961-19.267,88.807-4.445,26.883-32.273,69-39.371,81.076,3.22,6.32,15.09,23.894,17.688,27.567,9.04-10.093,70.417-105.329,76.733-120.133C498.942,223.578,510.6,156.479,509.264,156.293Z" transform="translate(-396.729 -150.469)" fill="#111011"/>
          <g id="Group_15025" data-name="Group 15025" transform="translate(17.688)">
            <path id="Path_3093" data-name="Path 3093" d="M508.078,179.436l3.229-8.925-3.438-6.2-4.307-.355-5.534,5.282,3.679,9.295c-8.34,69.185-65.208,60.011-98.325,45.177l-22.076-.345,13.331,22.283C438.727,272.486,506.153,246.16,508.078,179.436Z" transform="translate(-381.307 -137.752)" fill="#fc9e22"/>
            <path id="Path_3094" data-name="Path 3094" d="M393.239,152.479l-1.585-.052-8.184,3.161,18.221,32.722,12.722-9.676Z" transform="translate(-289.328 -152.427)" fill="#b8c4d9"/>
            <path id="Path_3095" data-name="Path 3095" d="M387.6,159.311l2.044,1.11,3.085,4.158L383.309,184.8l-7.117-14.93Z" transform="translate(-251.107 -143.667)" fill="#b8c4d9"/>
            <path id="Path_3096" data-name="Path 3096" d="M393.239,152.479l-1.585-.052-8.184,3.161,18.34,30.978,12.6-7.932Z" transform="translate(-289.328 -152.427)" fill="#fff"/>
            <path id="Path_3097" data-name="Path 3097" d="M387.6,159.311l2.044,1.11,3.085,4.158-9.284,18.394-7.256-13.1Z" transform="translate(-251.107 -143.667)" fill="#fff"/>
          </g>
        </g>
      </g>
    </g>
  </g>
</svg>
