<svg xmlns="http://www.w3.org/2000/svg" xmlns:xlink="http://www.w3.org/1999/xlink" width="991.135" height="797.014" viewBox="0 0 991.135 797.014">
  <defs>
    <linearGradient id="linear-gradient" y1="0.5" x2="1" y2="0.5" gradientUnits="objectBoundingBox">
      <stop offset="0" stop-color="#fdddc3"/>
      <stop offset="1" stop-color="#fdc89d"/>
    </linearGradient>
    <linearGradient id="linear-gradient-2" x1="10.209" y1="-1.16" x2="9.822" y2="0.601" gradientUnits="objectBoundingBox">
      <stop offset="0" stop-color="#f59d58"/>
      <stop offset="1" stop-color="#f5b17d"/>
    </linearGradient>
    <linearGradient id="linear-gradient-3" x1="8.315" y1="-1.127" x2="8.006" y2="0.46" xlink:href="#linear-gradient-2"/>
    <linearGradient id="linear-gradient-4" x1="6.649" y1="-1.19" x2="6.41" y2="0.28" xlink:href="#linear-gradient-2"/>
    <linearGradient id="linear-gradient-5" x1="-2.702" y1="1.471" x2="-1.698" y2="1.471" xlink:href="#linear-gradient"/>
    <linearGradient id="linear-gradient-6" x1="-1.014" y1="0.689" x2="0.008" y2="0.689" xlink:href="#linear-gradient"/>
    <linearGradient id="linear-gradient-7" x1="-0.597" y1="0.546" x2="0.372" y2="0.546" xlink:href="#linear-gradient"/>
    <linearGradient id="linear-gradient-8" x1="172.535" y1="-3.411" x2="171.774" y2="-3.261" xlink:href="#linear-gradient"/>
    <linearGradient id="linear-gradient-9" x1="424.667" y1="-9.006" x2="425.439" y2="-9.006" xlink:href="#linear-gradient-2"/>
    <linearGradient id="linear-gradient-10" x1="-3.084" y1="1.404" x2="-3.088" y2="1.77" gradientUnits="objectBoundingBox">
      <stop offset="0" stop-color="#fde1ca"/>
      <stop offset="1" stop-color="#fdddc3"/>
    </linearGradient>
    <linearGradient id="linear-gradient-11" x1="-2.075" y1="0.795" x2="-0.841" y2="0.795" xlink:href="#linear-gradient-2"/>
  </defs>
  <g id="Group_15029" data-name="Group 15029" transform="translate(17457.229 11755.166)">
    <g id="Money" transform="translate(-17457.229 -11513.478)">
      <g id="Group_15013" data-name="Group 15013" transform="translate(0 0)">
        <g id="Group_15011" data-name="Group 15011" transform="translate(530.077 190.644)">
          <path id="Path_3043" data-name="Path 3043" d="M942.805,415.292h0c0,123.965-117.874,202.474-253.572,265.91-17.886-8.493-207.488-122.019-207.488-122.019L801.758,337.359C860.4,296.668,942.805,311.981,942.805,415.292Z" transform="translate(-481.746 -316.521)" fill="#d9bcff"/>
          <path id="Path_3044" data-name="Path 3044" d="M675.844,652.687C648.3,637.117,553.281,581.1,492.866,545.049L778.987,343.7c15.188-10.536,37.757-27.38,67.676-27.015,33.948.418,56.72,51.693,56.72,98.4,0,49.959-22.181,94.811-67.81,137.125C799.088,586.043,748.131,618.118,675.844,652.687Z" transform="translate(-467.595 -316.318)" fill="#d3d3d3"/>
          <ellipse id="Ellipse_83" data-name="Ellipse 83" cx="47.723" cy="82.39" rx="47.723" ry="82.39" transform="translate(98.278 156.283) rotate(-60.7)" fill="#c08dff"/>
          <g id="Group_15010" data-name="Group 15010" transform="translate(25.271 0.361)">
            <path id="Path_3045" data-name="Path 3045" d="M503.046,476.568l.136.082L672.415,357.558Z" transform="translate(-479.911 -264.656)" fill="#c08dff"/>
            <path id="Path_3046" data-name="Path 3046" d="M618.8,342.184c11.366-7.888,26.856-19.276,46.454-24.353C645.907,321.944,630.69,333.458,618.8,342.184Z" transform="translate(-332.604 -315.214)" fill="#c08dff"/>
            <path id="Path_3047" data-name="Path 3047" d="M671.261,328.547l-.073.05-93.616,65.881,88.236-62C667.54,331.267,669.361,329.94,671.261,328.547Z" transform="translate(-385.068 -301.576)" fill="#c08dff"/>
            <path id="Path_3048" data-name="Path 3048" d="M846.663,316.685a79.967,79.967,0,0,0-21.149,2.611c1.334-.284,2.682-.545,4.057-.755,45.03-2.223,63.188,55.441,56.361,101.241-7.681,51.522-27.356,76.635-67.542,113.9C792.647,557.553,759.1,580.552,714.91,604.51c-11.6-5.809-25.876-9.645-36.939-9.645-11.552,0-26.037,2.923-36.755,8.327-37.43-22.2-89.453-53.375-125.078-74.519l-23.272,16.376C553.281,581.1,648.3,637.118,675.844,652.687c72.287-34.569,123.244-66.645,159.729-100.472,45.63-42.314,67.81-87.166,67.81-137.125C903.383,368.378,880.611,317.1,846.663,316.685Z" transform="translate(-492.866 -316.679)" fill="#c08dff"/>
          </g>
        </g>
        <g id="Group_15012" data-name="Group 15012">
          <path id="Path_3049" data-name="Path 3049" d="M248.5,493.507c176.137-20.454,468.48-237.6,468.48-237.6a173.731,173.731,0,0,1,173.739,0l253.238,146.206s49.573,28.4,65.092,37.58c-28.5-16.549-59.59-25.578-101.947-.5-57.07,33.794-328.525,272.491-467.689,272.491C565.549,672.643,307.594,534.416,248.5,493.507Z" transform="translate(-248.501 -232.633)" fill="#d9bcff"/>
          <path id="Path_3050" data-name="Path 3050" d="M608.761,678.2C538.26,640.857,370.9,550.967,278.616,496.978c173.1-50.856,394.472-212.337,415.584-227.921,22.247-12.568,53.909-26.719,79.337-29.351,29.6-3.061,72.035,3.111,103.077,22.133l234.025,135.1c-29.567-4.647-49.3,9.229-53.8,11.893-14.5,8.586-38.921,27.04-72.544,52.641C887,535.556,708.466,672.813,608.761,678.2Z" transform="translate(-210.176 -224.58)" fill="#f5faff"/>
          <path id="Path_3051" data-name="Path 3051" d="M853.353,250.969c-26.478-12.445-46.7-17.031-81.694-13.063-25.4,2.879-54.084,17.542-78.212,34.262-21.113,15.583-242.488,177.064-415.584,227.921,92.289,53.988,259.644,143.88,330.148,181.225,99.7-5.391,279.137-142.027,376.437-216.115,33.621-25.6,57.911-44.1,72.412-52.686,4.5-2.664,25.172-17.115,54.738-12.468Zm186.184,144.309C1023.9,404.787,1003.5,418.931,969.252,445,898.365,498.982,765.946,599.8,669.09,639.519c-11.693-10.275-34.137-18.11-49.975-18.11-14.763,0-34.339,4.754-44.682,13.395-56.222-30.076-131.814-70.953-198.047-107.822q6.255,3.48,12.606,7a46.682,46.682,0,0,0,1.109-49.929l-.016.007c146.722-67.151,292.734-172.705,317.094-190.618,25.554-17.306,47.15-33.021,67.156-39.623,32.01-10.563,64.676-9.225,85.364.814L1086.66,385.649S1067.191,378.458,1039.538,395.278ZM338.724,505.87c3.6,2.034,7.275,4.1,10.977,6.184C346,509.972,342.328,507.9,338.724,505.87Zm13.524,7.616q5.393,3.027,10.895,6.106Q357.634,516.511,352.248,513.486Zm11.088,6.213q6.18,3.457,12.488,6.968Q369.521,523.159,363.336,519.7Zm-12.942-18.476,1.848-.748Zm13.415-5.568c.432-.182.862-.366,1.293-.55C364.67,495.289,364.241,495.473,363.809,495.655Z" transform="translate(-211.134 -227.691)" fill="#c08dff"/>
          <ellipse id="Ellipse_84" data-name="Ellipse 84" cx="47.723" cy="82.39" rx="47.723" ry="82.39" transform="matrix(0.402, -0.916, 0.916, 0.402, 334.371, 271.985)" fill="#c08dff"/>
          <path id="Path_3052" data-name="Path 3052" d="M645.313,391.5c-40.423,0-84.126-16.947-109.525-45.121-17.358-19.249-24.012-40.875-18.737-60.9,5.245-19.906,18.074-32.385,42.423-40.5l14.176,8.184c-22.142,5.988-37.485,21.763-41.325,36.346-3.873,14.695,1.522,31.137,15.192,46.3,30.062,33.344,88.994,48.977,131.378,34.835,19.57-6.527,33.917-20.076,37.46-35.1l14.492,8.365c-7.445,18.806-22.362,33.514-46.954,41.716A122.392,122.392,0,0,1,645.313,391.5Z" transform="translate(91.017 -216.924)" fill="#c08dff"/>
        </g>
      </g>
    </g>
    <g id="Man" transform="translate(-17358.633 -11755.166)">
      <g id="Group_15027" data-name="Group 15027" transform="translate(0 0)">
        <g id="Group_15016" data-name="Group 15016" transform="translate(0 81.721)">
          <path id="Path_3053" data-name="Path 3053" d="M469.056,162.243c-24.224,9.445-73.06,42.271-86.621,53.977s-71.1,63.365-77.362,69.953c-.586,2.227,1.473,7.141,7.356,7.318,10.034-6.343,75.371-52.879,81.714-55.318s61.785-23.947,70.808-26C472.094,200.457,480,171.34,469.056,162.243Z" transform="translate(-275.222 -162.243)" fill="#111011"/>
          <g id="Group_15015" data-name="Group 15015" transform="translate(0 124.879)">
            <path id="Path_3054" data-name="Path 3054" d="M301.223,226.061c-1.357,1.47-7.652,8.047-7.841,8.511a2.081,2.081,0,0,0-.089,1.318,3.992,3.992,0,0,0-.8,1.334,1.05,1.05,0,0,0,.4.832,3.559,3.559,0,0,0-1.011,1.989c.016.614.791,1.064.791,1.064s-.9,1.214-.325,1.845,1.543.35,2.341-.011,15.874-7.613,17.995-8.786c.832.086-.357,1.714-.586,2.143s-2.577,1.218-3.345,1.95-2.475,3.084-1.911,4.334c.72,1.593,2.868-1.3,4.093-1.764a48.48,48.48,0,0,0,6.929-3.609c1.448-1.682,8.581-11.577,9.784-13.888s-3.991-7.034-6.429-5.979S302.513,224.664,301.223,226.061Z" transform="translate(-291.884 -217.192)" fill="url(#linear-gradient)"/>
            <g id="Group_15014" data-name="Group 15014" transform="translate(0.792 10.38)">
              <path id="Path_3055" data-name="Path 3055" d="M292.5,230.079l9.816-8.319.317.172Z" transform="translate(-291.886 -221.76)" fill="url(#linear-gradient-2)"/>
              <path id="Path_3056" data-name="Path 3056" d="M292.329,231.545l12.417-9.236.3.256Z" transform="translate(-292.109 -221.06)" fill="url(#linear-gradient-3)"/>
              <path id="Path_3057" data-name="Path 3057" d="M292.232,233.3l16.093-9.966.322.277Z" transform="translate(-292.232 -219.76)" fill="url(#linear-gradient-4)"/>
            </g>
          </g>
        </g>
        <g id="Group_15018" data-name="Group 15018" transform="translate(162.679 237.487)">
          <path id="Path_3058" data-name="Path 3058" d="M456.354,235.1c-44.6,27.383-90.239,94.373-92.7,112.815-3.073,23.008,32.9,170.658,38.025,176.569a14.8,14.8,0,0,0,8.1-3.632c.648-12.336,6.613-139.241-5.991-165.374,14.4-9.975,78.242-55.184,104.99-92.627C506.806,238.021,476.276,222.872,456.354,235.1Z" transform="translate(-363.466 -230.783)" fill="#111011"/>
          <g id="Group_15017" data-name="Group 15017" transform="translate(18.473 288.692)">
            <path id="Path_3059" data-name="Path 3059" d="M388.235,357.814c-.852-.057-2.65,3.041-2.973,3.543-1.945,3.05-6.307,6.9-12.454,11.17-2.789,1.936-.379,7.422,3.257,7.3,8.67-.3,12.481-8.141,15.3-8.961s9.2-2.954,9.741-3.529c1.457-1.557-.914-7.338-1.645-8.554-.573-.954-3.627,1.343-6.1,1.877C391.037,361.155,389.994,357.933,388.235,357.814Z" transform="translate(-371.595 -357.814)" fill="#7522de"/>
            <path id="Path_3060" data-name="Path 3060" d="M373.673,374.657a3.523,3.523,0,0,1-1.259-.189,3.826,3.826,0,0,0,2.609.966c8.67-.3,12.481-8.141,15.3-8.961s9.2-2.954,9.74-3.529a3.419,3.419,0,0,0,.661-1.682c-1.9.852-9.325,3.725-11.752,4.432C386.154,366.516,382.343,374.352,373.673,374.657Z" transform="translate(-370.553 -353.425)" fill="#7522de"/>
            <path id="Path_3061" data-name="Path 3061" d="M383.545,364.355c1.218-1.752,1.661-3.911,4.532-5-.727-.727-1.4-1.489-2.243-1.543s-2.65,3.041-2.973,3.543c-1.6,2.509-4.859,5.568-9.379,8.947C378.186,370.909,381.361,367.5,383.545,364.355Z" transform="translate(-369.193 -357.814)" fill="#7522de"/>
          </g>
        </g>
        <g id="Group_15020" data-name="Group 15020" transform="translate(280.055 231.283)">
          <path id="Path_3062" data-name="Path 3062" d="M419.032,249.5c-5.1,32.289-4.816,108.777-1.477,119.587,2.514,8.143,103.806,98.988,109.172,105.331s15.626,2.055,10.245-5.854S496.578,383.5,449.585,360.9c9.268-25.06,42.941-78.655,25.185-126.635C460,220.68,425.207,231.011,419.032,249.5Z" transform="translate(-415.114 -228.053)" fill="#111011"/>
          <g id="Group_15019" data-name="Group 15019" transform="translate(103.647 242.794)">
            <path id="Path_3063" data-name="Path 3063" d="M468.537,337.449c-.161,2.029-.252,6.848-2.991,9.991s-4.738,5.916-4.818,7.758c-.063,1.47.252,4.514,2.534,5.173s10.093-1.825,11.209-5.832,4.209-9.281,6.034-10.8.755-6.057.254-7.15c-.559-1.218-2.225.436-4.261.05-1.532-.291-2.332-1.761-4.259-1.75C470.275,334.9,468.609,336.538,468.537,337.449Z" transform="translate(-460.721 -334.888)" fill="#7522de"/>
            <path id="Path_3064" data-name="Path 3064" d="M472.266,351.077c-1.041,3.739-7.9,6.15-10.674,5.92a2.679,2.679,0,0,0,.561.257c2.284.659,10.093-1.825,11.209-5.832s4.209-9.281,6.034-10.8a4.1,4.1,0,0,0,1.007-3.284C478.239,339.642,473.3,347.357,472.266,351.077Z" transform="translate(-459.612 -331.771)" fill="#080c29"/>
            <path id="Path_3065" data-name="Path 3065" d="M470,340.706a11.375,11.375,0,0,1,.92-5.707,3.641,3.641,0,0,0-2.391,2.309c-.161,2.029-.252,6.847-2.991,9.99s-4.738,5.916-4.818,7.759c0,.05,0,.111,0,.164C467.909,349.923,470,345.717,470,340.706Z" transform="translate(-460.718 -334.747)" fill="#192887"/>
          </g>
        </g>
        <g id="Group_15023" data-name="Group 15023" transform="translate(259.12 63.709)">
          <g id="Group_15022" data-name="Group 15022" transform="translate(206.314 31.486)">
            <path id="Path_3066" data-name="Path 3066" d="M497.113,227.342c-.2,1.445-.323,2.984-.414,4.486a13.947,13.947,0,0,0,3.614,9.484c13.579,13.27,39.278,34.423,51.3,43.666a6.791,6.791,0,0,0,8.9-.516c12.9-12.618,40.214-42.443,55.924-60.449,1.171-1.343,2.393-7.5,1.1-12.949a7.941,7.941,0,0,0-5.116-5.363c-22.34-8.347-43.628-23.358-59.265-35.66a8.658,8.658,0,0,0-11.877,1.073c-12.486,14.247-36.085,43.539-42.55,52.3A8.5,8.5,0,0,0,497.113,227.342Z" transform="translate(-496.685 -168.172)" fill="#172c87"/>
            <path id="Path_3067" data-name="Path 3067" d="M499.331,235.129c11.654,12.365,38.484,34.076,51.429,43.818a6.77,6.77,0,0,0,8.718-.464c13.443-12.638,41.125-42.334,55.347-59.622a5.08,5.08,0,0,0-2.132-7.959c-22.694-8.877-47.009-24.342-62.847-36.466a6.873,6.873,0,0,0-9.331.891c-11.09,12.506-32.93,39.487-41.664,50.9A6.869,6.869,0,0,0,499.331,235.129Z" transform="translate(-495.724 -162.01)" fill="#7522de"/>
            <path id="Path_3068" data-name="Path 3068" d="M576.882,194.505a306.976,306.976,0,0,1-28.3-18.91,6.891,6.891,0,0,0-9.34.984c-10.954,12.5-30.306,36.437-39.191,47.923a6.926,6.926,0,0,0,.545,9.09c5.486,5.616,13.722,12.924,22.251,20.11C536.106,241.323,561.914,212.8,576.882,194.505Z" transform="translate(-494.242 -160.488)" fill="#172c87"/>
            <path id="Path_3069" data-name="Path 3069" d="M518.122,206.6l3.712,3.1,11.447-11.178L528.772,195Z" transform="translate(-469.403 -134.025)" fill="#1c35a3"/>
            <path id="Path_3070" data-name="Path 3070" d="M513.151,245.681l-3.88-3.343.762-.726,3.068,2.7,55.647-56.631-6.086-3.753.644-.785,7.027,4.345Z" transform="translate(-480.667 -149.124)" fill="#1c35a3"/>
            <g id="Group_15021" data-name="Group 15021" transform="translate(5.069 17.366)">
              <path id="Path_3071" data-name="Path 3071" d="M515.778,182.287l-.1,3-10.329-6.9.287-2.236a.357.357,0,0,1,.516-.293Z" transform="translate(-490.724 -175.814)" fill="#7522de"/>
              <path id="Path_3072" data-name="Path 3072" d="M516.621,183.847l-1.032,1.2a1.053,1.053,0,0,1-1.366.268l-9.611-6.418,1.679-1.945Z" transform="translate(-491.665 -174.371)" fill="#172c87"/>
              <path id="Path_3073" data-name="Path 3073" d="M509.626,189.554l-.079,2.436-10.109-6.75.712-2.591,9.07,6.057A.963.963,0,0,1,509.626,189.554Z" transform="translate(-498.249 -167.113)" fill="#7522de"/>
              <path id="Path_3074" data-name="Path 3074" d="M513.855,175.875l-13.918,16.383a1.3,1.3,0,0,0-.255.486l-.72,2.463,14.52-16.9Z" transform="translate(-498.855 -175.735)" fill="#7522de"/>
              <path id="Path_3075" data-name="Path 3075" d="M501.692,196.646l15.465-17.263-3.648-2.436-14.256,16.5a1.1,1.1,0,0,0,.1,1.632Z" transform="translate(-498.883 -174.371)" fill="#172c87"/>
              <path id="Path_3076" data-name="Path 3076" d="M510.212,190.538l-1.029,1.2a1.051,1.051,0,0,1-1.366.27l-8.436-5.634a1,1,0,0,1-.1-1.632l.82-.948Z" transform="translate(-498.915 -165.661)" fill="#172c87"/>
            </g>
          </g>
          <path id="Path_3077" data-name="Path 3077" d="M504.243,200.694c2.52-1.284,1.184-4.388.67-5.222s.175-1.041.071-1.477c-.093-.389.866.039,1.291-.18,0,0,1.523.85,2.838,1.686,1.943-.875,10.547-10.475,9.722-12.815-4.445-3.236-11.609-7.875-16.133-6.684-4.2,1.107-7.238,7.3-4.254,11.924,1.032,2.686,1.275,4.275,1.664,5.073.259.527,1,2.4,1.634,3.711C502.268,197.8,502.806,201.423,504.243,200.694Z" transform="translate(-289.651 -126.964)" fill="url(#linear-gradient-5)"/>
          <path id="Path_3078" data-name="Path 3078" d="M406.64,154.846c25.919-2.068,98.011,2.284,115.322,6.9S609.4,198.6,617.912,201.8c1.5,1.75-.482,6.013-5.7,8.738-11.795-1.329-84.437-24.5-91.207-23.926s-68.862,7.94-77.876,10.031C431.589,189.211,400.761,167.807,406.64,154.846Z" transform="translate(-405.902 -154.317)" fill="#111011"/>
        </g>
        <g id="Group_15024" data-name="Group 15024" transform="translate(167.276)">
          <path id="Path_3079" data-name="Path 3079" d="M367.583,138.647c-.327,5.647,7.6,16.872,7.6,16.872l-1-15.84S369.9,138.831,367.583,138.647Z" transform="translate(-362.837 -110.55)" fill="#080c29"/>
          <path id="Path_3080" data-name="Path 3080" d="M406.867,149.806l4.724,6.01,6.166,3.445-27.34,22.71-11.411-10.562-1-5.5Z" transform="translate(-349.554 -96.349)" fill="url(#linear-gradient-6)"/>
          <path id="Path_3081" data-name="Path 3081" d="M369.575,150.788c.013,9.086,11.561,37.162,18.867,42.441,4.659,3.363,14.911.334,17.958-1.239,2.225-1.148,11.452-14.9,11.906-22.49s.686-26.033-6.434-32.439C399.276,125.723,369.545,132.352,369.575,150.788Z" transform="translate(-360.289 -119.666)" fill="url(#linear-gradient-7)"/>
          <path id="Path_3082" data-name="Path 3082" d="M423.623,173.668c-3.784-4.527-6.516-5.7-9.661-7.791-1.943-3.927-2.816-10.547-3.67-14.658-11.518-1.234-26.094,8.925-33.212,8.081-11.113-1.316-11.577-17.242-11.59-19.09-.014-1.582,6.386-9.252,8.541-9.87,2.241-.643,6.772,3.057,13.427.2s14.749-6.563,22.888-2.357c5.525-1.586,9.084-.08,12.12,5.477C428.766,145.192,423.775,156.5,423.623,173.668Z" transform="translate(-365.489 -126.284)" fill="#7522de"/>
          <path id="Path_3083" data-name="Path 3083" d="M423.623,173.668c-3.784-4.527-6.516-5.7-9.661-7.791-1.943-3.927-2.816-10.547-3.67-14.658-11.518-1.234-26.094,8.925-33.212,8.081-11.113-1.316-11.577-17.242-11.59-19.09-.014-1.582,6.386-9.252,8.541-9.87,2.241-.643,6.772,3.057,13.427.2s14.749-6.563,22.888-2.357c5.525-1.586,9.084-.08,12.12,5.477C428.766,145.192,423.775,156.5,423.623,173.668Z" transform="translate(-365.489 -126.284)" fill="#111011"/>
          <path id="Path_3084" data-name="Path 3084" d="M414.765,153.673c-1.943-3.927-2.95-9.795-3.8-13.906-11.518-1.234-25.787,6.666-32.866,5.529-6.341-1.018-10.332-6.452-12.418-10.786.852,5.4,3.421,13.4,11.165,14.322,7.118.843,21.694-9.315,33.212-8.081.854,4.111,1.727,10.731,3.67,14.658,3.145,2.088,5.877,3.263,9.661,7.79.009-.807.034-1.589.061-2.37A53.56,53.56,0,0,0,414.765,153.673Z" transform="translate(-365.251 -115.815)" fill="#080c29"/>
          <path id="Path_3085" data-name="Path 3085" d="M385.857,144.124c.336-2.482,4.875-3.859,7.127-1.673s2.475,9.031,1.3,11.452c-1.157,2.379-3.579,4.532-4.668,2.986S385.857,144.124,385.857,144.124Z" transform="translate(-339.568 -107.098)" fill="url(#linear-gradient-8)"/>
          <path id="Path_3086" data-name="Path 3086" d="M386.86,144.608c.137-1,1.973-1.559,2.882-.677s1,3.652.525,4.632c-.466.961-1.445,1.832-1.886,1.207A38.8,38.8,0,0,1,386.86,144.608Z" transform="translate(-338.292 -104.387)" fill="url(#linear-gradient-9)"/>
          <path id="Path_3087" data-name="Path 3087" d="M394.754,146.855a8.086,8.086,0,0,0-1.77-4.4c-2.252-2.186-6.791-.809-7.127,1.673,0,0,.109.461.289,1.191C387.764,142.935,392.1,141.84,394.754,146.855Z" transform="translate(-339.568 -107.098)" fill="url(#linear-gradient-10)"/>
          <path id="Path_3088" data-name="Path 3088" d="M392.836,168.048c1.525-1.473,4.977-8.5,9.343-16.745-.13-.284-.6-1.5-.6-1.5-2.977,6.22-9.638,18.061-11.2,18.867a30.68,30.68,0,0,1-8.215,2.443C386.2,170.721,390.857,169.962,392.836,168.048Z" transform="translate(-344.268 -96.349)" fill="url(#linear-gradient-11)"/>
        </g>
        <g id="Group_15026" data-name="Group 15026" transform="translate(184.155 59.414)">
          <path id="Path_3089" data-name="Path 3089" d="M438.838,228.06,429.379,238l19.658,36.744,12.029-21.733a81.219,81.219,0,0,0-4.45-18.751C452.1,230.1,445.708,228.194,438.838,228.06Z" transform="translate(-301.06 -56.176)" fill="#0a0f33"/>
          <path id="Path_3090" data-name="Path 3090" d="M418.7,156.452c10.209-.63,45.639-7.793,60.39,11.027,12.486,15.929,13.62,48.557,19.715,85.4,4.445,26.883,19.126,46.216,25.142,63.2-17.524,25.265-75.767,21.36-87.25,20.544-2.457-6.843-8.932-20.844-22.006-50.061-12.736-28.464-41.234-48.136-41.234-83.75,0-22.756,12.143-35.991,12.143-35.991l10.609,9.054Z" transform="translate(-372.225 -149.669)" fill="#fff"/>
          <path id="Path_3091" data-name="Path 3091" d="M437.39,326.109c-2.457-6.843-9.547-20.872-22.619-50.086-12.736-28.467-41.855-49.711-41.855-85.323,0-13.329,5.4-21.792,8.852-27.842-7.52,38.68,14.611,72.29,33.617,108.242C425.711,290.636,431.147,305.7,437.39,326.109Z" transform="translate(-372.916 -139.153)" fill="#111011"/>
          <path id="Path_3092" data-name="Path 3092" d="M396.834,156.293c13.117-1.834,41.982-6.968,53.9,8.234C463.215,180.453,463.9,216.488,470,253.334c4.445,26.883,32.273,69,39.371,81.076-3.22,6.32-15.09,23.894-17.688,27.567-9.04-10.093-70.417-105.329-76.733-120.133C407.156,223.578,395.5,156.479,396.834,156.293Z" transform="translate(-342.612 -150.469)" fill="#111011"/>
          <g id="Group_15025" data-name="Group 15025" transform="translate(7.445)">
            <path id="Path_3093" data-name="Path 3093" d="M384.536,179.436l-3.229-8.925,3.438-6.2,4.307-.355,5.534,5.282-3.679,9.295c8.34,69.185,65.208,60.011,98.325,45.177l22.076-.345-13.331,22.283C453.887,272.486,386.461,246.16,384.536,179.436Z" transform="translate(-369.683 -137.752)" fill="#fc9e22"/>
            <path id="Path_3094" data-name="Path 3094" d="M404.644,152.479l1.585-.052,8.184,3.161-18.221,32.722-12.722-9.676Z" transform="translate(-366.93 -152.427)" fill="#b8c4d9"/>
            <path id="Path_3095" data-name="Path 3095" d="M381.321,159.311l-2.044,1.11-3.085,4.158,9.423,20.224,7.117-14.93Z" transform="translate(-376.192 -143.667)" fill="#b8c4d9"/>
            <path id="Path_3096" data-name="Path 3096" d="M404.644,152.479l1.585-.052,8.184,3.161-18.34,30.978-12.6-7.932Z" transform="translate(-366.93 -152.427)" fill="#fff"/>
            <path id="Path_3097" data-name="Path 3097" d="M381.321,159.311l-2.044,1.11-3.085,4.158,9.284,18.394,7.256-13.1Z" transform="translate(-376.192 -143.667)" fill="#fff"/>
          </g>
        </g>
      </g>
    </g>
  </g>
</svg>
