<svg xmlns="http://www.w3.org/2000/svg" xmlns:xlink="http://www.w3.org/1999/xlink" width="65" height="65" viewBox="0 0 65 65">
  <defs>
    <clipPath id="clip-path">
      <rect id="Rectangle_6116" data-name="Rectangle 6116" width="65" height="65" transform="translate(927 2975)" fill="#fff" stroke="#707070" stroke-width="1"/>
    </clipPath>
  </defs>
  <g id="moat_business" data-name="moat business" transform="translate(-927 -2975)" clip-path="url(#clip-path)">
    <g id="Group_14984" data-name="Group 14984" transform="translate(20591.84 21700.91)">
      <path id="Path_2967" data-name="Path 2967" d="M545.154,299.861H514.565c-1.706,0-1.9-.2-1.9-1.933,0-1.779-.008-3.559,0-5.338.005-1.271.308-1.567,1.572-1.586s1.254-.019,1.254-1.253q0-16.061,0-32.122c0-1.852.441-2.294,2.309-2.3,1.652-.008,3.3-.015,4.955,0,1.294.015,1.841.571,1.862,1.88.02,1.271.036,2.543,0,3.812-.023.728.2,1,.973,1,2.276-.01,2.279.022,2.279-2.252q0-6.148-.007-12.3c0-1.6.508-2.134,2.085-2.142q2.859-.016,5.718-.008c1.437,0,1.995.568,2,2.038.01,1.557,0,3.114,0,4.671,0,1.288,0,1.288,1.331,1.285.159,0,.318-.013.476,0,.58.044.783-.229.769-.795-.026-1.016-.012-2.033,0-3.05.019-1.364.56-1.933,1.9-1.945q3.049-.027,6.1,0a1.647,1.647,0,0,1,1.844,1.823c.028,1.048.034,2.1,0,3.145-.018.625.235.872.843.823a5.007,5.007,0,0,1,.857,0c.683.062.874-.27.864-.907-.027-1.715-.021-3.431,0-5.147.013-1.349.567-1.918,1.917-1.934,1.937-.023,3.875-.01,5.813,0,1.53.008,2.083.538,2.087,2.056.012,4.48.028,8.96-.014,13.44-.009.9.208,1.222,1.156,1.192,2.076-.066,2.077-.017,2.077-2.071,0-.953-.019-1.907.014-2.859a1.6,1.6,0,0,1,1.795-1.759c1.747-.025,3.494-.025,5.241-.011,1.588.013,2.085.524,2.086,2.145q.007,16.062,0,32.123c0,1.382,0,1.382,1.377,1.416,1.132.028,1.442.336,1.45,1.51.013,1.906.011,3.813.006,5.719,0,1.335-.289,1.623-1.628,1.624q-9.863.006-19.725,0Zm15.223-30.507q0-1.1,0-2.192c0-6.226-.015-12.452.017-18.678,0-.848-.258-1.114-1.089-1.072-1.235.063-2.477.058-3.714.012-.689-.026-.867.239-.857.883.029,1.905.021,3.812,0,5.718-.012,1.048-.337,1.367-1.381,1.383q-2,.03-4,0c-1.036-.017-1.332-.333-1.348-1.407-.017-1.143-.033-2.288,0-3.43.022-.679-.178-.987-.911-.963-1.3.043-2.6.039-3.905,0-.681-.019-.884.261-.864.9.035,1.142.02,2.287.007,3.43s-.322,1.451-1.492,1.466c-1.143.015-2.286.006-3.43,0-1.619,0-1.834-.207-1.841-1.791-.008-1.747-.034-3.5.013-5.241.021-.77-.276-1.012-1-.966-.664.042-1.333.017-2,.012-2.62-.019-2.621-.021-2.622,2.632q0,19.917-.024,39.833c0,.871.229,1.157,1.115,1.129,1.935-.062,3.875-.056,5.811,0,.855.023,1.16-.216,1.149-1.118q-.07-5.621,0-11.244a10.921,10.921,0,0,1,.388-2.816c1.344-4.748,6.405-6.9,10.3-4.367a7.771,7.771,0,0,1,3.6,6.776c.054,3.906.034,7.814,0,11.721-.006.774.21,1.067,1.017,1.047,1.968-.048,3.939-.062,5.906.005.931.032,1.173-.273,1.168-1.182C560.36,283.013,560.376,276.184,560.377,269.354ZM527.859,277.6h0c0-4.194-.014-8.389.013-12.583,0-.706-.214-.967-.923-.93-.919.047-1.842.016-2.763.012-1.373-.006-1.655-.292-1.662-1.7s-.019-2.8,0-4.194c.008-.554-.165-.817-.762-.8-1.143.029-2.287.024-3.43,0-.516-.01-.756.165-.753.709q.02,3.67,0,7.34c0,.516.2.754.733.74.794-.022,1.588-.01,2.382,0,.7.012,1.2.312,1.187,1.066-.01.7-.5.992-1.148,1.011-.762.022-1.526.044-2.286,0-.676-.036-.89.245-.875.894.032,1.4.027,2.8,0,4.194-.011.6.19.874.823.844.761-.035,1.524-.007,2.287,0,.7,0,1.211.3,1.2,1.049s-.525,1.036-1.222,1.04a23.666,23.666,0,0,0-2.379.036.953.953,0,0,0-.664.634c-.059,1.491-.014,2.986-.033,4.479-.008.594.268.773.816.755.73-.024,1.461.007,2.192,0s1.292.269,1.288,1.063c-.005.812-.609,1.035-1.321,1.036s-1.4.034-2.1-.007c-.661-.039-.9.206-.884.875q.05,2.477-.007,4.956c-.015.659.207.892.876.885,2.8-.03,5.591-.04,8.386,0,.778.01,1.042-.213,1.035-1.015C527.84,285.867,527.859,281.736,527.859,277.6Zm34.613-.076h.005q0,6.243,0,12.487c0,.533-.051,1,.745,1,2.922-.03,5.844-.02,8.767-.008.517,0,.749-.168.743-.714-.019-1.716-.021-3.432,0-5.147.009-.6-.2-.878-.827-.846s-1.27.011-1.905,0c-1.094-.012-1.624-.362-1.562-1.081.081-.944.778-1.034,1.529-1.022.635.01,1.272-.019,1.906.011.591.028.877-.163.863-.806-.032-1.461-.029-2.923-.012-4.384.006-.542-.22-.729-.742-.714-.793.022-1.588.01-2.382-.009-.7-.017-1.18-.346-1.158-1.094.021-.7.5-.985,1.158-.993.794-.009,1.589-.019,2.382,0,.511.013.758-.161.75-.71q-.031-2.239,0-4.48c.006-.537-.226-.736-.745-.724q-1.19.026-2.382-.009c-.691-.021-1.19-.327-1.162-1.089.025-.706.51-.98,1.161-.991.794-.013,1.588-.023,2.382,0,.522.012.747-.195.745-.727q-.018-3.67,0-7.339c0-.537-.223-.729-.744-.719-1.08.02-2.162.046-3.239-.01-.781-.041-.985.293-.968,1.007.033,1.429.019,2.86,0,4.289-.013,1.046-.337,1.37-1.369,1.394-.825.019-1.652.006-2.477.006-1.462,0-1.463,0-1.463,1.417Q562.471,271.524,562.472,277.529Zm-17.328,20.234v0h12.865c5.5,0,10.991-.014,16.486.019.826,0,1.161-.218,1.082-1.071-.065-.693-.017-1.4-.016-2.1,0-1.514,0-1.509-1.464-1.508q-21.394,0-42.788,0c-5.178,0-10.356.014-15.534-.017-.786,0-1.09.222-1.028,1.022.057.726.009,1.461.008,2.191,0,1.463,0,1.463,1.421,1.463Zm5.074-13.727c0-1.906.013-3.811,0-5.717a6.15,6.15,0,0,0-1.641-4.255,4.515,4.515,0,0,0-6.82,0,6.214,6.214,0,0,0-1.65,4.35c-.02,3.906,0,7.813-.017,11.719,0,.658.21.889.878.882q4.191-.045,8.382-.007c.657.006.895-.2.884-.873C550.2,288.1,550.218,286.068,550.218,284.036Z" transform="translate(-20177.5 -18966)" fill="#7522de"/>
      <path id="Path_2973" data-name="Path 2973" d="M662.363,322.451a4.892,4.892,0,1,1,4.934-4.884A4.918,4.918,0,0,1,662.363,322.451Zm2.815-4.874a2.789,2.789,0,1,0-2.8,2.764A2.768,2.768,0,0,0,665.179,317.577Z" transform="translate(-20294.732 -19020.512)" fill="#7522de"/>
      <line id="Line_175" data-name="Line 175" x2="4.002" transform="translate(-19661.727 -18670.523)" fill="none" stroke="#7522de" stroke-linecap="round" stroke-width="2"/>
      <line id="Line_176" data-name="Line 176" x2="4.002" transform="translate(-19653.912 -18670.523)" fill="none" stroke="#7522de" stroke-linecap="round" stroke-width="2"/>
      <line id="Line_177" data-name="Line 177" x2="4.002" transform="translate(-19646.1 -18670.523)" fill="none" stroke="#7522de" stroke-linecap="round" stroke-width="2"/>
      <line id="Line_178" data-name="Line 178" x2="4.002" transform="translate(-19638.285 -18670.523)" fill="none" stroke="#7522de" stroke-linecap="round" stroke-width="2"/>
      <line id="Line_179" data-name="Line 179" x2="4.002" transform="translate(-19630.471 -18670.523)" fill="none" stroke="#7522de" stroke-linecap="round" stroke-width="2"/>
      <line id="Line_180" data-name="Line 180" x2="4.002" transform="translate(-19622.658 -18670.523)" fill="none" stroke="#7522de" stroke-linecap="round" stroke-width="2"/>
      <line id="Line_181" data-name="Line 181" x2="4.002" transform="translate(-19614.846 -18670.523)" fill="none" stroke="#7522de" stroke-linecap="round" stroke-width="2"/>
      <line id="Line_182" data-name="Line 182" x2="4.002" transform="translate(-19607.031 -18670.523)" fill="none" stroke="#7522de" stroke-linecap="round" stroke-width="2"/>
    </g>
  </g>
</svg>
