<svg width="477" height="393" viewBox="0 0 477 393" fill="none" xmlns="http://www.w3.org/2000/svg">
<path d="M445.662 79H85.902C78.3018 79 72.1406 85.162 72.1406 92.7632V341.898C72.1406 349.499 78.3018 355.661 85.902 355.661H445.662C453.262 355.661 459.423 349.499 459.423 341.898V92.7632C459.423 85.162 453.262 79 445.662 79Z" fill="#455A64"/>
<path d="M57 337.789H476.594V345.185C476.594 354.462 469.066 362 459.782 362H73.8121C64.5371 362 57 354.471 57 345.185V337.789Z" fill="#455A64"/>
<path d="M447.939 89.9883H82.5312V323.622H447.939V89.9883Z" fill="#263238"/>
<path d="M227.602 335.191L232.806 344.137H306.071L310.906 335.191H227.602Z" fill="#263238"/>
<path d="M93.1354 97.9023H438.057C439.767 97.9023 441.146 99.2909 441.146 100.991V319.785C441.146 321.495 439.757 322.874 438.057 322.874H93.1354C91.4258 322.874 90.0469 321.485 90.0469 319.785V100.991C90.0469 99.2815 91.4353 97.9023 93.1354 97.9023Z" fill="#EBEBEB"/>
<path d="M440.78 323.204H89.6719L90.0497 114.707H440.78V323.204Z" fill="#FAFAFA"/>
<path d="M119.554 106.583C119.554 108.255 118.26 109.615 116.664 109.615C115.067 109.615 113.773 108.255 113.773 106.583C113.773 104.911 115.067 103.551 116.664 103.551C118.26 103.551 119.554 104.902 119.554 106.583Z" fill="#263238"/>
<path d="M102.03 106.583C102.03 108.255 100.736 109.615 99.1402 109.615C97.544 109.615 96.25 108.255 96.25 106.583C96.25 104.911 97.544 103.551 99.1402 103.551C100.736 103.551 102.03 104.902 102.03 106.583Z" fill="#263238"/>
<path d="M111.038 106.583C111.038 108.255 109.744 109.615 108.148 109.615C106.552 109.615 105.258 108.255 105.258 106.583C105.258 104.911 106.552 103.551 108.148 103.551C109.744 103.551 111.038 104.902 111.038 106.583Z" fill="#263238"/>
<path d="M456.091 335.192C456.091 335.343 370.132 335.466 264.121 335.466C158.111 335.466 72.1328 335.343 72.1328 335.192C72.1328 335.041 158.073 334.918 264.121 334.918C370.17 334.918 456.091 335.041 456.091 335.192Z" fill="#263238"/>
<path d="M227.9 154.703C233.681 151.208 239.829 148.563 246.167 146.759L249.926 128.679L280.471 128.141L284.863 146.079C291.267 147.657 297.5 150.084 303.404 153.372L318.846 143.245L340.825 164.471L331.257 180.256C334.752 186.037 337.396 192.186 339.191 198.525L357.268 202.284L357.807 232.833L339.871 237.235C338.293 243.64 335.866 249.874 332.579 255.769L342.695 271.213L321.472 293.195L305.689 283.626C299.909 287.121 293.76 289.766 287.423 291.561L283.664 309.641L253.118 310.179L248.717 292.241C242.313 290.663 236.08 288.236 230.186 284.948L214.743 295.075L192.765 273.849L202.333 258.064C198.838 252.283 196.194 246.134 194.39 239.795L176.312 236.036L175.773 205.486L193.709 201.084C195.287 194.68 197.714 188.445 201.001 182.551L190.885 167.106L212.108 145.125L227.891 154.694L227.9 154.703ZM244.183 195.407C231.612 208.434 231.971 229.187 244.996 241.76C258.02 254.333 278.771 253.974 291.342 240.948C303.914 227.921 303.555 207.168 290.53 194.595C277.505 182.022 256.755 182.381 244.183 195.407Z" fill="#7522DE" fill-opacity="0.3"/>
<path d="M349.932 166.368C350.348 164.082 351.075 161.89 352.058 159.84L348.251 154.739L355.099 146.738L360.728 149.705C362.598 148.41 364.648 147.362 366.848 146.587L367.765 140.287L378.267 139.465L380.156 145.539C382.442 145.954 384.633 146.682 386.683 147.664L391.783 143.857L399.783 150.706L396.817 156.336C398.111 158.206 399.16 160.256 399.934 162.457L406.234 163.373L407.056 173.877L400.983 175.767C400.567 178.053 399.84 180.244 398.858 182.294L402.664 187.395L395.816 195.396L390.187 192.43C388.317 193.724 386.267 194.773 384.067 195.547L383.151 201.848L372.648 202.67L370.759 196.596C368.473 196.18 366.282 195.453 364.232 194.47L359.132 198.277L351.132 191.429L354.098 185.799C352.804 183.928 351.755 181.878 350.981 179.677L344.681 178.761L343.859 168.257L349.942 166.368H349.932ZM364.166 169.551C363.533 177.08 370.088 182.984 377.38 181.718C382.348 180.858 386.248 176.655 386.674 171.629C387.316 164.101 380.751 158.197 373.451 159.463C368.482 160.322 364.582 164.526 364.157 169.551H364.166Z" fill="#E0E0E0"/>
<path d="M119.925 271.836C120.001 269.087 120.454 266.404 121.238 263.835L115.883 258.564L122.437 248.003L129.54 250.459C131.495 248.617 133.696 247.021 136.123 245.726L136.067 238.217L148.175 235.383L151.462 242.137C154.21 242.222 156.893 242.666 159.462 243.45L164.732 238.094L175.292 244.65L172.836 251.753C174.678 253.709 176.274 255.909 177.568 258.337L185.077 258.28L187.91 270.381L181.157 273.668C181.072 276.417 180.628 279.1 179.844 281.669L185.199 286.94L178.645 297.501L171.542 295.045C169.587 296.887 167.386 298.484 164.959 299.778L165.015 307.288L152.907 310.121L149.62 303.367C146.872 303.282 144.189 302.838 141.62 302.054L136.35 307.41L125.79 300.855L128.246 293.751C126.404 291.796 124.808 289.595 123.514 287.167L116.005 287.224L113.172 275.123L119.925 271.836ZM137.427 275.246C139.108 282.416 146.286 286.874 153.455 285.193C160.624 283.511 165.082 276.332 163.4 269.163C161.719 261.993 154.541 257.534 147.372 259.216C140.203 260.897 135.755 268.076 137.427 275.246Z" fill="#E0E0E0"/>
<path d="M141.651 170.902C141.963 169.174 142.511 167.52 143.257 165.981L140.385 162.136L145.542 156.1L149.793 158.339C151.2 157.366 152.749 156.572 154.402 155.987L155.091 151.235L163.006 150.621L164.423 155.203C166.151 155.524 167.804 156.062 169.344 156.808L173.188 153.937L179.223 159.094L176.985 163.345C177.958 164.753 178.751 166.302 179.337 167.955L184.087 168.645L184.701 176.56L180.121 177.977C179.799 179.706 179.261 181.359 178.515 182.899L181.386 186.744L176.229 192.78L171.979 190.541C170.572 191.514 169.023 192.307 167.37 192.893L166.68 197.644L158.765 198.258L157.349 193.677C155.62 193.356 153.967 192.817 152.428 192.071L148.584 194.943L142.548 189.785L144.787 185.534C143.814 184.127 143.021 182.578 142.435 180.925L137.684 180.235L137.07 172.319L141.651 170.902ZM152.371 174.747C152.74 179.442 156.839 182.946 161.523 182.578C166.218 182.209 169.722 178.11 169.353 173.424C168.985 168.73 164.886 165.225 160.201 165.593C155.507 165.962 152.003 170.061 152.371 174.747Z" fill="#EBEBEB"/>
<path d="M350.329 256.156C350.603 254.673 351.066 253.256 351.708 251.925L349.243 248.618L353.673 243.432L357.318 245.35C358.527 244.509 359.859 243.829 361.276 243.329L361.871 239.248L368.671 238.719L369.89 242.658C371.373 242.932 372.789 243.395 374.121 244.037L377.427 241.572L382.612 246.002L380.695 249.648C381.526 250.857 382.215 252.189 382.716 253.606L386.796 254.201L387.325 261.002L383.387 262.221C383.113 263.704 382.65 265.121 382.008 266.453L384.473 269.759L380.043 274.945L376.397 273.027C375.188 273.868 373.857 274.548 372.44 275.049L371.845 279.13L365.044 279.659L363.826 275.72C362.343 275.446 360.926 274.983 359.595 274.341L356.289 276.806L351.104 272.376L353.021 268.729C352.18 267.52 351.5 266.188 351 264.771L346.92 264.176L346.391 257.375L350.329 256.156ZM359.538 259.463C359.85 263.496 363.373 266.5 367.406 266.188C371.439 265.877 374.442 262.353 374.131 258.32C373.819 254.296 370.296 251.282 366.263 251.594C362.23 251.906 359.226 255.429 359.538 259.463Z" fill="#EBEBEB"/>
<path d="M266.807 266.407H219.818C207.681 266.407 200.097 253.268 206.17 242.754L229.669 202.05L253.168 161.346C259.232 150.833 274.41 150.833 280.474 161.346L303.973 202.05L327.472 242.754C333.536 253.268 325.951 266.407 313.824 266.407H266.835H266.807Z" fill="#7522DE"/>
<path d="M317.381 247.459C317.381 247.459 317.513 247.705 317.749 248.187C317.929 248.687 318.231 249.462 318.222 250.529C318.25 251.587 317.985 252.938 317.126 254.242C316.691 254.884 316.115 255.508 315.36 256.008C314.604 256.49 313.669 256.821 312.658 256.887C304.649 256.972 293.088 256.962 278.789 256.991C264.489 257.01 247.46 257.019 228.56 257.047C226.199 257.047 223.809 257.047 221.382 257.047C218.832 257.104 216.414 255.29 215.592 252.853C215.158 251.644 215.063 250.312 215.356 249.046C215.441 248.735 215.545 248.423 215.64 248.121C215.781 247.828 215.904 247.525 216.055 247.242L216.962 245.589C218.171 243.369 219.399 241.14 220.626 238.882C225.566 229.861 230.676 220.509 235.908 210.94C241.15 201.371 246.26 192.019 251.2 182.998C253.674 178.483 256.102 174.053 258.473 169.717C259.077 168.631 259.634 167.554 260.277 166.486C260.919 165.409 261.835 164.474 262.921 163.86C265.084 162.594 267.823 162.509 270.024 163.539C271.129 164.049 272.111 164.814 272.829 165.787C273.537 166.779 274.028 167.809 274.595 168.819C275.7 170.841 276.786 172.834 277.863 174.799C280.007 178.729 282.094 182.545 284.106 186.238C288.13 193.616 291.879 200.493 295.308 206.774C302.137 219.328 307.672 229.483 311.497 236.521C313.395 240.025 314.869 242.755 315.879 244.616C316.37 245.532 316.748 246.241 317.003 246.732C317.258 247.214 317.372 247.459 317.372 247.459C317.372 247.459 317.22 247.223 316.956 246.76C316.682 246.279 316.295 245.58 315.785 244.673C314.755 242.821 313.253 240.11 311.327 236.615C307.464 229.597 301.891 219.461 295.006 206.944C291.568 200.672 287.799 193.814 283.757 186.437C281.736 182.753 279.648 178.936 277.495 175.007C276.418 173.042 275.322 171.049 274.217 169.027C273.651 168.026 273.141 166.959 272.479 166.061C271.799 165.154 270.874 164.436 269.835 163.955C267.757 162.982 265.179 163.076 263.148 164.257C262.128 164.833 261.278 165.712 260.673 166.722C260.059 167.752 259.483 168.867 258.888 169.944C256.517 174.289 254.09 178.719 251.625 183.234C246.685 192.265 241.575 201.607 236.343 211.186C231.101 220.755 225.991 230.097 221.052 239.118C219.814 241.376 218.596 243.605 217.377 245.825C216.801 246.949 216.055 247.988 215.81 249.169C215.545 250.34 215.63 251.587 216.027 252.702C216.792 254.969 219.021 256.632 221.373 256.594C223.791 256.594 226.19 256.594 228.551 256.594C247.45 256.613 264.48 256.632 278.779 256.651C293.07 256.669 304.63 256.688 312.64 256.698C313.622 256.641 314.519 256.32 315.265 255.867C316.002 255.394 316.569 254.78 317.003 254.166C317.863 252.9 318.137 251.578 318.127 250.539C318.089 248.423 317.296 247.478 317.381 247.459Z" fill="#263238"/>
<path d="M259.195 238.758C259.195 234.593 262.511 231.485 267.252 231.485C271.993 231.485 275.233 234.593 275.233 238.758C275.233 242.924 271.984 246.174 267.252 246.174C262.52 246.174 259.195 242.858 259.195 238.758ZM259.261 196.09H275.223L272.541 227.527H261.878L259.261 196.09Z" fill="white"/>
<path d="M269.054 156.677C269.016 156.781 267.958 156.148 266.059 156.063C264.199 155.95 261.516 156.564 259.25 158.34C256.983 160.125 255.604 162.44 254.744 164.121C253.885 165.821 253.488 166.946 253.413 166.917C253.384 166.908 253.45 166.615 253.611 166.105C253.772 165.595 254.036 164.858 254.433 163.979C255.217 162.241 256.586 159.823 258.947 157.962C261.318 156.101 264.152 155.516 266.088 155.723C267.061 155.818 267.826 156.045 268.326 156.271C268.827 156.489 269.072 156.659 269.063 156.687L269.054 156.677Z" fill="white"/>
<path d="M249.408 173.947C249.294 173.881 249.757 172.88 250.437 171.718C251.127 170.556 251.778 169.668 251.892 169.734C252.005 169.8 251.542 170.801 250.853 171.963C250.163 173.125 249.512 174.013 249.398 173.947H249.408Z" fill="white"/>
<g opacity="0.3">
<path d="M290.369 178.539L217.189 223.645L207.688 240.11L295.535 187.494L290.369 178.539Z" fill="white"/>
</g>
<path d="M445.662 79H85.902C78.3018 79 72.1406 85.162 72.1406 92.7632V341.898C72.1406 349.499 78.3018 355.661 85.902 355.661H445.662C453.262 355.661 459.423 349.499 459.423 341.898V92.7632C459.423 85.162 453.262 79 445.662 79Z" fill="#455A64"/>
<path d="M57 337.789H476.594V345.185C476.594 354.462 469.066 362 459.782 362H73.8121C64.5371 362 57 354.471 57 345.185V337.789Z" fill="#455A64"/>
<path d="M447.939 89.9883H82.5312V323.622H447.939V89.9883Z" fill="#263238"/>
<path d="M227.602 335.191L232.806 344.137H306.071L310.906 335.191H227.602Z" fill="#263238"/>
<path d="M93.1354 97.9023H438.057C439.767 97.9023 441.146 99.2909 441.146 100.991V319.785C441.146 321.495 439.757 322.874 438.057 322.874H93.1354C91.4258 322.874 90.0469 321.485 90.0469 319.785V100.991C90.0469 99.2815 91.4353 97.9023 93.1354 97.9023Z" fill="#EBEBEB"/>
<path d="M440.78 323.204H89.6719L90.0497 114.707H440.78V323.204Z" fill="#FAFAFA"/>
<path d="M119.554 106.583C119.554 108.255 118.26 109.615 116.664 109.615C115.067 109.615 113.773 108.255 113.773 106.583C113.773 104.911 115.067 103.551 116.664 103.551C118.26 103.551 119.554 104.902 119.554 106.583Z" fill="#263238"/>
<path d="M102.03 106.583C102.03 108.255 100.736 109.615 99.1402 109.615C97.544 109.615 96.25 108.255 96.25 106.583C96.25 104.911 97.544 103.551 99.1402 103.551C100.736 103.551 102.03 104.902 102.03 106.583Z" fill="#263238"/>
<path d="M111.038 106.583C111.038 108.255 109.744 109.615 108.148 109.615C106.552 109.615 105.258 108.255 105.258 106.583C105.258 104.911 106.552 103.551 108.148 103.551C109.744 103.551 111.038 104.902 111.038 106.583Z" fill="#263238"/>
<path d="M456.091 335.192C456.091 335.343 370.132 335.466 264.121 335.466C158.111 335.466 72.1328 335.343 72.1328 335.192C72.1328 335.041 158.073 334.918 264.121 334.918C370.17 334.918 456.091 335.041 456.091 335.192Z" fill="#263238"/>
<path d="M227.9 154.703C233.681 151.208 239.829 148.563 246.167 146.759L249.926 128.679L280.471 128.141L284.863 146.079C291.267 147.657 297.5 150.084 303.404 153.372L318.846 143.245L340.825 164.471L331.257 180.256C334.752 186.037 337.396 192.186 339.191 198.525L357.268 202.284L357.807 232.833L339.871 237.235C338.293 243.64 335.866 249.874 332.579 255.769L342.695 271.213L321.472 293.195L305.689 283.626C299.909 287.121 293.76 289.766 287.423 291.561L283.664 309.641L253.118 310.179L248.717 292.241C242.313 290.663 236.08 288.236 230.186 284.948L214.743 295.075L192.765 273.849L202.333 258.064C198.838 252.283 196.194 246.134 194.39 239.795L176.312 236.036L175.773 205.486L193.709 201.084C195.287 194.68 197.714 188.445 201.001 182.551L190.885 167.106L212.108 145.125L227.891 154.694L227.9 154.703ZM244.183 195.407C231.612 208.434 231.971 229.187 244.996 241.76C258.02 254.333 278.771 253.974 291.342 240.948C303.914 227.921 303.555 207.168 290.53 194.595C277.505 182.022 256.755 182.381 244.183 195.407Z" fill="#7522DE" fill-opacity="0.3"/>
<path d="M349.932 166.368C350.348 164.082 351.075 161.89 352.058 159.84L348.251 154.739L355.099 146.738L360.728 149.705C362.598 148.41 364.648 147.362 366.848 146.587L367.765 140.287L378.267 139.465L380.156 145.539C382.442 145.954 384.633 146.682 386.683 147.664L391.783 143.857L399.783 150.706L396.817 156.336C398.111 158.206 399.16 160.256 399.934 162.457L406.234 163.373L407.056 173.877L400.983 175.767C400.567 178.053 399.84 180.244 398.858 182.294L402.664 187.395L395.816 195.396L390.187 192.43C388.317 193.724 386.267 194.773 384.067 195.547L383.151 201.848L372.648 202.67L370.759 196.596C368.473 196.18 366.282 195.453 364.232 194.47L359.132 198.277L351.132 191.429L354.098 185.799C352.804 183.928 351.755 181.878 350.981 179.677L344.681 178.761L343.859 168.257L349.942 166.368H349.932ZM364.166 169.551C363.533 177.08 370.088 182.984 377.38 181.718C382.348 180.858 386.248 176.655 386.674 171.629C387.316 164.101 380.751 158.197 373.451 159.463C368.482 160.322 364.582 164.526 364.157 169.551H364.166Z" fill="#E0E0E0"/>
<path d="M119.925 271.836C120.001 269.087 120.454 266.404 121.238 263.835L115.883 258.564L122.437 248.003L129.54 250.459C131.495 248.617 133.696 247.021 136.123 245.726L136.067 238.217L148.175 235.383L151.462 242.137C154.21 242.222 156.893 242.666 159.462 243.45L164.732 238.094L175.292 244.65L172.836 251.753C174.678 253.709 176.274 255.909 177.568 258.337L185.077 258.28L187.91 270.381L181.157 273.668C181.072 276.417 180.628 279.1 179.844 281.669L185.199 286.94L178.645 297.501L171.542 295.045C169.587 296.887 167.386 298.484 164.959 299.778L165.015 307.288L152.907 310.121L149.62 303.367C146.872 303.282 144.189 302.838 141.62 302.054L136.35 307.41L125.79 300.855L128.246 293.751C126.404 291.796 124.808 289.595 123.514 287.167L116.005 287.224L113.172 275.123L119.925 271.836ZM137.427 275.246C139.108 282.416 146.286 286.874 153.455 285.193C160.624 283.511 165.082 276.332 163.4 269.163C161.719 261.993 154.541 257.534 147.372 259.216C140.203 260.897 135.755 268.076 137.427 275.246Z" fill="#E0E0E0"/>
<path d="M141.651 170.902C141.963 169.174 142.511 167.52 143.257 165.981L140.385 162.136L145.542 156.1L149.793 158.339C151.2 157.366 152.749 156.572 154.402 155.987L155.091 151.235L163.006 150.621L164.423 155.203C166.151 155.524 167.804 156.062 169.344 156.808L173.188 153.937L179.223 159.094L176.985 163.345C177.958 164.753 178.751 166.302 179.337 167.955L184.087 168.645L184.701 176.56L180.121 177.977C179.799 179.706 179.261 181.359 178.515 182.899L181.386 186.744L176.229 192.78L171.979 190.541C170.572 191.514 169.023 192.307 167.37 192.893L166.68 197.644L158.765 198.258L157.349 193.677C155.62 193.356 153.967 192.817 152.428 192.071L148.584 194.943L142.548 189.785L144.787 185.534C143.814 184.127 143.021 182.578 142.435 180.925L137.684 180.235L137.07 172.319L141.651 170.902ZM152.371 174.747C152.74 179.442 156.839 182.946 161.523 182.578C166.218 182.209 169.722 178.11 169.353 173.424C168.985 168.73 164.886 165.225 160.201 165.593C155.507 165.962 152.003 170.061 152.371 174.747Z" fill="#EBEBEB"/>
<path d="M350.329 256.156C350.603 254.673 351.066 253.256 351.708 251.925L349.243 248.618L353.673 243.432L357.318 245.35C358.527 244.509 359.859 243.829 361.276 243.329L361.871 239.248L368.671 238.719L369.89 242.658C371.373 242.932 372.789 243.395 374.121 244.037L377.427 241.572L382.612 246.002L380.695 249.648C381.526 250.857 382.215 252.189 382.716 253.606L386.796 254.201L387.325 261.002L383.387 262.221C383.113 263.704 382.65 265.121 382.008 266.453L384.473 269.759L380.043 274.945L376.397 273.027C375.188 273.868 373.857 274.548 372.44 275.049L371.845 279.13L365.044 279.659L363.826 275.72C362.343 275.446 360.926 274.983 359.595 274.341L356.289 276.806L351.104 272.376L353.021 268.729C352.18 267.52 351.5 266.188 351 264.771L346.92 264.176L346.391 257.375L350.329 256.156ZM359.538 259.463C359.85 263.496 363.373 266.5 367.406 266.188C371.439 265.877 374.442 262.353 374.131 258.32C373.819 254.296 370.296 251.282 366.263 251.594C362.23 251.906 359.226 255.429 359.538 259.463Z" fill="#EBEBEB"/>
<path d="M266.807 266.407H219.818C207.681 266.407 200.097 253.268 206.17 242.754L229.669 202.05L253.168 161.346C259.232 150.833 274.41 150.833 280.474 161.346L303.973 202.05L327.472 242.754C333.536 253.268 325.951 266.407 313.824 266.407H266.835H266.807Z" fill="#7522DE"/>
<path d="M317.381 247.459C317.381 247.459 317.513 247.705 317.749 248.187C317.929 248.687 318.231 249.462 318.222 250.529C318.25 251.587 317.985 252.938 317.126 254.242C316.691 254.884 316.115 255.508 315.36 256.008C314.604 256.49 313.669 256.821 312.658 256.887C304.649 256.972 293.088 256.962 278.789 256.991C264.489 257.01 247.46 257.019 228.56 257.047C226.199 257.047 223.809 257.047 221.382 257.047C218.832 257.104 216.414 255.29 215.592 252.853C215.158 251.644 215.063 250.312 215.356 249.046C215.441 248.735 215.545 248.423 215.64 248.121C215.781 247.828 215.904 247.525 216.055 247.242L216.962 245.589C218.171 243.369 219.399 241.14 220.626 238.882C225.566 229.861 230.676 220.509 235.908 210.94C241.15 201.371 246.26 192.019 251.2 182.998C253.674 178.483 256.102 174.053 258.473 169.717C259.077 168.631 259.634 167.554 260.277 166.486C260.919 165.409 261.835 164.474 262.921 163.86C265.084 162.594 267.823 162.509 270.024 163.539C271.129 164.049 272.111 164.814 272.829 165.787C273.537 166.779 274.028 167.809 274.595 168.819C275.7 170.841 276.786 172.834 277.863 174.799C280.007 178.729 282.094 182.545 284.106 186.238C288.13 193.616 291.879 200.493 295.308 206.774C302.137 219.328 307.672 229.483 311.497 236.521C313.395 240.025 314.869 242.755 315.879 244.616C316.37 245.532 316.748 246.241 317.003 246.732C317.258 247.214 317.372 247.459 317.372 247.459C317.372 247.459 317.22 247.223 316.956 246.76C316.682 246.279 316.295 245.58 315.785 244.673C314.755 242.821 313.253 240.11 311.327 236.615C307.464 229.597 301.891 219.461 295.006 206.944C291.568 200.672 287.799 193.814 283.757 186.437C281.736 182.753 279.648 178.936 277.495 175.007C276.418 173.042 275.322 171.049 274.217 169.027C273.651 168.026 273.141 166.959 272.479 166.061C271.799 165.154 270.874 164.436 269.835 163.955C267.757 162.982 265.179 163.076 263.148 164.257C262.128 164.833 261.278 165.712 260.673 166.722C260.059 167.752 259.483 168.867 258.888 169.944C256.517 174.289 254.09 178.719 251.625 183.234C246.685 192.265 241.575 201.607 236.343 211.186C231.101 220.755 225.991 230.097 221.052 239.118C219.814 241.376 218.596 243.605 217.377 245.825C216.801 246.949 216.055 247.988 215.81 249.169C215.545 250.34 215.63 251.587 216.027 252.702C216.792 254.969 219.021 256.632 221.373 256.594C223.791 256.594 226.19 256.594 228.551 256.594C247.45 256.613 264.48 256.632 278.779 256.651C293.07 256.669 304.63 256.688 312.64 256.698C313.622 256.641 314.519 256.32 315.265 255.867C316.002 255.394 316.569 254.78 317.003 254.166C317.863 252.9 318.137 251.578 318.127 250.539C318.089 248.423 317.296 247.478 317.381 247.459Z" fill="#263238"/>
<path d="M259.195 238.758C259.195 234.593 262.511 231.485 267.252 231.485C271.993 231.485 275.233 234.593 275.233 238.758C275.233 242.924 271.984 246.174 267.252 246.174C262.52 246.174 259.195 242.858 259.195 238.758ZM259.261 196.09H275.223L272.541 227.527H261.878L259.261 196.09Z" fill="white"/>
<path d="M269.054 156.677C269.016 156.781 267.958 156.148 266.059 156.063C264.199 155.95 261.516 156.564 259.25 158.34C256.983 160.125 255.604 162.44 254.744 164.121C253.885 165.821 253.488 166.946 253.413 166.917C253.384 166.908 253.45 166.615 253.611 166.105C253.772 165.595 254.036 164.858 254.433 163.979C255.217 162.241 256.586 159.823 258.947 157.962C261.318 156.101 264.152 155.516 266.088 155.723C267.061 155.818 267.826 156.045 268.326 156.271C268.827 156.489 269.072 156.659 269.063 156.687L269.054 156.677Z" fill="white"/>
<path d="M249.408 173.947C249.294 173.881 249.757 172.88 250.437 171.718C251.127 170.556 251.778 169.668 251.892 169.734C252.005 169.8 251.542 170.801 250.853 171.963C250.163 173.125 249.512 174.013 249.398 173.947H249.408Z" fill="white"/>
<g opacity="0.3">
<path d="M290.369 178.539L217.189 223.645L207.688 240.11L295.535 187.494L290.369 178.539Z" fill="white"/>
</g>
<g clip-path="url(#clip0_5272_1527)">
<path d="M374.349 23.2165L171.355 21.9729C164.685 21.9321 159.348 27.5061 159.679 34.1701L173.644 322.639H399.537L412.079 64.9078L374.347 23.2165H374.349Z" fill="#7522DE"/>
<path d="M382.79 63.6728C376.178 63.4404 371.094 57.7401 371.615 51.1426L373.79 23.5977L412.12 64.7398L382.789 63.6728H382.79Z" fill="#7D97F4"/>
<path d="M286.931 95.9797C303.099 96.2081 365.168 97.0168 380.841 97.2193C382.818 97.2451 384.403 98.5526 384.343 100.105C384.286 101.582 382.752 102.739 380.87 102.721L287.006 101.839C285.197 101.823 283.678 100.725 283.5 99.307L283.455 98.9481C283.251 97.328 284.863 95.9485 286.931 95.977V95.9797Z" fill="white"/>
<path d="M285.248 113.21C285.509 113.582 286.001 113.819 286.536 113.83L350.958 115.215C351.768 115.232 352.433 114.737 352.458 114.103L352.587 110.767C352.613 110.104 351.932 109.548 351.089 109.54L288.435 108.965C285.644 108.939 283.893 111.273 285.25 113.211L285.248 113.21Z" fill="#FC9E22"/>
<path d="M285.657 126.146C301.825 126.375 363.894 127.183 379.568 127.387C381.545 127.413 383.129 128.721 383.069 130.273C383.012 131.75 381.478 132.907 379.596 132.889L285.732 132.007C283.924 131.991 282.404 130.893 282.226 129.475L282.181 129.116C281.978 127.496 283.589 126.116 285.657 126.145V126.146Z" fill="white"/>
<path d="M283.975 143.374C284.236 143.746 284.728 143.983 285.263 143.994L349.684 145.379C350.494 145.396 351.16 144.902 351.184 144.267L351.314 140.931C351.339 140.268 350.659 139.712 349.816 139.704L287.161 139.129C284.37 139.103 282.62 141.437 283.976 143.375L283.975 143.374Z" fill="#FC9E22"/>
<path opacity="0.81" d="M229.229 152.713C205.035 152.713 185.352 133.025 185.352 108.825C185.352 84.6251 205.035 64.9375 229.229 64.9375C253.424 64.9375 273.107 84.6251 273.107 108.825C273.107 133.025 253.424 152.713 229.229 152.713ZM229.229 68.6385C207.076 68.6385 189.052 86.6666 189.052 108.825C189.052 130.984 207.076 149.012 229.229 149.012C251.383 149.012 269.407 130.984 269.407 108.825C269.407 86.6666 251.383 68.6385 229.229 68.6385Z" fill="white"/>
<g opacity="0.3">
<path d="M152.657 19.5948C152.758 19.2808 152.648 18.9233 152.36 18.7276C151.825 18.3606 151.27 18.0059 150.713 17.6715C150.352 17.4541 149.882 17.5723 149.664 17.9338C149.446 18.2954 149.565 18.7657 149.927 18.9831C150.458 19.3012 150.985 19.6396 151.497 19.9903C151.845 20.2281 152.321 20.1398 152.56 19.7905C152.602 19.728 152.633 19.6627 152.655 19.5948H152.657Z" fill="#BDD0FB"/>
<path d="M147.486 16.8079C147.315 17.1939 146.864 17.3693 146.478 17.198C145.504 16.7672 144.495 16.3825 143.482 16.0522C143.268 15.9829 143.052 15.915 142.836 15.8497C142.433 15.7274 142.203 15.3006 142.325 14.8969C142.456 14.5191 142.874 14.2636 143.279 14.3859C143.506 14.4539 143.73 14.5245 143.955 14.5979C145.017 14.9432 146.074 15.3482 147.096 15.7994C147.458 15.9585 147.634 16.3662 147.515 16.7345C147.507 16.759 147.497 16.7835 147.488 16.8079H147.486ZM139.057 14.9554C137.784 14.7352 136.486 14.5911 135.199 14.5286C134.777 14.5082 134.452 14.1494 134.472 13.7281C134.493 13.3081 134.851 12.9805 135.273 13.0009C136.622 13.0661 137.982 13.217 139.318 13.4481C139.734 13.5201 140.012 13.9156 139.942 14.3329C139.935 14.3696 139.926 14.4049 139.915 14.4389C139.799 14.795 139.436 15.0206 139.057 14.9554ZM131.317 14.583C130.03 14.6808 128.737 14.8616 127.471 15.1185C127.058 15.2028 126.655 14.935 126.571 14.5218C126.486 14.1059 126.753 13.7036 127.167 13.6207C128.495 13.3516 129.852 13.1626 131.2 13.0593C131.621 13.0267 131.988 13.3421 132.021 13.7634C132.028 13.8653 132.016 13.9659 131.986 14.0583C131.893 14.3438 131.635 14.5599 131.317 14.5843V14.583ZM123.721 16.1243C122.497 16.5361 121.285 17.0268 120.124 17.584C119.742 17.7662 119.286 17.6058 119.104 17.2252C118.921 16.8446 119.082 16.388 119.462 16.2045C120.681 15.62 121.949 15.1049 123.235 14.674C123.634 14.5395 124.069 14.7556 124.203 15.1565C124.256 15.3183 124.255 15.4855 124.206 15.635C124.134 15.8579 123.961 16.0441 123.722 16.1243H123.721ZM116.731 19.4733C115.644 20.1692 114.589 20.9398 113.596 21.7635C113.271 22.0326 112.789 21.9877 112.52 21.6629C112.251 21.3381 112.294 20.8556 112.62 20.5864C113.661 19.7234 114.766 18.9174 115.906 18.1861C116.262 17.9592 116.735 18.0625 116.962 18.4172C117.091 18.6184 117.114 18.8562 117.045 19.0669C116.992 19.2286 116.885 19.3754 116.731 19.4746V19.4733ZM110.767 24.4179C109.882 25.3571 109.048 26.3602 108.288 27.4C108.04 27.7411 107.561 27.8145 107.22 27.5658C106.879 27.3171 106.806 26.84 107.054 26.4975C107.852 25.4074 108.727 24.3541 109.655 23.3687C109.945 23.0615 110.429 23.0465 110.736 23.336C110.958 23.5454 111.028 23.8566 110.938 24.1298C110.904 24.2345 110.848 24.3323 110.767 24.4179ZM106.194 30.6688C105.569 31.7928 105.007 32.9712 104.522 34.1727C104.363 34.5642 103.918 34.7531 103.527 34.5954C103.135 34.4378 102.952 33.9947 103.104 33.5992C103.612 32.3406 104.204 31.1051 104.859 29.9267C105.064 29.5583 105.53 29.4251 105.898 29.6304C106.223 29.8111 106.364 30.1931 106.254 30.5342C106.239 30.5804 106.22 30.6253 106.196 30.6701L106.194 30.6688ZM101.658 42.3142C101.24 42.2557 100.949 41.8697 101.007 41.4511C101.169 40.2931 101.396 39.1242 101.683 37.9798C101.725 37.8058 101.771 37.6332 101.816 37.4606C101.912 37.0514 102.345 36.8109 102.754 36.921C103.161 37.0311 103.403 37.4497 103.293 37.8574C103.25 38.0192 103.207 38.1823 103.167 38.3481C102.892 39.4436 102.675 40.5581 102.521 41.6631C102.514 41.708 102.505 41.7528 102.491 41.795C102.379 42.1415 102.032 42.3672 101.658 42.3155V42.3142Z" fill="#7522DE"/>
</g>
<g opacity="0.3">
<path d="M164.974 56.646C164.546 57.9087 164.036 59.1551 163.461 60.3525C163.278 60.7331 162.821 60.8935 162.441 60.71C162.06 60.5265 161.905 60.0684 162.083 59.6892C162.632 58.5475 163.117 57.3583 163.526 56.154C163.662 55.7544 164.097 55.5397 164.497 55.6756C164.893 55.8102 165.107 56.2383 164.978 56.6365L164.975 56.646H164.974ZM165.124 53.3732C164.711 53.2862 164.446 52.8811 164.533 52.468C164.794 51.2243 164.983 49.9535 165.093 48.6881C165.131 48.2695 165.501 47.9555 165.922 47.9936C166.343 48.0303 166.653 48.4013 166.617 48.8213C166.501 50.1465 166.303 51.4798 166.028 52.7819C166.023 52.8091 166.016 52.8363 166.006 52.8621C165.887 53.2291 165.509 53.4547 165.122 53.3732H165.124ZM161.506 63.8483C160.784 64.9696 159.989 66.057 159.141 67.0791C158.872 67.4039 158.389 67.4487 158.065 67.1796C157.74 66.9105 157.696 66.4294 157.965 66.1032C158.774 65.1286 159.533 64.0916 160.22 63.0219C160.449 62.6672 160.921 62.5639 161.276 62.7922C161.575 62.9839 161.695 63.3495 161.59 63.6716C161.57 63.7328 161.542 63.7926 161.506 63.8497V63.8483ZM165.985 45.6069C165.563 45.6218 165.209 45.2915 165.194 44.8702C165.149 43.6007 165.025 42.3217 164.826 41.0686C164.76 40.6513 165.044 40.2599 165.46 40.1933C165.877 40.1267 166.269 40.4107 166.335 40.828C166.544 42.1423 166.675 43.4852 166.721 44.8158C166.724 44.9082 166.712 44.9966 166.684 45.0795C166.588 45.3758 166.315 45.596 165.985 45.6069ZM156.403 69.9972C155.436 70.9106 154.403 71.7736 153.331 72.5647C152.991 72.8148 152.513 72.7427 152.261 72.4029C152.01 72.0631 152.082 71.5847 152.423 71.3333C153.445 70.5803 154.43 69.7566 155.353 68.8854C155.66 68.5959 156.144 68.6095 156.433 68.9167C156.632 69.1273 156.687 69.4209 156.604 69.6791C156.566 69.796 156.498 69.9075 156.402 69.9986L156.403 69.9972ZM149.973 74.7434C148.813 75.3999 147.602 75.9911 146.376 76.5022C145.986 76.6639 145.539 76.4804 145.377 76.0904C145.216 75.7016 145.399 75.2531 145.789 75.09C146.959 74.6034 148.113 74.038 149.22 73.4128C149.587 73.2048 150.055 73.334 150.263 73.7023C150.373 73.8967 150.388 74.1182 150.324 74.3153C150.267 74.4906 150.146 74.6469 149.973 74.7448V74.7434ZM142.592 77.8138C141.308 78.174 139.989 78.4567 138.677 78.6578C138.258 78.7217 137.87 78.4349 137.806 78.0163C137.742 77.599 138.03 77.209 138.446 77.1451C139.699 76.9548 140.954 76.6843 142.179 76.3404C142.585 76.2263 143.007 76.4641 143.122 76.8705C143.164 77.0214 143.158 77.1736 143.113 77.3123C143.037 77.5474 142.849 77.7418 142.593 77.8138H142.592Z" fill="#7522DE"/>
<path d="M165.45 37.3313C165.496 37.1913 165.502 37.0364 165.457 36.8841C165.276 36.2548 165.075 35.6283 164.86 35.0221C164.719 34.6238 164.283 34.4145 163.885 34.5559C163.488 34.6972 163.279 35.1335 163.418 35.5318C163.624 36.1108 163.814 36.7074 163.988 37.3082C164.105 37.7146 164.529 37.9484 164.934 37.8315C165.186 37.7581 165.374 37.5651 165.449 37.3327L165.45 37.3313Z" fill="#7522DE"/>
</g>
<path d="M152.798 30.1284C152.709 29.9898 152.541 29.9232 152.381 29.9612L147.804 31.0812C146.223 29.5508 144.385 28.2623 142.34 27.2905L141.783 22.6135C141.764 22.4491 141.642 22.3159 141.48 22.2805L135.956 21.0831C135.795 21.0478 135.629 21.1198 135.543 21.2612L133.1 25.287C130.836 25.3251 128.631 25.7369 126.557 26.475L122.854 23.5609C122.724 23.459 122.544 23.4508 122.406 23.5391L117.654 26.5986C117.515 26.6883 117.449 26.8555 117.487 27.0159L118.606 31.5936C117.076 33.1757 115.788 35.0133 114.816 37.0588L110.141 37.6161C109.976 37.6351 109.843 37.7574 109.808 37.9192L108.61 43.4442C108.575 43.606 108.647 43.7718 108.788 43.8574L112.813 46.3012C112.852 48.5656 113.263 50.7715 114.001 52.8456L111.088 56.5493C110.986 56.6785 110.978 56.8592 111.066 56.9979L114.126 61.7509C114.216 61.8895 114.383 61.9561 114.543 61.9167L119.12 60.7968C120.702 62.3272 122.539 63.6157 124.584 64.5875L125.141 69.2644C125.16 69.4289 125.282 69.5621 125.444 69.5974L130.968 70.7948C131.13 70.8302 131.295 70.7581 131.381 70.6168L133.824 66.5909C136.088 66.5529 138.294 66.141 140.367 65.403L144.07 68.3171C144.199 68.419 144.38 68.4272 144.519 68.3388L149.271 65.2793C149.409 65.1896 149.476 65.0224 149.438 64.862L148.318 60.2844C149.848 58.7023 151.136 56.8647 152.108 54.8191L156.784 54.2619C156.948 54.2428 157.081 54.1205 157.117 53.9588L158.314 48.4337C158.349 48.272 158.277 48.1062 158.136 48.0205L154.111 45.5768C154.073 43.3124 153.66 41.1064 152.923 39.0323L155.837 35.3286C155.939 35.1995 155.947 35.0187 155.858 34.8801L152.8 30.127L152.798 30.1284Z" fill="#7522DE" fill-opacity="0.2"/>
<path d="M138.641 48.51C137.955 49.895 136.77 50.928 135.306 51.4214C133.843 51.9147 132.274 51.8074 130.89 51.121C128.033 49.7034 126.866 46.2307 128.281 43.3683C129.699 40.5113 133.175 39.341 136.032 40.7587C137.415 41.445 138.449 42.6302 138.942 44.0941C139.343 45.2847 139.347 46.5433 138.966 47.7176C138.879 47.9867 138.77 48.2531 138.642 48.5114L138.641 48.51ZM131.569 49.7509C132.587 50.2565 133.741 50.3354 134.818 49.9725C135.895 49.6096 136.766 48.8498 137.271 47.8318C137.775 46.8124 137.854 45.6598 137.493 44.582C137.131 43.5055 136.37 42.6343 135.352 42.1287C133.252 41.0862 130.694 41.9466 129.651 44.0479C129.557 44.2381 129.478 44.4311 129.414 44.6269C128.773 46.599 129.659 48.8022 131.569 49.7509Z" fill="url(#paint0_linear_5272_1527)"/>
<path d="M147.054 50.4631C147.203 50.0023 147.331 49.532 147.435 49.0495C147.643 48.0913 147.753 47.1113 147.764 46.1327V46.0009C147.764 45.6611 147.544 45.373 147.237 45.2724C147.162 45.2479 147.082 45.2357 147.001 45.2357C146.578 45.2357 146.238 45.5782 146.236 45.9995C146.236 46.9129 146.135 47.829 145.941 48.7247C145.93 48.7736 145.919 48.8239 145.908 48.8728C145.428 50.9877 144.44 52.9041 143.045 54.4903C142.288 55.352 141.409 56.1159 140.426 56.7615C140.418 56.7669 140.41 56.7723 140.402 56.7778C140.377 56.7941 140.353 56.8104 140.328 56.8254C137.437 58.6874 133.995 59.3113 130.634 58.5828C130.199 58.489 129.773 58.3734 129.356 58.2375C126.547 57.3242 124.158 55.4866 122.537 52.9694C120.675 50.0771 120.051 46.6343 120.78 43.273C121.508 39.9145 123.502 37.0358 126.392 35.1737C129.284 33.3117 132.726 32.6878 136.086 33.4163C136.514 33.5088 136.935 33.6229 137.348 33.7575C139.141 34.3406 140.785 35.3097 142.16 36.5995C142.245 36.6783 142.342 36.7354 142.447 36.7694C142.72 36.8578 143.031 36.7884 143.241 36.5655C143.529 36.257 143.515 35.7745 143.205 35.4836C141.667 34.0402 139.827 32.9556 137.823 32.3032C137.359 32.1523 136.889 32.0245 136.411 31.9212C132.651 31.1071 128.798 31.8044 125.564 33.888C122.33 35.9716 120.098 39.186 119.285 42.9496C118.47 46.7104 119.168 50.5623 121.251 53.7985C123.064 56.6147 125.737 58.6697 128.88 59.6932C129.346 59.8454 129.824 59.9746 130.311 60.0792C137.59 61.6558 144.799 57.403 147.055 50.4658L147.054 50.4631Z" fill="#7522DE" fill-opacity="0.2"/>
<path d="M271.886 366.816C271.958 366.788 310.88 298.611 316.139 292.196C317.023 291.116 318.393 290.567 319.779 290.732L330.643 292.027L343.406 319.643L322.144 307.258C324.247 321.812 296.934 343.441 287.566 351.333C286.615 352.134 286.537 353.569 287.396 354.467L291.136 358.383C284.996 364.608 277.911 368.606 269.914 370.454L271.886 366.817V366.816Z" fill="#FFBF9D"/>
<path d="M288.975 356.27C288.975 356.27 291.362 357.04 292.17 359.167C292.557 360.185 292.14 361.337 291.255 361.971C287.325 364.787 274.36 373.88 268.378 375.661C267.888 375.806 267.422 375.363 267.532 374.863C267.839 373.473 268.832 370.697 272.031 366.633L271.744 367.214C271.382 367.949 272.181 368.714 272.895 368.31C276.897 366.051 285.046 361.105 288.975 356.27Z" fill="url(#paint1_linear_5272_1527)"/>
<path d="M287.047 383.549C287.113 383.506 292.952 369.434 293.017 369.393C298.371 336.788 311.434 308.863 315.286 301.516C315.934 300.28 317.164 299.465 318.554 299.345L329.455 298.414L347.542 322.875L324.214 315.05C329.219 328.877 306.846 355.588 299.269 365.212C298.5 366.189 298.713 367.61 299.737 368.316L304.191 371.393C299.438 378.732 293.308 384.081 285.852 387.509L287.046 383.547L287.047 383.549Z" fill="#FFBF9D"/>
<path d="M301.651 369.763C301.651 369.763 304.145 370.035 305.367 371.954C305.951 372.871 305.776 374.085 305.038 374.884C301.759 378.439 290.903 389.967 285.405 392.922C284.954 393.164 284.407 392.824 284.414 392.312C284.433 390.889 284.845 387.969 287.155 383.341L286.992 383.968C286.785 384.762 287.723 385.349 288.341 384.809C291.802 381.786 298.784 375.294 301.653 369.762L301.651 369.763Z" fill="url(#paint2_linear_5272_1527)"/>
<path d="M380.48 293.262C380.48 293.262 390.341 307.933 391.15 314.624C391.958 321.317 388.423 323.63 378.102 324.484C347.387 327.024 332.246 317.815 332.246 317.815C330.145 304.415 328.65 301.007 311.102 293.721C311.102 293.721 333.297 295.484 337.764 293.75C342.231 292.016 380.48 293.261 380.48 293.261V293.262Z" fill="#FC9E22"/>
<path d="M341.156 211.068C341.156 211.068 348.024 202.94 355.327 212.912C356.649 214.718 361.728 213.229 363.591 217.008C364.553 218.96 366.63 220.069 368.769 219.675C374.097 218.692 382.806 218.61 387.106 226.96C390.388 233.335 387.855 237.066 384.574 239.193C382.164 240.755 381.304 243.927 382.761 246.402C384.159 248.776 384.421 251.991 380.812 255.859C372.724 264.529 356.715 250.357 356.715 250.357L344.004 220.314L341.158 211.068H341.156Z" fill="url(#paint3_linear_5272_1527)"/>
<path d="M353.815 291.32C353.815 291.32 342.331 280.383 336.679 273.138C333.622 269.223 332.663 264.067 334.076 259.306C336.657 250.61 341.243 241.603 341.662 240.2C342.303 238.051 355.178 238.141 355.178 238.141C355.178 238.141 380.516 254.588 390.471 282.45L379.29 285.931C379.29 285.931 372.675 274.829 366.137 267.771C366.137 267.771 377.449 282.717 377.847 288.834L353.814 291.319L353.815 291.32Z" fill="#FC9E22"/>
<path d="M331.938 295.636L340.566 286.245L350.531 288.93C350.531 288.93 362.149 290.731 368.798 288.93L375.447 287.129L390.474 282.449L392.834 289.12C393.433 290.814 392.831 292.695 391.366 293.734C390.066 294.659 388.543 295.674 387.571 296.099C385.593 296.965 341.988 296.373 341.988 296.373L331.938 295.635V295.636Z" fill="#FFBF9D"/>
<path d="M346.326 222.656L354.981 238.753C354.41 242.266 345.563 242.366 344.196 240.267C344.057 240.054 343.977 239.806 343.924 239.558L338.747 228.802C338.524 227.753 341.399 224.221 342.345 223.716L345.784 221.886C347.109 221.18 341.583 221.124 346.326 222.658V222.656Z" fill="#FFBF9D"/>
<path d="M328.815 218.882C328.815 218.882 327.838 224.32 332.112 231.234C336.385 238.148 340.64 237.835 342.802 235.37C344.964 232.904 347.554 228.797 346.376 221.9C345.197 215.004 330.292 211.946 328.815 218.88V218.882Z" fill="#FFBF9D"/>
<path d="M341.202 222.649C341.202 222.649 334.283 213.559 328.969 221.483L329.059 224.22C329.059 224.22 322.151 223.897 322.901 217.529C323.649 211.16 329.29 206.809 337.109 208.985C344.928 211.161 349.496 213.639 350.38 219.069C351.263 224.499 346.83 223.611 346.83 223.611C346.83 223.611 345.137 219.865 343.092 219.608C341.047 219.353 341.786 222.316 341.786 222.316L341.202 222.647V222.649Z" fill="url(#paint4_linear_5272_1527)"/>
<path d="M342.787 222.405C342.787 222.405 339.202 217.753 342.465 216.788C345.727 215.823 345.605 221.347 345.393 223.402L342.787 222.405Z" fill="url(#paint5_linear_5272_1527)"/>
<path d="M360.5 299.349C360.47 299.351 360.438 299.352 360.409 299.352L320.72 299.308C319.739 299.308 318.944 298.512 318.945 297.529C318.945 296.548 319.746 295.737 320.724 295.754L360.413 295.798C361.394 295.798 362.189 296.596 362.187 297.577C362.187 298.528 361.439 299.303 360.5 299.349Z" fill="url(#paint6_linear_5272_1527)"/>
<path d="M285.04 263.309H318.093C320.531 263.309 322.751 264.715 323.791 266.921L339.071 299.329H297.995C296.425 299.329 295.013 298.368 294.435 296.907L282.586 266.919C281.901 265.186 283.178 263.309 285.041 263.309H285.04Z" fill="url(#paint7_linear_5272_1527)"/>
<path d="M308.325 279.924C309.041 282.151 308.512 284.312 307.143 284.752C305.774 285.193 304.084 283.746 303.366 281.52C302.65 279.294 303.179 277.133 304.548 276.692C305.917 276.252 307.607 277.698 308.325 279.924Z" fill="url(#paint8_linear_5272_1527)"/>
<path d="M331.749 227.879C331.558 228.394 331.827 228.984 332.353 229.199C332.875 229.411 333.456 229.167 333.647 228.652C333.838 228.136 333.569 227.546 333.044 227.332C332.518 227.117 331.94 227.363 331.749 227.879Z" fill="#263238"/>
<path d="M332.702 225.53C332.763 225.624 333.484 225.458 334.301 225.657C335.12 225.847 335.581 226.291 335.702 226.241C335.759 226.219 335.726 226.07 335.528 225.871C335.334 225.673 334.957 225.436 334.446 225.315C333.935 225.194 333.444 225.226 333.131 225.302C332.814 225.379 332.669 225.488 332.699 225.53H332.702Z" fill="#263238"/>
<path d="M218.019 128.582C218.755 128.57 219.478 128.777 220.096 129.177C220.713 129.577 221.198 130.152 221.488 130.829C221.778 131.506 221.861 132.253 221.724 132.977C221.588 133.7 221.24 134.367 220.724 134.892C220.207 135.417 219.547 135.776 218.826 135.924C218.105 136.072 217.356 136.002 216.674 135.724C215.993 135.445 215.41 134.969 215 134.358C214.59 133.747 214.37 133.027 214.37 132.291C214.366 131.808 214.457 131.328 214.638 130.88C214.819 130.432 215.087 130.024 215.425 129.68C215.764 129.335 216.168 129.061 216.613 128.873C217.058 128.684 217.535 128.585 218.019 128.582ZM245.022 128.582C245.758 128.57 246.481 128.777 247.099 129.177C247.717 129.577 248.202 130.152 248.492 130.829C248.782 131.506 248.864 132.253 248.728 132.977C248.592 133.7 248.243 134.367 247.727 134.892C247.211 135.417 246.55 135.776 245.829 135.924C245.108 136.072 244.359 136.002 243.678 135.724C242.996 135.445 242.413 134.969 242.003 134.358C241.593 133.747 241.374 133.027 241.374 132.291C241.365 131.316 241.745 130.377 242.428 129.682C243.112 128.986 244.044 128.591 245.019 128.582H245.022ZM207.11 88.0245L212.105 88.9123C212.501 88.9857 212.862 89.188 213.131 89.4878C213.4 89.7875 213.562 90.1678 213.592 90.5694L215.903 118.667C215.946 119.306 216.23 119.906 216.698 120.344C217.165 120.783 217.782 121.027 218.423 121.029H244.605C245.218 121.021 245.807 120.794 246.266 120.388C246.725 119.982 247.024 119.426 247.107 118.819L249.391 102.753C249.421 102.548 249.407 102.338 249.35 102.139C249.293 101.94 249.194 101.755 249.059 101.597C248.928 101.441 248.764 101.315 248.578 101.229C248.393 101.142 248.191 101.098 247.986 101.099H238.993C238.506 101.099 238.039 100.905 237.695 100.561C237.35 100.216 237.157 99.7492 237.157 99.2622C237.157 98.7751 237.35 98.308 237.695 97.9636C238.039 97.6192 238.506 97.4257 238.993 97.4257H247.98C248.703 97.4271 249.417 97.5862 250.072 97.8918C250.728 98.1974 251.308 98.6422 251.774 99.1953C252.247 99.7551 252.596 100.409 252.798 101.113C253 101.817 253.051 102.556 252.948 103.282L250.668 119.345C250.466 120.816 249.743 122.166 248.63 123.15C247.516 124.133 246.087 124.684 244.602 124.702H218.42C216.864 124.7 215.366 124.107 214.23 123.043C213.094 121.979 212.404 120.524 212.3 118.971L210.12 92.2873L206.496 91.6488C206.26 91.6056 206.035 91.5163 205.833 91.3858C205.632 91.2554 205.458 91.0865 205.322 90.8888C205.186 90.6911 205.09 90.4684 205.04 90.2336C204.99 89.9988 204.987 89.7564 205.031 89.5204C205.068 89.2853 205.152 89.06 205.277 88.8574C205.402 88.6548 205.566 88.4789 205.759 88.3399C205.953 88.2009 206.172 88.1014 206.403 88.0473C206.635 87.9932 206.875 87.9854 207.11 88.0245ZM240.756 106.477C241.243 106.477 241.71 106.671 242.055 107.015C242.399 107.36 242.593 107.827 242.593 108.314C242.593 108.801 242.399 109.268 242.055 109.612C241.71 109.957 241.243 110.15 240.756 110.15H234.104C233.617 110.15 233.15 109.957 232.806 109.612C232.462 109.268 232.268 108.801 232.268 108.314C232.268 107.827 232.462 107.36 232.806 107.015C233.15 106.671 233.617 106.477 234.104 106.477H240.756Z" fill="white"/>
<path d="M225.375 107.199C225.26 107.2 225.145 107.178 225.038 107.135C224.931 107.091 224.834 107.027 224.752 106.946C224.67 106.865 224.604 106.769 224.56 106.662C224.515 106.556 224.491 106.442 224.49 106.327V88.8711C224.491 88.6976 224.544 88.5283 224.641 88.3847C224.739 88.2412 224.877 88.13 225.038 88.0653C225.199 87.9996 225.377 87.9828 225.548 88.0168C225.719 88.0508 225.877 88.1343 226.001 88.2569L233.115 95.2956C233.198 95.3761 233.263 95.4721 233.307 95.5781C233.352 95.6841 233.375 95.7979 233.375 95.9129C233.375 96.0279 233.352 96.1417 233.307 96.2477C233.263 96.3537 233.198 96.4497 233.115 96.5301C232.948 96.6942 232.723 96.7862 232.489 96.7862C232.255 96.7862 232.03 96.6942 231.863 96.5301L226.26 90.9842V106.327C226.259 106.442 226.235 106.556 226.191 106.662C226.146 106.769 226.08 106.865 225.998 106.946C225.916 107.027 225.819 107.091 225.712 107.135C225.605 107.178 225.49 107.2 225.375 107.199ZM218.887 96.5271C218.72 96.6912 218.495 96.7832 218.261 96.7832C218.027 96.7832 217.802 96.6912 217.635 96.5271C217.553 96.4464 217.488 96.3503 217.443 96.2444C217.399 96.1384 217.376 96.0247 217.376 95.9098C217.376 95.795 217.399 95.6812 217.443 95.5753C217.488 95.4693 217.553 95.3732 217.635 95.2926L221.556 91.4129C221.724 91.2488 221.949 91.1568 222.183 91.1568C222.417 91.1568 222.642 91.2488 222.809 91.4129C222.892 91.4931 222.957 91.5891 223.002 91.6951C223.047 91.8011 223.07 91.9151 223.07 92.0302C223.07 92.1453 223.047 92.2592 223.002 92.3652C222.957 92.4712 222.892 92.5672 222.809 92.6474L218.887 96.5271Z" fill="#C08DFF" stroke="#C08DFF" stroke-width="0.5"/>
<g filter="url(#filter0_d_5272_1527)">
<rect x="189" y="204" width="60" height="28" rx="4" fill="white"/>
</g>
<g filter="url(#filter1_d_5272_1527)">
<rect x="257" y="204" width="60" height="28" rx="4" fill="white"/>
</g>
<path d="M214.168 213.72H217.056C218.372 213.72 219.326 213.908 219.919 214.285C220.516 214.657 220.814 215.252 220.814 216.068C220.814 216.623 220.683 217.078 220.42 217.433C220.162 217.789 219.817 218.002 219.386 218.074V218.138C219.974 218.269 220.397 218.514 220.655 218.874C220.918 219.234 221.049 219.712 221.049 220.309C221.049 221.155 220.742 221.815 220.128 222.289C219.519 222.763 218.69 223 217.64 223H214.168V213.72ZM216.136 217.395H217.278C217.812 217.395 218.197 217.312 218.434 217.147C218.675 216.982 218.795 216.709 218.795 216.329C218.795 215.973 218.664 215.719 218.402 215.567C218.144 215.41 217.733 215.332 217.17 215.332H216.136V217.395ZM216.136 218.957V221.375H217.418C217.96 221.375 218.36 221.271 218.618 221.064C218.876 220.857 219.005 220.539 219.005 220.112C219.005 219.342 218.455 218.957 217.354 218.957H216.136ZM230.456 213.72V219.725C230.456 220.41 230.302 221.011 229.993 221.527C229.688 222.044 229.246 222.439 228.666 222.714C228.086 222.989 227.401 223.127 226.609 223.127C225.416 223.127 224.489 222.822 223.829 222.213C223.169 221.599 222.839 220.761 222.839 219.699V213.72H224.8V219.401C224.8 220.116 224.944 220.641 225.232 220.975C225.52 221.309 225.996 221.477 226.66 221.477C227.303 221.477 227.769 221.309 228.057 220.975C228.349 220.637 228.495 220.108 228.495 219.388V213.72H230.456ZM235.617 217.541L237.553 213.72H239.673L236.594 219.388V223H234.639V219.452L231.561 213.72H233.693L235.617 217.541Z" fill="#7522DE"/>
<path d="M199.983 221.3C200.152 221.297 200.318 221.345 200.459 221.436C200.601 221.528 200.712 221.66 200.779 221.815C200.845 221.97 200.864 222.141 200.833 222.307C200.801 222.473 200.722 222.626 200.603 222.746C200.485 222.866 200.334 222.949 200.168 222.983C200.003 223.017 199.832 223.001 199.675 222.937C199.519 222.873 199.386 222.764 199.292 222.624C199.198 222.484 199.147 222.319 199.147 222.15C199.146 222.039 199.167 221.929 199.209 221.827C199.25 221.724 199.311 221.631 199.389 221.552C199.467 221.473 199.559 221.41 199.661 221.367C199.763 221.323 199.873 221.301 199.983 221.3ZM206.172 221.3C206.34 221.297 206.506 221.345 206.648 221.436C206.789 221.528 206.9 221.66 206.967 221.815C207.033 221.97 207.052 222.141 207.021 222.307C206.99 222.473 206.91 222.626 206.792 222.746C206.673 222.866 206.522 222.949 206.357 222.983C206.191 223.017 206.02 223.001 205.864 222.937C205.707 222.873 205.574 222.764 205.48 222.624C205.386 222.484 205.336 222.319 205.336 222.15C205.334 221.927 205.421 221.711 205.577 221.552C205.734 221.393 205.948 221.302 206.171 221.3H206.172ZM197.484 212.006L198.628 212.209C198.719 212.226 198.802 212.272 198.863 212.341C198.925 212.41 198.962 212.497 198.969 212.589L199.499 219.028C199.508 219.174 199.573 219.312 199.681 219.412C199.788 219.513 199.929 219.569 200.076 219.569H206.076C206.217 219.567 206.352 219.515 206.457 219.422C206.562 219.329 206.63 219.202 206.65 219.063L207.173 215.381C207.18 215.334 207.177 215.286 207.164 215.24C207.15 215.195 207.128 215.152 207.097 215.116C207.067 215.08 207.029 215.051 206.987 215.032C206.944 215.012 206.898 215.002 206.851 215.002H204.79C204.678 215.002 204.571 214.957 204.493 214.879C204.414 214.8 204.369 214.693 204.369 214.581C204.369 214.469 204.414 214.362 204.493 214.283C204.571 214.204 204.678 214.16 204.79 214.16H206.85C207.015 214.16 207.179 214.197 207.329 214.267C207.479 214.337 207.612 214.439 207.719 214.566C207.827 214.694 207.907 214.844 207.954 215.005C208 215.166 208.012 215.336 207.988 215.502L207.465 219.183C207.419 219.52 207.254 219.83 206.998 220.055C206.743 220.28 206.416 220.407 206.076 220.411H200.075C199.719 220.41 199.376 220.275 199.115 220.031C198.855 219.787 198.697 219.453 198.673 219.097L198.173 212.982L197.343 212.836C197.289 212.826 197.237 212.806 197.191 212.776C197.145 212.746 197.105 212.707 197.074 212.662C197.043 212.617 197.021 212.566 197.009 212.512C196.998 212.458 196.997 212.403 197.007 212.348C197.016 212.295 197.035 212.243 197.064 212.196C197.092 212.15 197.13 212.11 197.174 212.078C197.218 212.046 197.268 212.023 197.322 212.011C197.375 211.998 197.43 211.997 197.484 212.006ZM205.194 216.234C205.306 216.234 205.413 216.279 205.492 216.358C205.571 216.437 205.615 216.544 205.615 216.655C205.615 216.767 205.571 216.874 205.492 216.953C205.413 217.032 205.306 217.076 205.194 217.076H203.67C203.558 217.076 203.451 217.032 203.372 216.953C203.293 216.874 203.249 216.767 203.249 216.655C203.249 216.544 203.293 216.437 203.372 216.358C203.451 216.279 203.558 216.234 203.67 216.234H205.194Z" fill="#7522DE"/>
<path d="M201.669 212C201.696 212 201.722 212.005 201.746 212.015C201.771 212.025 201.793 212.039 201.812 212.058C201.831 212.077 201.846 212.099 201.856 212.123C201.866 212.147 201.872 212.174 201.872 212.2V216.2C201.872 216.24 201.86 216.279 201.837 216.312C201.815 216.345 201.783 216.37 201.747 216.385C201.71 216.4 201.669 216.404 201.63 216.396C201.59 216.388 201.554 216.369 201.526 216.341L199.895 214.728C199.877 214.709 199.862 214.687 199.851 214.663C199.841 214.639 199.836 214.613 199.836 214.586C199.836 214.56 199.841 214.534 199.851 214.51C199.862 214.485 199.877 214.463 199.895 214.445C199.934 214.407 199.985 214.386 200.039 214.386C200.093 214.386 200.144 214.407 200.182 214.445L201.467 215.716V212.2C201.467 212.174 201.472 212.147 201.482 212.123C201.493 212.099 201.508 212.077 201.526 212.058C201.545 212.039 201.568 212.025 201.592 212.015C201.617 212.005 201.643 212 201.669 212ZM203.156 214.446C203.194 214.408 203.246 214.387 203.3 214.387C203.353 214.387 203.405 214.408 203.443 214.446C203.462 214.464 203.477 214.486 203.487 214.51C203.497 214.535 203.502 214.561 203.502 214.587C203.502 214.613 203.497 214.64 203.487 214.664C203.477 214.688 203.462 214.71 203.443 214.729L202.544 215.618C202.506 215.655 202.455 215.676 202.401 215.676C202.347 215.676 202.296 215.655 202.257 215.618C202.238 215.599 202.223 215.577 202.213 215.553C202.203 215.529 202.198 215.503 202.198 215.476C202.198 215.45 202.203 215.424 202.213 215.399C202.223 215.375 202.238 215.353 202.257 215.335L203.156 214.446Z" fill="#7522DE" stroke="#C08DFF" stroke-width="0.5"/>
<path d="M286.646 220.423C286.646 221.261 286.343 221.921 285.738 222.403C285.137 222.886 284.299 223.127 283.225 223.127C282.234 223.127 281.358 222.941 280.597 222.568V220.74C281.223 221.02 281.752 221.216 282.184 221.331C282.619 221.445 283.017 221.502 283.377 221.502C283.809 221.502 284.139 221.419 284.367 221.254C284.6 221.089 284.716 220.844 284.716 220.518C284.716 220.336 284.666 220.175 284.564 220.036C284.462 219.892 284.312 219.754 284.113 219.623C283.919 219.492 283.519 219.282 282.914 218.995C282.347 218.728 281.921 218.472 281.638 218.227C281.354 217.981 281.128 217.695 280.958 217.37C280.789 217.044 280.705 216.663 280.705 216.227C280.705 215.406 280.982 214.761 281.536 214.291C282.095 213.821 282.865 213.586 283.847 213.586C284.329 213.586 284.788 213.644 285.224 213.758C285.664 213.872 286.123 214.033 286.602 214.24L285.967 215.77C285.472 215.567 285.061 215.425 284.735 215.345C284.414 215.264 284.096 215.224 283.783 215.224C283.411 215.224 283.125 215.311 282.926 215.484C282.727 215.658 282.628 215.884 282.628 216.164C282.628 216.337 282.668 216.489 282.749 216.621C282.829 216.748 282.956 216.872 283.129 216.995C283.307 217.114 283.724 217.329 284.38 217.643C285.247 218.057 285.842 218.474 286.164 218.893C286.485 219.308 286.646 219.818 286.646 220.423ZM293.673 223H288.328V213.72H293.673V215.332H290.296V217.37H293.438V218.982H290.296V221.375H293.673V223ZM295.615 223V213.72H297.583V221.375H301.347V223H295.615ZM302.966 223V213.72H304.934V221.375H308.698V223H302.966Z" fill="#FC9E22"/>
<path d="M266.983 221.3C267.152 221.297 267.318 221.345 267.459 221.436C267.601 221.528 267.712 221.66 267.779 221.815C267.845 221.97 267.864 222.141 267.833 222.307C267.801 222.473 267.722 222.626 267.603 222.746C267.485 222.866 267.334 222.949 267.168 222.983C267.003 223.017 266.832 223.001 266.675 222.937C266.519 222.873 266.386 222.764 266.292 222.624C266.198 222.484 266.147 222.319 266.147 222.15C266.146 222.039 266.167 221.929 266.209 221.827C266.25 221.724 266.311 221.631 266.389 221.552C266.467 221.473 266.559 221.41 266.661 221.367C266.763 221.323 266.873 221.301 266.983 221.3ZM273.172 221.3C273.34 221.297 273.506 221.345 273.648 221.436C273.789 221.528 273.9 221.66 273.967 221.815C274.033 221.97 274.052 222.141 274.021 222.307C273.99 222.473 273.91 222.626 273.792 222.746C273.673 222.866 273.522 222.949 273.357 222.983C273.191 223.017 273.02 223.001 272.864 222.937C272.707 222.873 272.574 222.764 272.48 222.624C272.386 222.484 272.336 222.319 272.336 222.15C272.334 221.927 272.421 221.711 272.577 221.552C272.734 221.393 272.948 221.302 273.171 221.3H273.172ZM264.484 212.006L265.628 212.209C265.719 212.226 265.802 212.272 265.863 212.341C265.925 212.41 265.962 212.497 265.969 212.589L266.499 219.028C266.508 219.174 266.573 219.312 266.681 219.412C266.788 219.513 266.929 219.569 267.076 219.569H273.076C273.217 219.567 273.352 219.515 273.457 219.422C273.562 219.329 273.63 219.202 273.65 219.063L274.173 215.381C274.18 215.334 274.177 215.286 274.164 215.24C274.15 215.195 274.128 215.152 274.097 215.116C274.067 215.08 274.029 215.051 273.987 215.032C273.944 215.012 273.898 215.002 273.851 215.002H271.79C271.678 215.002 271.571 214.957 271.493 214.879C271.414 214.8 271.369 214.693 271.369 214.581C271.369 214.469 271.414 214.362 271.493 214.283C271.571 214.204 271.678 214.16 271.79 214.16H273.85C274.015 214.16 274.179 214.197 274.329 214.267C274.479 214.337 274.612 214.439 274.719 214.566C274.827 214.694 274.907 214.844 274.954 215.005C275 215.166 275.012 215.336 274.988 215.502L274.465 219.183C274.419 219.52 274.254 219.83 273.998 220.055C273.743 220.28 273.416 220.407 273.076 220.411H267.075C266.719 220.41 266.376 220.275 266.115 220.031C265.855 219.787 265.697 219.453 265.673 219.097L265.173 212.982L264.343 212.836C264.289 212.826 264.237 212.806 264.191 212.776C264.145 212.746 264.105 212.707 264.074 212.662C264.043 212.617 264.021 212.566 264.009 212.512C263.998 212.458 263.997 212.403 264.007 212.348C264.016 212.295 264.035 212.243 264.064 212.196C264.092 212.15 264.13 212.11 264.174 212.078C264.218 212.046 264.268 212.023 264.322 212.011C264.375 211.998 264.43 211.997 264.484 212.006ZM272.194 216.234C272.306 216.234 272.413 216.279 272.492 216.358C272.571 216.437 272.615 216.544 272.615 216.655C272.615 216.767 272.571 216.874 272.492 216.953C272.413 217.032 272.306 217.076 272.194 217.076H270.67C270.558 217.076 270.451 217.032 270.372 216.953C270.293 216.874 270.249 216.767 270.249 216.655C270.249 216.544 270.293 216.437 270.372 216.358C270.451 216.279 270.558 216.234 270.67 216.234H272.194Z" fill="#FC9E22"/>
<path d="M268.669 216.398C268.696 216.399 268.722 216.394 268.746 216.384C268.771 216.374 268.793 216.359 268.812 216.34C268.831 216.322 268.846 216.3 268.856 216.275C268.866 216.251 268.872 216.225 268.872 216.198V212.198C268.872 212.158 268.86 212.12 268.837 212.087C268.815 212.054 268.783 212.028 268.747 212.014C268.71 211.999 268.669 211.995 268.63 212.002C268.59 212.01 268.554 212.029 268.526 212.057L266.895 213.671C266.877 213.689 266.862 213.711 266.851 213.735C266.841 213.76 266.836 213.786 266.836 213.812C266.836 213.838 266.841 213.864 266.851 213.889C266.862 213.913 266.877 213.935 266.895 213.953C266.934 213.991 266.985 214.012 267.039 214.012C267.093 214.012 267.144 213.991 267.182 213.953L268.467 212.683V216.198C268.467 216.225 268.472 216.251 268.482 216.275C268.493 216.3 268.508 216.322 268.526 216.34C268.545 216.359 268.568 216.374 268.592 216.384C268.617 216.394 268.643 216.399 268.669 216.398ZM270.156 213.953C270.194 213.99 270.246 214.011 270.3 214.011C270.353 214.011 270.405 213.99 270.443 213.953C270.462 213.934 270.477 213.912 270.487 213.888C270.497 213.864 270.502 213.838 270.502 213.811C270.502 213.785 270.497 213.759 270.487 213.735C270.477 213.71 270.462 213.688 270.443 213.67L269.544 212.781C269.506 212.743 269.455 212.722 269.401 212.722C269.347 212.722 269.296 212.743 269.257 212.781C269.238 212.799 269.223 212.821 269.213 212.845C269.203 212.87 269.198 212.896 269.198 212.922C269.198 212.949 269.203 212.975 269.213 212.999C269.223 213.023 269.238 213.045 269.257 213.064L270.156 213.953Z" fill="#FC9E22" stroke="#FC9E22" stroke-width="0.5"/>
</g>
<g opacity="0.3">
<path d="M70.2214 5.91696C69.9428 6.54218 69.2117 6.82353 68.5867 6.5449C67.3732 6.00531 66.1176 5.50921 64.8566 5.07292C64.2179 4.85137 63.8768 4.16091 64.0847 3.52074C64.0875 3.51259 64.0902 3.50579 64.0929 3.49764C64.3171 2.85203 65.0224 2.50952 65.6678 2.73243C66.9954 3.19183 68.3176 3.71375 69.595 4.28324C70.1793 4.54284 70.4633 5.20068 70.269 5.796C70.2554 5.83677 70.2404 5.87755 70.2228 5.91832L70.2214 5.91696ZM58.5704 3.3658C57.2618 3.10484 55.9288 2.89824 54.6093 2.75009C53.9299 2.67398 53.4407 2.06099 53.5168 1.38141C53.5956 0.699102 54.2057 0.21252 54.8852 0.288633C56.2739 0.444938 57.6763 0.662406 59.0542 0.936959C59.7241 1.07016 60.1603 1.72256 60.0258 2.39263C60.0163 2.44156 60.0041 2.48913 59.9891 2.53534C59.7975 3.12387 59.1928 3.48948 58.5704 3.3658ZM48.1044 2.4769C46.7741 2.5136 45.4288 2.60874 44.1066 2.76097C43.4272 2.83844 42.8143 2.3505 42.7355 1.67091C42.6581 0.992684 43.1459 0.378339 43.8253 0.299507C45.2182 0.140484 46.6355 0.0399054 48.0351 0.000489383C48.7186 -0.018539 49.288 0.519692 49.307 1.20336C49.3111 1.34879 49.2894 1.49014 49.2472 1.62062C49.0896 2.10449 48.6412 2.46059 48.1044 2.47554V2.4769ZM37.7023 3.9516C36.4127 4.28596 35.1218 4.68012 33.8662 5.12185C33.2207 5.34883 32.5141 5.0104 32.2872 4.36615C32.0602 3.72054 32.3986 3.01513 33.0427 2.78679C34.3649 2.3206 35.7238 1.90605 37.0813 1.55402C37.743 1.38277 38.4184 1.781 38.5896 2.44292C38.6508 2.67942 38.6399 2.91863 38.5692 3.13474C38.4429 3.52346 38.1276 3.84151 37.7023 3.9516ZM27.8872 7.70699C26.7063 8.31726 25.535 8.98733 24.4057 9.69818C23.8269 10.0624 23.0632 9.88846 22.699 9.30945C22.3348 8.73045 22.5087 7.96659 23.0876 7.60234C24.2753 6.85479 25.5078 6.14938 26.7511 5.5065C27.3586 5.19253 28.1046 5.43038 28.4185 6.03793C28.5761 6.34374 28.5951 6.68489 28.4959 6.98935C28.3981 7.28837 28.1888 7.55069 27.8872 7.70563V7.70699ZM19.1483 13.5406C18.1305 14.3982 17.1371 15.3116 16.1941 16.2521C15.7103 16.736 14.9263 16.7346 14.4439 16.2521C13.9601 15.7682 13.9601 14.9854 14.4439 14.5015C15.4345 13.5107 16.4808 12.5497 17.5529 11.6472C18.0761 11.2069 18.8561 11.2735 19.2977 11.7967C19.5845 12.1365 19.6551 12.5851 19.5274 12.9779C19.4581 13.1899 19.3317 13.387 19.1483 13.5406ZM1.6596 56.0609C0.980167 56.137 0.367317 55.6491 0.29122 54.9695C0.13495 53.5777 0.0371112 52.1601 0.000421751 50.756C-0.0172436 50.0724 0.522228 49.5042 1.20574 49.4866C1.88925 49.4689 2.45726 50.0085 2.47492 50.6922C2.5089 52.0255 2.60266 53.3711 2.75213 54.6936C2.77252 54.8743 2.75213 55.051 2.69914 55.2141C2.55374 55.6613 2.15831 56.0065 1.6596 56.0622V56.0609ZM11.9218 21.1628C11.1201 22.2257 10.355 23.3347 9.6484 24.4629C9.28422 25.0419 8.52054 25.2172 7.94166 24.8529C7.36278 24.4887 7.1902 23.7262 7.55166 23.1458C8.29632 21.9593 9.10213 20.789 9.94599 19.6704C10.3577 19.124 11.1336 19.0153 11.6799 19.4285C12.1134 19.7547 12.271 20.3106 12.112 20.7999C12.0713 20.9277 12.0074 21.05 11.9218 21.1628ZM1.39055 45.2731C0.711111 45.1957 0.223276 44.5813 0.300732 43.9031C0.45972 42.5113 0.681216 41.1086 0.957066 39.7332C1.08888 39.0617 1.74521 38.6295 2.41513 38.7627C3.08506 38.8973 3.5199 39.5497 3.38537 40.2211C3.12311 41.5286 2.91248 42.862 2.76165 44.1844C2.75213 44.2687 2.73311 44.3503 2.70865 44.4277C2.53064 44.9755 1.98573 45.3425 1.3919 45.2745L1.39055 45.2731ZM6.58279 30.2067C6.03924 31.4205 5.54189 32.675 5.10298 33.9336C4.87877 34.5792 4.17215 34.9203 3.52669 34.6961C2.88938 34.4745 2.54966 33.7841 2.75621 33.1452C2.75893 33.1371 2.76165 33.1289 2.76436 33.1208C3.22502 31.7956 3.74954 30.4758 4.32163 29.1982C4.60156 28.5744 5.33263 28.2944 5.95771 28.5744C6.54066 28.8353 6.82331 29.4918 6.63035 30.0858C6.61676 30.1279 6.60045 30.1687 6.58279 30.2094V30.2067Z" fill="#7522DE"/>
<path d="M4.44952 63.7291C4.52426 63.4967 4.53241 63.2412 4.45767 62.9897C4.27287 62.3781 4.09893 61.7543 3.93723 61.1318C3.76601 60.4698 3.09065 60.0716 2.42888 60.2429C1.76711 60.4141 1.3676 61.0896 1.54018 61.7515C1.70868 62.4053 1.89349 63.0631 2.08644 63.706C2.28348 64.3598 2.97515 64.7308 3.62876 64.5338C4.03235 64.4114 4.32722 64.1029 4.44816 63.7305L4.44952 63.7291Z" fill="#BDD0FB"/>
</g>
<g opacity="0.3">
<path d="M28.6044 92.7315C28.7892 92.1634 28.5391 91.5286 27.9915 91.2473C27.4235 90.9564 26.8514 90.6492 26.2929 90.3326C25.6977 89.9955 24.9422 90.2062 24.6066 90.8015C24.2682 91.3995 24.4802 92.1525 25.0754 92.4882C25.6638 92.8212 26.2657 93.1447 26.8636 93.4505C27.4724 93.7617 28.2184 93.5212 28.5296 92.9123C28.5609 92.8525 28.5853 92.7913 28.6057 92.7288L28.6044 92.7315Z" fill="#7522DE"/>
<path d="M95.6288 67.0841C95.3855 67.7229 94.6708 68.045 94.0321 67.8017C93.3934 67.5584 93.0728 66.8449 93.316 66.2047C93.778 64.9882 94.1965 63.7323 94.5634 62.4588C94.7496 61.8037 95.4385 61.4231 96.0962 61.612C96.7526 61.801 97.1317 62.4873 96.9428 63.1452C96.7838 63.697 96.6167 64.2434 96.44 64.7857C96.1886 65.5591 95.9169 66.3324 95.6301 67.0854L95.6288 67.0841ZM96.9618 57.5957C96.2851 57.4965 95.8177 56.8685 95.9169 56.1917C96.1057 54.8923 96.243 53.5712 96.3232 52.265C96.3626 51.5827 96.9523 51.0635 97.6345 51.1043C98.3166 51.1464 98.8357 51.7336 98.7936 52.4159C98.7093 53.7914 98.5653 55.1818 98.3655 56.5491C98.3547 56.6198 98.3384 56.6891 98.318 56.7544C98.1345 57.3171 97.5679 57.684 96.9618 57.5957ZM92.8051 73.2112C92.1446 74.4195 91.4231 75.6169 90.6594 76.7682C90.2816 77.3377 89.5139 77.494 88.9431 77.1161C88.3738 76.7383 88.2175 75.9703 88.5953 75.3995C89.3195 74.3053 90.0044 73.1691 90.6322 72.0219C90.9611 71.4225 91.7125 71.201 92.3131 71.5299C92.8431 71.8208 93.0768 72.4419 92.8961 72.9978C92.873 73.0699 92.8417 73.1419 92.8051 73.2099V73.2112ZM97.6032 46.9955C96.9211 47.0472 96.3259 46.5375 96.2742 45.8552C96.1737 44.5476 96.0174 43.2306 95.8068 41.9367C95.6967 41.2612 96.1547 40.6264 96.83 40.5163C97.5054 40.4062 98.14 40.8643 98.25 41.5398C98.4715 42.9017 98.636 44.2894 98.742 45.6662C98.7542 45.832 98.7338 45.9938 98.6862 46.1433C98.5354 46.6068 98.1182 46.9561 97.6032 46.9955ZM86.561 82.1192C85.6506 83.1522 84.6844 84.1607 83.687 85.1162C83.1938 85.5892 82.4111 85.5729 81.9368 85.0795C81.4639 84.5861 81.4802 83.8019 81.9735 83.3289C82.9206 82.421 83.8392 81.4627 84.7035 80.4814C85.156 79.9677 85.9373 79.9187 86.451 80.3713C86.8328 80.7084 86.9578 81.229 86.8097 81.6843C86.7594 81.8406 86.6765 81.9887 86.561 82.1192ZM78.5138 89.4424C77.3982 90.2539 76.2336 91.0272 75.0555 91.7408C74.4712 92.0955 73.7102 91.908 73.3555 91.3235C73.0009 90.7377 73.1884 89.9766 73.7727 89.6232C74.8924 88.945 75.9986 88.2097 77.0585 87.439C77.6115 87.0367 78.3861 87.1604 78.7869 87.7136C79.0288 88.0466 79.0805 88.4611 78.9622 88.8254C78.8848 89.066 78.7326 89.2834 78.5125 89.4438L78.5138 89.4424ZM69.0629 94.837C67.7964 95.3861 66.4919 95.8876 65.186 96.328C64.5378 96.5468 63.8367 96.1989 63.6179 95.5506C63.3991 94.9022 63.7483 94.1995 64.3952 93.9821C65.6358 93.5635 66.8737 93.0877 68.0791 92.5658C68.7069 92.294 69.4352 92.5821 69.707 93.2101C69.832 93.4982 69.8388 93.8081 69.7491 94.084C69.6431 94.4102 69.4026 94.6902 69.0642 94.8384L69.0629 94.837ZM58.6594 98.0419C57.3032 98.3002 55.9199 98.504 54.5488 98.6468C53.8694 98.7174 53.2606 98.2241 53.1899 97.5431C53.1193 96.8635 53.6139 96.2546 54.2933 96.1839C55.5951 96.048 56.9078 95.855 58.1974 95.609C58.8686 95.4812 59.5168 95.9216 59.6445 96.593C59.6853 96.8051 59.669 97.0144 59.6065 97.206C59.472 97.6219 59.12 97.9522 58.6607 98.0406L58.6594 98.0419ZM47.8006 98.8819C46.4241 98.8357 45.0313 98.7297 43.6615 98.5666C42.9821 98.4864 42.497 97.8693 42.5785 97.1911C42.6587 96.5142 43.2742 96.0276 43.9537 96.1078C45.2555 96.2628 46.579 96.3633 47.8862 96.4082C48.5698 96.4313 49.1038 97.0049 49.0807 97.6872C49.0766 97.8068 49.0562 97.921 49.0209 98.0283C48.8551 98.5394 48.3659 98.9009 47.8006 98.8819ZM37.0343 97.3188C36.0519 97.0647 35.0653 96.7765 34.1019 96.4639C33.7526 96.3498 33.4061 96.2329 33.0623 96.1133C32.4169 95.8876 32.0608 95.1849 32.3027 94.5366C32.5283 93.891 33.2336 93.5499 33.879 93.7755C34.2065 93.8897 34.5367 94.0011 34.8683 94.1098C35.7842 94.4075 36.7218 94.6807 37.6567 94.924C38.3184 95.0952 38.7166 95.7707 38.544 96.4327C38.5372 96.4571 38.5304 96.4816 38.5223 96.5061C38.3212 97.1231 37.6716 97.486 37.0357 97.3202L37.0343 97.3188Z" fill="#7522DE"/>
<path d="M96.7011 35.6834C96.7772 35.4496 96.784 35.19 96.7065 34.9372C96.5095 34.297 96.2948 33.6473 96.0692 33.0099C95.8409 32.3656 95.1343 32.0272 94.4902 32.2542C93.8461 32.4825 93.5077 33.1879 93.7346 33.8336C93.9493 34.4397 94.1518 35.0568 94.3393 35.6644C94.5405 36.3181 95.2321 36.6851 95.8857 36.4839C96.2866 36.3603 96.5788 36.0531 96.6997 35.682L96.7011 35.6834Z" fill="#7522DE"/>
</g>
<path d="M77.9572 25.7269C77.824 25.5189 77.5726 25.4197 77.3335 25.4781L70.4943 27.1526C68.1312 24.8665 65.3849 22.9406 62.3288 21.4876L61.4959 14.4988C61.466 14.2541 61.2852 14.0543 61.0434 14.0013L52.7896 12.2126C52.5477 12.1596 52.3004 12.267 52.1726 12.4777L48.5214 18.4947C45.1378 18.5518 41.8412 19.1675 38.7443 20.2712L33.211 15.9164C33.0167 15.7641 32.7476 15.7506 32.5397 15.8851L25.4382 20.4587C25.2303 20.5919 25.1311 20.8434 25.1896 21.0826L26.8637 27.9233C24.5781 30.2869 22.6512 33.0338 21.1999 36.0906L14.2126 36.9237C13.968 36.9536 13.7683 37.1344 13.7153 37.3763L11.927 45.6333C11.8754 45.8752 11.9813 46.1226 12.192 46.2504L18.2077 49.9025C18.2648 53.2868 18.8803 56.5841 19.9837 59.6817L15.6286 65.2163C15.4764 65.4106 15.4628 65.6797 15.5973 65.8877L20.1699 72.9907C20.3031 73.1987 20.5545 73.2979 20.7936 73.2394L27.6328 71.5649C29.9959 73.8511 32.7422 75.777 35.7983 77.23L36.6313 84.2188C36.6598 84.4635 36.8419 84.6633 37.0838 84.7163L45.3389 86.505C45.5808 86.5566 45.8281 86.4506 45.9558 86.2399L49.6071 80.2229C52.9907 80.1658 56.2873 79.5501 59.3842 78.4464L64.9175 82.8012C65.1118 82.9534 65.3809 82.967 65.5888 82.8325L72.6902 78.2589C72.8981 78.1257 72.9973 77.8742 72.9389 77.635L71.2648 70.7943C73.5504 68.4307 75.4759 65.6838 76.9285 62.627L83.9158 61.7939C84.1604 61.764 84.3602 61.5832 84.4132 61.3413L86.2015 53.0843C86.2531 52.8424 86.1471 52.595 85.9365 52.4672L79.9208 48.8151C79.8637 45.4308 79.2481 42.1334 78.1447 39.0359L82.4999 33.5013C82.6521 33.307 82.6657 33.0379 82.5312 32.8299L77.9586 25.7269H77.9572Z" fill="#7522DE" fill-opacity="0.2"/>
<path d="M56.6695 53.1337C54.5877 57.3281 49.4838 59.0474 45.2903 56.9652C43.2588 55.9567 41.741 54.2183 41.018 52.0681C40.2951 49.9192 40.4514 47.6154 41.4597 45.5835C43.5415 41.3891 48.6454 39.6697 52.8388 41.752C56.6532 43.6453 58.4197 48.0422 57.141 51.9784C57.0147 52.3685 56.857 52.7545 56.6695 53.1323V53.1337ZM42.896 51.4361C43.4504 53.0848 44.6136 54.4181 46.1722 55.1915C49.3873 56.7871 53.3009 55.4687 54.8962 52.2529C56.4929 49.0371 55.1734 45.1227 51.9583 43.5271C48.7432 41.9314 44.8297 43.2498 43.2344 46.4656C43.0903 46.7578 42.968 47.0555 42.8688 47.3599C42.4394 48.6797 42.4449 50.0973 42.896 51.4374V51.4361Z" fill="url(#paint9_linear_5272_1527)"/>
<path d="M68.7432 55.9363C68.9633 55.2608 69.1495 54.569 69.3031 53.865C69.3506 53.6434 69.3955 53.4205 69.4362 53.1976C69.6373 52.0967 69.7515 50.9821 69.776 49.8703C69.776 49.8554 69.776 49.8404 69.776 49.8255C69.776 49.782 69.7773 49.7399 69.7773 49.6964C69.7773 49.6121 69.7787 49.5292 69.7787 49.4449C69.7787 49.2247 69.636 49.0385 69.4376 48.9733C69.3887 48.957 69.337 48.9488 69.284 48.9488C69.0109 48.9488 68.7894 49.1704 68.788 49.4436C68.7867 50.8517 68.6331 52.2679 68.3328 53.6543C66.8422 60.5426 61.9285 65.8243 55.7633 68.1036C52.3348 69.3717 48.5178 69.7115 44.6885 68.8811C44.0172 68.7356 43.3568 68.5576 42.7127 68.3469C38.3738 66.9361 34.6831 64.0982 32.1801 60.2096C29.3047 55.7433 28.3399 50.4235 29.4651 45.2315C31.7887 34.509 42.3947 27.6819 53.1094 30.0047C53.7698 30.1474 54.4207 30.3241 55.0594 30.532C57.8274 31.4332 60.3671 32.9283 62.491 34.9222C62.5454 34.9738 62.6093 35.0105 62.6772 35.0323C62.8539 35.0894 63.0563 35.0445 63.1909 34.9004C63.377 34.7006 63.3689 34.388 63.1678 34.2005C60.9379 32.1073 58.2704 30.5361 55.3651 29.5915C54.6952 29.3727 54.0117 29.1878 53.3187 29.0383C42.0686 26.6 30.9326 33.775 28.4962 45.0235C27.3153 50.4738 28.3277 56.0587 31.3457 60.7478C33.9738 64.8308 37.8479 67.8087 42.4029 69.2916C43.0796 69.5117 43.7712 69.6993 44.4765 69.8515C49.9269 71.0326 55.5092 70.0201 60.1986 67.0014C64.2807 64.3727 67.2593 60.495 68.7405 55.9377L68.7432 55.9363Z" fill="#7522DE" fill-opacity="0.2"/>
<defs>
<filter id="filter0_d_5272_1527" x="185" y="204" width="68" height="36" filterUnits="userSpaceOnUse" color-interpolation-filters="sRGB">
<feFlood flood-opacity="0" result="BackgroundImageFix"/>
<feColorMatrix in="SourceAlpha" type="matrix" values="0 0 0 0 0 0 0 0 0 0 0 0 0 0 0 0 0 0 127 0" result="hardAlpha"/>
<feOffset dy="4"/>
<feGaussianBlur stdDeviation="2"/>
<feComposite in2="hardAlpha" operator="out"/>
<feColorMatrix type="matrix" values="0 0 0 0 1 0 0 0 0 1 0 0 0 0 1 0 0 0 0.25 0"/>
<feBlend mode="normal" in2="BackgroundImageFix" result="effect1_dropShadow_5272_1527"/>
<feBlend mode="normal" in="SourceGraphic" in2="effect1_dropShadow_5272_1527" result="shape"/>
</filter>
<filter id="filter1_d_5272_1527" x="253" y="204" width="68" height="36" filterUnits="userSpaceOnUse" color-interpolation-filters="sRGB">
<feFlood flood-opacity="0" result="BackgroundImageFix"/>
<feColorMatrix in="SourceAlpha" type="matrix" values="0 0 0 0 0 0 0 0 0 0 0 0 0 0 0 0 0 0 127 0" result="hardAlpha"/>
<feOffset dy="4"/>
<feGaussianBlur stdDeviation="2"/>
<feComposite in2="hardAlpha" operator="out"/>
<feColorMatrix type="matrix" values="0 0 0 0 1 0 0 0 0 1 0 0 0 0 1 0 0 0 0.25 0"/>
<feBlend mode="normal" in2="BackgroundImageFix" result="effect1_dropShadow_5272_1527"/>
<feBlend mode="normal" in="SourceGraphic" in2="effect1_dropShadow_5272_1527" result="shape"/>
</filter>
<linearGradient id="paint0_linear_5272_1527" x1="127.679" y1="45.9412" x2="139.245" y2="45.9412" gradientUnits="userSpaceOnUse">
<stop stop-color="#DAE3FE"/>
<stop offset="1" stop-color="#E9EFFD"/>
</linearGradient>
<linearGradient id="paint1_linear_5272_1527" x1="270.569" y1="344.717" x2="298.22" y2="411.625" gradientUnits="userSpaceOnUse">
<stop stop-color="#4F52FF"/>
<stop offset="1" stop-color="#4042E2"/>
</linearGradient>
<linearGradient id="paint2_linear_5272_1527" x1="281.264" y1="362.214" x2="321.884" y2="422.132" gradientUnits="userSpaceOnUse">
<stop stop-color="#4F52FF"/>
<stop offset="1" stop-color="#4042E2"/>
</linearGradient>
<linearGradient id="paint3_linear_5272_1527" x1="330.716" y1="190.786" x2="357.404" y2="221.584" gradientUnits="userSpaceOnUse">
<stop/>
<stop offset="0.773958"/>
</linearGradient>
<linearGradient id="paint4_linear_5272_1527" x1="313.982" y1="212.791" x2="351.228" y2="220.262" gradientUnits="userSpaceOnUse">
<stop/>
<stop offset="1"/>
</linearGradient>
<linearGradient id="paint5_linear_5272_1527" x1="353.301" y1="238.483" x2="326.694" y2="187.573" gradientUnits="userSpaceOnUse">
<stop stop-color="#FEBBBA"/>
<stop offset="1" stop-color="#FF928E"/>
</linearGradient>
<linearGradient id="paint6_linear_5272_1527" x1="367.251" y1="288.762" x2="335.744" y2="299.093" gradientUnits="userSpaceOnUse">
<stop stop-color="#09005D"/>
<stop offset="1" stop-color="#1A0F91"/>
</linearGradient>
<linearGradient id="paint7_linear_5272_1527" x1="293.182" y1="267.277" x2="343.533" y2="313.342" gradientUnits="userSpaceOnUse">
<stop stop-color="#09005D"/>
<stop offset="1" stop-color="#1A0F91"/>
</linearGradient>
<linearGradient id="paint8_linear_5272_1527" x1="310.234" y1="274.114" x2="299.936" y2="289.617" gradientUnits="userSpaceOnUse">
<stop stop-color="#4F52FF"/>
<stop offset="1" stop-color="#4042E2"/>
</linearGradient>
<linearGradient id="paint9_linear_5272_1527" x1="40.5696" y1="49.3579" x2="57.5528" y2="49.3579" gradientUnits="userSpaceOnUse">
<stop stop-color="#DAE3FE"/>
<stop offset="1" stop-color="#E9EFFD"/>
</linearGradient>
<clipPath id="clip0_5272_1527">
<rect width="381" height="380" fill="white" transform="translate(76 13)"/>
</clipPath>
</defs>
</svg>
