<svg xmlns="http://www.w3.org/2000/svg" xmlns:xlink="http://www.w3.org/1999/xlink" width="70" height="70" viewBox="0 0 70 70">
  <defs>
    <clipPath id="clip-path">
      <rect id="Rectangle_5916" data-name="Rectangle 5916" width="70" height="70" transform="translate(438 528)" fill="#fff" stroke="#707070" stroke-width="1"/>
    </clipPath>
  </defs>
  <g id="Partner_Broker_Account_black_color" data-name="Partner Broker Account black color" transform="translate(-438 -528)" clip-path="url(#clip-path)">
    <g id="Group_962" data-name="Group 962" transform="translate(16836.047 22552.951)">
      <path id="Path_2585" data-name="Path 2585" d="M97.74,111.033a10.964,10.964,0,0,1,.559,8.179,11.208,11.208,0,0,1-16.929,5.859,2.544,2.544,0,0,0-1.336-.422c-8-.025-16-.012-24-.022a4.715,4.715,0,0,1-4.921-5.222,16.984,16.984,0,0,1,.927-3.153c.433-1.32.9-2.628,1.4-4.079a9.693,9.693,0,0,1-5.615-.458,8.95,8.95,0,0,1-4.28-3.605l1.141-.733a7.838,7.838,0,0,0,6.1,3.606,7.469,7.469,0,0,0,4.857-1.344,7.742,7.742,0,0,0-5.7-14.011c-4,.673-6.229,3.725-6.4,8.764-.034.033-.064.086-.1.1-1.289.308-1.3.3-1.312-1.024a9.129,9.129,0,0,1,17.769-3.153c.156.439.345.645.837.54a4.924,4.924,0,0,1,1.023-.062c5.823,0,11.646.006,17.468-.007a5.808,5.808,0,0,1,4.779,2.138,14.289,14.289,0,0,1,1.141,1.992,11.28,11.28,0,0,1,10.355,2.972l-1.007.92c-.228-.184-.451-.363-.673-.544a9.759,9.759,0,1,0-8.5,17.024,9.766,9.766,0,0,0,11.554-12.673c-.36-1.119-.384-1.111.864-1.578m-38.115,6.6c0-.906.027-1.733-.01-2.557-.023-.519.164-.678.672-.671.488.007.789.056.755.666-.047.821-.012,1.647-.012,2.517.331.018.569.042.807.042,1.517,0,3.034-.027,4.549.017a.8.8,0,0,0,.951-.714c.733-2.863,1.508-5.716,2.244-8.578a1.124,1.124,0,0,0-.1-.81c-1.124-1.689-2.278-3.36-3.445-5.02a.847.847,0,0,0-.588-.32c-1.467-.025-2.935-.007-4.4-.009-.47,0-.687.144-.675.69a8.918,8.918,0,0,1-4.814,8.446,1.2,1.2,0,0,0-.514.568c-.833,2.348-1.71,4.685-2.43,7.069A3.266,3.266,0,0,0,55.8,123.2c4.085.03,8.171,0,12.256.017.421,0,.6-.126.675-.555a5.833,5.833,0,0,1,1.6-3.077c.124-.13.227-.281.433-.54H69.695c-3.6,0-7.192,0-10.788-.01-.234,0-.594-.076-.678-.233-.34-.633.023-1.157.75-1.168.17,0,.341,0,.646,0m23.986-12.285c-.193-1.879-2.334-3.136-3.84-3.152-1.37-.014-2.741-.026-4.109.012a1.109,1.109,0,0,0-.774.387c-1.15,1.613-2.267,3.249-3.371,4.894a1.038,1.038,0,0,0-.165.738q1.161,4.506,2.387,8.995a.621.621,0,0,0,.416.389c.8.039,1.6.018,2.409.018-.477-5.761,1.871-9.807,7.047-12.281M70.117,123.146h9c-.5-.795-.972-1.528-1.424-2.276-.361-.6-.558-1.485-1.078-1.746a4.621,4.621,0,0,0-2.232-.045,4.716,4.716,0,0,0-4.268,4.067m2.253-5.55-1.8-6.776c-.7,2-1.229,3.974-1.752,5.952-.068.256-.125.514-.2.823Zm-1.892-12.313.345.721,2.573-3.757H67.571L70.141,106l.337-.716" transform="translate(-16434 -22107.914)" fill="#ffffff"/>
      <path id="Path_2586" data-name="Path 2586" d="M139.131,329.64l5.92-4.267.831,1.113-6.016,4.368c.378.631.729,1.211,1.076,1.795a2.33,2.33,0,0,1-1.841,3.775.659.659,0,0,0-.443.268c-1.051,1.916-1.762,2.227-3.765,1.611-1.844,2.072-2.732,2.205-4.712.71-1.218,1.263-2.24,1.5-3.316.752a10.751,10.751,0,0,1-.89-.764c-.273-.239-.544-.482-.944-.837-.434.478-.829.939-1.253,1.373a2.4,2.4,0,0,1-2.563.645,2.432,2.432,0,0,1-1.71-1.935.857.857,0,0,0-.537-.5,2.458,2.458,0,0,1-1.951-1.958.641.641,0,0,0-.587-.6,2.458,2.458,0,0,1-1.978-1.939.818.818,0,0,0-.369-.525c-2.263-.877-2.744-2.08-1.582-4.291l-3.918-1.9.6-1.257c1.344.655,2.66,1.277,3.956,1.938a.584.584,0,0,0,.821-.1,2.481,2.481,0,0,1,4.244,1.493,1.463,1.463,0,0,0,.069.229,2.547,2.547,0,0,1,2.474,2.339,7.494,7.494,0,0,1,1.788,1.012c.415.418.451,1.213.867,1.628s1.227.448,1.628.872a6,6,0,0,1,.8,1.739,3.594,3.594,0,0,0,.438.92,12.928,12.928,0,0,0,1.181,1.1c.4.356.836.472,1.235.06a.808.808,0,0,0-.09-1.232c-1.081-1.129-2.161-2.259-3.289-3.439l1.069-1.055c.258.325.462.628.711.889q2.048,2.155,4.114,4.291c.7.726,1.346.82,1.919.3.531-.481.481-1.258-.148-1.939q-2.141-2.319-4.294-4.626c-.247-.266-.491-.536-.8-.879l1.205-1.073a3.207,3.207,0,0,0,.381.719c1.886,2.054,3.793,4.09,5.682,6.141a1.3,1.3,0,0,0,1.351.523,1.092,1.092,0,0,0,.456-1.873c-1.3-1.528-2.626-3.033-3.939-4.549-.59-.681-1.177-1.365-1.818-2.107l1.037-.906c.514.582,1.011,1.138,1.5,1.7q2.168,2.491,4.331,4.987c.08.092.16.186.243.275a.91.91,0,0,0,1.307.2.873.873,0,0,0,.227-1.295c-.945-1.421-1.852-2.874-2.891-4.224-1.46-1.9-3.014-3.726-4.552-5.565a12.422,12.422,0,0,0-1.621-1.687,2.788,2.788,0,0,0-3.756.018c-.779.631-1.5,1.335-2.274,1.969a6.882,6.882,0,0,1-1.4.924,1.865,1.865,0,0,1-2.707-1.149,3.577,3.577,0,0,1,.181-2.993,27.328,27.328,0,0,1,1.952-2.9,4.188,4.188,0,0,1,.7-.58c-1.09,0-1.937-.06-2.771.014-1.289.114-2.57.321-3.854.486a.813.813,0,0,1-.362.005c-1.666-.619-3.329-1.248-5.052-1.9l.493-1.3c1.247.469,2.462.893,3.649,1.386a4.55,4.55,0,0,0,2.206.254c2.335-.183,4.681-.236,7.022-.357a3.026,3.026,0,0,0,1.124-.211,10.563,10.563,0,0,1,10.514.493,3.467,3.467,0,0,0,3.7.374l.74,1.174a4.324,4.324,0,0,1-4.586-.031,9.733,9.733,0,0,0-5.8-1.764,10.094,10.094,0,0,0-7.668,4.037,4.087,4.087,0,0,0-.975,2.853c.072.9.534,1.163,1.258.639a20.26,20.26,0,0,0,2.3-1.926c2.685-2.633,5.507-1.793,7.388.444,1.857,2.208,3.675,4.45,5.513,6.675.246.3.515.578.816.913M119.49,331.3c-.269-.312-.471-.746-.79-.863a1.405,1.405,0,0,0-1.127.162,9.48,9.48,0,0,0-1.413,1.369,1.106,1.106,0,0,0-.05,1.524,1.058,1.058,0,0,0,1.568.021,17.429,17.429,0,0,0,1.34-1.346,4.751,4.751,0,0,0,.472-.868m-5.317.045c.319-.063.508-.043.6-.128a16.221,16.221,0,0,0,1.924-1.964c.165-.221-.051-.9-.293-1.209a.865.865,0,0,0-1.309-.038,10.544,10.544,0,0,0-1.534,1.558,1.394,1.394,0,0,0-.117,1.134c.107.3.53.479.733.647m5.093,5.092c.293-.075.475-.067.566-.154a16.31,16.31,0,0,0,1.924-1.958,1.269,1.269,0,0,0-.29-1.192,1.3,1.3,0,0,0-1.232-.076,7.478,7.478,0,0,0-1.656,1.629,1.272,1.272,0,0,0-.071,1.08c.128.3.535.486.759.672m5.263-.051c-.242-.3-.426-.746-.737-.869a1.373,1.373,0,0,0-1.127.137,9.913,9.913,0,0,0-1.463,1.42,1.047,1.047,0,0,0,0,1.508,1.071,1.071,0,0,0,1.512.015c.486-.441.951-.908,1.391-1.395a4.067,4.067,0,0,0,.423-.817" transform="translate(-16490.695 -22296.006)" fill="#ffffff"/>
      <path id="Path_2587" data-name="Path 2587" d="M188.514,34.151a8.054,8.054,0,1,1,7.813-8.527,8.1,8.1,0,0,1-7.813,8.527m-.232-1.408a6.645,6.645,0,1,0-6.669-6.642,6.643,6.643,0,0,0,6.669,6.642" transform="translate(-16551.785 -22043)" fill="#ffffff"/>
      <path id="Path_2588" data-name="Path 2588" d="M335,201.717c-.78.659-1.234.877-1.974.294a2.944,2.944,0,0,0-3.076-.21,1.214,1.214,0,0,0-.232,2.215,7.979,7.979,0,0,0,1.759.652,13.928,13.928,0,0,1,2.174.8,2.52,2.52,0,0,1,1.268,2.548,2.493,2.493,0,0,1-1.833,2.25c-.691.23-1.34.383-1.027,1.379h-1.335c-.031-.093-.1-.188-.085-.271.109-.687-.256-.908-.866-1.053a2.835,2.835,0,0,1-1.938-1.539l1.1-.6a3.328,3.328,0,0,0,3.439.855c.567-.162,1.06-.44,1.137-1.1a1.338,1.338,0,0,0-.871-1.465c-.509-.217-1.074-.3-1.6-.472a10.843,10.843,0,0,1-1.912-.688,2.578,2.578,0,0,1-1.375-2.635,2.464,2.464,0,0,1,1.769-2.217c.7-.247,1.388-.386,1.11-1.4h1.418c-.271.961.322,1.129,1.023,1.389A10.4,10.4,0,0,1,335,201.717" transform="translate(-16677.674 -22197.449)" fill="#ffffff"/>
      <path id="Path_2589" data-name="Path 2589" d="M87.121,131.532H85.815c.017-.616-.349-.822-.876-1.022a8.621,8.621,0,0,1-1.585-1.051c.693-.458,1.093-.959,1.851-.378a2.132,2.132,0,0,0,2.173.159c.269-.116.612-.451.617-.693a1.433,1.433,0,0,0-.458-.969,2.69,2.69,0,0,0-1.007-.383,12.1,12.1,0,0,1-1.739-.528,2.314,2.314,0,0,1,.278-4.332c.181-.071.369-.123.55-.182.245-.9.245-.9,1.44-.745l.127.724a3.249,3.249,0,0,1,2.182,1.451c-.54.369-.956.836-1.7.253a2.123,2.123,0,0,0-2.175-.14,1.167,1.167,0,0,0-.639.772,1.1,1.1,0,0,0,.488.873,7.73,7.73,0,0,0,1.661.507,2.858,2.858,0,0,1,2.372,1.922,2.19,2.19,0,0,1-1.554,2.811c-.485.156-.794.328-.7.95" transform="translate(-16469.17 -22131.121)" fill="#ffffff"/>
    </g>
  </g>
</svg>
