<svg xmlns="http://www.w3.org/2000/svg" width="12" height="16" viewBox="0 0 12 16">
  <path id="pdf" d="M5.684,8a3.015,3.015,0,0,1-.062-1.466C5.884,6.537,5.859,7.691,5.684,8ZM5.631,9.478a14.42,14.42,0,0,1-.888,1.959,11.507,11.507,0,0,1,1.966-.684A4.048,4.048,0,0,1,5.631,9.478Zm-2.941,3.9c0,.025.412-.169,1.091-1.256A4.319,4.319,0,0,0,2.691,13.378ZM7.75,5H12V15.25a.748.748,0,0,1-.75.75H.75A.748.748,0,0,1,0,15.25V.75A.748.748,0,0,1,.75,0H7V4.25A.752.752,0,0,0,7.75,5ZM7.5,10.369A3.136,3.136,0,0,1,6.166,8.688a4.492,4.492,0,0,0,.194-2.006.783.783,0,0,0-1.494-.212,5.2,5.2,0,0,0,.253,2.406,29.344,29.344,0,0,1-1.275,2.681s0,0-.006,0c-.847.434-2.3,1.391-1.7,2.125A.971.971,0,0,0,2.806,14c.559,0,1.116-.562,1.909-1.931a17.813,17.813,0,0,1,2.469-.725,4.736,4.736,0,0,0,2,.609A.809.809,0,0,0,9.8,10.594C9.366,10.169,8.1,10.291,7.5,10.369Zm4.281-7.087L8.719.219A.749.749,0,0,0,8.188,0H8V4h4V3.809A.748.748,0,0,0,11.781,3.281ZM9.466,11.259c.128-.084-.078-.372-1.338-.281C9.288,11.472,9.466,11.259,9.466,11.259Z" fill="#fff"/>
</svg>
