<svg xmlns="http://www.w3.org/2000/svg" width="20.25" height="27" viewBox="0 0 20.25 27">
  <path id="Icon_awesome-file-pdf_purple" data-name="Icon awesome-file-pdf purple" d="M9.592,13.505a5.088,5.088,0,0,1-.105-2.473C9.93,11.032,9.888,12.978,9.592,13.505ZM9.5,15.994a24.333,24.333,0,0,1-1.5,3.306,19.418,19.418,0,0,1,3.317-1.155A6.831,6.831,0,0,1,9.5,15.994ZM4.54,22.576c0,.042.7-.285,1.84-2.12A7.289,7.289,0,0,0,4.54,22.576ZM13.078,8.438H20.25v17.3A1.263,1.263,0,0,1,18.984,27H1.266A1.263,1.263,0,0,1,0,25.734V1.266A1.263,1.263,0,0,1,1.266,0H11.813V7.172A1.269,1.269,0,0,0,13.078,8.438Zm-.422,9.06A5.293,5.293,0,0,1,10.4,14.66a7.58,7.58,0,0,0,.327-3.386,1.321,1.321,0,0,0-2.521-.359,8.768,8.768,0,0,0,.427,4.061A49.519,49.519,0,0,1,6.486,19.5c-.005,0-.005.005-.011.005-1.429.733-3.881,2.347-2.874,3.586a1.639,1.639,0,0,0,1.134.527c.944,0,1.883-.949,3.222-3.259a30.059,30.059,0,0,1,4.166-1.223A7.992,7.992,0,0,0,15.5,20.166a1.365,1.365,0,0,0,1.039-2.289C15.8,17.16,13.674,17.365,12.656,17.5Zm7.225-11.96L14.713.369a1.265,1.265,0,0,0-.9-.369H13.5V6.75h6.75V6.428A1.262,1.262,0,0,0,19.881,5.537ZM15.973,19c.216-.142-.132-.628-2.257-.475C15.673,19.359,15.973,19,15.973,19Z" fill="#7522de"/>
</svg>
