<svg xmlns="http://www.w3.org/2000/svg" width="350.864" height="268.516" viewBox="0 0 350.864 268.516">
  <g id="pricing_plan" data-name="pricing plan" transform="translate(20301 21138)">
    <g id="_007-money_bag" data-name="007-money bag" transform="translate(-20301 -21138)">
      <g id="Group_843" data-name="Group 843" transform="translate(0 0)">
        <g id="Group_842" data-name="Group 842">
          <path id="Path_2467" data-name="Path 2467" d="M257.6,149.982c-5.98-13.92-14.924-28.405-26.584-43.051a3.831,3.831,0,0,0-5.995,4.773c11.235,14.112,19.827,28.009,25.538,41.3,6.917,16.1,9.621,31.405,8.035,45.482a55.516,55.516,0,0,1-19.149,36.559c-9.033,7.917-21.168,14.182-36.067,18.622-25.771,7.681-51.053,7.178-51.306,7.171-.061,0-.124,0-.185,0-.255,0-25.538.508-51.308-7.171-14.9-4.44-27.034-10.706-36.067-18.622a55.517,55.517,0,0,1-19.149-36.559C42.829,176,51.1,150.857,69.947,123.753c14.248-20.491,31.591-37.627,42.614-47.615h78.831c4.956,4.488,11.329,10.541,18.079,17.693a3.831,3.831,0,0,0,5.573-5.26C209.7,82.9,204.58,77.913,200.186,73.813a11.946,11.946,0,0,0-7.071-21.578H192.02A223.875,223.875,0,0,0,206.088,29.09c5.719-11.231,7.393-18.741,5.268-23.635a9.022,9.022,0,0,0-7.314-5.3c-5.128-.758-11.893,1.3-20.458,3.908-9.671,2.943-20.632,6.279-31.606,6.279S130.042,7.01,120.371,4.067C111.806,1.461,105.04-.6,99.912.159a9.021,9.021,0,0,0-7.314,5.3c-2.126,4.895-.452,12.4,5.268,23.635a223.947,223.947,0,0,0,14.067,23.145h-1.095a11.946,11.946,0,0,0-7.075,21.575C77.221,98.561,32.048,148.765,37.747,199.346c3.33,29.558,24.358,50.9,60.812,61.717a192.99,192.99,0,0,0,53.418,7.439c.229,0,.76.014,1.561.014a194.3,194.3,0,0,0,51.856-7.453c36.454-10.817,57.482-32.158,60.813-61.717C267.943,183.931,265.047,167.323,257.6,149.982ZM99.626,8.507c.1-.239.26-.6,1.4-.768,3.426-.5,10.073,1.517,17.109,3.658,9.678,2.945,21.723,6.611,33.837,6.611s24.159-3.665,33.837-6.611c7.036-2.141,13.685-4.161,17.108-3.658,1.144.169,1.3.529,1.4.768.34.783,2.679,8.585-19.644,40.879a17.757,17.757,0,0,0-1.6,2.85h-62.2a17.719,17.719,0,0,0-1.6-2.85C96.948,17.092,99.287,9.29,99.626,8.507ZM110.839,59.9h82.276a4.288,4.288,0,0,1,0,8.577H110.839a4.288,4.288,0,1,1,0-8.577Z" transform="translate(-37.255 0)" fill="#111011"/>
        </g>
      </g>
      <g id="Group_845" data-name="Group 845" transform="translate(53.651 104.435)">
        <g id="Group_844" data-name="Group 844">
          <path id="Path_2468" data-name="Path 2468" d="M244.684,217.383a62.318,62.318,0,0,0-105.048,31.27,3.831,3.831,0,1,0,7.5,1.565,54.628,54.628,0,1,1,.155,23.157,3.831,3.831,0,0,0-7.48,1.666,62.311,62.311,0,1,0,104.872-57.659Z" transform="translate(-139.554 -199.133)" fill="#111011"/>
        </g>
      </g>
      <g id="Group_847" data-name="Group 847" transform="translate(92.692 129.013)">
        <g id="Group_846" data-name="Group 846">
          <path id="Path_2469" data-name="Path 2469" d="M240.113,280.624l-.343-.126V259.176l.562.04a22.188,22.188,0,0,1,9.114,2.668,7.36,7.36,0,0,0,2.9,1.047c2.558,0,3.9-3.386,3.9-5.2,0-2.469-2.9-4.024-5.328-4.893a36.822,36.822,0,0,0-10.637-1.816l-.509-.015v-3.222c0-.885-1.256-1.786-2.489-1.786-1.475,0-2.389.927-2.389,1.786v3.385l-.47.049c-5.6.589-18.617,3.538-18.617,18.163,0,12.533,9.955,16.072,18.738,19.2l.349.124v24.544l-.565-.044c-6.585-.516-10.11-3.514-12.683-5.7-1.4-1.19-2.5-2.13-3.55-2.13-2.11,0-4.1,2.93-4.1,5.2,0,4.486,7.939,11.129,20.378,11.33l.516.008v3.63c0,.859.914,1.786,2.389,1.786,1.232,0,2.489-.9,2.489-1.785v-3.872l.452-.063c11.331-1.574,17.831-8.927,17.831-20.174C258.054,288.319,249.192,283.963,240.113,280.624Zm-4.618-1.642-.71-.268c-5.462-2.061-9.983-4.261-9.983-10.335,0-5.035,3.493-8.133,10.1-8.959l.589-.073Zm4.292,34.012-.62.115h0V290.486l.731.314c4.757,2.039,9.158,4.871,9.158,11.733C249.057,308.171,245.765,311.886,239.788,312.993Z" transform="translate(-213.998 -245.998)" fill="#111011"/>
        </g>
      </g>
    </g>
    <g id="Group_849" data-name="Group 849" transform="translate(-20104.971 -21028.621)">
      <rect id="Rectangle_5829" data-name="Rectangle 5829" width="150.573" height="146.629" rx="21" transform="translate(0)" fill="#fff"/>
      <g id="Group_848" data-name="Group 848" transform="translate(0)">
        <g id="Rectangle_5825" data-name="Rectangle 5825" transform="translate(0)" fill="none" stroke="#111011" stroke-width="6">
          <rect width="154.834" height="41.194" rx="19" stroke="none"/>
          <rect x="3" y="3" width="148.834" height="35.194" rx="16" fill="none"/>
        </g>
        <g id="Rectangle_5827" data-name="Rectangle 5827" transform="translate(0 70.763)" fill="none" stroke="#111011" stroke-width="6">
          <rect width="154.834" height="39.774" rx="19" stroke="none"/>
          <rect x="3" y="3" width="148.834" height="33.774" rx="16" fill="none"/>
        </g>
        <g id="Rectangle_5826" data-name="Rectangle 5826" transform="translate(0 36.092)" fill="none" stroke="#111011" stroke-width="6">
          <rect width="154.834" height="39.774" rx="19" stroke="none"/>
          <rect x="3" y="3" width="148.834" height="33.774" rx="16" fill="none"/>
        </g>
        <g id="Rectangle_5828" data-name="Rectangle 5828" transform="translate(0 105.435)" fill="none" stroke="#111011" stroke-width="6">
          <rect width="154.834" height="41.194" rx="19" stroke="none"/>
          <rect x="3" y="3" width="148.834" height="35.194" rx="16" fill="none"/>
        </g>
      </g>
    </g>
  </g>
</svg>
