<svg xmlns="http://www.w3.org/2000/svg" width="50.047" height="46.876" viewBox="0 0 50.047 46.876">
  <g id="Group_1" data-name="Group 1" transform="translate(-52 -141)">
    <path id="Path_2095" data-name="Path 2095" d="M23.438,0A23.438,23.438,0,1,1,0,23.438,23.438,23.438,0,0,1,23.438,0Z" transform="translate(53.339 141)" fill="#fff"/>
    <path id="Path_1" data-name="Path 1" d="M18.414,26.231a7.91,7.91,0,0,0,2.3-5.993c0-4.039-1.52-5.646-7.47-7.383l-4.777-1.39c-3.257-1-3.6-1.694-3.6-3.127A9.749,9.749,0,0,1,4.994,7.3,19.458,19.458,0,0,0,2.085,3.17C1.259,3.648,0,5.646,0,8.425c0,4.517,1.563,6.08,6.037,7.339l5.515,1.65c4.039,1.216,4.3,1.911,4.3,3.344a7.961,7.961,0,0,1-.13,1.129A18.978,18.978,0,0,0,18.414,26.231ZM8.686,29.314a21.58,21.58,0,0,0,5.3-.608,15.2,15.2,0,0,0,2.085-4.734,16.189,16.189,0,0,1-7.079,1.3,44.232,44.232,0,0,1-8.6-.955v4A32.581,32.581,0,0,0,8.686,29.314ZM4.734,5.342C6.341,4.43,8.686,4,11.943,4A47.239,47.239,0,0,1,19.2,4.69V.738A31.839,31.839,0,0,0,11.943,0,20.371,20.371,0,0,0,6.862.521,13.578,13.578,0,0,0,4.734,5.342ZM29.848,28.927h4.864V8.3a14.326,14.326,0,0,0-4.864-2.475ZM20.815,4.693H43.658V.568H20.815Z" transform="translate(52 156.382) rotate(-16)" fill="#7522de"/>
  </g>
</svg>
