<svg xmlns="http://www.w3.org/2000/svg" xmlns:xlink="http://www.w3.org/1999/xlink" width="70" height="70" viewBox="0 0 70 70">
  <defs>
    <clipPath id="clip-path">
      <rect id="Rectangle_5915" data-name="Rectangle 5915" width="70" height="70" transform="translate(438 348)" fill="#111011" stroke="#707070" stroke-width="1"/>
    </clipPath>
  </defs>
  <g id="Regular_Demat_Account_black_color" data-name="Regular Demat Account black color" transform="translate(-438 -348)" clip-path="url(#clip-path)">
    <g id="Group_961" data-name="Group 961" transform="translate(17012.766 22192.502)">
      <path id="Path_2570" data-name="Path 2570" d="M90.126,85.821c0-1.758-.02-3.4.008-5.044a15.705,15.705,0,0,1,.188-2.607A4.814,4.814,0,0,1,94.957,74.5q7.529.183,15.065,0a4.79,4.79,0,0,1,4.677,4.189c.131,2.066.088,4.143.125,6.215,0,.255.031.51.057.917h1.154q7.436,0,14.873,0c3.795,0,5.774,1.969,5.774,5.733q0,20.952,0,41.9c0,3.72-1.976,5.683-5.711,5.683H74.007c-3.786,0-5.77-1.972-5.77-5.74q0-20.952,0-41.9c0-3.63,2.024-5.666,5.655-5.674,5.022-.011,10.045,0,15.067,0h1.167m12.314,2.026q-14.384,0-28.768,0c-2.217,0-3.408,1.118-3.426,3.316-.033,4.147-.068,8.3.006,12.442.079,4.451,3.061,7.3,7.49,7.3,3.466,0,6.933-.023,10.4.018.78.009,1.018-.221,1.131-1a13.337,13.337,0,0,1,26.385.056c.1.745.372.95,1.1.942,3.434-.035,6.868-.015,10.3-.016,4.695,0,7.626-2.928,7.641-7.652q.019-5.881,0-11.762c0-2.566-1.1-3.648-3.687-3.648H102.44M134.7,109.919a12.655,12.655,0,0,1-4.586,2.675c-.2.059-.4.471-.413.726-.043,1.262-.014,2.527-.022,3.791a2.4,2.4,0,0,1-2.7,2.7q-1.7.023-3.4,0c-1.832-.023-2.711-.919-2.73-2.777-.011-1.069-.034-2.14.009-3.208.027-.666-.18-.934-.876-.9a29.3,29.3,0,0,1-3.109,0c-.8-.048-1.109.182-1.225,1.036a13.282,13.282,0,0,1-17.436,10.65c-5.122-1.813-8.079-5.518-9-10.869-.049-.283-.317-.748-.5-.755-1.508-.061-3.019-.035-4.468-.035a1.714,1.714,0,0,0-.121.338c-.012,1.328,0,2.657-.034,3.985a2.323,2.323,0,0,1-2.287,2.517c-1.422.07-2.853.069-4.275,0a2.313,2.313,0,0,1-2.285-2.418,22.107,22.107,0,0,1,.012-2.817c.128-1.27-.053-2.237-1.573-2.378a.844.844,0,0,1-.341-.182c-1-.677-2-1.357-3.058-2.08-.016.31-.046.62-.046.931q0,11.278,0,22.555c0,2.676,1.106,3.769,3.791,3.769h56.865c2.736,0,3.809-1.082,3.81-3.844q0-11.229,0-22.458Zm-43.593,2.044a11.341,11.341,0,0,0,22.681.167,11.341,11.341,0,1,0-22.681-.167m21.607-26.2c0-2.376.088-4.7-.034-7.018a2.728,2.728,0,0,0-2.8-2.36q-7.388-.049-14.776,0a2.912,2.912,0,0,0-2.946,3.085c-.018,1.231,0,2.463,0,3.694q0,1.293,0,2.584h2.528c0-1.65-.007-3.233,0-4.817.009-1.525.447-1.961,1.978-1.963q5.735-.008,11.471,0c1.741,0,2.1.363,2.105,2.111,0,1.546,0,3.092,0,4.683Zm-4.5-4.748H96.778v4.723h11.44ZM127.7,112.94c-1.531,0-2.918-.023-4.3.027a.808.808,0,0,0-.528.58c-.052,1.164-.015,2.332-.029,3.5-.006.537.231.76.761.754,1.134-.014,2.27.036,3.4-.038a.98.98,0,0,0,.667-.679c.067-1.322.031-2.648.031-4.142m-45.612,0c-1.518,0-2.875-.028-4.228.029a.882.882,0,0,0-.593.621,30.659,30.659,0,0,0,.006,3.491.984.984,0,0,0,.672.68,29.732,29.732,0,0,0,3.49,0,.906.906,0,0,0,.623-.624c.059-1.349.029-2.7.029-4.2" transform="translate(-16642 -21916)" fill="#111011"/>
      <path id="Path_2577" data-name="Path 2577" d="M93.233,161.314c.249.383.7.777.684,1.147a1.342,1.342,0,0,1-.881.9.771.771,0,0,1-.963-.9c.059-.408.468-.766.721-1.146Z" transform="translate(-16661.195 -21985.938)" fill="#111011"/>
      <path id="Path_2578" data-name="Path 2578" d="M388.881,163.537c-.384.241-.749.635-1.157.686a.777.777,0,0,1-.886-.978,1.342,1.342,0,0,1,.915-.868c.37-.013.755.452,1.134.709q0,.226-.005.452" transform="translate(-16898.637 -21986.793)" fill="#111011"/>
      <path id="Path_2579" data-name="Path 2579" d="M389.075,374.742c-.38.252-.791.738-1.132.693a1.313,1.313,0,0,1-.9-.937c0-.324.566-.864.926-.9.341-.036.737.456,1.109.716q0,.215-.006.429" transform="translate(-16898.826 -22156.945)" fill="#111011"/>
      <path id="Path_2580" data-name="Path 2580" d="M94.3,374.726c-.37.26-.765.754-1.1.718a1.31,1.31,0,0,1-.927-.9c-.01-.32.535-.874.893-.925.338-.048.751.424,1.131.668q0,.219.007.438" transform="translate(-16661.357 -22156.963)" fill="#111011"/>
      <path id="Path_2581" data-name="Path 2581" d="M218.677,236.132c1.44,1.54,2.895,3.1,4.352,4.653.221.236.583.431.65.7a2.023,2.023,0,0,1-.012,1.371c-.318.52-.918.414-1.353.011-.856-.792-1.684-1.614-2.52-2.426-1.511-1.467-3.042-2.914-4.511-4.421-.288-.3-.572-.947-.434-1.219a1.686,1.686,0,0,1,1.208-.671c1.028-.1,2.073,0,3.107-.055a2.631,2.631,0,0,0,2.665-2.115c-1.668,0-3.3,0-4.939,0-.356,0-.777.112-1.054-.039-.395-.216-.894-.584-.97-.962-.128-.641.38-.971,1.033-.973,1.75,0,3.5,0,5.249,0,.193,0,.386-.017.58-.026a2.247,2.247,0,0,0-2.1-1.9c-1.156-.119-2.326-.11-3.49-.124-.686-.009-1.289-.157-1.309-.956-.022-.866.63-1.039,1.338-1.04q4.423-.007,8.846,0c.712,0,1.35.167,1.335,1.037-.014.816-.62.964-1.3.956-.568-.007-1.136,0-1.805,0a15.152,15.152,0,0,0,.713,1.656,1.093,1.093,0,0,0,.669.387c.31.071.721-.083.949.068.328.219.8.715.728.932-.129.39-.637.95-.953.929-1.009-.066-1.344.4-1.71,1.246a4.678,4.678,0,0,1-4.051,2.907c-.348.036-.7.061-.914.08" transform="translate(-16760.082 -22037.992)" fill="#111011"/>
    </g>
  </g>
</svg>
