<svg xmlns="http://www.w3.org/2000/svg" xmlns:xlink="http://www.w3.org/1999/xlink" width="65" height="65" viewBox="0 0 65 65">
  <defs>
    <clipPath id="clip-path">
      <rect id="Rectangle_6113" data-name="Rectangle 6113" width="65" height="65" transform="translate(652 2670)" fill="#ffffff" stroke="#ffffff" stroke-width="1"/>
    </clipPath>
  </defs>
  <g id="Mask_Group_56" data-name="Mask Group 56" transform="translate(-652 -2670)" clip-path="url(#clip-path)">
    <g id="Group_14981" data-name="Group 14981" transform="translate(19721.117 18700.098)">
      <path id="Path_2876" data-name="Path 2876" d="M553.257,280.9H548.82c-1.32,0-1.424-.1-1.431-1.441-.005-1.013,0-2.025,0-3.119-1.251,0-2.436-.012-3.619.014-.163,0-.343.178-.48.309-.447.427-.857.9-1.322,1.3a1.382,1.382,0,0,0-.514,1.208.822.822,0,0,0,.459.83,1.418,1.418,0,0,1,.654,1.712,1.529,1.529,0,0,1-1.486,1.1,1.582,1.582,0,0,1-1.44-1.085,1.469,1.469,0,0,1,.664-1.721.726.726,0,0,0,.446-.837,2.218,2.218,0,0,1,.695-1.738,4.307,4.307,0,0,1,4.4-1.8,9.959,9.959,0,0,0,1.489.011v-2.149H544.8c-.928,0-1.857.014-2.784-.006a.877.877,0,0,0-.955.486,1.435,1.435,0,0,1-1.738.606,1.53,1.53,0,0,1-1.031-1.47,1.5,1.5,0,0,1,1.074-1.434,1.428,1.428,0,0,1,1.718.642.794.794,0,0,0,.832.457c1.788-.018,3.577-.008,5.419-.008v-2.751h-8.326c-.606.993-1.2,1.308-2,1.047a1.532,1.532,0,0,1-1.078-1.438,1.566,1.566,0,0,1,1.116-1.483,1.426,1.426,0,0,1,1.669.632.878.878,0,0,0,.946.5c2.32-.016,4.64-.008,6.96-.008h.711v-4.509c-1.651,0-3.282,0-4.912,0-1.878,0-3.756.01-5.634.007-.325,0-.541.019-.687.415a2.4,2.4,0,0,1-2.844,1.593,2.434,2.434,0,1,1,2.89-3.069c.03.082.053.167.093.3h11.1v-9.107c-1.392,0-2.754-.006-4.116.009a.657.657,0,0,0-.395.2c-.587.569-1.174,1.139-1.734,1.734a1.229,1.229,0,0,0,.214,1.695,1.523,1.523,0,0,1-.791,2.833,1.51,1.51,0,0,1-1.458-1.129,1.409,1.409,0,0,1,.7-1.69.662.662,0,0,0,.407-.787,2.181,2.181,0,0,1,.724-1.793,4.3,4.3,0,0,1,4.342-1.8,13.578,13.578,0,0,0,2.1.017v-2.766h-3.586c-1.3,0-2.608-.018-3.911.017a.951.951,0,0,0-.644.375,1.581,1.581,0,0,1-1.764.73,1.534,1.534,0,0,1,.005-2.95,1.6,1.6,0,0,1,1.766.743.808.808,0,0,0,.512.372c2.518.024,5.035.016,7.684.016,0-.616-.007-1.2,0-1.784.011-.781.251-1.026,1.039-1.031,1.348-.009,2.7,0,4.044,0h.781c0-.955.015-1.832-.013-2.709a.878.878,0,0,0-.287-.489c-.836-.852-1.668-1.708-2.539-2.521a1.4,1.4,0,0,0-.858-.346c-1.988-.03-3.977,0-5.966-.029a.7.7,0,0,0-.8.549,2.4,2.4,0,0,1-3.173,1.35,2.437,2.437,0,1,1,1.9-4.489,2.608,2.608,0,0,1,1.48,1.869c2.249,0,4.479.012,6.708-.01a1.377,1.377,0,0,1,1.1.452c.917.956,1.881,1.869,2.789,2.834a1.452,1.452,0,0,1,.344.858c.045.858.016,1.719.016,2.63h2.106v-3.334c0-1.149,0-2.3,0-3.447,0-.6.086-1.13-.646-1.536a1.409,1.409,0,0,1-.052-2.2,1.542,1.542,0,0,1,2.24.141,1.483,1.483,0,0,1-.333,2.2.943.943,0,0,0-.519,1c.017,2.143.009,4.287.009,6.43v.755h2.824c0-1.781.008-3.541-.015-5.3,0-.14-.19-.317-.335-.411a1.564,1.564,0,0,1-.765-1.8,1.581,1.581,0,0,1,1.432-1.1,1.541,1.541,0,0,1,.737,2.9.745.745,0,0,0-.325.484c-.024,1.721-.015,3.443-.015,5.219h3.193c.008-.188.026-.4.026-.613,0-3.292,0-6.585.009-9.877,0-.393-.058-.619-.491-.775a2.354,2.354,0,0,1-1.525-2.757,2.43,2.43,0,1,1,3.244,2.764c-.313.121-.509.219-.506.628.021,3.447.013,6.894.015,10.341a2.924,2.924,0,0,0,.035.3h3.539a4.76,4.76,0,0,0,.051-.5c0-2.21.011-4.419-.017-6.629a.946.946,0,0,0-.369-.643,1.587,1.587,0,0,1-.711-1.773,1.524,1.524,0,0,1,2.918-.037,1.544,1.544,0,0,1-.684,1.78c-.171.119-.386.338-.388.513-.025,2.406-.017,4.812-.017,7.273H570.8c0-1.675.024-3.35-.014-5.023a1.613,1.613,0,0,1,.557-1.326c.9-.849,1.74-1.76,2.644-2.6a1.578,1.578,0,0,1,.916-.381c.859-.052,1.723-.032,2.584-.011a.743.743,0,0,0,.79-.426,1.459,1.459,0,0,1,1.7-.7,1.585,1.585,0,0,1,1.128,1.475,1.549,1.549,0,0,1-1.13,1.469,1.446,1.446,0,0,1-1.7-.691.709.709,0,0,0-.781-.421,6.851,6.851,0,0,1-1.324-.006,2.472,2.472,0,0,0-2.571,1.064.967.967,0,0,1-.231.237,4.349,4.349,0,0,0-1.874,4.56,21.858,21.858,0,0,1,.021,2.805h3.779c0-1.046-.032-2.078.018-3.106a1.668,1.668,0,0,1,.4-.971q1.093-1.2,2.3-2.293a1.617,1.617,0,0,1,.971-.4c1.921-.037,3.842-.018,5.806-.018.062-.173.116-.334.177-.493a2.428,2.428,0,1,1,2.848,3.227,2.345,2.345,0,0,1-2.777-1.377c-.209-.572-.506-.639-1.013-.63q-2.353.039-4.706,0a1.255,1.255,0,0,0-1.1.465,2.151,2.151,0,0,1-.469.466c-1.912,1.236-2,3.08-1.647,5.16.949,0,1.957,0,2.966,0,1.173,0,1.322.153,1.324,1.348,0,1.454,0,2.909,0,4.411,1.194,0,2.318.006,3.441-.007a.651.651,0,0,0,.406-.166c.6-.583,1.21-1.166,1.78-1.781a1.293,1.293,0,0,0-.273-1.7,1.5,1.5,0,0,1-.644-1.731,1.523,1.523,0,0,1,2.923.013,1.436,1.436,0,0,1-.669,1.715.716.716,0,0,0-.419.85,2.1,2.1,0,0,1-.634,1.633,4.423,4.423,0,0,1-4.565,1.893,8.252,8.252,0,0,0-1.3-.01v3.349h5.539c.1-.163.182-.343.3-.5a1.528,1.528,0,0,1,1.7-.57,1.525,1.525,0,0,1-.046,2.925,1.435,1.435,0,0,1-1.669-.628.863.863,0,0,0-.94-.5c-1.611.019-3.221.008-4.885.008v5.58h1.14c3.116,0,6.231-.009,9.347.012a.709.709,0,0,0,.8-.544,2.377,2.377,0,0,1,2.792-1.469,2.433,2.433,0,1,1-2.812,3.25c-.121-.3-.188-.526-.614-.524-3.469.021-6.938.011-10.407.013a1.56,1.56,0,0,0-.252.052V268.5h1.794c1.878,0,3.756-.007,5.635.006a.725.725,0,0,0,.779-.424,1.446,1.446,0,0,1,1.694-.717,1.52,1.52,0,0,1,1.126,1.463,1.543,1.543,0,0,1-1.1,1.488,1.6,1.6,0,0,1-1.734-.671.987.987,0,0,0-.614-.43c-2.452-.029-4.905-.018-7.358-.015a1.22,1.22,0,0,0-.228.051v2.889c1.135,0,2.236-.035,3.333.02a1.955,1.955,0,0,1,1.025.435c.449.352.8.832,1.236,1.2a2.167,2.167,0,0,1,.924,2.115.746.746,0,0,0,.327.539,1.537,1.537,0,0,1-.7,2.892,1.553,1.553,0,0,1-1.464-1.048,1.518,1.518,0,0,1,.71-1.819,1.3,1.3,0,0,0,.176-1.666c-.561-.594-1.145-1.166-1.736-1.73a.748.748,0,0,0-.461-.194c-1.1-.016-2.205-.009-3.377-.009-.012.278-.032.512-.032.746,0,2.055,0,4.11,0,6.165,0,.908-.222,1.12-1.146,1.125-1.055.005-2.11,0-3.241,0,0,1.129-.005,2.182.008,3.235a.725.725,0,0,0,.169.342,1.742,1.742,0,0,0,.229.238c.757.742,1.4,1.766,2.3,2.144a8.884,8.884,0,0,0,3.144.121c.773.007,1.548-.022,2.32.011a.682.682,0,0,0,.81-.532,2.351,2.351,0,0,1,2.652-1.507,2.431,2.431,0,1,1-2.682,3.237c-.054-.143-.105-.287-.173-.473-1.9,0-3.8-.014-5.695.01a1.419,1.419,0,0,1-1.164-.465c-.74-.789-1.542-1.52-2.281-2.31a1.342,1.342,0,0,1-.331-.8c-.038-1.054-.015-2.111-.015-3.207h-2.519a1.113,1.113,0,0,0-.081.291c-.005,1.812-.014,3.624.011,5.436a.82.82,0,0,0,.343.542,1.568,1.568,0,0,1,.746,1.813,1.547,1.547,0,0,1-1.51,1.075,1.516,1.516,0,0,1-1.411-1.109,1.545,1.545,0,0,1,.774-1.8.734.734,0,0,0,.316-.488c.022-1.9.014-3.8.014-5.75h-2.759c-.014.2-.039.388-.039.579,0,2.431,0,4.861,0,7.292,0,.343.018.592.4.789a1.4,1.4,0,0,1,.708,1.686,1.535,1.535,0,0,1-1.451,1.145,1.569,1.569,0,0,1-1.472-1.044,1.6,1.6,0,0,1,.648-1.8,1,1,0,0,0,.43-.62c.029-2.585.018-5.17.015-7.756a1.776,1.776,0,0,0-.052-.286h-4.114c-.009.2-.028.412-.028.623,0,3.292.008,6.585-.013,9.877a.707.707,0,0,0,.552.8,2.367,2.367,0,0,1,1.47,2.733,2.434,2.434,0,0,1-4.756.023,2.353,2.353,0,0,1,1.445-2.743.742.742,0,0,0,.569-.856c-.015-3.27-.008-6.54-.008-9.811v-.636h-2.265v2.517c0,1.5.007,3.005-.007,4.508a.716.716,0,0,0,.41.786,1.451,1.451,0,0,1,.725,1.689,1.531,1.531,0,0,1-2.947.048,1.582,1.582,0,0,1,.716-1.771c.171-.115.386-.334.388-.507.025-2.4.017-4.809.017-7.267h-2.212c0,1.335-.093,2.66.026,3.966a3.243,3.243,0,0,1-1.312,3.148,8.283,8.283,0,0,0-1.451,1.449,2.022,2.022,0,0,1-1.958.8c-.459-.047-.927,0-1.391-.011-.634-.015-1.172-.038-1.6.673a1.428,1.428,0,0,1-2.207-.005,1.555,1.555,0,0,1,.148-2.2,1.462,1.462,0,0,1,2.2.3c.274.491.619.464,1.057.531a4.7,4.7,0,0,0,4.536-1.822,3.891,3.891,0,0,0,1.276-3.171c-.115-1.2-.024-2.419-.024-3.671h-3.69c0,.9.029,1.776-.016,2.65a1.449,1.449,0,0,1-.351.856q-1.412,1.491-2.9,2.906a1.393,1.393,0,0,1-.861.347c-2.054.03-4.11.016-6.165.017h-.665a2.472,2.472,0,0,1-2.191,2.042,2.4,2.4,0,0,1-2.635-1.914,2.433,2.433,0,0,1,1.65-2.814,2.382,2.382,0,0,1,2.955,1.361.785.785,0,0,0,.9.6c1.966-.034,3.933,0,5.9-.031a1.4,1.4,0,0,0,.856-.351c.856-.8,1.683-1.629,2.485-2.481a1.366,1.366,0,0,0,.333-.8C553.286,282.568,553.257,281.794,553.257,280.9Zm-4.186-31.335v29.646h29.638V249.569ZM541.786,287.4a1.228,1.228,0,0,0-1.23-1.282,1.242,1.242,0,0,0-1.25,1.2,1.241,1.241,0,1,0,2.48.081Zm23.338-53.082a1.238,1.238,0,1,0-2.475.022,1.238,1.238,0,1,0,2.475-.022Zm-30.063,30.116a1.247,1.247,0,0,0-1.187-1.263,1.234,1.234,0,1,0,1.187,1.263Zm58.926-1.263a1.234,1.234,0,1,0,1.219,1.29A1.236,1.236,0,0,0,593.987,263.168Zm-6.814,25.438a1.256,1.256,0,0,0,1.289-1.164,1.24,1.24,0,0,0-1.185-1.328A1.219,1.219,0,0,0,586,287.271,1.246,1.246,0,0,0,587.173,288.606Zm-22.047,5.828a1.238,1.238,0,1,0-2.474.086,1.238,1.238,0,1,0,2.474-.086Zm-23.341-53.018a1.239,1.239,0,1,0-1.239,1.272A1.227,1.227,0,0,0,541.785,241.417Zm46.682.016a1.264,1.264,0,0,0-1.223-1.236,1.246,1.246,0,0,0-1.252,1.265,1.222,1.222,0,0,0,1.215,1.227A1.239,1.239,0,0,0,588.467,241.433Zm-48.719,32.511a.816.816,0,0,0,.866-.783.76.76,0,0,0-.762-.822.8.8,0,0,0-.1,1.605Zm50.171-5.929c-.454.089-.773.319-.789.821a.8.8,0,0,0,.856.808.774.774,0,0,0,.757-.84C590.726,268.317,590.392,268.076,589.92,268.014Zm-29.025,21.24a.811.811,0,0,0-.8.829.8.8,0,0,0,.863.795.769.769,0,0,0,.737-.852A.78.78,0,0,0,560.895,289.255Zm26.475-11.427a.807.807,0,0,0-.773-.833.782.782,0,0,0-.843.81.742.742,0,0,0,.79.789A.781.781,0,0,0,587.37,277.828Zm-46.305,4.262a.8.8,0,0,0,.843-.78.777.777,0,0,0-.754-.838.81.81,0,0,0-.851.814A.791.791,0,0,0,541.064,282.09Zm47.249-24a.806.806,0,0,0-1.611-.018.824.824,0,0,0,.831.841A.8.8,0,0,0,588.313,258.094Zm-50.508-6.222a.84.84,0,0,0,.846-.761.85.85,0,0,0-.818-.861.811.811,0,0,0-.027,1.622Zm18.624-14.258c-.483.058-.8.3-.805.794a.742.742,0,0,0,.753.823.794.794,0,0,0,.843-.813A.809.809,0,0,0,556.43,237.614Zm12.636,1.111a.82.82,0,0,0-.812-.8.8.8,0,0,0-.8.859.745.745,0,0,0,.825.754A.787.787,0,0,0,569.066,238.725Zm-27.723,21.1a.8.8,0,0,0-.816-.794.755.755,0,0,0-.8.785.788.788,0,0,0,.832.823A.817.817,0,0,0,541.343,259.828Zm-3.9,10.588a.807.807,0,1,0,.013-1.613.761.761,0,0,0-.778.81A.753.753,0,0,0,537.438,270.417ZM560,239.978a.827.827,0,0,0-.878.789.817.817,0,0,0,.846.816.755.755,0,0,0,.757-.825A.745.745,0,0,0,560,239.978Zm9.615,50.931c-.05-.477-.3-.788-.792-.79a.755.755,0,0,0-.816.768.788.788,0,0,0,.824.83A.772.772,0,0,0,569.616,290.909Zm16.951-43a.808.808,0,0,0-.058,1.614.8.8,0,0,0,.848-.808A.79.79,0,0,0,586.567,247.913Zm-14.231,39.838a.78.78,0,0,0-.8.787.746.746,0,0,0,.749.83.8.8,0,0,0,.858-.8A.832.832,0,0,0,572.336,287.752Zm6.543-48.9c-.065.535.2.8.71.782a.73.73,0,0,0,.772-.8.737.737,0,0,0-.79-.79A.63.63,0,0,0,578.878,238.854ZM550.26,289.926a.6.6,0,0,0-.668-.765.749.749,0,0,0-.812.767.8.8,0,0,0,.818.837A.647.647,0,0,0,550.26,289.926Z" transform="translate(-19600.5 -16262)" fill="#ffffff" stroke="#ffffff" stroke-width="0.5"/>
      <path id="Path_2903" data-name="Path 2903" d="M684.573,343.741q0-3.511,0-7.022a3.581,3.581,0,0,1,3.188-3.753,3.627,3.627,0,0,1,3.989,3.028.83.83,0,0,0,.455.53,3.574,3.574,0,0,1,2.518,4.056.769.769,0,0,0,.224.528,3.493,3.493,0,0,1,.039,5.508.774.774,0,0,0-.211.483,3.481,3.481,0,0,1-2.433,3.617.747.747,0,0,0-.609.771,3.6,3.6,0,0,1-7.161-.659Q684.571,347.285,684.573,343.741Zm8.365-2.166c.7-1,.954-1.973.183-2.952a2.925,2.925,0,0,0-2.726-.908,3.75,3.75,0,0,0,.141-.892,4.042,4.042,0,0,0-.288-1.436,2.432,2.432,0,0,0-2.934-.973,2.3,2.3,0,0,0-1.551,2.441q0,6.953,0,13.906a2.309,2.309,0,0,0,1.548,2.443,2.528,2.528,0,0,0,2.954-.959,2.061,2.061,0,0,0,.212-1.766c-.088-.281-.184-.559-.311-.941a3.045,3.045,0,0,0,2.751-.606,2.253,2.253,0,0,0,.329-2.83c1.029-.406,1.9-.984,1.863-2.263C695.07,342.454,694.076,341.968,692.939,341.575Z" transform="translate(-19719.602 -16341.406)" fill="#ffffff" stroke="#ffffff" stroke-width="1"/>
      <path id="Path_2904" data-name="Path 2904" d="M633.021,343.807c0,2.252-.031,4.5.01,6.756a3.719,3.719,0,0,1-5.947,3.341,3.21,3.21,0,0,1-1.4-2.509c-.026-.395-.14-.565-.506-.658a3.524,3.524,0,0,1-2.595-3.671.863.863,0,0,0-.313-.564,3.446,3.446,0,0,1,.051-5.338.855.855,0,0,0,.312-.605,3.5,3.5,0,0,1,2.426-3.963.846.846,0,0,0,.685-.815,3.694,3.694,0,0,1,7.28,1.136Q633.022,340.362,633.021,343.807Zm-8.648-2.218c-1.055.366-2.1.848-2.132,2.262-.03,1.293.932,1.8,1.891,2.281a2.2,2.2,0,0,0,.4,2.823,3.429,3.429,0,0,0,2.761.6l-.222.654a2.146,2.146,0,0,0,1.179,2.89,2.443,2.443,0,0,0,3.549-2.092c.018-4.816.006-9.631,0-14.447a2.086,2.086,0,0,0-.943-1.82,2.553,2.553,0,0,0-2.846-.137,2.126,2.126,0,0,0-1.059,2.481c.036.185.066.371.1.56C623.864,338.04,623.3,338.866,624.374,341.589Z" transform="translate(-19670.951 -16341.394)" fill="#ffffff" stroke="#ffffff" stroke-width="1"/>
    </g>
  </g>
</svg>
