<svg xmlns="http://www.w3.org/2000/svg" xmlns:xlink="http://www.w3.org/1999/xlink" width="65" height="65" viewBox="0 0 65 65">
  <defs>
    <clipPath id="clip-path">
      <rect id="Rectangle_6115" data-name="Rectangle 6115" width="65" height="65" transform="translate(652 2975)" fill="#ffffff" stroke="#707070" stroke-width="1"/>
    </clipPath>
  </defs>
  <g id="Mask_Group_57" data-name="Mask Group 57" transform="translate(-652 -2975)" clip-path="url(#clip-path)">
    <g id="Group_14983" data-name="Group 14983" transform="translate(20897.75 17843.064)">
      <path id="Path_2955" data-name="Path 2955" d="M546.131,236.4l3.028,5.295c2.029-.689,3.9-1.489,5.86-1.962a23.679,23.679,0,0,1,19.87,3.8c.228.159.535.31.625.536a1.189,1.189,0,0,1,.014.949.981.981,0,0,1-.877.276,5.532,5.532,0,0,1-1.276-.7c-8.489-5.3-17.044-5.253-25.4.1-9.436,6.05-12.664,19.058-7.486,29.022a22.433,22.433,0,0,0,16.41,12.179,22.763,22.763,0,0,0,23.01-10.172c4.6-7.609,4.776-15.4.753-23.3a27.782,27.782,0,0,0-1.51-2.4c-.315-.488-.52-1.074.118-1.321a1.426,1.426,0,0,1,1.267.449,23.605,23.605,0,0,1,4.064,19.622c-.467,2.1-1.307,4.118-2.03,6.336l5.313,3.038c.623-1.427,1.285-2.7,1.748-4.042a30.343,30.343,0,0,0-3.727-28.316c-.333-.493-.69-.969-1.032-1.457s-.53-1.07.068-1.344a1.425,1.425,0,0,1,1.292.389,30.869,30.869,0,0,1,4.909,8.636c3.469,9.591,2.788,18.931-2.314,27.731a31.185,31.185,0,0,1-22.493,15.7,32.194,32.194,0,0,1-37.269-25.061c-2.63-12.6,1.1-23.441,10.948-31.77,11.79-9.969,28.154-10.179,40.457-.9.056.042.115.08.169.125.483.4,1.173.8.6,1.512-.536.662-1.14.214-1.651-.183a30.239,30.239,0,0,0-19.964-6.452A30.693,30.693,0,0,0,546.131,236.4Zm-6.314,49.507c14.165,13.649,37.593,9.872,47.061-6.36-.871-.5-1.741-1.011-2.616-1.509-.9-.512-1.807-1.015-2.7-1.517-8.076,12.874-26.541,15.352-37.356,5.091Zm-6.072-37.025c-6.9,12.261-3.6,27.688,4.705,35.581l4.221-4.4c-7.064-8.493-8.333-17.886-3.585-28.124Zm10.877-11.651a32.615,32.615,0,0,0-10.095,10.134l5.489,3.13a27.367,27.367,0,0,1,7.752-7.766Z" transform="translate(-20774 -15099)" fill="#ffffff" stroke="#ffffff" stroke-width="0.5"/>
      <path id="Path_2956" data-name="Path 2956" d="M630.871,252.057a2.728,2.728,0,0,1-.954-.119c-.263-.12-.6-.493-.577-.726.026-.3.363-.791.592-.806a22.15,22.15,0,0,1,3.661.012c.274.028.636.7.69,1.1a18.924,18.924,0,0,1,.034,2.517c0,.635-.09,1.264-.906,1.26-.769,0-.821-.618-.846-1.2-.007-.17-.033-.34-.075-.762-.417.393-.706.652-.981.926q-12.216,12.215-24.43,24.433c-1.26,1.26-1.32,1.28-2.571,0-2.124-2.177-4.219-4.382-6.392-6.644-.5.462-.78.707-1.042.97q-4.9,4.9-9.8,9.8c-.247.247-.476.592-.776.685a1.4,1.4,0,0,1-1.1-.095c-.183-.139-.145-.684-.065-1.014.058-.24.337-.433.535-.63q5.545-5.52,11.1-11.034c.866-.86,1.075-.863,1.964.045,2.226,2.272,4.437,4.559,6.625,6.812Z" transform="translate(-20819.037 -15114.326)" fill="#ffffff" stroke="#ffffff" stroke-width="0.5"/>
      <path id="Path_2957" data-name="Path 2957" d="M643.182,388.265q0,4.038,0,8.075c0,.656.005,1.384-.874,1.375-.8-.009-.829-.69-.828-1.318q.006-8.232,0-16.465c0-.616.01-1.312.821-1.325.891-.014.876.727.876,1.373Q643.183,384.123,643.182,388.265Z" transform="translate(-20863.451 -15215.66)" fill="#ffffff" stroke="#ffffff" stroke-width="0.5"/>
      <path id="Path_2958" data-name="Path 2958" d="M718.13,388.119q0,4.038,0,8.075c0,.64.056,1.4-.82,1.427s-.882-.708-.881-1.364q0-8.18,0-16.36c0-.175-.061-.4.025-.514a10.9,10.9,0,0,1,.844-.89c.273.307.76.6.781.925.09,1.393.046,2.794.047,4.192Q718.132,385.865,718.13,388.119Z" transform="translate(-20922.646 -15215.569)" fill="#ffffff" stroke="#ffffff" stroke-width="0.5"/>
      <path id="Path_2959" data-name="Path 2959" d="M735.157,370.224q0-4.3,0-8.61a2.416,2.416,0,0,1,.1-1.029,1.066,1.066,0,0,1,.753-.554,1.125,1.125,0,0,1,.75.569,2.014,2.014,0,0,1,.091.924q.006,8.768,0,17.536c0,.245.075.55-.041.721-.207.305-.54.739-.808.731s-.617-.432-.807-.747c-.125-.208-.041-.546-.041-.826Q735.156,374.582,735.157,370.224Z" transform="translate(-20937.434 -15200.985)" fill="#ffffff" stroke="#ffffff" stroke-width="0.5"/>
      <path id="Path_2960" data-name="Path 2960" d="M755.7,351.346q0,4.3,0,8.6c0,.615,0,1.292-.831,1.311s-.873-.642-.873-1.268V342.576c0-.63.064-1.292.882-1.265s.822.711.822,1.327Q755.7,346.992,755.7,351.346Z" transform="translate(-20952.336 -15186.195)" fill="#ffffff" stroke="#ffffff" stroke-width="0.5"/>
      <path id="Path_2961" data-name="Path 2961" d="M660.236,405.847q0-3.513,0-7.025c0-.629.055-1.3.866-1.281.789.017.851.681.851,1.311q0,6.92.01,13.839c0,.619-.046,1.3-.838,1.328-.9.027-.888-.707-.888-1.357Q660.235,409.255,660.236,405.847Z" transform="translate(-20878.268 -15230.617)" fill="#ffffff" stroke="#ffffff" stroke-width="0.5"/>
      <path id="Path_2962" data-name="Path 2962" d="M697.691,405.732q0-3.407,0-6.815c0-.663.033-1.377.9-1.357.808.018.814.717.814,1.332q0,6.92,0,13.84c0,.617-.016,1.308-.839,1.3-.877-.007-.873-.725-.872-1.381q.007-3.46,0-6.92Z" transform="translate(-20907.855 -15230.632)" fill="#ffffff" stroke="#ffffff" stroke-width="0.5"/>
      <path id="Path_2963" data-name="Path 2963" d="M680.7,422.893q0,2.625,0,5.25c0,.6-.065,1.2-.83,1.2-.744,0-.866-.572-.865-1.183q0-5.355,0-10.709c0-.586.162-1.092.838-1.1s.857.489.857,1.079Q680.7,420.163,680.7,422.893Z" transform="translate(-20893.096 -15245.479)" fill="#ffffff" stroke="#ffffff" stroke-width="0.5"/>
      <path id="Path_2964" data-name="Path 2964" d="M624.39,403.941q0,2.515,0,5.03c0,.607-.106,1.189-.846,1.2s-.867-.566-.867-1.176q0-5.135-.007-10.27c0-.6.128-1.194.855-1.206s.864.574.863,1.182Q624.389,401.321,624.39,403.941Z" transform="translate(-20848.592 -15230.6)" fill="#ffffff" stroke="#ffffff" stroke-width="0.5"/>
      <path id="Path_2965" data-name="Path 2965" d="M605.571,418.474a3.246,3.246,0,0,1-.028,1.134,3.806,3.806,0,0,1-.771.925c-.292-.28-.794-.53-.836-.844a10.133,10.133,0,0,1,0-2.591c.037-.3.494-.552.76-.826.289.284.708.52.834.863a4.092,4.092,0,0,1,.034,1.34Z" transform="translate(-20833.725 -15245.414)" fill="#ffffff" stroke="#ffffff" stroke-width="0.5"/>
    </g>
  </g>
</svg>
