<svg xmlns="http://www.w3.org/2000/svg" width="49.297" height="65" viewBox="0 0 49.297 65">
  <g id="Group_14982" data-name="Group 14982" transform="translate(19016.847 18791.738)">
    <path id="Path_2906" data-name="Path 2906" d="M596.381,208.9c0-2.52,0-4.814,0-7.109,0-.743.009-1.486,0-2.23a1.141,1.141,0,0,1,1.307-1.3q9.129,0,18.258.006c1.028,0,1.333.4,1.334,1.589q.006,10.086,0,20.173v1.438c1.669-.595,3.122-1.1,4.569-1.631,2.056-.75,4.1-1.524,6.161-2.269,1.4-.507,1.876-.159,1.877,1.362q0,14.174-.016,28.348a1.863,1.863,0,0,0,.98,1.9,1.472,1.472,0,0,1,.575,1.279c-1.424,4.471-3.588,8.491-7.654,11.117-3.276,2.116-6.874,2.006-10.433.921a41.473,41.473,0,0,1-5.637-2.4,1.626,1.626,0,0,0-1.743,0,22.691,22.691,0,0,1-8.643,3.007,11.359,11.359,0,0,1-10.049-3.674,24.055,24.055,0,0,1-4.949-8.448c-.336-.918-.2-1.606.726-2.008.709-.308.685-.89.685-1.507-.005-10.475.014-20.951-.031-31.427a2.5,2.5,0,0,1,1.308-2.4c2.6-1.643,5.18-3.322,7.7-5.092,1.012-.711,1.846-.925,2.813-.057A4.1,4.1,0,0,0,596.381,208.9Zm2.456,37.462c-.124-.5-.177-.755-.254-1.008a11.228,11.228,0,0,1-.255-5.859,17.325,17.325,0,0,1,3.772-7.033,2.638,2.638,0,0,0,.611-1.5q.068-7.324-.006-14.649a1.936,1.936,0,0,0-.758-1.334c-2.285-1.6-4.638-3.111-6.94-4.693a1.307,1.307,0,0,0-1.71.022c-2.277,1.555-4.571,3.087-6.9,4.565a1.878,1.878,0,0,0-.954,1.817q.036,14.809.017,29.619c0,.335.037.67.068,1.215C589.882,245.664,594.16,244.539,598.836,246.362Zm11.827-14.991c.029-.61.058-.95.059-1.29,0-1.7.036-3.4-.012-5.1a1.35,1.35,0,0,1,1.047-1.491c.97-.328,1.913-.738,2.892-1.033a1.038,1.038,0,0,0,.832-1.159q-.013-10.087,0-20.174c0-.777-.292-1.065-1.064-1.062q-7.591.026-15.181,0c-.763,0-1.081.273-1.073,1.058.026,2.76-.024,5.522.045,8.281a2,2,0,0,0,.736,1.367c1.451,1.067,2.959,2.062,4.494,3.007a2.234,2.234,0,0,1,1.143,2.182c-.046,4.141-.024,8.282-.016,12.423,0,.4.072.792.126,1.353.4-.282.626-.431.839-.6,1.249-1,1.388-1.01,2.609.028C608.92,229.821,609.677,230.5,610.664,231.371Zm17.371-11.765a3.225,3.225,0,0,0-.564.068q-7.115,2.58-14.228,5.164a1.088,1.088,0,0,0-.792,1.2c.03,2.016.049,4.033,0,6.048a4.333,4.333,0,0,0,.769,2.666c2.255,3.374,3.137,7,1.713,10.966a1.872,1.872,0,0,0,.033.59c4.534-1.747,8.781-.619,13.072,1.174Zm-32.891,27.818c.136.338.245.657.388.959a28.746,28.746,0,0,1,1.708,3.638,5.185,5.185,0,0,0,4.151,3.689c1.205.292,2.363.781,3.614,1.206C604.665,252.788,598.569,246.945,595.144,247.424Zm27.809,12.355c-1.8-.85-3.538-1.534-5.132-2.466a4.175,4.175,0,0,0-4.251-.261c-1.371.644-2.847,1.065-4.383,1.623C612.731,261.317,619.962,262.631,622.952,259.779Zm-15.113-7.473c4.168-2.878,7.275-9.466,5.524-12.4a6.427,6.427,0,0,0-.558.447c-1.477,1.471-2.982,2.917-4.4,4.444a2.668,2.668,0,0,0-.626,1.57c-.081,1.623-.035,3.252-.028,4.878C607.754,251.572,607.805,251.9,607.84,252.306Zm-22.488-2.663.089.384,10.355,3.651.17-.256c-.926-1.935-1.828-3.882-2.807-5.789a1.139,1.139,0,0,0-.982-.315,21.9,21.9,0,0,0-3.177.8C587.758,248.554,586.565,249.129,585.351,249.643Zm33.15,5.706-.01.326c1.805.861,3.626,1.692,5.408,2.6.637.325,1.085.245,1.442-.311q1.766-2.747,3.487-5.524c.092-.148.059-.374.113-.789Zm-10.653-12.932.29.121c1.464-1.476,2.947-2.935,4.369-4.451a1.053,1.053,0,0,0,0-1c-1.293-1.757-2.64-3.474-3.986-5.191a2.954,2.954,0,0,0-.674-.44ZM598.484,256.8l-.165-.315c-1.478-.524-2.95-1.067-4.439-1.557a1.38,1.38,0,0,0-.918.068c-1.474.67-2.925,1.391-4.392,2.079-.523.245-.635.564-.2.958.731.66,1.466,1.322,2.255,1.907a1.121,1.121,0,0,0,.954.065c2.148-.977,4.273-2,6.406-3.011C598.146,256.913,598.317,256.859,598.484,256.8Zm16.037-2.272.175.253a17.012,17.012,0,0,1,2.215-.75,4.565,4.565,0,0,0,3.867-3.377,10.06,10.06,0,0,1,.672-1.436c.9-1.9.872-1.828-1.183-2.017A2.715,2.715,0,0,0,617,249.183C616.321,251.018,615.359,252.748,614.52,254.523Zm-13.075-18.235a28.017,28.017,0,0,0-1.256,3.229,1.867,1.867,0,0,0,.455,1.464c1.419,1.527,2.924,2.974,4.4,4.444.183.181.407.32.806.629,0-1.907,0-3.583-.009-5.259a.614.614,0,0,0-.2-.362C604.322,239.12,602.994,237.814,601.445,236.288Zm7.175,20.662a18.582,18.582,0,0,0,2.388-.866,3.169,3.169,0,0,0,1.33-1.187c.976-1.87,1.843-3.8,2.74-5.709a6.221,6.221,0,0,0,.247-.808C612.944,249.057,608.92,254.163,608.62,256.949Zm-4.284,2-.024-.336a15.6,15.6,0,0,1-1.755-.652,2.752,2.752,0,0,0-2.785.114c-1.677.9-3.431,1.661-5.148,2.492-.287.138-.546.334-1.072.661A16.8,16.8,0,0,0,604.336,258.952Zm1.19-6.636.385-.1a18.132,18.132,0,0,1,.013-1.955,2.765,2.765,0,0,0-1.034-2.493c-1.371-1.267-2.652-2.631-3.98-3.945-.247-.244-.537-.445-.807-.666C600.634,247.065,602.891,249.81,605.526,252.316Zm22.717-2.3.094-.361c-1.33-.551-2.657-1.107-3.993-1.642a.4.4,0,0,0-.358.148c-.626,1.218-1.231,2.447-1.842,3.673l.286.226Zm-22.437-18.395-.284-.2c-.9,1.015-1.8,2.023-2.681,3.056a.569.569,0,0,0-.02.547c.9.96,1.839,1.892,2.985,3.055Zm-15.129,22.5-.056-.38-5.8-2.028-.244.319c.628,1.163,1.246,2.332,1.9,3.481a.6.6,0,0,0,.521.24C588.237,255.234,589.455,254.673,590.677,254.123Z" transform="translate(-19599 -18990)" fill="#ffffff"/>
    <path id="Path_2935" data-name="Path 2935" d="M614.012,284.091a12.076,12.076,0,0,1-.039,2.213c-.072.382-.543.688-.834,1.029-.288-.336-.8-.658-.823-1.01a39.322,39.322,0,0,1,0-4.542c.018-.332.5-.639.761-.957.311.314.825.59.892.949a12.863,12.863,0,0,1,.042,2.318Z" transform="translate(-19622.705 -19055.031)" fill="#ffffff"/>
    <path id="Path_2936" data-name="Path 2936" d="M634.167,284.064a12.073,12.073,0,0,1,.04-2.213c.073-.383.545-.69.837-1.031.3.327.826.639.847.982a36.578,36.578,0,0,1,0,4.54c-.022.345-.555.658-.852.985-.289-.348-.755-.662-.829-1.051A12.023,12.023,0,0,1,634.167,284.064Z" transform="translate(-19639.943 -19055.027)" fill="#ffffff"/>
    <path id="Path_2937" data-name="Path 2937" d="M613.981,373.157a12.506,12.506,0,0,1-.036,2.214c-.071.392-.519.715-.8,1.07-.3-.359-.839-.7-.865-1.081a33.69,33.69,0,0,1,0-4.436c.022-.348.538-.665.827-1,.29.337.76.639.831,1.017A12.213,12.213,0,0,1,613.981,373.157Z" transform="translate(-19622.676 -19125.215)" fill="#ffffff"/>
    <path id="Path_2938" data-name="Path 2938" d="M636.005,373.216a14.4,14.4,0,0,1-.038,2.32c-.057.345-.528.622-.811.93-.3-.3-.835-.595-.853-.914a42.417,42.417,0,0,1,.009-4.754c.017-.3.575-.564.884-.846.272.313.724.6.779.943a15.014,15.014,0,0,1,.037,2.321Z" transform="translate(-19640.027 -19125.234)" fill="#ffffff"/>
    <path id="Path_2939" data-name="Path 2939" d="M635.989,328.526a12.281,12.281,0,0,1-.039,2.223c-.07.376-.542.676-.833,1.01-.3-.3-.829-.6-.847-.916a40.872,40.872,0,0,1,.005-4.667c.018-.311.557-.592.856-.887.283.3.757.57.812.907a14.674,14.674,0,0,1,.038,2.329Z" transform="translate(-19640 -19090.055)" fill="#ffffff"/>
    <path id="Path_2940" data-name="Path 2940" d="M612.257,328.533a14.845,14.845,0,0,1,.038-2.329c.054-.338.523-.609.8-.911.3.293.829.572.846.881a41.667,41.667,0,0,1,0,4.666c-.018.321-.537.615-.825.921-.289-.333-.76-.632-.829-1.006a12.369,12.369,0,0,1-.039-2.222Z" transform="translate(-19622.684 -19090.059)" fill="#ffffff"/>
    <path id="Path_2941" data-name="Path 2941" d="M658.719,328.55a12.113,12.113,0,0,1-.041,2.22c-.07.367-.556.655-.854.979-.27-.313-.756-.613-.774-.94a39.335,39.335,0,0,1,0-4.556c.02-.338.55-.646.845-.967.275.346.72.661.788,1.043A12.819,12.819,0,0,1,658.719,328.55Z" transform="translate(-19657.941 -19090.053)" fill="#ffffff"/>
    <path id="Path_2942" data-name="Path 2942" d="M656.965,284.016a10.549,10.549,0,0,1,.039-2.1c.084-.406.546-.733.838-1.1.278.344.774.674.8,1.033a35.981,35.981,0,0,1,0,4.43c-.022.362-.515.694-.791,1.04-.295-.362-.766-.69-.845-1.094A11.656,11.656,0,0,1,656.965,284.016Z" transform="translate(-19657.898 -19055.025)" fill="#ffffff"/>
    <path id="Path_2943" data-name="Path 2943" d="M695.775,261.107a10.168,10.168,0,0,1-.039,2.1c-.09.419-.558.757-.856,1.132-.307-.362-.852-.706-.881-1.088a29.308,29.308,0,0,1,0-4.318c.028-.379.582-.719.894-1.077.292.345.763.656.837,1.043a11.922,11.922,0,0,1,.039,2.207Z" transform="translate(-19687.035 -19036.941)" fill="#ffffff"/>
    <path id="Path_2944" data-name="Path 2944" d="M695.821,216.723a11.619,11.619,0,0,1-.041,2.208c-.073.371-.568.659-.872.985-.3-.332-.825-.65-.847-1a37.548,37.548,0,0,1,0-4.533c.02-.329.53-.63.814-.944.316.32.834.6.9.97A12.479,12.479,0,0,1,695.821,216.723Z" transform="translate(-19687.092 -19001.955)" fill="#ffffff"/>
    <path id="Path_2945" data-name="Path 2945" d="M693.978,306.467a12.056,12.056,0,0,1,.039-2.216c.071-.373.55-.669.845-1,.308.318.86.62.882.957a34.03,34.03,0,0,1,0,4.441,1.363,1.363,0,0,1-.861.948c-.672.149-.881-.444-.906-1.013-.031-.7-.007-1.411-.007-2.117Z" transform="translate(-19687.055 -19072.695)" fill="#ffffff"/>
    <path id="Path_2946" data-name="Path 2946" d="M673.694,216.669a15.085,15.085,0,0,1-.037,2.317c-.054.342-.505.622-.776.93-.3-.315-.836-.615-.857-.947a36.887,36.887,0,0,1,0-4.535c.021-.347.543-.663.834-.993.282.337.74.641.808,1.017a12.5,12.5,0,0,1,.038,2.21Z" transform="translate(-19669.732 -19001.957)" fill="#ffffff"/>
    <path id="Path_2947" data-name="Path 2947" d="M718.37,261.116a14.637,14.637,0,0,1-.038,2.314c-.055.338-.521.609-.8.91-.291-.294-.815-.575-.832-.884a39.736,39.736,0,0,1,0-4.636c.02-.336.565-.641.868-.96.271.311.72.595.775.941a15.011,15.011,0,0,1,.037,2.315Z" transform="translate(-19704.922 -19036.943)" fill="#ffffff"/>
    <path id="Path_2948" data-name="Path 2948" d="M716.611,216.613a11.633,11.633,0,0,1,.041-2.208c.072-.366.568-.648.872-.968.27.313.756.615.773.941a43.208,43.208,0,0,1-.006,4.638c-.017.312-.521.6-.8.9-.291-.291-.783-.55-.834-.879a15.841,15.841,0,0,1-.04-2.42Z" transform="translate(-19704.881 -19001.953)" fill="#ffffff"/>
    <path id="Path_2949" data-name="Path 2949" d="M759.057,380.97a9.767,9.767,0,0,1-.041,2.1c-.09.4-.589.7-.9,1.051-.279-.335-.777-.657-.8-1.008-.093-1.438-.049-2.885-.038-4.329,0-.587.228-1.17.893-.988a1.581,1.581,0,0,1,.856,1.065,10.423,10.423,0,0,1,.038,2.105Z" transform="translate(-19736.92 -19131.389)" fill="#ffffff"/>
    <path id="Path_2950" data-name="Path 2950" d="M780.978,380.7a13.718,13.718,0,0,1-.039,2.316c-.063.362-.541.653-.831.976-.282-.332-.787-.65-.809-1a35.581,35.581,0,0,1,0-4.429c.021-.341.543-.65.834-.973.283.333.738.631.811,1a11.143,11.143,0,0,1,.037,2.1Z" transform="translate(-19754.23 -19131.254)" fill="#ffffff"/>
    <path id="Path_2951" data-name="Path 2951" d="M779.257,336.368a11.9,11.9,0,0,1,.041-2.21c.068-.355.564-.629.866-.939.269.306.754.6.771.921a39.087,39.087,0,0,1,0,4.537c-.02.328-.562.624-.864.934-.271-.306-.722-.585-.775-.925A15.1,15.1,0,0,1,779.257,336.368Z" transform="translate(-19754.227 -19096.301)" fill="#ffffff"/>
    <path id="Path_2952" data-name="Path 2952" d="M757.289,336.661a14.775,14.775,0,0,1,.038-2.319c.053-.332.534-.844.8-.831a1.2,1.2,0,0,1,.884.785,41.983,41.983,0,0,1-.011,4.751c-.016.277-.586.671-.942.722-.212.03-.681-.478-.725-.788a16.7,16.7,0,0,1-.035-2.32Z" transform="translate(-19736.926 -19096.531)" fill="#ffffff"/>
    <path id="Path_2953" data-name="Path 2953" d="M737.744,336.481a11.464,11.464,0,0,1-.041,2.211c-.07.353-.583.618-.9.923-.263-.31-.736-.608-.754-.931a42.445,42.445,0,0,1,0-4.54c.017-.319.5-.613.765-.919.308.31.817.584.882.939A13.12,13.12,0,0,1,737.744,336.481Z" transform="translate(-19720.176 -19096.305)" fill="#ffffff"/>
  </g>
</svg>
