<svg xmlns="http://www.w3.org/2000/svg" width="23.93" height="24.18" viewBox="0 0 23.93 24.18">
  <g id="sell-orange" transform="translate(-1094 -353.75)">
    <path id="Path_2660" data-name="Path 2660" d="M6.488,20.231a1.85,1.85,0,1,1-1.813,1.85A1.833,1.833,0,0,1,6.488,20.231Zm13.462,0a1.85,1.85,0,1,1-1.811,1.85A1.834,1.834,0,0,1,19.951,20.231ZM.928,0,1.05.012,3.54.453a.909.909,0,0,1,.741.827h0L5.433,15.286a1.263,1.263,0,0,0,1.256,1.178H19.744a1.277,1.277,0,0,0,1.248-1.1h0l1.135-8.008a.725.725,0,0,0-.165-.576.7.7,0,0,0-.535-.249H16.947a.916.916,0,0,1,0-1.831h4.481a2.48,2.48,0,0,1,1.892.883A2.588,2.588,0,0,1,23.9,7.618h0l-1.137,8.008a3.09,3.09,0,0,1-3.024,2.67H6.689a3.062,3.062,0,0,1-3.045-2.857h0L2.551,2.137.744,1.818A.915.915,0,0,1,.013.759.9.9,0,0,1,1.05.012Zm16.9,9.211a.916.916,0,0,1,0,1.831H14.508a.916.916,0,0,1,0-1.831h3.318Z" transform="translate(1094 354)" fill="#ffffff"/>
    <g id="Iconly_Broken_Arrow---Down" data-name="Iconly/Broken/Arrow---Down" transform="translate(1100.183 354)">
      <g id="Arrow---Down" transform="translate(0 0)">
        <path id="Path_2661" data-name="Path 2661" d="M3.988,9.572a.439.439,0,0,0,.442-.435h0V.435a.435.435,0,0,0-.273-.4.445.445,0,0,0-.481.1h0L.129,3.638a.431.431,0,0,0,0,.615.446.446,0,0,0,.625,0h0L3.547,1.489V9.137A.439.439,0,0,0,3.988,9.572Zm3.234-5.32a.446.446,0,0,0,.625,0,.431.431,0,0,0,0-.616h0L5.892,1.7a.446.446,0,0,0-.625,0,.43.43,0,0,0,0,.615h0Z" transform="translate(0)" fill="#ffffff" stroke="#ffffff" stroke-width="0.5"/>
      </g>
    </g>
  </g>
</svg>
