<svg xmlns="http://www.w3.org/2000/svg" xmlns:xlink="http://www.w3.org/1999/xlink" width="262.883" height="274.902" viewBox="0 0 262.883 274.902">
  <defs>
    <clipPath id="clip-path">
      <rect id="Rectangle_5948" data-name="Rectangle 5948" width="9.415" height="9.416" fill="none"/>
    </clipPath>
    <clipPath id="clip-path-2">
      <rect id="Rectangle_5949" data-name="Rectangle 5949" width="13.184" height="13.184" fill="#7522de"/>
    </clipPath>
  </defs>
  <g id="create_an_ac" data-name="create an ac" transform="translate(0 0)">
    <path id="Path_2603" data-name="Path 2603" d="M139.059,174.442c3.094,2.972,4.272,7.6,1.32,11.169a8.659,8.659,0,0,1-11.626,1.394c-8.38-6.468.355-18.4,9.4-15.931a1.5,1.5,0,0,1-.4,2.938c-2.643.15-5.473.252-7.584,2.1a5.5,5.5,0,0,0-.459,7.646c4.93,6.06,13.489-2.864,8.313-8.282a.734.734,0,0,1,1.038-1.038" transform="translate(24.093 -43.752)" fill="#d9bcff"/>
    <path id="Path_2604" data-name="Path 2604" d="M186.9,178.872c-1.132,4.213-2.385,8.38-3.681,12.546a1.314,1.314,0,0,1-2.121.731c-3.388-2.3-6.775-4.561-9.983-7.108a1.212,1.212,0,0,1,.128-1.9c3.756-2.578,8.829-6.383,13.6-6.411,1.213-.006,2.058,1.7.831,2.409-1.926,1.109-4.228,1.5-6.283,2.359a34.337,34.337,0,0,0-6.812,3.638c-.047-.691-.1-1.383-.14-2.076,3.584,2.208,6.958,4.683,10.369,7.149-.674.134-1.341.268-2.015.4,1.455-4.116,2.948-8.2,4.561-12.256a.827.827,0,0,1,1.55.512" transform="translate(-110.047 -37.945)" fill="#c08dff"/>
    <path id="Path_2605" data-name="Path 2605" d="M197.54,194.689a98.275,98.275,0,0,1-14.72-8.435,1.566,1.566,0,0,1,1.731-2.608,96.173,96.173,0,0,1,13.9,9.166c.869.672.23,2.422-.91,1.877" transform="translate(-144.465 -31.445)" fill="#fc9e22"/>
    <path id="Path_2606" data-name="Path 2606" d="M84.892,205.531a98.27,98.27,0,0,1,4.42-16.38,1.565,1.565,0,0,1,2.96,1.01,96.04,96.04,0,0,1-5.333,15.774c-.425,1.01-2.283.837-2.046-.4" transform="translate(153.612 -26.906)" fill="#fc9e22"/>
    <path id="Path_2607" data-name="Path 2607" d="M94.722,172.9l.284-.25a3.185,3.185,0,1,1,4.5,4.5c-.085.095-.167.189-.25.284a3.209,3.209,0,0,1-4.538-4.538" transform="translate(127.939 -42.787)" fill="#d9bcff"/>
    <path id="Path_2608" data-name="Path 2608" d="M149.405,303.657s52.908,12.307,74.159-8.945l-7.6-50.762c-2.312-14.592-.934-42.667-12.108-52.625a19.266,19.266,0,0,0-4.242-2.887c-7.841-3.785-21.784-5.83-35.173-5.881-16.266-.063-33.007,12.236-37.278,27.931l17.605,41.178Z" transform="translate(-60.916 -32.299)" fill="#e9f2ff"/>
    <path id="Path_2609" data-name="Path 2609" d="M180.271,203.063s-23.7,45.651-11.931,48.083c38.714,8,61.184,14.557,61.184,14.557l1.973,15.033c-.577,2.273-78.324.307-87.534-10.137-6.5-7.376-15.145-24.42,3.244-61.312l5.587-12.548Z" transform="translate(-86.55 -18.549)" fill="#f6aea6"/>
    <path id="Path_2610" data-name="Path 2610" d="M98.707,194.412l59.029,22.854,1.849-30.968,12.638-4.888s18.326,49.708-4.593,58.962-48.743-7.846-48.743-7.846Z" transform="translate(39.523 -33.412)" fill="#f6aea6"/>
    <path id="Path_2611" data-name="Path 2611" d="M111.837,184.157c20.6,6.564,32.892,14.257,61.9,26.356l-14.893,33.215-25.672-8.242Z" transform="translate(19.089 -30.748)" fill="#e9f2ff"/>
    <path id="Path_2612" data-name="Path 2612" d="M208.614,201.936l-14.972,34.789-33.769-6.164,22.75-39.181,26.937,10.556" transform="translate(-111.341 -23.746)" fill="#e9f2ff"/>
    <path id="Path_2613" data-name="Path 2613" d="M173.115,209.5c-7.193-.4-14.295-.089-21.483.006-.626.008-.589-.88,0-.949a105.979,105.979,0,0,1,21.483.1c.534.045.548.872,0,.843" transform="translate(-58.175 -7.588)" fill="#111011"/>
    <path id="Path_2614" data-name="Path 2614" d="M161.533,188.295c24.3,2.194,7.679,38.021,1.452,48.869a.541.541,0,0,1-.934-.548c6.19-10.958,22.753-44.3-.6-47.728-.333-.049-.258-.624.081-.593" transform="translate(-78.806 -26.736)" fill="#111011"/>
    <path id="Path_2615" data-name="Path 2615" d="M131.239,198.805a201.45,201.45,0,0,1,5.741,36.625c.032.508-.827.638-.9.122-1.739-12.215-3.488-24.4-5.446-36.579-.063-.39.5-.567.6-.167" transform="translate(18.831 -16.766)" fill="#111011"/>
    <path id="Path_2616" data-name="Path 2616" d="M142.718,186.933q-.558-7.7-1.115-15.392c-4.034-1.136-6.129-6.294-4.52-10.163s6.18-6.04,10.328-5.448c-2.619-1.782-2.417-6.038-.27-8.364s5.515-3.08,8.68-3.2,6.367.262,9.481-.317c2.757-.512,5.459-1.775,8.242-1.424s5.444,3.482,3.943,5.853c4.016-.589,8.358-1.125,11.923.811s5.357,7.443,2.292,10.1c2.025,1.034,2.531,3.965,1.392,5.932a7.125,7.125,0,0,1-5.735,3.161,21.037,21.037,0,0,1-6.716-.979" transform="translate(-49.519 -71.072)" fill="#251a51"/>
    <path id="Path_2617" data-name="Path 2617" d="M147.1,169.281l.809,10.665s-9.068,1.223-6.484,9.493,8.788,4.652,8.788,4.652,1.552,21.194,23.262,14.474c17.278-5.349,16.221-27.722,14.027-46.8a12.769,12.769,0,0,0-15.139-11.049l-13.052,2.543a15.152,15.152,0,0,0-12.211,16.02" transform="translate(-53.248 -63.396)" fill="#f6aea6"/>
    <path id="Path_2618" data-name="Path 2618" d="M146.109,169.934l5.849,31.195a12.513,12.513,0,0,0,24.619-4.492L173.4,178.755Z" transform="translate(-51.447 -44.537)" fill="#f6aea6"/>
    <path id="Path_2619" data-name="Path 2619" d="M148.068,179.462c-.033-.014-.1.437.54.748.666.3,1.729-.351,2-1.406a9.828,9.828,0,0,0,.244-3.516c-.073-1.347-.146-2.722-.221-4.163-.37-5.9-.9-10.673-1.182-10.655s-.213,4.815.158,10.72c.1,1.438.2,2.81.3,4.158a10.808,10.808,0,0,1,0,3.25c-.158.869-.79,1.294-1.2,1.229s-.573-.419-.646-.364" transform="translate(-29.392 -53.711)" fill="#251a51"/>
    <path id="Path_2620" data-name="Path 2620" d="M166.581,178.874a24.147,24.147,0,0,0-2.909,1.375,18.708,18.708,0,0,1-14.8.313,24.62,24.62,0,0,0-2.964-1.253c-.075.1.841.987,2.667,1.914a16.625,16.625,0,0,0,15.417-.325c1.786-1,2.663-1.932,2.586-2.025" transform="translate(-40.861 -35.885)" fill="#251a51"/>
    <path id="Path_2621" data-name="Path 2621" d="M157.016,173.732c-.12-.1-.6.358-1.511.762a4.948,4.948,0,0,1-6.537-2.1c-.506-.861-.624-1.515-.782-1.5-.122,0-.274.721.126,1.808a5.058,5.058,0,0,0,7.547,2.426c.957-.65,1.255-1.327,1.156-1.4" transform="translate(-35.539 -43.605)" fill="#251a51"/>
    <path id="Path_2622" data-name="Path 2622" d="M164.825,173.46c.014-.156-.526-.232-1.13-.6a1.425,1.425,0,0,1-.652-.845c-.1-.388.014-.748.315-.845a.482.482,0,0,1,.54.077l.871-.453c-.817-1.69-1.548-2.854-1.761-2.759s.16,1.418.863,3.157l.871-.453a1.424,1.424,0,0,0-1.747-.528,1.467,1.467,0,0,0-.9.967,1.785,1.785,0,0,0,.049,1.132,2.02,2.02,0,0,0,1.241,1.2c.912.288,1.444.063,1.44-.053" transform="translate(-70.846 -46.385)" fill="#251a51"/>
    <path id="Path_2623" data-name="Path 2623" d="M157.934,160.406c.108-.254-1.024-.851-2.454-.471s-2.127,1.448-1.906,1.615c.211.2,1.042-.343,2.166-.622,1.117-.309,2.109-.242,2.194-.522" transform="translate(-47.238 -54.35)" fill="#251a51"/>
    <path id="Path_2624" data-name="Path 2624" d="M148.98,159.026c.132-.242-1-.983-2.572-.841s-2.556,1.058-2.387,1.274c.158.246,1.186-.154,2.478-.252,1.29-.126,2.371.089,2.482-.181" transform="translate(-19.514 -55.943)" fill="#251a51"/>
    <path id="Path_2625" data-name="Path 2625" d="M145.515,182.759c6.06-5.906,7.84-15.748,9.485-24.049a21.224,21.224,0,0,0,19.8,2.578,31.969,31.969,0,0,0,7.055,6.163,3.159,3.159,0,0,0,2.491.691c1.018-.307,1.471-1.473,1.711-2.507a17.809,17.809,0,0,0-.351-10.052,12.112,12.112,0,0,0-6.747-7.236c-3.39-1.31-7.2-.741-10.722.173A59.463,59.463,0,0,0,153.1,154.77c-4.636,2.718-9.091,6.308-11.059,11.313s-1.958,14.72,2.785,17.245" transform="translate(-50.852 -66.211)" fill="#251a51"/>
    <path id="Path_2626" data-name="Path 2626" d="M154.8,166.135c.282-.02.459-.77.394-1.674s-.345-1.621-.628-1.6-.459.768-.394,1.672.347,1.621.628,1.6" transform="translate(-45.743 -51.395)" fill="#251a51"/>
    <path id="Path_2627" data-name="Path 2627" d="M145.952,165c.282-.02.459-.77.394-1.674s-.345-1.619-.628-1.6-.459.768-.394,1.672.347,1.621.628,1.6" transform="translate(-19.46 -52.488)" fill="#251a51"/>
    <path id="Path_2628" data-name="Path 2628" d="M120.454,196.242s-2.621-16.1-5.755-15.927-9.4,0-9.4,0-.524-15.313-2.263-12.876-2.29,23.041,4.425,32.926Z" transform="translate(91.932 -47.213)" fill="#f6aea6"/>
    <path id="Path_2629" data-name="Path 2629" d="M123.161,231.755s28.089,4.918,27.539,8.561a26.337,26.337,0,0,1-2.521,7.319l-25.018-.589Z" transform="translate(19.813 15.398)" fill="#f6aea6"/>
    <path id="Path_2630" data-name="Path 2630" d="M81.051,269.472l.213-3.888,57.856-3.539,19.4-51.9,63.5,3.492-21.662,56.124Z" transform="translate(31.437 -0.783)" fill="#c08dff"/>
    <g id="Group_14762" data-name="Group 14762" transform="translate(209.039 227.826)" opacity="0.41">
      <g id="Group_14761" data-name="Group 14761" transform="translate(0 0)">
        <g id="Group_14760" data-name="Group 14760" clip-path="url(#clip-path)">
          <path id="Path_2631" data-name="Path 2631" d="M108.231,226.909a4.707,4.707,0,1,1-4.441-4.959,4.709,4.709,0,0,1,4.441,4.959" transform="translate(-98.823 -221.942)" fill="#fff"/>
        </g>
      </g>
    </g>
    <g id="Group_14765" data-name="Group 14765" transform="translate(207.154 225.943)">
      <g id="Group_14764" data-name="Group 14764" transform="translate(0 0)">
        <g id="Group_14763" data-name="Group 14763" clip-path="url(#clip-path-2)">
          <path id="Path_2632" data-name="Path 2632" d="M111.041,227.938a6.592,6.592,0,1,1-6.22-6.942,6.587,6.587,0,0,1,6.22,6.942" transform="translate(-97.867 -220.986)" fill="#7522de"/>
        </g>
      </g>
    </g>
    <path id="Path_2633" data-name="Path 2633" d="M339.148,239.921l-248.34-.644-14.543,1.586s190.642,10.864,262.883-.942" transform="translate(-76.265 29.479)" fill="#111011"/>
    <path id="Path_2634" data-name="Path 2634" d="M220.171,148.217c.752,1.459-1.708,39.161-1.708,39.161L199.9,185.834l2.164,9.956-9.071-10.232-18.167-2.1,1.1-36.544Z" transform="translate(-151.544 -66.854)" fill="#d9bcff"/>
    <path id="Path_2635" data-name="Path 2635" d="M156.459,117.778s12.794.64,13.219,14.287c0,0-.213,7.462-4.264,10.233s-3.839,5.757-3.839,5.757H150.915s.427-3.837-1.278-5.969-5.971-6.61-5.331-13.219,5.544-11.728,12.154-11.088" transform="translate(-40.672 -95.154)" fill="#fc9e22"/>
    <path id="Path_2636" data-name="Path 2636" d="M160.036,135.519c-3.829-.177-7.7.242-11.5.022-.548-.032-.735-.888-.136-1.01,3.695-.764,7.919-.341,11.638.077.569.065.6.939,0,.912" transform="translate(-38.927 -79.27)" fill="#111011"/>
    <path id="Path_2637" data-name="Path 2637" d="M158.461,137.214c-1.526-.089-3.059-.152-4.587-.136s-3.078.268-4.591.158a.517.517,0,0,1-.136-1.01c2.923-.764,6.48-.323,9.434.093.508.073.39.926-.12.9" transform="translate(-38.841 -77.621)" fill="#111011"/>
    <path id="Path_2638" data-name="Path 2638" d="M154.034,138.262c-1.335.093-2.718.471-4.049.443a.584.584,0,0,1-.154-1.142,12.845,12.845,0,0,1,4.2-.213.456.456,0,0,1,0,.912" transform="translate(-35.671 -76.191)" fill="#111011"/>
    <path id="Path_2639" data-name="Path 2639" d="M154.759,139.17c-.3-3.793.983-7.99,1.631-11.713.37.158.742.313,1.113.469-.536.882-1.426,3.423-2.795,3.332-1.414-.095-1.938-2.617-2.139-3.646h1.221c-.272,1.172-.307,4-2.147,3.73-1.558-.227-2.61-2.539-3.086-3.807q.635-.174,1.268-.351c.941,3.711,1.392,8.41.451,12.148a.622.622,0,0,1-1.217-.163c.116-3.931.668-7.779-.5-11.634-.25-.827.967-1.121,1.268-.351.173.439,1.18,2.929,2.133,2.608a10.5,10.5,0,0,0,.611-2.515.638.638,0,0,1,1.221,0c.138.762.455,2.838,1.355,2.218.518-.358.979-1.637,1.306-2.184a.612.612,0,0,1,1.113.469c-.587,3.724-.748,8.059-2.243,11.541-.13.3-.542.11-.561-.152" transform="translate(-37.002 -86.414)" fill="#111011"/>
    <path id="Path_2640" data-name="Path 2640" d="M147.911,133.747c-5.686-1.81-11.555-3.37-17.107-5.56a.379.379,0,0,1,.2-.731c5.79,1.44,11.47,3.583,17.148,5.408.557.181.321,1.062-.242.882" transform="translate(7.51 -85.732)" fill="#fc9e22"/>
    <path id="Path_2641" data-name="Path 2641" d="M145.444,122.722a102.879,102.879,0,0,1-10.86-.323.476.476,0,0,1,0-.951,102.561,102.561,0,0,1,10.86.25.512.512,0,0,1,0,1.024" transform="translate(2.985 -91.631)" fill="#fc9e22"/>
    <path id="Path_2642" data-name="Path 2642" d="M136.411,124.2c4.03-3.512,7.878-7.894,12.467-10.673.721-.435,1.388.532.867,1.125-3.519,3.992-8.459,6.958-12.6,10.279-.508.408-1.239-.288-.731-.731" transform="translate(-5.168 -99.328)" fill="#fc9e22"/>
    <path id="Path_2643" data-name="Path 2643" d="M145.346,119.434c-.039-1.13.839-2.214,1.388-3.153a17.012,17.012,0,0,1,2.105-3.328.684.684,0,0,1,1.134.662,17.15,17.15,0,0,1-2.033,3.372c-.6.916-1.176,2.2-2.208,2.671a.261.261,0,0,1-.388-.223" transform="translate(-23.179 -99.961)" fill="#fc9e22"/>
    <path id="Path_2644" data-name="Path 2644" d="M151.344,123.446a114.631,114.631,0,0,1,.258-16.573.634.634,0,0,1,1.266,0,114.481,114.481,0,0,1-.418,16.573.554.554,0,0,1-1.107,0" transform="translate(-37.682 -106.264)" fill="#fc9e22"/>
    <path id="Path_2645" data-name="Path 2645" d="M158.7,119.857a46.928,46.928,0,0,1-3.831-6.22.666.666,0,0,1,1.148-.672,46.754,46.754,0,0,1,3.535,6.393.494.494,0,0,1-.853.5" transform="translate(-51.393 -100.066)" fill="#fc9e22"/>
    <path id="Path_2646" data-name="Path 2646" d="M173.035,123.286a87.084,87.084,0,0,1-7.805-4.014c-2.535-1.385-5.375-2.588-7.581-4.463a.6.6,0,0,1,.575-.987c2.584.841,4.922,2.5,7.273,3.848a90.276,90.276,0,0,1,7.9,4.762c.392.282.167,1.073-.358.853" transform="translate(-70.642 -98.961)" fill="#fc9e22"/>
    <path id="Path_2647" data-name="Path 2647" d="M166.558,123.424c-2,.7-5.43.183-6.98-1.306-.54-.518.035-1.278.678-1.166,1.065.189,2.048.75,3.11,1s2.137.242,3.193.459c.546.112.451.857,0,1.014" transform="translate(-67.712 -92.033)" fill="#fc9e22"/>
    <path id="Path_2648" data-name="Path 2648" d="M183.9,127.813c-7.649,1.914-15.543,4.1-23.368,5.1-.943.118-1.075-1.359-.219-1.615,7.494-2.227,15.543-3.384,23.248-4.715.794-.136,1.148,1.026.339,1.227" transform="translate(-85.878 -86.572)" fill="#fc9e22"/>
    <path id="Path_2649" data-name="Path 2649" d="M124.361,203.415c-.254-1.69-.2-3.3-1.152-4.784-1.883-2.966-4.557-2.222-7.147-.916-2.639,1.329-5.125,2.125-7.992.884-4.481-1.94-6.584-8.7-2.308-11.876,1.385-1.03,2.747.67,2.562,1.969-.258,1.82-1.16,3.819.4,5.383,2.084,2.088,4.526.333,6.6-.6a8.62,8.62,0,0,1,6.944-.3c3.988,1.611,6.879,7.017,3.714,10.669a.974.974,0,0,1-1.621-.427" transform="translate(82.05 -28.566)" fill="#d9bcff"/>
    <path id="Path_2650" data-name="Path 2650" d="M151.176,200.944a98.156,98.156,0,0,1-16-5.656,1.566,1.566,0,0,1,1.235-2.875,96.4,96.4,0,0,1,15.321,6.521c.973.506.66,2.344-.559,2.011" transform="translate(-3.634 -22.828)" fill="#fc9e22"/>
    <path id="Path_2651" data-name="Path 2651" d="M137.44,200.6c-1.134,4.213-2.385,8.38-3.683,12.546a1.315,1.315,0,0,1-2.123.731c-3.386-2.3-6.773-4.561-9.979-7.108a1.21,1.21,0,0,1,.126-1.9c3.758-2.578,8.831-6.383,13.6-6.411,1.213-.006,2.06,1.7.831,2.409-1.924,1.109-4.228,1.5-6.283,2.359a34.34,34.34,0,0,0-6.812,3.638q-.071-1.037-.14-2.076c3.584,2.208,6.96,4.683,10.369,7.149q-1.007.2-2.013.4c1.453-4.116,2.946-8.2,4.559-12.256a.828.828,0,0,1,1.552.512" transform="translate(36.813 -16.879)" fill="#c08dff"/>
    <path id="Path_2652" data-name="Path 2652" d="M142.993,222.478a100,100,0,0,1-16.965.031,1.535,1.535,0,0,1,.193-3.063,98.011,98.011,0,0,1,16.62.991c1.087.146,1.412,1.946.152,2.04" transform="translate(23.857 3.416)" fill="#d9bcff"/>
    <path id="Path_2653" data-name="Path 2653" d="M204.941,161.824l-3.9,13.57-5.461-1.065.532-2.73-1.55-.932-2.927,2.893-9.255-1.8-1.2-3.541,2.635-.589-3.4-1.136.739-3.791,2.942.258-4.037-1.1.916-4.7,9.406,1.832s-.609-6.574,2.17-8.709l2.123.414a11.6,11.6,0,0,0-.65,3.336,67.9,67.9,0,0,0,1.914,7.145l2.887,1.349.687-1.912Z" transform="translate(-146.472 -63.594)" fill="#fff"/>
    <path id="Path_2654" data-name="Path 2654" d="M176.324,143.241l-3.149,37.588h-69.22l-3.831,13.225-4.041-14.5-13.19-.766,6.082-33.666Z" transform="translate(73.504 -70.414)" fill="#d9bcff"/>
    <path id="Path_2655" data-name="Path 2655" d="M159.258,151.255a529.95,529.95,0,0,0-71.4,1.223c-.847.077-.853-1.264,0-1.329a523.546,523.546,0,0,1,71.4-1.048c.737.045.746,1.186,0,1.154" transform="translate(81.483 -64.52)" fill="#fff"/>
    <path id="Path_2656" data-name="Path 2656" d="M159.963,155.022a529.945,529.945,0,0,0-71.4,1.223c-.847.077-.851-1.264,0-1.329a523.546,523.546,0,0,1,71.4-1.048c.737.045.746,1.186,0,1.154" transform="translate(79.388 -60.867)" fill="#fff"/>
    <path id="Path_2657" data-name="Path 2657" d="M136.475,157.792c-16.012.546-31.843-.626-47.841.806-.847.077-.855-1.27,0-1.329,15.982-1.093,31.843-.394,47.841-.63a.577.577,0,0,1,0,1.154" transform="translate(102.745 -57.434)" fill="#fff"/>
  </g>
</svg>
