<svg xmlns="http://www.w3.org/2000/svg" width="59.29" height="59.29" viewBox="0 0 59.29 59.29">
  <g id="successesfull" transform="translate(-653.355 -254.355)">
    <path id="Icon_ionic-ios-checkmark-circle" data-name="Icon ionic-ios-checkmark-circle" d="M33.02,3.375a29.635,29.635,0,1,0,24.1,12.369A29.64,29.64,0,0,0,33.02,3.375Z" transform="translate(649.98 250.98)" fill="#c08dff"/>
    <path id="Icon_ionic-ios-checkmark-circle-2" data-name="Icon ionic-ios-checkmark-circle" d="M29.817,3.375A26.433,26.433,0,1,0,51.309,14.407,26.438,26.438,0,0,0,29.817,3.375Z" transform="translate(653.184 254.184)" fill="#d9bcff"/>
    <path id="Icon_ionic-ios-checkmark-circle-3" data-name="Icon ionic-ios-checkmark-circle" d="M22.248,3.375a18.866,18.866,0,1,0,15.34,7.874A18.87,18.87,0,0,0,22.248,3.375Z" transform="translate(660.752 261.754)" fill="#fff"/>
    <path id="Icon_ionic-ios-checkmark-circle-4" data-name="Icon ionic-ios-checkmark-circle" d="M26.372,3.375a23,23,0,1,0,23,23A22.993,22.993,0,0,0,26.372,3.375ZM38.146,20.014,23.364,34.863h-.011a2,2,0,0,1-1.283.608,1.936,1.936,0,0,1-1.294-.63l-6.191-6.191a.441.441,0,0,1,0-.63l1.968-1.968a.427.427,0,0,1,.619,0l4.909,4.909L35.57,17.372a.437.437,0,0,1,.31-.133h0a.4.4,0,0,1,.31.133l1.935,2A.436.436,0,0,1,38.146,20.014Z" transform="translate(656.629 257.629)" fill="#7522de"/>
  </g>
</svg>
