<svg xmlns="http://www.w3.org/2000/svg" width="19.709" height="19.711" viewBox="0 0 19.709 19.711">
  <g id="wallet_" data-name="wallet " transform="translate(-1.75 -2.25)">
    <g id="Wallet" transform="translate(2.5 3)">
      <path id="Stroke-1" d="M19.139,11.4H15.091a2.691,2.691,0,1,1,0-5.383h4.048" transform="translate(-0.93 0.263)" fill="none" stroke="#ffffff" stroke-linecap="round" stroke-linejoin="round" stroke-width="1.5" fill-rule="evenodd"/>
      <line id="Stroke-3" x1="0.312" transform="translate(14.484 8.906)" fill="none" stroke="#ffffff" stroke-linecap="round" stroke-linejoin="round" stroke-width="1.5"/>
      <path id="Stroke-5" d="M4.993,0h8.223a5.213,5.213,0,0,1,4.993,5.408v7.4a5.213,5.213,0,0,1-4.993,5.408H4.993A5.213,5.213,0,0,1,0,12.8v-7.4A5.213,5.213,0,0,1,4.993,0Z" transform="translate(0 0)" fill="none" stroke="#ffffff" stroke-linecap="round" stroke-linejoin="round" stroke-width="1.5" fill-rule="evenodd"/>
      <line id="Stroke-7" x2="5.399" transform="translate(4.229 4.676)" fill="none" stroke="#ffffff" stroke-linecap="round" stroke-linejoin="round" stroke-width="1.5"/>
    </g>
  </g>
</svg>
