<svg xmlns="http://www.w3.org/2000/svg" width="18" height="32" viewBox="0 0 18 32">
  <g id="right_arrow" data-name="right arrow" transform="translate(18) rotate(90)">
    <path id="Arrow---Down-2" d="M.483,17.512a1.628,1.628,0,0,0,2.329,0h0L17.165,2.855a1.691,1.691,0,0,0,0-2.367,1.624,1.624,0,0,0-2.326,0h0L.481,15.145A1.693,1.693,0,0,0,.483,17.512Zm28.7,0a1.628,1.628,0,0,0,2.329,0,1.693,1.693,0,0,0,.007-2.367h0L21.99,5.769a1.624,1.624,0,0,0-2.326,0,1.693,1.693,0,0,0-.007,2.367h0Z" transform="translate(0)" fill="#313131"/>
  </g>
</svg>
