<svg id="Add_Address" data-name="Add Address" xmlns="http://www.w3.org/2000/svg" width="60" height="60" viewBox="0 0 60 60">
  <g id="Rectangle_5750" data-name="Rectangle 5750" fill="#f8d40c" stroke="#f8d40c" stroke-width="0.5">
    <rect width="60" height="60" rx="10" stroke="none"/>
    <rect x="0.25" y="0.25" width="59.5" height="59.5" rx="9.75" fill="none"/>
  </g>
  <g id="Iconly_Broken_Location" data-name="Iconly/Broken/Location" transform="translate(15 12)">
    <g id="Location" transform="translate(0 0)">
      <path id="Path_27074" data-name="Path 27074" d="M15.36,0A15.309,15.309,0,0,1,30.6,15.341h0v.167c-.114,6.021-3.734,11.017-6.749,14.147a37.005,37.005,0,0,1-2.714,2.556,1.342,1.342,0,1,1-1.743-2.041c.872-.743,1.721-1.542,2.52-2.374,2.684-2.785,5.9-7.187,6-12.337A12.651,12.651,0,0,0,15.349,2.682H15.3A12.621,12.621,0,0,0,2.687,15.23a16.415,16.415,0,0,0,3.348,9.405,40.277,40.277,0,0,0,9.574,8.9,1.342,1.342,0,0,1-1.467,2.248A43.127,43.127,0,0,1,3.888,26.252,19.093,19.093,0,0,1,0,15.323,15.33,15.33,0,0,1,15.3,0h0ZM15.3,9.69a5.815,5.815,0,1,1-5.823,5.816,1.344,1.344,0,0,1,2.687,0A3.136,3.136,0,1,0,15.3,12.373a1.341,1.341,0,1,1,0-2.682Z" transform="translate(0 0)" fill="#111011"/>
    </g>
  </g>
</svg>
