<svg id="Log_Out" data-name="Log Out" xmlns="http://www.w3.org/2000/svg" width="60" height="60" viewBox="0 0 60 60">
  <g id="Rectangle_5752" data-name="Rectangle 5752" fill="#f8d40c" stroke="#f8d40c" stroke-width="0.5">
    <rect width="60" height="60" rx="10" stroke="none"/>
    <rect x="0.25" y="0.25" width="59.5" height="59.5" rx="9.75" fill="none"/>
  </g>
  <g id="Iconly_Broken_Logout" data-name="Iconly/Broken/Logout" transform="translate(15 16)">
    <g id="Logout" transform="translate(0 0)">
      <path id="Path_27076" data-name="Path 27076" d="M19.029,19.8a1.115,1.115,0,0,1,1.128,1.1h0v1.345a6.429,6.429,0,0,1-6.5,6.341H6.515A6.445,6.445,0,0,1,0,22.229a1.114,1.114,0,0,1,1.128-1.1,1.114,1.114,0,0,1,1.128,1.1,4.212,4.212,0,0,0,4.258,4.155h7.142A4.2,4.2,0,0,0,17.9,22.245h0V20.9A1.115,1.115,0,0,1,19.029,19.8Zm9.932-6.608A1.128,1.128,0,0,1,30,13.873a1.084,1.084,0,0,1-.246,1.2h0l-4.281,4.158a1.147,1.147,0,0,1-1.6,0,1.081,1.081,0,0,1,0-1.557h0l2.346-2.278H11.358a1.1,1.1,0,1,1,0-2.2h17.6ZM13.642,0a6.445,6.445,0,0,1,6.516,6.356h0V7.687a1.129,1.129,0,0,1-2.256,0h0V6.356A4.212,4.212,0,0,0,13.642,2.2H6.5A4.2,4.2,0,0,0,2.257,6.34h0V17.225a1.115,1.115,0,0,1-1.128,1.1A1.115,1.115,0,0,1,0,17.225H0V6.34A6.429,6.429,0,0,1,6.5,0h7.14ZM23.878,9.362a1.145,1.145,0,0,1,1.6-.009h0l1.078,1.041a1.081,1.081,0,0,1,.009,1.557,1.147,1.147,0,0,1-1.6.009h0l-1.08-1.042A1.08,1.08,0,0,1,23.878,9.362Z" transform="translate(0)" fill="#313131"/>
    </g>
  </g>
</svg>
