<svg xmlns="http://www.w3.org/2000/svg" xmlns:xlink="http://www.w3.org/1999/xlink" width="24" height="24" viewBox="0 0 24 24">
  <defs>
    <clipPath id="clip-path">
      <rect id="Rectangle_5986" data-name="Rectangle 5986" width="24" height="24" transform="translate(179 234)" fill="#f8d40c" stroke="#707070" stroke-width="1"/>
    </clipPath>
  </defs>
  <g id="Mask_Group_122" data-name="Mask Group 122" transform="translate(-179 -234)" clip-path="url(#clip-path)">
    <g id="Iconly_Broken_Edit-Square" data-name="Iconly/Broken/Edit-Square" transform="translate(177 232)">
      <g id="Edit-Square" transform="translate(2 2)">
        <path id="Path_28630" data-name="Path 28630" d="M23.11,11.292a.884.884,0,0,1,.885.883h0V16.92c0,4.235-2.728,7.08-6.791,7.08H6.79C2.728,24,0,21.155,0,16.92a.886.886,0,0,1,1.772,0c0,3.228,1.969,5.313,5.018,5.313H17.2c3.051,0,5.022-2.084,5.022-5.313h0V12.175A.883.883,0,0,1,23.11,11.292ZM21.31.92l.17.16,1.436,1.434a3.689,3.689,0,0,1,.168,5.042l-.168.179-8.861,8.847a3.424,3.424,0,0,1-2.187,1l-.249.009H7.2a.886.886,0,0,1-.876-.764l-.008-.141.112-4.452a3.427,3.427,0,0,1,.844-2.171l.164-.176,8.82-8.806A3.7,3.7,0,0,1,21.31.92ZM17.641,2.2l-.137.125-.726.725L19.026,5.3a.885.885,0,0,1-1.143,1.343l-.11-.093L15.526,4.3,8.685,11.135a1.665,1.665,0,0,0-.477.959l-.015.183-.088,3.545H11.62a1.664,1.664,0,0,0,1.043-.363l.142-.127,8.861-8.847A1.926,1.926,0,0,0,21.791,3.9l-.125-.137L20.229,2.329A1.934,1.934,0,0,0,17.641,2.2ZM11.2.045a.883.883,0,1,1,0,1.766H6.79c-3.049,0-5.019,2.086-5.019,5.314h0v4.523a.885.885,0,0,1-1.77,0H0V7.126C0,2.891,2.729.045,6.79.045H11.2Z" transform="translate(0 0)" fill="#f8d40c"/>
      </g>
    </g>
  </g>
</svg>
