<svg xmlns="http://www.w3.org/2000/svg" xmlns:xlink="http://www.w3.org/1999/xlink" width="23" height="23" viewBox="0 0 23 23">
  <defs>
    <clipPath id="clip-path">
      <rect id="Rectangle_5468" data-name="Rectangle 5468" width="23" height="23" transform="translate(0 0.367)" fill="#f8d40c" stroke="#707070" stroke-width="1"/>
    </clipPath>
  </defs>
  <g id="Mask_Group_23" data-name="Mask Group 23" transform="translate(0 -0.367)" clip-path="url(#clip-path)">
    <path id="Discount" d="M4.263,14.875a1.775,1.775,0,0,1,0-2.5l.837-.838A3.454,3.454,0,0,0,6.123,9.072v-1.2A1.762,1.762,0,0,1,7.878,6.118h1.2a3.456,3.456,0,0,0,2.465-1.023l.837-.837a1.778,1.778,0,0,1,2.476-.022l.023.022h0A.872.872,0,0,0,16.1,3.013a1.232,1.232,0,0,0-.14-.116,3.5,3.5,0,0,0-4.813.129l-.837.836a1.737,1.737,0,0,1-1.232.512h-1.2a3.5,3.5,0,0,0-3.5,3.5v1.2A1.743,1.743,0,0,1,3.867,10.3l-.849.849a3.508,3.508,0,0,0,.012,4.955.866.866,0,0,0,.616.255.9.9,0,0,0,.616-.255A.879.879,0,0,0,4.263,14.875Zm19.123-4.567.835.835a3.5,3.5,0,0,1,.013,4.951l-.849.849a1.774,1.774,0,0,0-.51,1.237v1.194a3.505,3.505,0,0,1-3.5,3.5.872.872,0,0,1,0-1.744,1.758,1.758,0,0,0,1.757-1.757v-1.2a3.477,3.477,0,0,1,1.02-2.468l.837-.838a1.757,1.757,0,0,0,0-2.495l-.838-.838A3.488,3.488,0,0,1,21.13,9.071v-1.2a1.758,1.758,0,0,0-1.757-1.757.872.872,0,0,1,0-1.744,3.5,3.5,0,0,1,3.5,3.5v1.2A1.755,1.755,0,0,0,23.386,10.308Zm-9.76,13.2a1.658,1.658,0,0,0,1.246-.519.872.872,0,1,1,1.236,1.232,3.506,3.506,0,0,1-4.95.013l-.849-.849a1.754,1.754,0,0,0-1.238-.511H7.877a3.5,3.5,0,0,1-3.5-3.5.872.872,0,1,1,1.744,0,1.757,1.757,0,0,0,1.757,1.756h1.2a3.487,3.487,0,0,1,2.467,1.019l.838.84A1.751,1.751,0,0,0,13.625,23.51ZM10.021,16a.872.872,0,0,0,1.234,1.234l5.975-5.978A.872.872,0,1,0,16,10.018Zm.606-6.352a1.009,1.009,0,1,1-1.009,1.009A1.01,1.01,0,0,1,10.627,9.644Zm5.986,5.962A1.009,1.009,0,1,1,15.6,16.616,1.01,1.01,0,0,1,16.613,15.607Z" transform="translate(-2 -2.29)" fill="#f8d40c" fill-rule="evenodd"/>
  </g>
</svg>
