<svg xmlns="http://www.w3.org/2000/svg" xmlns:xlink="http://www.w3.org/1999/xlink" width="38" height="38" viewBox="0 0 38 38">
  <defs>
    <clipPath id="clip-path">
      <rect id="Rectangle_6097" data-name="Rectangle 6097" width="38" height="38" fill="#fff" stroke="#707070" stroke-width="1"/>
    </clipPath>
  </defs>
  <g id="Mask_Group_145" data-name="Mask Group 145" clip-path="url(#clip-path)">
    <g id="Iconly_Broken_Close-Square" data-name="Iconly/Broken/Close-Square" transform="translate(3 3)">
      <g id="Close-Square">
        <path id="Path_29301" data-name="Path 29301" d="M22,0c6.139,0,10,3.827,10,10h0v4.11a1.211,1.211,0,0,1-1.21,1.21h-.014V15.3a1.223,1.223,0,0,1-1.224-1.221h0V10c0-4.885-2.672-7.557-7.542-7.557h-12C5.136,2.448,2.448,5.136,2.448,10h0V22c0,4.854,2.688,7.542,7.557,7.542H22c4.869,0,7.542-2.688,7.542-7.542a1.224,1.224,0,1,1,2.448,0c0,6.168-3.822,10-9.986,10H10c-6.178,0-10-3.827-10-9.99H0v-12C0,3.827,3.827,0,10,0H22ZM12.5,17.833a1.224,1.224,0,1,1,1.67,1.79h0l-1.09,1.09a1.222,1.222,0,0,1-1.7-.029h0l-.035-.026a1.238,1.238,0,0,1,.061-1.731h0Zm-.917-6.807a1.209,1.209,0,0,1,1.71-.021l.013.011h0L16.294,14l2.715-2.717a1.253,1.253,0,0,1,1.741.011,1.176,1.176,0,0,1,.216.293,1.228,1.228,0,0,1-.2,1.48h0l-2.7,2.7,2.941,2.942a1.233,1.233,0,0,1,.045,1.746c-.006.01-.016.016-.024.026a1.227,1.227,0,0,1-1.712.019h0l-.061-.059L11.607,12.8A1.308,1.308,0,0,1,11.586,11.026Z" fill="#fff"/>
      </g>
    </g>
  </g>
</svg>
