<svg xmlns="http://www.w3.org/2000/svg" xmlns:xlink="http://www.w3.org/1999/xlink" width="25" height="25" viewBox="0 0 25 25">
  <defs>
    <clipPath id="clip-path">
      <rect id="Rectangle_6051" data-name="Rectangle 6051" width="25" height="25" transform="translate(1286 260)" fill="#313131" stroke="#707070" stroke-width="1"/>
    </clipPath>
  </defs>
  <g id="delete" transform="translate(-1286 -260)" clip-path="url(#clip-path)">
    <g id="Iconly_Broken_Delete" data-name="Iconly/Broken/Delete" transform="translate(1287.25 260)">
      <g id="Delete-2" data-name="Delete" transform="translate(0 0)">
        <path id="Path_28642" data-name="Path 28642" d="M19.99,8.417a.908.908,0,0,1,.817.986c-.006.084-.668,8.49-1.05,12.016a3.647,3.647,0,0,1-3.751,3.535c-1.607.03-2,.046-3.6.046h-.913a.915.915,0,0,1,0-1.829h.453c.571,0,1.029,0,1.465,0l.648-.007c.545-.008,1.124-.019,1.915-.033a1.867,1.867,0,0,0,2.011-1.907c.379-3.5,1.04-11.88,1.046-11.964A.913.913,0,0,1,19.99,8.417Zm-17.479,0a.912.912,0,0,1,.961.84c.006.084.662,8.44,1.045,11.969a1.844,1.844,0,0,0,1.928,1.9.915.915,0,0,1-.018,1.829H6.407a3.644,3.644,0,0,1-3.665-3.521C2.357,17.871,1.7,9.486,1.693,9.4A.908.908,0,0,1,2.51,8.416ZM13.835,0a2.471,2.471,0,0,1,2.372,1.867.918.918,0,0,1-.63,1.121.89.89,0,0,1-1.092-.647.677.677,0,0,0-.65-.511H8.665a.677.677,0,0,0-.65.511h0L7.731,3.807a3.107,3.107,0,0,1-.173.564h14.05a.915.915,0,0,1,0,1.829H.891a.915.915,0,0,1,0-1.829H4.884a1.13,1.13,0,0,0,1.1-.921h0l.3-1.525A2.487,2.487,0,0,1,8.665,0h5.171Z" transform="translate(0 0)" fill="#313131"/>
      </g>
    </g>
  </g>
</svg>
