<svg xmlns="http://www.w3.org/2000/svg" xmlns:xlink="http://www.w3.org/1999/xlink" width="20.299" height="20.299" viewBox="0 0 20.299 20.299">
  <defs>
    <clipPath id="clip-path">
      <rect id="Rectangle_6052" data-name="Rectangle 6052" width="20.299" height="20.299" transform="translate(1226 260)" fill="#313131" stroke="#707070" stroke-width="1"/>
    </clipPath>
  </defs>
  <g id="edit_B" data-name="edit B" transform="translate(-1226 -260)" clip-path="url(#clip-path)">
    <g id="Iconly_Broken_Edit-Square" data-name="Iconly/Broken/Edit-Square" transform="translate(1226 260)">
      <g id="Edit-Square" transform="translate(0 0)">
        <path id="Path_28641" data-name="Path 28641" d="M19.547,9.551a.748.748,0,0,1,.748.747h0v4.013c0,3.582-2.308,5.988-5.744,5.988H5.743C2.308,20.3,0,17.893,0,14.311a.749.749,0,0,1,1.5,0c0,2.73,1.665,4.493,4.244,4.493h8.808c2.58,0,4.248-1.763,4.248-4.493h0V10.3A.747.747,0,0,1,19.547,9.551ZM18.024.778l.144.135,1.215,1.213a3.12,3.12,0,0,1,.142,4.265l-.142.151-7.495,7.482a2.9,2.9,0,0,1-1.85.845l-.211.007H6.087a.749.749,0,0,1-.741-.646l-.007-.119.095-3.766A2.9,2.9,0,0,1,6.147,8.51l.139-.149L13.746.913A3.133,3.133,0,0,1,18.024.778Zm-3.1,1.086L14.8,1.97l-.614.613,1.9,1.9a.748.748,0,0,1-.966,1.136l-.093-.078-1.9-1.9L7.345,9.418a1.409,1.409,0,0,0-.4.812l-.013.155-.074,3H9.828a1.407,1.407,0,0,0,.882-.307l.12-.107,7.495-7.482A1.629,1.629,0,0,0,18.431,3.3l-.106-.116L17.11,1.97A1.635,1.635,0,0,0,14.921,1.865ZM9.475.038a.747.747,0,1,1,0,1.494H5.743C3.164,1.533,1.5,3.3,1.5,6.027h0V9.852a.749.749,0,0,1-1.5,0H0V6.027C0,2.445,2.308.038,5.743.038H9.475Z" transform="translate(0 0)" fill="#313131"/>
      </g>
    </g>
  </g>
</svg>
