<svg id="Group_966" data-name="Group 966" xmlns="http://www.w3.org/2000/svg" xmlns:xlink="http://www.w3.org/1999/xlink" width="255.662" height="60.264" viewBox="0 0 255.662 60.264">
  <defs>
    <clipPath id="clip-path">
      <rect id="Rectangle_5715" data-name="Rectangle 5715" width="255.662" height="60.264" fill="none"/>
    </clipPath>
    <clipPath id="clip-path-2">
      <path id="Path_26990" data-name="Path 26990" d="M461.794,63.1a9.7,9.7,0,1,0,19.4,0c0-5.357-4.343-13.769-9.7-13.769s-9.7,8.412-9.7,13.769" transform="translate(-461.794 -49.336)" fill="none"/>
    </clipPath>
  </defs>
  <path id="Path_26967" data-name="Path 26967" d="M273.688,201.436h-3.14v2.913h3.5v.875H269.5v-8.079h4.363v.875h-3.32v2.553h3.14Z" transform="translate(-200.2 -147.957)" fill="#fff"/>
  <g id="Group_961" data-name="Group 961">
    <g id="Group_960" data-name="Group 960" clip-path="url(#clip-path)">
      <path id="Path_26968" data-name="Path 26968" d="M293.04,203.512a6.409,6.409,0,0,1-2.112.378,3.231,3.231,0,0,1-3.531-3.47,3.45,3.45,0,0,1,3.725-3.552,4.252,4.252,0,0,1,1.714.316l-.214.725a3.566,3.566,0,0,0-1.521-.3,2.573,2.573,0,0,0-2.766,2.766,2.521,2.521,0,0,0,2.654,2.776,2.9,2.9,0,0,0,1.184-.184V200.92h-1.4v-.714h2.266Z" transform="translate(-213.292 -146.106)" fill="#fff"/>
      <path id="Path_26969" data-name="Path 26969" d="M318.61,203.512a6.409,6.409,0,0,1-2.112.378,3.231,3.231,0,0,1-3.531-3.47,3.45,3.45,0,0,1,3.725-3.552,4.251,4.251,0,0,1,1.714.316l-.214.725a3.566,3.566,0,0,0-1.52-.3,2.573,2.573,0,0,0-2.766,2.766,2.521,2.521,0,0,0,2.654,2.776,2.9,2.9,0,0,0,1.184-.184V200.92h-1.4v-.714h2.266Z" transform="translate(-232.268 -146.106)" fill="#fff"/>
      <path id="Path_26970" data-name="Path 26970" d="M340.119,197.145h.888v6.134h2.939v.745h-3.827Z" transform="translate(-252.42 -146.312)" fill="#fff"/>
      <path id="Path_26971" data-name="Path 26971" d="M362.363,200.8h-2.674v2.48h2.98v.745H358.8v-6.879h3.715v.745h-2.827v2.174h2.674Z" transform="translate(-266.285 -146.312)" fill="#fff"/>
      <path id="Path_26972" data-name="Path 26972" d="M377.155,202.619a3.149,3.149,0,0,0,1.592.449c.908,0,1.439-.48,1.439-1.173,0-.643-.367-1.011-1.3-1.368-1.122-.4-1.816-.98-1.816-1.949a1.98,1.98,0,0,1,2.225-1.868,3.126,3.126,0,0,1,1.521.337l-.245.725a2.741,2.741,0,0,0-1.306-.327c-.939,0-1.3.562-1.3,1.031,0,.643.418.959,1.367,1.327,1.163.449,1.755,1.01,1.755,2.02,0,1.062-.786,1.98-2.409,1.98a3.554,3.554,0,0,1-1.755-.439Z" transform="translate(-279.739 -145.989)" fill="#fff"/>
      <path id="Path_26973" data-name="Path 26973" d="M396.669,202.619a3.149,3.149,0,0,0,1.592.449c.908,0,1.439-.48,1.439-1.173,0-.643-.367-1.011-1.3-1.368-1.123-.4-1.817-.98-1.817-1.949a1.98,1.98,0,0,1,2.225-1.868,3.125,3.125,0,0,1,1.521.337l-.245.725a2.741,2.741,0,0,0-1.307-.327c-.939,0-1.3.562-1.3,1.031,0,.643.419.959,1.368,1.327,1.163.449,1.755,1.01,1.755,2.02,0,1.062-.786,1.98-2.409,1.98a3.555,3.555,0,0,1-1.755-.439Z" transform="translate(-294.222 -145.989)" fill="#fff"/>
      <rect id="Rectangle_5712" data-name="Rectangle 5712" width="0.684" height="10.206" transform="translate(109.866 50.058)" fill="#fff"/>
      <path id="Path_26974" data-name="Path 26974" d="M443.546,197.145h3.7v.745h-2.817v2.286h2.6v.735h-2.6v3.113h-.888Z" transform="translate(-329.178 -146.312)" fill="#fff"/>
      <path id="Path_26975" data-name="Path 26975" d="M462.823,197.09a9.228,9.228,0,0,1,1.7-.143,2.813,2.813,0,0,1,1.99.561,1.714,1.714,0,0,1,.541,1.306,1.806,1.806,0,0,1-1.3,1.756v.03a1.715,1.715,0,0,1,1.01,1.388,10.958,10.958,0,0,0,.531,1.888h-.918a8.929,8.929,0,0,1-.459-1.643c-.2-.949-.572-1.306-1.378-1.337h-.837v2.98h-.888Zm.888,3.133h.908c.949,0,1.552-.521,1.552-1.306,0-.888-.643-1.276-1.582-1.286a3.654,3.654,0,0,0-.878.082Z" transform="translate(-343.485 -146.165)" fill="#fff"/>
      <path id="Path_26976" data-name="Path 26976" d="M487.68,200.8h-2.674v2.48h2.98v.745h-3.868v-6.879h3.715v.745h-2.827v2.174h2.674Z" transform="translate(-359.289 -146.312)" fill="#fff"/>
      <path id="Path_26977" data-name="Path 26977" d="M502.472,202.619a3.149,3.149,0,0,0,1.592.449c.908,0,1.439-.48,1.439-1.173,0-.643-.367-1.011-1.3-1.368-1.123-.4-1.817-.98-1.817-1.949a1.98,1.98,0,0,1,2.225-1.868,3.126,3.126,0,0,1,1.521.337l-.245.725a2.742,2.742,0,0,0-1.307-.327c-.939,0-1.3.562-1.3,1.031,0,.643.418.959,1.368,1.327,1.164.449,1.755,1.01,1.755,2.02,0,1.062-.786,1.98-2.408,1.98a3.554,3.554,0,0,1-1.755-.439Z" transform="translate(-372.744 -145.989)" fill="#fff"/>
      <path id="Path_26978" data-name="Path 26978" d="M523.994,197.145v2.878h3.327v-2.878h.9v6.879h-.9V200.8h-3.327v3.225h-.888v-6.879Z" transform="translate(-388.224 -146.312)" fill="#fff"/>
      <rect id="Rectangle_5713" data-name="Rectangle 5713" width="0.684" height="10.206" transform="translate(143.802 50.058)" fill="#fff"/>
      <path id="Path_26979" data-name="Path 26979" d="M575.156,197.08a10.3,10.3,0,0,1,1.7-.133,2.826,2.826,0,0,1,1.929.572,1.85,1.85,0,0,1,.6,1.439,2.025,2.025,0,0,1-.531,1.47,2.85,2.85,0,0,1-2.1.755,3.053,3.053,0,0,1-.715-.061v2.756h-.888Zm.888,3.317a2.974,2.974,0,0,0,.735.071c1.072,0,1.725-.521,1.725-1.47,0-.908-.643-1.347-1.623-1.347a3.729,3.729,0,0,0-.837.071Z" transform="translate(-426.853 -146.165)" fill="#fff"/>
      <path id="Path_26980" data-name="Path 26980" d="M592.5,201.86l-.714,2.164h-.919l2.337-6.879h1.071l2.347,6.879h-.949l-.735-2.164Zm2.256-.694-.674-1.98c-.153-.449-.255-.857-.357-1.255h-.02c-.1.408-.214.827-.347,1.245l-.674,1.99Z" transform="translate(-438.515 -146.312)" fill="#fff"/>
      <path id="Path_26981" data-name="Path 26981" d="M615.993,202.619a3.149,3.149,0,0,0,1.592.449c.908,0,1.439-.48,1.439-1.173,0-.643-.368-1.011-1.3-1.368-1.123-.4-1.817-.98-1.817-1.949a1.98,1.98,0,0,1,2.225-1.868,3.126,3.126,0,0,1,1.521.337l-.245.725a2.742,2.742,0,0,0-1.307-.327c-.939,0-1.3.562-1.3,1.031,0,.643.418.959,1.368,1.327,1.164.449,1.755,1.01,1.755,2.02,0,1.062-.786,1.98-2.408,1.98a3.554,3.554,0,0,1-1.755-.439Z" transform="translate(-456.993 -145.989)" fill="#fff"/>
      <path id="Path_26982" data-name="Path 26982" d="M635.672,197.9H633.58v-.755h5.093v.755h-2.1v6.124h-.9Z" transform="translate(-470.213 -146.312)" fill="#fff"/>
      <path id="Path_26983" data-name="Path 26983" d="M656.3,197.09a9.23,9.23,0,0,1,1.7-.143,2.814,2.814,0,0,1,1.99.561,1.714,1.714,0,0,1,.541,1.306,1.806,1.806,0,0,1-1.3,1.756v.03a1.715,1.715,0,0,1,1.01,1.388,10.969,10.969,0,0,0,.531,1.888h-.919a8.933,8.933,0,0,1-.459-1.643c-.2-.949-.572-1.306-1.378-1.337h-.837v2.98H656.3Zm.888,3.133h.908c.949,0,1.551-.521,1.551-1.306,0-.888-.643-1.276-1.582-1.286a3.654,3.654,0,0,0-.878.082Z" transform="translate(-487.074 -146.165)" fill="#fff"/>
      <rect id="Rectangle_5714" data-name="Rectangle 5714" width="0.888" height="6.879" transform="translate(174.716 50.834)" fill="#fff"/>
      <path id="Path_26984" data-name="Path 26984" d="M690.617,200.8h-2.674v2.48h2.98v.745h-3.868v-6.879h3.715v.745h-2.827v2.174h2.674Z" transform="translate(-509.899 -146.312)" fill="#fff"/>
      <path id="Path_26985" data-name="Path 26985" d="M705.408,202.619a3.15,3.15,0,0,0,1.592.449c.908,0,1.439-.48,1.439-1.173,0-.643-.367-1.011-1.3-1.368-1.122-.4-1.816-.98-1.816-1.949a1.981,1.981,0,0,1,2.225-1.868,3.127,3.127,0,0,1,1.521.337l-.245.725a2.741,2.741,0,0,0-1.307-.327c-.939,0-1.3.562-1.3,1.031,0,.643.418.959,1.367,1.327,1.164.449,1.755,1.01,1.755,2.02,0,1.062-.786,1.98-2.408,1.98a3.554,3.554,0,0,1-1.755-.439Z" transform="translate(-523.354 -145.989)" fill="#fff"/>
      <path id="Path_26986" data-name="Path 26986" d="M470.054,69.319a8.26,8.26,0,0,1-8.26-8.26c0-4.562,3.7-11.724,8.26-11.724s8.26,7.162,8.26,11.724a8.26,8.26,0,0,1-8.26,8.26" transform="translate(-342.721 -36.614)" fill="#f8d40c"/>
      <path id="Path_26987" data-name="Path 26987" d="M500.222,74.485a2.722,2.722,0,1,1-2.693-2.325,2.529,2.529,0,0,1,2.693,2.325" transform="translate(-367.244 -53.554)" fill="#fff"/>
      <path id="Path_26988" data-name="Path 26988" d="M470.574,68.28a7.74,7.74,0,0,1-7.74-7.74c0-4.187,3.326-11.06,7.48-11.2-.087,0-.173-.007-.26-.007-4.561,0-8.26,7.162-8.26,11.724a8.26,8.26,0,1,0,16.519,0c0-.087,0-.174-.006-.26a7.738,7.738,0,0,1-7.733,7.48" transform="translate(-342.721 -36.615)" fill="#cdb00c"/>
      <path id="Path_26989" data-name="Path 26989" d="M470.054,69.319a8.26,8.26,0,0,1-8.26-8.26c0-4.562,3.7-11.724,8.26-11.724s8.26,7.162,8.26,11.724a8.26,8.26,0,0,1-8.26,8.26" transform="translate(-342.721 -36.614)" fill="#f8d40c"/>
    </g>
  </g>
  <g id="Group_963" data-name="Group 963" transform="translate(117.638 11.62)">
    <g id="Group_962" data-name="Group 962" clip-path="url(#clip-path-2)">
      <rect id="Rectangle_5716" data-name="Rectangle 5716" width="24.108" height="1.674" transform="matrix(0.5, -0.866, 0.866, 0.5, 3.647, 22.578)" fill="#313131"/>
    </g>
  </g>
  <g id="Group_965" data-name="Group 965">
    <g id="Group_964" data-name="Group 964" clip-path="url(#clip-path)">
      <path id="Path_26991" data-name="Path 26991" d="M743.831,31.906H747L731.613,46.391,730.68,44.7Z" transform="translate(-542.276 -23.679)" fill="#f8d40c"/>
      <rect id="Rectangle_5717" data-name="Rectangle 5717" width="2.37" height="27.073" transform="translate(88.288 9.65)" fill="#f8d40c"/>
      <rect id="Rectangle_5718" data-name="Rectangle 5718" width="2.37" height="27.073" transform="translate(213.226 9.65)" fill="#f8d40c"/>
      <rect id="Rectangle_5719" data-name="Rectangle 5719" width="18.216" height="1.629" transform="translate(1.176 9.177)" fill="#f8d40c"/>
      <path id="Path_26992" data-name="Path 26992" d="M219.835,32.028h3.673v27.28l-3.673-5.332Z" transform="translate(-163.151 -23.77)" fill="#f8d40c"/>
      <path id="Path_26993" data-name="Path 26993" d="M110.819,35.589h4.562a7.109,7.109,0,0,1,0,14.218h-4.562Z" transform="translate(-82.245 -26.412)" fill="#f8d40c"/>
      <path id="Path_26994" data-name="Path 26994" d="M599.194,37.427,604.614,56H591.107Z" transform="translate(-438.691 -27.777)" fill="#f8d40c"/>
      <path id="Path_26995" data-name="Path 26995" d="M11.558,61.348V33.641H3.013V31.915H22.045v1.726H13.5V61.348Z" transform="translate(-2.236 -23.686)" fill="#fff"/>
      <path id="Path_26996" data-name="Path 26996" d="M118.026,48.228l10.314,13.12H126.1L115.868,48.314h-6.43V61.348h-1.985V31.915h8.8q5.006,0,7.315,2.287a8.073,8.073,0,0,1,2.309,6,7.472,7.472,0,0,1-2.114,5.416,9.22,9.22,0,0,1-5.74,2.611m5.783-8.027a6.266,6.266,0,0,0-1.855-4.855,7.573,7.573,0,0,0-5.309-1.7h-7.207V46.588h7.25a7.184,7.184,0,0,0,5.244-1.834,6.11,6.11,0,0,0,1.877-4.553" transform="translate(-79.746 -23.686)" fill="#fff"/>
      <path id="Path_26997" data-name="Path 26997" d="M226.778,62.3a10.444,10.444,0,0,1-7.6-3.042q-3.107-3.042-3.107-9.516V31.915h1.942V50.3a11.329,11.329,0,0,0,2.33,7.445,7.88,7.88,0,0,0,6.43,2.826q4.531,0,6.668-2.74a11.958,11.958,0,0,0,2.136-7.531V31.915h1.942V49.652q0,6.56-2.978,9.6a10.385,10.385,0,0,1-7.768,3.042" transform="translate(-160.361 -23.686)" fill="#fff"/>
      <path id="Path_26998" data-name="Path 26998" d="M354.4,31.915v1.726H340.2V45.207h13.724v1.726H340.2V59.621h14.673v1.726H338.256V31.915Z" transform="translate(-251.037 -23.686)" fill="#fff"/>
      <path id="Path_26999" data-name="Path 26999" d="M450.855,28.233a14.565,14.565,0,0,1,8.61,2.4,14.274,14.274,0,0,1,4.984,6.107h-2.2a10.617,10.617,0,0,0-4.337-4.942,13.346,13.346,0,0,0-7.1-1.834,12.9,12.9,0,0,0-9.193,3.69q-3.883,3.69-3.884,10.207a14.084,14.084,0,0,0,3.711,10.012,13.706,13.706,0,0,0,16.68,2.029,12.068,12.068,0,0,0,4.467-5.395h2.2q-3.971,9.062-13.94,9.063a14.446,14.446,0,0,1-10.962-4.445,15.739,15.739,0,0,1-4.229-11.307,15.141,15.141,0,0,1,4.423-11.134,14.621,14.621,0,0,1,10.768-4.445" transform="translate(-323.329 -20.953)" fill="#fff"/>
      <path id="Path_27000" data-name="Path 27000" d="M571.4,61.348l12.472-29.433h1.9l12.472,29.433h-2.028l-3.539-8.372h-15.8l-3.5,8.372Zm10.357-19.809-4.143,9.71h14.328l-4.273-10.012q-1.295-2.934-2.8-7.034h-.173q-.216.6-.885,2.244t-1.187,2.978q-.518,1.338-.863,2.115" transform="translate(-424.067 -23.686)" fill="#fff"/>
      <path id="Path_27001" data-name="Path 27001" d="M726.746,61.348,712.116,46.2q-.6.562-1.769,1.619t-1.77,1.575V61.348h-1.942V31.915h1.942V47.236l16.658-15.321h2.719l-14.5,13.076,15.882,16.356Z" transform="translate(-524.431 -23.686)" fill="#fff"/>
      <path id="Path_27002" data-name="Path 27002" d="M837.593,31.915v1.726h-14.2V45.207h13.724v1.726H823.395V59.621h14.673v1.726H821.452V31.915Z" transform="translate(-609.642 -23.686)" fill="#fff"/>
      <path id="Path_27003" data-name="Path 27003" d="M452.322,12.761,450.25,8.235l1.447-.662a2.159,2.159,0,0,1,1.406-.2,1.419,1.419,0,0,1,.971.868,1.511,1.511,0,0,1,.059,1.285,2.112,2.112,0,0,1-1.13.987l-.465.212.732,1.6Zm.8-4.068a.766.766,0,0,0-.423-.416.855.855,0,0,0-.675.068l-.478.219.641,1.4.458-.209q.8-.365.477-1.061" transform="translate(-334.154 -5.44)" fill="#fff"/>
      <path id="Path_27004" data-name="Path 27004" d="M471.138,5.9a1.882,1.882,0,0,1-1.449-.231,2.187,2.187,0,0,1-.83-1.486l-.591-2.948,1.023-.205.607,3.027a1.432,1.432,0,0,0,.386.794.727.727,0,0,0,.672.178q.844-.169.617-1.307L470.965.692l1.016-.2.588,2.934a2.255,2.255,0,0,1-.178,1.692,1.84,1.84,0,0,1-1.254.784" transform="translate(-347.525 -0.363)" fill="#fff"/>
      <path id="Path_27005" data-name="Path 27005" d="M491.449,2.956l1.468,2.153-1.241-.042-1.284-2-.328-.011L490,5.01l-1.043-.035L489.124,0l1.546.052a2.056,2.056,0,0,1,1.423.472,1.431,1.431,0,0,1,.416,1.109,1.364,1.364,0,0,1-.314.866,1.387,1.387,0,0,1-.746.457m-.014-1.315a.7.7,0,0,0-.179-.539.788.788,0,0,0-.563-.209l-.554-.019-.048,1.415.562.019a.784.784,0,0,0,.561-.171.654.654,0,0,0,.221-.5" transform="translate(-362.88)" fill="#fff"/>
      <path id="Path_27006" data-name="Path 27006" d="M508.917,2.181l-.219.878-1.87-.466-.259,1.041,1.806.449-.208.836-1.806-.449-.3,1.2,1.948.485-.219.878-2.961-.737,1.2-4.83Z" transform="translate(-374.662 -1.086)" fill="#fff"/>
      <path id="Path_27007" data-name="Path 27007" d="M534.158,11.519l-4.2,3.247-.8-.5,1.093-5.182.948.59-.653,2.722a9.432,9.432,0,0,1-.307,1.073l.019.011q.269-.28.831-.755l2.156-1.779Z" transform="translate(-392.714 -6.743)" fill="#fff"/>
      <path id="Path_27008" data-name="Path 27008" d="M544.411,24.024l-.635.646L542.4,23.319l-.752.765,1.327,1.3-.6.614-1.327-1.3-.865.88,1.431,1.407-.635.645L538.8,25.492l3.49-3.55Z" transform="translate(-399.874 -16.284)" fill="#fff"/>
      <path id="Path_27009" data-name="Path 27009" d="M554.467,40.435l1.467,2.388-.205.126a3.164,3.164,0,0,1-.709.324,2.8,2.8,0,0,1-.773.128,2.431,2.431,0,0,1-.774-.1,2.218,2.218,0,0,1-.733-.4,2.743,2.743,0,0,1-.626-.72,2.482,2.482,0,0,1-.334-1.979,2.558,2.558,0,0,1,1.2-1.592,2.622,2.622,0,0,1,2.012-.371,2.484,2.484,0,0,1,1.615,1.184,2.692,2.692,0,0,1,.439,1.5,2.2,2.2,0,0,1-.5,1.347l-.592-.964a1.16,1.16,0,0,0,.156-.674,1.582,1.582,0,0,0-.246-.727,1.458,1.458,0,0,0-.985-.7,2.033,2.033,0,0,0-2.165,1.335,1.537,1.537,0,0,0,.209,1.238,1.337,1.337,0,0,0,.767.608,1.276,1.276,0,0,0,.938-.062l-.886-1.443Z" transform="translate(-409.446 -28.33)" fill="#fff"/>
      <path id="Path_27010" data-name="Path 27010" d="M932.672,31.915l-.617,12.777-4.584-2.909-1.146-4.849,2.38-3.156Z" transform="translate(-687.474 -23.686)" fill="#f8d40c"/>
      <path id="Path_27011" data-name="Path 27011" d="M963.89,91.847v12.777l5.2-2.909,1.146-4.849-2.38-3.156Z" transform="translate(-715.353 -68.165)" fill="#f8d40c"/>
      <path id="Path_27012" data-name="Path 27012" d="M934.919,37.016h-1.883a5.943,5.943,0,0,0-2.03-3.83,6.382,6.382,0,0,0-4.374-1.527A7.6,7.6,0,0,0,921.882,33a4.482,4.482,0,0,0-1.737,3.767,4.586,4.586,0,0,0,1.59,3.641,20.435,20.435,0,0,0,5.859,2.972,14.97,14.97,0,0,1,6.131,3.7,7.537,7.537,0,0,1,1.779,5.085,7.758,7.758,0,0,1-2.469,6.048,9.41,9.41,0,0,1-6.571,2.239,9.746,9.746,0,0,1-6.592-2.114A8.353,8.353,0,0,1,917.09,52.5h1.884a6.59,6.59,0,0,0,2.406,4.75,8.03,8.03,0,0,0,5.085,1.611,7.513,7.513,0,0,0,5.19-1.716,6.012,6.012,0,0,0,1.925-4.729A6.416,6.416,0,0,0,932.115,48q-1.465-1.653-5.692-3.2a17.793,17.793,0,0,1-6.383-3.515,6.182,6.182,0,0,1-1.82-4.52,5.965,5.965,0,0,1,2.281-4.813,9.13,9.13,0,0,1,6.006-1.883,8.518,8.518,0,0,1,5.943,2.009,7.294,7.294,0,0,1,2.469,4.939" transform="translate(-680.62 -22.316)" fill="#fff"/>
      <path id="Path_27013" data-name="Path 27013" d="M58.52,211.419H.777a.777.777,0,0,1,0-1.554H58.52a.777.777,0,0,1,0,1.554" transform="translate(0 -155.752)" fill="#f8d40c"/>
      <path id="Path_27014" data-name="Path 27014" d="M818.406,211.419H760.084a.777.777,0,0,1,0-1.554h58.322a.777.777,0,0,1,0,1.554" transform="translate(-563.521 -155.752)" fill="#f8d40c"/>
    </g>
  </g>
</svg>
